<svg width="226" height="260" viewBox="0 0 226 260" fill="none" xmlns="http://www.w3.org/2000/svg">
    <path fill-rule="evenodd" clip-rule="evenodd" d="M98 164.979C98 172.158 103.82 177.979 111 177.979L198.426 177.979C207.415 177.978 214.702 170.691 214.702 161.702C214.702 152.713 207.415 145.426 198.426 145.426L111 145.426C103.82 145.426 98 151.246 98 158.426L98 164.979Z" fill="#F0997D"/>
    <path d="M195.5 137C192.462 137 190 139.462 190 142.5L190 155.5C190 158.538 192.462 161 195.5 161C198.538 161 201 158.538 201 155.5L201 142.5C201 139.462 198.538 137 195.5 137Z" fill="#9D2733"/>
    <path d="M172 142.766C169.239 142.766 167 145.004 167 147.766L167 175.766C167 178.527 169.239 180.766 172 180.766L196 180.766C198.761 180.766 201 178.527 201 175.766L201 147.766C201 145.004 198.761 142.766 196 142.766L172 142.766Z" fill="#9D2733"/>
    <path d="M197 140.766C185.402 140.766 176 150.168 176 161.766C176 173.364 185.402 182.766 197 182.766C208.598 182.766 218 173.364 218 161.766C218 150.168 208.598 140.766 197 140.766Z" fill="#9D2733"/>
    <path d="M117.312 195.588C117.13 194.662 116.325 193.989 115.382 193.974L55.3944 193.022C54.5566 193.009 53.7993 193.519 53.4972 194.301L44.0453 218.752C43.0215 221.401 41.5863 223.871 39.7927 226.073L29.9885 238.105C28.3916 240.065 29.7862 243 32.3142 243H58.4228C60.0398 243 61.5571 242.218 62.4952 240.901L71.2683 228.585C73.0758 226.047 74.4305 223.216 75.2725 220.217L77.5903 211.959C77.8326 211.096 78.6195 210.5 79.5159 210.5H87.6721C88.4767 210.5 89.2031 210.982 89.5153 211.724L94.7986 224.272C94.9307 224.585 94.9805 224.928 94.9435 225.266L93.2431 240.782C93.1133 241.966 94.0403 243 95.2312 243H119.205C120.226 243 121.083 242.23 121.193 241.215L122.967 224.802C122.989 224.602 122.98 224.399 122.941 224.201L117.312 195.588Z" fill="#1E1E1E"/>
    <path d="M126.872 147H42.234V198.17C42.234 199.275 43.1294 200.17 44.234 200.17H124.872C125.977 200.17 126.872 199.275 126.872 198.17V147Z" fill="#D6D6D6"/>
    <path d="M126.872 155.681H42.234V198.17C42.234 199.275 43.1294 200.17 44.234 200.17H124.872C125.977 200.17 126.872 199.275 126.872 198.17V155.681Z" fill="#EBEBEB"/>
    <path fill-rule="evenodd" clip-rule="evenodd" d="M36.7871 147C29.6074 147 23.7871 152.82 23.7871 160V192.724C23.7872 201.713 31.0744 209 40.0635 209C49.0527 209 56.3407 201.713 56.3408 192.724V160C56.3408 152.82 50.5195 147 43.3398 147H36.7871Z" fill="#F0997D"/>
    <path d="M29.0291 204.817C35.3348 211.224 45.6406 211.305 52.0473 205L76.788 180.649C83.1945 174.343 83.2764 164.038 76.971 157.632C70.6653 151.225 60.3595 151.142 53.9528 157.448L29.212 181.798C22.8053 188.104 22.7234 198.411 29.0291 204.817Z" fill="#FABC95"/>
    <path d="M33.2542 174.089C31.2861 176.026 31.261 179.192 33.198 181.16L52.839 201.116C54.776 203.084 57.9418 203.109 59.9098 201.172L77.0147 184.337C78.9828 182.4 79.008 179.234 77.071 177.266L57.43 157.31C55.4929 155.342 52.3272 155.317 50.3591 157.254L33.2542 174.089Z" fill="#F4412F"/>
    <path d="M41.683 181.228C40.5022 182.39 40.4871 184.289 41.6493 185.47L50.0669 194.023C51.2291 195.203 53.1285 195.219 54.3094 194.056C55.4902 192.894 55.5053 190.995 54.3431 189.814L45.9255 181.261C44.7633 180.081 42.8639 180.065 41.683 181.228Z" fill="white"/>
    <path d="M45.0216 153.014C42.886 155.116 42.8587 158.551 44.9606 160.687L54.0946 169.967C56.1964 172.103 59.6316 172.13 61.7672 170.028C63.9028 167.926 63.9301 164.491 61.8282 162.356L52.6942 153.075C50.5923 150.94 47.1572 150.912 45.0216 153.014Z" fill="#B31909"/>
    <path d="M49.6687 155.127C41.4028 163.263 41.2971 176.559 49.4327 184.825C57.5682 193.091 70.8643 193.197 79.1302 185.061C87.3961 176.925 87.5018 163.629 79.3662 155.363C71.2307 147.098 57.9346 146.992 49.6687 155.127Z" fill="#F4412F"/>
    <path d="M40 84C35.5817 84 32 87.5817 32 92V119C32 136.121 45.8792 150 63 150H129C146.121 150 160 136.121 160 119V92C160 87.5817 156.418 84 152 84H40Z" fill="#F0997D"/>
    <path d="M160 85C160 84.4477 159.552 84 159 84H54C53.4477 84 53 84.4477 53 85C53 85.5523 53.4477 86 54 86H56C57.6569 86 59 87.3431 59 89V119C59 136.121 72.8792 150 90 150H129C146.121 150 160 136.121 160 119V85Z" fill="#FABC95"/>
    <rect width="15" height="15" rx="7.5" transform="matrix(-1 0 0 1 145 106)" fill="#1E1E1E"/>
    <rect width="17" height="5" rx="2.5" transform="matrix(-1 0 0 1 122 124)" fill="#F0997D"/>
    <rect width="15" height="15" rx="7.5" transform="matrix(-1 0 0 1 96 106)" fill="#1E1E1E"/>
    <path d="M163 73.75C163 68.9175 159.082 65 154.25 65H150.5C147.739 65 145.5 62.7614 145.5 60C145.5 57.2386 143.261 55 140.5 55H50C47.2386 55 45 57.2386 45 60C45 62.7614 42.7614 65 40 65H36C31.0294 65 27 69.0294 27 74V138C27 144.627 32.3726 150 39 150H82.5C85.2614 150 87.5 147.761 87.5 145V135.5C87.5 132.739 85.2614 130.5 82.5 130.5H72.5C69.7386 130.5 67.5 128.261 67.5 125.5V98C67.5 95.2386 69.7386 93 72.5 93H149.5C152.261 93 154.5 95.2386 154.5 98V125.5C154.5 128.261 152.261 130.5 149.5 130.5H139C136.239 130.5 134 132.739 134 135.5V145C134 147.761 136.239 150 139 150H151C157.627 150 163 144.627 163 138V73.75Z" fill="#9D2733"/>
    <path d="M163 75C163 69.4772 158.523 65 153 65H60C54.4771 65 50 69.4772 50 75V138C50 144.627 55.3726 150 62 150H82.5C85.2614 150 87.5 147.761 87.5 145V135.5C87.5 132.739 85.2614 130.5 82.5 130.5H72.5C69.7386 130.5 67.5 128.261 67.5 125.5V98C67.5 95.2386 69.7386 93 72.5 93H149.5C152.261 93 154.5 95.2386 154.5 98V125.5C154.5 128.261 152.261 130.5 149.5 130.5H139C136.239 130.5 134 132.739 134 135.5V145C134 147.761 136.239 150 139 150H151C157.627 150 163 144.627 163 138V75Z" fill="#F4412F"/>
    <mask id="path-21-outside-1_34_327" maskUnits="userSpaceOnUse" x="15" y="47" width="211" height="204" fill="black">
        <rect fill="white" x="15" y="47" width="211" height="204"/>
        <path fill-rule="evenodd" clip-rule="evenodd" d="M50 55C47.3247 55 45.1405 57.1011 45.0068 59.7432L44.9932 60.2568C44.8595 62.8989 42.6753 65 40 65H36C31.0294 65 27 69.0294 27 74V138C27 142.081 29.0393 145.684 32.1523 147.852C27.2614 149.719 23.7871 154.453 23.7871 160V192.724C23.7872 196.849 25.3232 200.614 27.8525 203.482C28.2168 203.943 28.6081 204.389 29.0293 204.817C34.2111 210.082 42.0932 211.074 48.2939 207.762L44.0449 218.752C43.0212 221.4 41.5865 223.871 39.793 226.072L29.9883 238.104C28.3914 240.064 29.7864 243 32.3145 243H58.4229C60.0397 243 61.5569 242.218 62.4951 240.901L71.2686 228.585C73.076 226.048 74.4305 223.216 75.2725 220.217L77.5898 211.96C77.8321 211.097 78.6193 210.5 79.5156 210.5H87.6719C88.4765 210.5 89.2033 210.982 89.5156 211.724L94.7988 224.271C94.9309 224.585 94.9804 224.927 94.9434 225.266L93.2432 240.782C93.1135 241.966 94.0407 243 95.2314 243H119.204C120.225 243 121.084 242.23 121.193 241.215L122.968 224.803C122.989 224.602 122.98 224.399 122.941 224.201L118.214 200.17H124.872C125.977 200.17 126.872 199.274 126.872 198.17V177.979H167.517C168.333 179.63 170.033 180.766 172 180.766H188.046C190.762 182.048 193.797 182.766 197 182.766C208.598 182.766 218 173.364 218 161.766C218 151.474 210.596 142.911 200.824 141.113C200.21 138.747 198.059 137 195.5 137C192.647 137 190.302 139.172 190.027 141.952C189.351 142.19 188.691 142.462 188.048 142.766H172C170.084 142.766 168.422 143.844 167.582 145.426H160.423C160.487 145.344 160.554 145.263 160.616 145.18C162.113 143.178 163 140.692 163 138V73.75C163 68.9175 159.082 65 154.25 65H150.5C147.825 65 145.641 62.8989 145.507 60.2568L145.493 59.7432C145.359 57.1011 143.175 55 140.5 55H50Z"/>
    </mask>
    <path d="M45.0068 59.7432L37.0097 59.5303L37.0122 59.4345L37.0171 59.3389L45.0068 59.7432ZM44.9932 60.2568L52.9903 60.4697L52.9878 60.5655L52.9829 60.6611L44.9932 60.2568ZM32.1523 147.852L36.7241 141.287L49.1372 149.931L35.0054 155.326L32.1523 147.852ZM23.7871 192.724L15.7871 192.724V192.724H23.7871ZM27.8525 203.482L33.853 198.191L33.9942 198.352L34.1267 198.519L27.8525 203.482ZM29.0293 204.817L23.3278 210.429L23.3277 210.429L29.0293 204.817ZM48.2939 207.762L44.5246 200.705L63.5226 190.557L55.7557 210.647L48.2939 207.762ZM44.0449 218.752L36.583 215.868L36.5832 215.867L44.0449 218.752ZM39.793 226.072L45.9949 231.126L45.9947 231.126L39.793 226.072ZM29.9883 238.104L23.7864 233.051L23.7866 233.051L29.9883 238.104ZM58.4229 243L58.4229 251H58.4229V243ZM62.4951 240.901L69.011 245.543L69.0106 245.543L62.4951 240.901ZM71.2686 228.585L77.7845 233.226L77.7844 233.226L71.2686 228.585ZM75.2725 220.217L82.9749 222.379L82.9748 222.379L75.2725 220.217ZM77.5898 211.96L69.8875 209.798L69.8875 209.798L77.5898 211.96ZM79.5156 210.5L79.5146 202.5H79.5156V210.5ZM89.5156 211.724L96.8885 208.619L96.8887 208.619L89.5156 211.724ZM94.7988 224.271L87.4257 227.376L87.4257 227.376L94.7988 224.271ZM94.9434 225.266L102.896 226.137L102.896 226.137L94.9434 225.266ZM93.2432 240.782L85.2907 239.911L85.2908 239.911L93.2432 240.782ZM121.193 241.215L113.24 240.355L113.24 240.355L121.193 241.215ZM122.968 224.803L130.921 225.663L130.921 225.663L122.968 224.803ZM122.941 224.201L130.791 222.657L130.791 222.657L122.941 224.201ZM118.214 200.17L110.364 201.714L108.487 192.17H118.214V200.17ZM126.872 177.979H118.872V169.979H126.872V177.979ZM167.517 177.979V169.979H172.485L174.688 174.433L167.517 177.979ZM172 180.766V188.766V188.766V180.766ZM188.046 180.766V172.766H189.839L191.461 173.531L188.046 180.766ZM197 182.766V190.766V190.766V182.766ZM218 161.766L226 161.766V161.766H218ZM200.824 141.113L199.377 148.981L194.363 148.059L193.081 143.124L200.824 141.113ZM195.5 137V129V129V137ZM190.027 141.952L197.989 142.739L197.487 147.808L192.683 149.499L190.027 141.952ZM188.048 142.766L191.463 150L189.841 150.766H188.048V142.766ZM172 142.766V150.766V150.766V142.766ZM167.582 145.426L174.648 149.176L172.393 153.426H167.582V145.426ZM160.423 145.426V153.426H143.919L154.143 140.47L160.423 145.426ZM160.616 145.18L154.21 140.389L160.616 145.18ZM145.507 60.2568L137.517 60.6611L137.512 60.5655L137.51 60.4697L145.507 60.2568ZM145.493 59.7432L153.483 59.3389L153.488 59.4345L153.49 59.5303L145.493 59.7432ZM50 55V63C51.6083 63 52.9161 61.7386 52.9966 60.1475L45.0068 59.7432L37.0171 59.3389C37.365 52.4636 43.0411 47 50 47V55ZM45.0068 59.7432L53.004 59.956L52.9903 60.4697L44.9932 60.2568L36.996 60.044L37.0097 59.5303L45.0068 59.7432ZM44.9932 60.2568L52.9829 60.6611C52.635 67.5364 46.9589 73 40 73V65V57C38.3917 57 37.0839 58.2614 37.0034 59.8525L44.9932 60.2568ZM40 65V73H36V65V57H40V65ZM36 65V73C35.4477 73 35 73.4477 35 74H27H19C19 64.6112 26.6112 57 36 57V65ZM27 74H35V138H27H19V74H27ZM27 138H35C35 139.349 35.6628 140.548 36.7241 141.287L32.1523 147.852L27.5806 154.417C22.4157 150.82 19 144.813 19 138H27ZM32.1523 147.852L35.0054 155.326C33.1102 156.049 31.7871 157.88 31.7871 160H23.7871H15.7871C15.7871 151.026 21.4126 143.388 29.2993 140.378L32.1523 147.852ZM23.7871 160H31.7871V192.724H23.7871H15.7871V160H23.7871ZM23.7871 192.724L31.7871 192.724C31.7871 194.824 32.5608 196.726 33.853 198.191L27.8525 203.482L21.8521 208.773C18.0856 204.502 15.7872 198.873 15.7871 192.724L23.7871 192.724ZM27.8525 203.482L34.1267 198.519C34.3228 198.767 34.524 198.995 34.7309 199.206L29.0293 204.817L23.3277 210.429C22.6922 209.783 22.1108 209.119 21.5784 208.446L27.8525 203.482ZM29.0293 204.817L34.7308 199.206C37.3564 201.873 41.3652 202.393 44.5246 200.705L48.2939 207.762L52.0633 214.818C42.8213 219.755 31.0657 218.291 23.3278 210.429L29.0293 204.817ZM48.2939 207.762L55.7557 210.647L51.5067 221.637L44.0449 218.752L36.5832 215.867L40.8322 204.877L48.2939 207.762ZM44.0449 218.752L51.5068 221.636C50.1801 225.068 48.3205 228.271 45.9949 231.126L39.793 226.072L33.591 221.019C34.8525 219.471 35.8622 217.732 36.583 215.868L44.0449 218.752ZM39.793 226.072L45.9947 231.126L36.19 243.158L29.9883 238.104L23.7866 233.051L33.5912 221.019L39.793 226.072ZM29.9883 238.104L36.1902 243.158C38.8524 239.891 36.5267 235 32.3145 235V243V251C23.0461 251 17.9303 240.238 23.7864 233.051L29.9883 238.104ZM32.3145 243V235H58.4229V243V251H32.3145V243ZM58.4229 243L58.4228 235C57.4532 235 56.5429 235.469 55.9796 236.259L62.4951 240.901L69.0106 245.543C66.571 248.968 62.6263 251 58.4229 251L58.4229 243ZM62.4951 240.901L55.9792 236.26L64.7527 223.943L71.2686 228.585L77.7844 233.226L69.011 245.543L62.4951 240.901ZM71.2686 228.585L64.7527 223.944C66.0243 222.158 66.9775 220.166 67.5702 218.055L75.2725 220.217L82.9748 222.379C81.8835 226.267 80.1278 229.937 77.7845 233.226L71.2686 228.585ZM75.2725 220.217L67.5701 218.055L69.8875 209.798L77.5898 211.96L85.2922 214.122L82.9749 222.379L75.2725 220.217ZM77.5898 211.96L69.8875 209.798C71.0985 205.484 75.0324 202.501 79.5146 202.5L79.5156 210.5L79.5167 218.5C82.2063 218.5 84.5656 216.71 85.2922 214.122L77.5898 211.96ZM79.5156 210.5V202.5H87.6719V210.5V218.5H79.5156V210.5ZM87.6719 210.5V202.5C91.6917 202.5 95.3258 204.908 96.8885 208.619L89.5156 211.724L82.1427 214.829C83.0809 217.056 85.2614 218.5 87.6719 218.5V210.5ZM89.5156 211.724L96.8887 208.619L102.172 221.167L94.7988 224.271L87.4257 227.376L82.1425 214.828L89.5156 211.724ZM94.7988 224.271L102.172 221.167C102.834 222.74 103.08 224.451 102.896 226.137L94.9434 225.266L86.9909 224.395C86.8804 225.404 87.0275 226.43 87.4257 227.376L94.7988 224.271ZM94.9434 225.266L102.896 226.137L101.196 241.654L93.2432 240.782L85.2908 239.911L86.991 224.394L94.9434 225.266ZM93.2432 240.782L101.196 241.653C101.585 238.101 98.8028 235 95.2314 235V243V251C89.2785 251 84.6423 245.831 85.2907 239.911L93.2432 240.782ZM95.2314 243V235H119.204V243V251H95.2314V243ZM119.204 243V235C116.144 235 113.569 237.305 113.24 240.355L121.193 241.215L129.147 242.075C128.598 247.155 124.307 251 119.204 251V243ZM121.193 241.215L113.24 240.355L115.014 223.943L122.968 224.803L130.921 225.663L129.147 242.075L121.193 241.215ZM122.968 224.803L115.014 223.943C114.948 224.553 114.977 225.16 115.092 225.745L122.941 224.201L130.791 222.657C130.984 223.638 131.031 224.652 130.921 225.663L122.968 224.803ZM122.941 224.201L115.092 225.745L110.364 201.714L118.214 200.17L126.063 198.626L130.791 222.657L122.941 224.201ZM118.214 200.17V192.17H124.872V200.17V208.17H118.214V200.17ZM124.872 200.17V192.17C121.558 192.17 118.872 194.856 118.872 198.17H126.872H134.872C134.872 203.693 130.395 208.17 124.872 208.17V200.17ZM126.872 198.17H118.872V177.979H126.872H134.872V198.17H126.872ZM126.872 177.979V169.979H167.517V177.979V185.979H126.872V177.979ZM167.517 177.979L174.688 174.433C174.209 173.464 173.195 172.766 172 172.766V180.766V188.766C166.871 188.766 162.457 185.795 160.345 181.524L167.517 177.979ZM172 180.766V172.766H188.046V180.766V188.766H172V180.766ZM188.046 180.766L191.461 173.531C193.133 174.321 195.004 174.766 197 174.766V182.766V190.766C192.59 190.766 188.391 189.775 184.631 188L188.046 180.766ZM197 182.766V174.766C204.18 174.766 210 168.945 210 161.766H218H226C226 177.782 213.016 190.766 197 190.766V182.766ZM218 161.766L210 161.766C210 155.403 205.421 150.093 199.377 148.981L200.824 141.113L202.272 133.245C215.771 135.729 226 147.544 226 161.766L218 161.766ZM200.824 141.113L193.081 143.124C193.36 144.199 194.327 145 195.5 145V137V129C201.79 129 207.059 133.295 208.567 139.102L200.824 141.113ZM195.5 137V145C196.802 145 197.863 144.011 197.989 142.739L190.027 141.952L182.066 141.165C182.742 134.333 188.492 129 195.5 129V137ZM190.027 141.952L192.683 149.499C192.269 149.644 191.862 149.812 191.463 150L188.048 142.766L184.633 135.531C185.519 135.113 186.432 134.736 187.372 134.406L190.027 141.952ZM188.048 142.766V150.766H172V142.766V134.766H188.048V142.766ZM172 142.766V150.766C173.166 150.766 174.158 150.1 174.648 149.176L167.582 145.426L160.516 141.675C162.685 137.587 167.003 134.766 172 134.766V142.766ZM167.582 145.426V153.426H160.423V145.426V137.426H167.582V145.426ZM160.423 145.426L154.143 140.47C154.174 140.43 154.202 140.395 154.22 140.373C154.232 140.358 154.235 140.354 154.243 140.343C154.25 140.335 154.254 140.33 154.257 140.327C154.263 140.319 154.26 140.322 154.253 140.332C154.245 140.341 154.23 140.361 154.21 140.389L160.616 145.18L167.023 149.971C166.922 150.105 166.834 150.217 166.784 150.28C166.76 150.31 166.734 150.343 166.723 150.356C166.716 150.365 166.711 150.371 166.708 150.375C166.706 150.378 166.705 150.379 166.704 150.38C166.703 150.381 166.703 150.382 166.703 150.382L160.423 145.426ZM160.616 145.18L154.21 140.389C154.708 139.722 155 138.907 155 138H163H171C171 142.478 169.519 146.633 167.023 149.971L160.616 145.18ZM163 138H155V73.75H163H171V138H163ZM163 73.75H155C155 73.3358 154.664 73 154.25 73V65V57C163.501 57 171 64.4992 171 73.75H163ZM154.25 65V73H150.5V65V57H154.25V65ZM150.5 65V73C143.541 73 137.865 67.5364 137.517 60.6611L145.507 60.2568L153.497 59.8525C153.416 58.2614 152.108 57 150.5 57V65ZM145.507 60.2568L137.51 60.4697L137.496 59.956L145.493 59.7432L153.49 59.5303L153.504 60.044L145.507 60.2568ZM145.493 59.7432L137.503 60.1475C137.584 61.7386 138.892 63 140.5 63V55V47C147.459 47 153.135 52.4636 153.483 59.3389L145.493 59.7432ZM140.5 55V63H50V55V47H140.5V55Z" fill="white" mask="url(#path-21-outside-1_34_327)"/>
</svg>
