<svg width="226" height="260" viewBox="0 0 226 260" fill="none" xmlns="http://www.w3.org/2000/svg">
    <path d="M129.021 141C121.842 141 116.021 146.82 116.021 154V197.426C116.022 206.415 123.309 213.702 132.298 213.702C141.287 213.702 148.574 206.415 148.574 197.426V154C148.574 146.82 142.754 141 135.574 141H129.021Z" fill="#F0997D"/>
    <path d="M151.234 171C151.234 168.239 148.996 166 146.234 166H118.234C115.473 166 113.234 168.239 113.234 171V195C113.234 197.761 115.473 200 118.234 200H146.234C148.996 200 151.234 197.761 151.234 195V171Z" fill="#9D2733"/>
    <path d="M153.234 196C153.234 184.402 143.832 175 132.234 175C120.636 175 111.234 184.402 111.234 196C111.234 207.598 120.636 217 132.234 217C143.832 217 153.234 207.598 153.234 196Z" fill="#9D2733"/>
    <path d="M158 194.17C158 191.174 155.571 188.745 152.574 188.745H139.553C136.557 188.745 134.128 191.174 134.128 194.17C134.128 197.167 136.557 199.596 139.553 199.596H152.574C155.571 199.596 158 197.167 158 194.17Z" fill="#9D2733"/>
    <path d="M125.787 191.83C125.787 190.725 124.892 189.83 123.787 189.83H51.8298C50.7252 189.83 49.8298 190.725 49.8298 191.83V241C49.8298 242.105 50.7252 243 51.8298 243H81.4681C82.5727 243 83.4681 242.105 83.4681 241V209.734C83.4681 208.63 84.3635 207.734 85.4681 207.734H93.4043C94.5088 207.734 95.4043 208.63 95.4043 209.734V241C95.4043 242.105 96.2997 243 97.4043 243H123.787C124.892 243 125.787 242.105 125.787 241V191.83Z" fill="#1E1E1E"/>
    <path d="M126.872 141H42.234V192.17C42.234 193.275 43.1294 194.17 44.234 194.17H124.872C125.977 194.17 126.872 193.275 126.872 192.17V141Z" fill="#D6D6D6"/>
    <path d="M126.872 149.681H42.234V192.17C42.234 193.275 43.1294 194.17 44.234 194.17H124.872C125.977 194.17 126.872 193.275 126.872 192.17V149.681Z" fill="#EBEBEB"/>
    <path d="M36.7874 141C29.6077 141 23.7874 146.82 23.7874 154V197.426C23.7875 206.415 31.0745 213.702 40.0637 213.702C49.053 213.702 56.34 206.415 56.3401 197.426V154C56.3401 146.82 50.5198 141 43.3401 141H36.7874Z" fill="#FABC95"/>
    <path d="M59 171C59 168.239 56.7614 166 54 166H26C23.2386 166 21 168.239 21 171V195C21 197.761 23.2386 200 26 200H54C56.7614 200 59 197.761 59 195V171Z" fill="#F4412F"/>
    <path d="M48 172C48 170.343 46.6569 169 45 169H33C31.3431 169 30 170.343 30 172C30 173.657 31.3431 175 33 175H45C46.6569 175 48 173.657 48 172Z" fill="white"/>
    <path d="M65.7659 194.17C65.7659 191.174 63.3368 188.745 60.3403 188.745H47.3191C44.3226 188.745 41.8935 191.174 41.8935 194.17C41.8935 197.167 44.3226 199.596 47.3191 199.596H60.3403C63.3368 199.596 65.7659 197.167 65.7659 194.17Z" fill="#B31909"/>
    <path d="M61 196C61 184.402 51.598 175 40 175C28.402 175 19 184.402 19 196C19 207.598 28.402 217 40 217C51.598 217 61 207.598 61 196Z" fill="#F4412F"/>
    <path d="M39 75C34.5817 75 31 78.5817 31 83V110C31 127.121 44.8792 141 62 141H128C145.121 141 159 127.121 159 110V83C159 78.5817 155.418 75 151 75H39Z" fill="#F0997D"/>
    <path d="M159 76C159 75.4477 158.552 75 158 75H53C52.4477 75 52 75.4477 52 76C52 76.5523 52.4477 77 53 77H55C56.6569 77 58 78.3431 58 80V110C58 127.121 71.8792 141 89 141H128C145.121 141 159 127.121 159 110V76Z" fill="#FABC95"/>
    <rect width="15" height="15" rx="7.5" transform="matrix(-1 0 0 1 144 97)" fill="#1E1E1E"/>
    <rect width="17" height="5" rx="2.5" transform="matrix(-1 0 0 1 121 115)" fill="#F0997D"/>
    <rect width="15" height="15" rx="7.5" transform="matrix(-1 0 0 1 95 97)" fill="#1E1E1E"/>
    <path d="M162 64.75C162 59.9175 158.082 56 153.25 56H149.5C146.739 56 144.5 53.7614 144.5 51C144.5 48.2386 142.261 46 139.5 46H49C46.2386 46 44 48.2386 44 51C44 53.7614 41.7614 56 39 56H35C30.0294 56 26 60.0294 26 65V129C26 135.627 31.3726 141 38 141H81.5C84.2614 141 86.5 138.761 86.5 136V126.5C86.5 123.739 84.2614 121.5 81.5 121.5H71.5C68.7386 121.5 66.5 119.261 66.5 116.5V89C66.5 86.2386 68.7386 84 71.5 84H148.5C151.261 84 153.5 86.2386 153.5 89V116.5C153.5 119.261 151.261 121.5 148.5 121.5H138C135.239 121.5 133 123.739 133 126.5V136C133 138.761 135.239 141 138 141H150C156.627 141 162 135.627 162 129V64.75Z" fill="#9D2733"/>
    <path d="M162 66C162 60.4772 157.523 56 152 56H59C53.4771 56 49 60.4772 49 66V129C49 135.627 54.3726 141 61 141H81.5C84.2614 141 86.5 138.761 86.5 136V126.5C86.5 123.739 84.2614 121.5 81.5 121.5H71.5C68.7386 121.5 66.5 119.261 66.5 116.5V89C66.5 86.2386 68.7386 84 71.5 84H148.5C151.261 84 153.5 86.2386 153.5 89V116.5C153.5 119.261 151.261 121.5 148.5 121.5H138C135.239 121.5 133 123.739 133 126.5V136C133 138.761 135.239 141 138 141H150C156.627 141 162 135.627 162 129V66Z" fill="#F4412F"/>
    <mask id="path-20-outside-1_33_295" maskUnits="userSpaceOnUse" x="11" y="38" width="159" height="213" fill="black">
        <rect fill="white" x="11" y="38" width="159" height="213"/>
        <path d="M49 46C46.3247 46 44.1405 48.1011 44.0068 50.7432L43.9932 51.2568C43.8595 53.8989 41.6753 56 39 56H35C30.0294 56 26 60.0294 26 65V129C26 135.627 31.3726 141 38 141H36.7871C29.6075 141 23.7871 146.82 23.7871 154V166.516C22.1358 167.332 21 169.033 21 171V187.048C19.7182 189.764 19 192.798 19 196C19 207.598 28.402 217 40 217C43.552 217 46.897 216.116 49.8301 214.56V241C49.8301 242.105 50.7255 243 51.8301 243H81.4678C82.5723 243 83.4678 242.105 83.4678 241V209.734C83.4678 208.63 84.3633 207.735 85.4678 207.734H93.4043C94.5088 207.734 95.4043 208.63 95.4043 209.734V241C95.4043 242.105 96.2997 243 97.4043 243H123.787C124.892 243 125.787 242.105 125.787 241V215.989C127.819 216.644 129.985 217 132.234 217C142.611 217 151.228 209.474 152.929 199.583C155.76 199.4 158 197.047 158 194.17C158 191.174 155.571 188.745 152.574 188.745H151.947C151.734 188.167 151.495 187.601 151.234 187.048V171C151.234 169.084 150.156 167.421 148.574 166.581V154C148.574 146.82 142.754 141 135.574 141H129.021C128.289 141 127.571 141.061 126.872 141.178V141H128C130.485 141 132.9 140.705 135.216 140.153C136.012 140.688 136.969 141 138 141H150C156.627 141 162 135.627 162 129V64.75C162 59.9175 158.082 56 153.25 56H149.5C146.825 56 144.641 53.8989 144.507 51.2568L144.493 50.7432C144.359 48.1011 142.175 46 139.5 46H49Z"/>
    </mask>
    <path d="M44.0068 50.7432L36.0097 50.5303L36.0122 50.4345L36.0171 50.3389L44.0068 50.7432ZM43.9932 51.2568L51.9903 51.4697L51.9878 51.5655L51.9829 51.6611L43.9932 51.2568ZM39 56V64V64V56ZM26 65H18H26ZM36.7871 141L36.787 133H36.7871V141ZM23.7871 154H15.7871V154H23.7871ZM23.7871 166.516H31.7871V171.485L27.3327 173.687L23.7871 166.516ZM21 171H13V171H21ZM21 187.048H29V188.841L28.2346 190.463L21 187.048ZM19 196H11V196H19ZM40 217V225V225V217ZM49.8301 214.56L46.0796 207.493L57.8301 201.257V214.56H49.8301ZM49.8301 241H41.8301V241H49.8301ZM85.4678 207.734L85.4667 199.734H85.4678V207.734ZM93.4043 207.734V199.734H93.4046L93.4043 207.734ZM125.787 215.989H117.787V205.006L128.241 208.375L125.787 215.989ZM132.234 217L132.234 225H132.234V217ZM152.929 199.583L145.044 198.228L146.114 192.006L152.414 191.6L152.929 199.583ZM158 194.17L166 194.169V194.17H158ZM151.947 188.745V196.745H146.368L144.44 191.509L151.947 188.745ZM151.234 187.048L144 190.462L143.234 188.841V187.048H151.234ZM151.234 171H159.234V171H151.234ZM148.574 166.581L144.824 173.648L140.574 171.392V166.581H148.574ZM126.872 141.178L128.185 149.069L118.872 150.619V141.178H126.872ZM126.872 141H118.872V133H126.872V141ZM135.216 140.153L133.36 132.371L136.768 131.559L139.676 133.512L135.216 140.153ZM138 141V149V141ZM162 129H170V129H162ZM144.507 51.2568L136.517 51.6611L136.512 51.5655L136.51 51.4697L144.507 51.2568ZM144.493 50.7432L152.483 50.3389L152.488 50.4345L152.49 50.5303L144.493 50.7432ZM139.5 46V38V38V46ZM49 46V54C50.6083 54 51.9161 52.7386 51.9966 51.1475L44.0068 50.7432L36.0171 50.3389C36.365 43.4636 42.0411 38 49 38V46ZM44.0068 50.7432L52.004 50.956L51.9903 51.4697L43.9932 51.2568L35.996 51.044L36.0097 50.5303L44.0068 50.7432ZM43.9932 51.2568L51.9829 51.6611C51.635 58.5364 45.9589 64 39 64V56V48C37.3917 48 36.0839 49.2614 36.0034 50.8525L43.9932 51.2568ZM39 56V64H35V56V48H39V56ZM35 56V64C34.4477 64 34 64.4477 34 65H26H18C18 55.6112 25.6112 48 35 48V56ZM26 65H34V129H26H18V65H26ZM26 129H34C34 131.209 35.7909 133 38 133V141V149C26.9543 149 18 140.046 18 129H26ZM38 141V149H36.7871V141V133H38V141ZM36.7871 141L36.7873 149C34.0257 149 31.7871 151.239 31.7871 154H23.7871H15.7871C15.7871 142.402 25.1894 133 36.787 133L36.7871 141ZM23.7871 154H31.7871V166.516H23.7871H15.7871V154H23.7871ZM23.7871 166.516L27.3327 173.687C28.3029 173.207 29 172.193 29 171H21H13C13 165.873 15.9687 161.457 20.2415 159.344L23.7871 166.516ZM21 171H29V187.048H21H13V171H21ZM21 187.048L28.2346 190.463C27.4451 192.135 27 194.006 27 196H19H11C11 191.59 11.9913 187.392 13.7654 183.633L21 187.048ZM19 196H27C27 203.18 32.8203 209 40 209V217V225C23.9837 225 11 212.016 11 196H19ZM40 217V209C42.2096 209 44.2706 208.453 46.0796 207.493L49.8301 214.56L53.5806 221.626C49.5235 223.779 44.8943 225 40 225V217ZM49.8301 214.56H57.8301V241H49.8301H41.8301V214.56H49.8301ZM49.8301 241H57.8301C57.8301 237.686 55.1438 235 51.8301 235V243V251C46.3072 251 41.8301 246.523 41.8301 241H49.8301ZM51.8301 243V235H81.4678V243V251H51.8301V243ZM81.4678 243V235C78.1541 235 75.4678 237.686 75.4678 241H83.4678H91.4678C91.4678 246.523 86.9906 251 81.4678 251V243ZM83.4678 241H75.4678V209.734H83.4678H91.4678V241H83.4678ZM83.4678 209.734H75.4678C75.4678 204.211 79.9459 199.735 85.4667 199.734L85.4678 207.734L85.4689 215.734C88.7807 215.734 91.4678 213.049 91.4678 209.734H83.4678ZM85.4678 207.734V199.734H93.4043V207.734V215.734H85.4678V207.734ZM93.4043 207.734L93.4046 199.734C98.9269 199.735 103.404 204.211 103.404 209.734H95.4043H87.4043C87.4043 213.048 90.0908 215.734 93.404 215.734L93.4043 207.734ZM95.4043 209.734H103.404V241H95.4043H87.4043V209.734H95.4043ZM95.4043 241H103.404C103.404 237.686 100.718 235 97.4043 235V243V251C91.8814 251 87.4043 246.523 87.4043 241H95.4043ZM97.4043 243V235H123.787V243V251H97.4043V243ZM123.787 243V235C120.473 235 117.787 237.686 117.787 241H125.787H133.787C133.787 246.523 129.31 251 123.787 251V243ZM125.787 241H117.787V215.989H125.787H133.787V241H125.787ZM125.787 215.989L128.241 208.375C129.495 208.779 130.834 209 132.234 209V217V225C129.136 225 126.142 224.509 123.333 223.604L125.787 215.989ZM132.234 217L132.234 209C138.649 209 143.993 204.345 145.044 198.228L152.929 199.583L160.813 200.938C158.464 214.603 146.572 225 132.234 225L132.234 217ZM152.929 199.583L152.414 191.6C151.065 191.687 150 192.799 150 194.17H158H166C166 201.295 160.455 207.114 153.443 207.566L152.929 199.583ZM158 194.17L150 194.17C150 195.593 151.154 196.745 152.574 196.745V188.745V180.745C159.987 180.745 166 186.754 166 194.169L158 194.17ZM152.574 188.745V196.745H151.947V188.745V180.745H152.574V188.745ZM151.947 188.745L144.44 191.509C144.313 191.164 144.166 190.815 144 190.462L151.234 187.048L158.469 183.633C158.825 184.387 159.156 185.17 159.455 185.981L151.947 188.745ZM151.234 187.048H143.234V171H151.234H159.234V187.048H151.234ZM151.234 171H143.234C143.234 172.163 143.898 173.156 144.824 173.648L148.574 166.581L152.324 159.514C156.415 161.685 159.234 166.005 159.234 171H151.234ZM148.574 166.581H140.574V154H148.574H156.574V166.581H148.574ZM148.574 154H140.574C140.574 151.239 138.336 149 135.574 149V141V133C147.172 133 156.574 142.402 156.574 154H148.574ZM135.574 141V149H129.021V141V133H135.574V141ZM129.021 141V149C128.737 149 128.458 149.024 128.185 149.069L126.872 141.178L125.559 133.286C126.684 133.099 127.841 133 129.021 133V141ZM126.872 141.178H118.872V141H126.872H134.872V141.178H126.872ZM126.872 141V133H128V141V149H126.872V141ZM128 141V133C129.85 133 131.643 132.781 133.36 132.371L135.216 140.153L137.071 147.935C134.157 148.63 131.119 149 128 149V141ZM135.216 140.153L139.676 133.512C139.196 133.19 138.609 133 138 133V141V149C135.33 149 132.827 148.186 130.755 146.794L135.216 140.153ZM138 141V133H150V141V149H138V141ZM150 141V133C152.209 133 154 131.209 154 129H162H170C170 140.046 161.046 149 150 149V141ZM162 129H154V64.75H162H170V129H162ZM162 64.75H154C154 64.3358 153.664 64 153.25 64V56V48C162.501 48 170 55.4992 170 64.75H162ZM153.25 56V64H149.5V56V48H153.25V56ZM149.5 56V64C142.541 64 136.865 58.5364 136.517 51.6611L144.507 51.2568L152.497 50.8525C152.416 49.2614 151.108 48 149.5 48V56ZM144.507 51.2568L136.51 51.4697L136.496 50.956L144.493 50.7432L152.49 50.5303L152.504 51.044L144.507 51.2568ZM144.493 50.7432L136.503 51.1475C136.584 52.7386 137.892 54 139.5 54V46V38C146.459 38 152.135 43.4636 152.483 50.3389L144.493 50.7432ZM139.5 46V54H49V46V38H139.5V46Z" fill="white" mask="url(#path-20-outside-1_33_295)"/>
</svg>
