<svg width="226" height="260" viewBox="0 0 226 260" fill="none" xmlns="http://www.w3.org/2000/svg">
    <path d="M187.313 173C184.14 173 181.567 170.427 181.567 167.254L181.567 156.746C181.567 153.573 184.14 151 187.313 151C190.487 151 193.06 153.573 193.06 156.746L193.06 167.254C193.06 170.427 190.487 173 187.313 173Z" fill="#F0997D"/>
    <path d="M133 185C131.895 185 131 184.105 131 183L131 168C131 160.82 136.82 155 144 155L193 155C201.284 155 208 161.716 208 170C208 178.284 201.284 185 193 185L133 185Z" fill="#F0997D"/>
    <path d="M193 187C183.611 187 176 179.389 176 170C176 160.611 183.611 153 193 153L201 153C205.971 153 210 157.029 210 162L210 178C210 182.971 205.971 187 201 187L193 187Z" fill="#F0997D"/>
    <path d="M133 185C131.895 185 131 184.105 131 183L131 168C131 160.82 136.82 155 144 155L157.731 155C158.836 155 159.731 155.895 159.731 157L159.731 183C159.731 184.105 158.836 185 157.731 185L133 185Z" fill="#BC392C"/>
    <path d="M128.312 195.588C128.13 194.662 127.325 193.989 126.382 193.974L66.3944 193.022C65.5566 193.009 64.7993 193.519 64.4972 194.301L55.0453 218.752C54.0215 221.401 52.5863 223.871 50.7927 226.073L40.9885 238.105C39.3916 240.065 40.7862 243 43.3142 243H69.4228C71.0398 243 72.5571 242.218 73.4952 240.901L82.2683 228.585C84.0758 226.047 85.4305 223.216 86.2725 220.217L88.5903 211.959C88.8326 211.096 89.6195 210.5 90.5159 210.5H98.6721C99.4767 210.5 100.203 210.982 100.515 211.724L105.799 224.272C105.931 224.585 105.981 224.928 105.943 225.266L104.243 240.782C104.113 241.966 105.04 243 106.231 243H130.205C131.226 243 132.083 242.23 132.193 241.215L133.967 224.802C133.989 224.602 133.98 224.399 133.941 224.201L128.312 195.588Z" fill="#1E1E1E"/>
    <path d="M140 163C140 159.134 136.866 156 133 156H62V203C62 204.105 62.8954 205 64 205H138C139.105 205 140 204.105 140 203V163Z" fill="#BC392C"/>
    <path d="M140 171C140 167.134 136.866 164 133 164H62V203C62 204.105 62.8954 205 64 205H138C139.105 205 140 204.105 140 203V171Z" fill="#E74C3C"/>
    <path d="M75.0002 169C75.0002 161.82 69.1799 156 62.0002 156H58.0002C50.8205 156 45.0002 161.82 45.0002 169V198C45.0002 206.284 51.716 213 60.0002 213C68.2845 213 75.0002 206.284 75.0002 198V169Z" fill="#F0997D"/>
    <path d="M75.0002 169C75.0002 161.82 69.1799 156 62.0002 156H58.0002C50.8205 156 45.0002 161.82 45.0002 169V179C45.0002 180.105 45.8957 181 47.0002 181H73.0002C74.1048 181 75.0002 180.105 75.0002 179V169Z" fill="#D93F2F"/>
    <path d="M52.1462 208.922C58.4057 214.348 67.8792 213.673 73.3056 207.413L86.4419 192.26C91.8682 186 91.1927 176.527 84.933 171.1C79.1857 166.118 70.7298 166.28 65.1839 171.185L65.0836 171.098C62.997 169.289 59.8392 169.514 58.0304 171.601C56.2216 173.687 56.4468 176.845 58.5334 178.654L50.6373 187.763C45.2112 194.022 45.8866 203.496 52.1462 208.922Z" fill="#FABC95"/>
    <path d="M53 93C48.5817 93 45 96.5817 45 101V112.686C40.3397 114.333 37 118.775 37 124C37 129.57 40.7958 134.252 45.9414 135.604C49.332 149.049 61.5031 159 76 159H142C159.121 159 173 145.121 173 128V101C173 96.5817 169.418 93 165 93H53Z" fill="#F0997D"/>
    <path d="M173 94C173 93.4477 172.552 93 172 93H67C66.4477 93 66 93.4477 66 94C66 94.5523 66.4477 95 67 95H69C70.6569 95 72 96.3431 72 98V128C72 145.121 85.8792 159 103 159H142C159.121 159 173 145.121 173 128V94Z" fill="#FABC95"/>
    <path d="M157.886 123.802C158.605 119.723 155.882 115.833 151.802 115.114L147.748 117.953L143.114 121.198C142.395 125.277 145.118 129.167 149.198 129.886C153.277 130.605 157.167 127.882 157.886 123.802Z" fill="#1E1E1E"/>
    <rect width="17" height="5" rx="2.5" transform="matrix(-1 0 0 1 135 133)" fill="#F0997D"/>
    <path d="M104.252 117.953L100.198 115.114C96.1185 115.833 93.3947 119.723 94.114 123.802C94.8333 127.882 98.7232 130.605 102.802 129.886C106.882 129.167 109.605 125.277 108.886 121.198L104.252 117.953Z" fill="#1E1E1E"/>
    <path d="M180 55.2829C180 53.7849 178.414 52.8186 177.083 53.5057L167.417 58.4943C166.086 59.1813 164.5 58.215 164.5 56.7171V35.138C164.5 33.5609 162.76 32.6043 161.428 33.4493L141.572 46.0507C140.24 46.8957 138.5 45.9391 138.5 44.362V29.5924C138.5 28.0249 136.779 27.0666 135.446 27.8923L106.054 46.1077C104.721 46.9333 103 45.9751 103 44.4076V36.8949C103 35.2665 101.158 34.3207 99.8346 35.2695L77.8062 51.0635C76.9568 51.6725 75.9379 52 74.8928 52H69C53.536 52 41 64.536 41 80V127C41 131.971 45.0294 136 50 136H62.5C65.2614 136 67.5 133.761 67.5 131V100C67.5 97.2386 69.7386 95 72.5 95H92.15C93.1907 95 94.2002 95.322 95.0663 95.8991C99.4827 98.8421 114.124 108 125.312 108C136.501 108 151.142 98.8421 155.559 95.8991C156.425 95.322 157.434 95 158.475 95H170C175.523 95 180 90.5229 180 85V55.2829Z" fill="#34231C"/>
    <path d="M56 117C56 114.239 53.7614 112 51 112H48C41.3726 112 36 117.373 36 124C36 130.627 41.3726 136 48 136H56V117Z" fill="#F0997D"/>
    <rect width="15" height="15" rx="7.5" transform="matrix(-1 0 0 1 158 115)" fill="#1E1E1E"/>
    <rect width="17" height="5" rx="2.5" transform="matrix(-1 0 0 1 135 133)" fill="#F0997D"/>
    <rect width="15" height="15" rx="7.5" transform="matrix(-1 0 0 1 109 115)" fill="#1E1E1E"/>
    <mask id="path-21-outside-1_24_232" maskUnits="userSpaceOnUse" x="28" y="18.5896" width="190" height="233" fill="black">
        <rect fill="white" x="28" y="18.5896" width="190" height="233"/>
        <path d="M138.5 29.5925C138.5 28.0251 136.779 27.0667 135.446 27.8923L106.054 46.1082C104.721 46.9337 103 45.9752 103 44.408V36.8953C103 35.267 101.158 34.3209 99.835 35.2693L77.8066 51.0632C76.9572 51.6722 75.9377 51.9998 74.8926 51.9998H69C53.5361 51.9998 41.0002 64.5359 41 79.9998V114.256C37.9729 116.434 36.0001 119.986 36 124C36 129.946 40.3257 134.881 46.002 135.833C48.3242 144.752 54.5156 152.109 62.6787 156H58C50.8205 156 45.0002 161.82 45 169V198C45 205.383 50.3341 211.519 57.3584 212.767L55.0449 218.753C54.0211 221.401 52.5865 223.872 50.793 226.073L40.9883 238.105C39.3916 240.065 40.7865 243 43.3145 243H69.4229C71.0399 243 72.5569 242.218 73.4951 240.901L82.2686 228.585C84.0758 226.047 85.4305 223.217 86.2725 220.218L88.5908 211.96C88.8331 211.097 89.6194 210.5 90.5156 210.5H98.6719C99.4766 210.5 100.203 210.983 100.516 211.724L105.799 224.272C105.931 224.586 105.98 224.928 105.943 225.266L104.243 240.782C104.113 241.966 105.041 243 106.231 243H130.205C131.226 243 132.083 242.231 132.193 241.216L133.968 224.802C133.989 224.602 133.98 224.4 133.941 224.202L130.164 205H138C139.105 205 140 204.104 140 203V185H184.994C187.38 186.276 190.105 187 193 187H201C205.971 187 210 182.97 210 178V162C210 157.029 205.97 153 201 153H193C192.566 153 192.136 153.016 191.711 153.048C190.657 151.796 189.078 151 187.313 151C184.749 151 182.577 152.68 181.838 155H157.24C166.649 149.678 173 139.581 173 128V94.5408C177.057 93.2664 180 89.4772 180 84.9998V55.283C180 53.7851 178.414 52.8189 177.083 53.5056L167.417 58.4939C166.086 59.1808 164.5 58.2153 164.5 56.7175V35.1384C164.5 33.5615 162.76 32.6044 161.429 33.449L141.571 46.0505C140.24 46.8954 138.5 45.9391 138.5 44.3621V29.5925Z"/>
    </mask>
    <path d="M135.446 27.8923L131.232 21.0923L131.232 21.0923L135.446 27.8923ZM106.054 46.1082L110.268 52.9082L110.268 52.9084L106.054 46.1082ZM103 44.408L95 44.4089V44.408H103ZM99.835 35.2693L95.1734 28.7677L95.1748 28.7668L99.835 35.2693ZM77.8066 51.0632L82.4682 57.5648L82.4681 57.5648L77.8066 51.0632ZM41 79.9998H33V79.9997L41 79.9998ZM41 114.256H49V118.355L45.6728 120.749L41 114.256ZM36 124H28V124L36 124ZM46.002 135.833L47.3245 127.943L52.4375 128.8L53.7438 133.817L46.002 135.833ZM62.6787 156L66.121 148.778L62.6787 164V156ZM58 156L57.9999 148H58V156ZM45 169H37V169L45 169ZM57.3584 212.767L58.758 204.891L68.3228 206.59L64.8204 215.652L57.3584 212.767ZM55.0449 218.753L62.5069 221.637L62.5068 221.637L55.0449 218.753ZM50.793 226.073L56.9948 231.126L56.9947 231.127L50.793 226.073ZM40.9883 238.105L34.786 233.052L34.7866 233.052L40.9883 238.105ZM73.4951 240.901L80.011 245.543L80.0109 245.543L73.4951 240.901ZM82.2686 228.585L88.7845 233.226L88.7844 233.226L82.2686 228.585ZM86.2725 220.218L78.5702 218.055L78.5703 218.055L86.2725 220.218ZM88.5908 211.96L80.8886 209.797L80.8886 209.797L88.5908 211.96ZM90.5156 210.5L90.5142 202.5H90.5156V210.5ZM100.516 211.724L107.889 208.62L107.889 208.62L100.516 211.724ZM105.799 224.272L113.172 221.168L113.172 221.169L105.799 224.272ZM105.943 225.266L97.991 224.395L97.991 224.395L105.943 225.266ZM104.243 240.782L112.196 241.653L112.196 241.653L104.243 240.782ZM130.205 243L130.207 251H130.205V243ZM132.193 241.216L140.147 242.075L140.147 242.077L132.193 241.216ZM133.968 224.802L141.922 225.661L141.921 225.662L133.968 224.802ZM133.941 224.202L141.791 222.658L141.791 222.659L133.941 224.202ZM130.164 205L122.314 206.544L120.437 197H130.164V205ZM140 185H132V177H140V185ZM184.994 185V177H186.999L188.767 177.945L184.994 185ZM193 187V179V179V187ZM201 187L201 195H201V187ZM210 178H202V178H210ZM210 162L218 161.999V162H210ZM201 153V145H201L201 153ZM193 153V145V145V153ZM191.711 153.048L192.309 161.025L188.228 161.331L185.591 158.2L191.711 153.048ZM187.313 151V143H187.314L187.313 151ZM181.838 155L189.46 157.429L187.685 163H181.838V155ZM157.24 155V163H126.85L153.301 148.037L157.24 155ZM173 94.5408H165V88.6684L170.602 86.9085L173 94.5408ZM180 55.283L188 55.2828V55.283H180ZM177.083 53.5056L173.414 46.3965L173.415 46.3961L177.083 53.5056ZM167.417 58.4939L163.748 51.3848L163.748 51.3847L167.417 58.4939ZM164.5 56.7175L156.5 56.7191V56.7175H164.5ZM161.429 33.449L157.142 26.6943L157.144 26.6933L161.429 33.449ZM141.571 46.0505L145.858 52.8052L145.857 52.8056L141.571 46.0505ZM138.5 29.5925H130.5C130.5 34.2944 135.663 37.1697 139.66 34.6924L135.446 27.8923L131.232 21.0923C137.894 16.9636 146.5 21.7558 146.5 29.5925H138.5ZM135.446 27.8923L139.661 34.6923L110.268 52.9082L106.054 46.1082L101.839 39.3081L131.232 21.0923L135.446 27.8923ZM106.054 46.1082L110.268 52.9084C103.605 57.0372 95.0009 52.2436 95 44.4089L103 44.408L111 44.407C110.999 39.7069 105.838 36.8303 101.84 39.3079L106.054 46.1082ZM103 44.408H95V36.8953H103H111V44.408H103ZM103 36.8953H95C95 41.7777 100.523 44.6185 104.495 41.7718L99.835 35.2693L95.1748 28.7668C101.794 24.0233 111 28.7564 111 36.8953H103ZM99.835 35.2693L104.496 41.7708L82.4682 57.5648L77.8066 51.0632L73.1451 44.5617L95.1734 28.7677L99.835 35.2693ZM77.8066 51.0632L82.4681 57.5648C80.2589 59.1488 77.609 59.9998 74.8926 59.9998V51.9998V43.9998C74.2665 43.9998 73.6556 44.1957 73.1451 44.5617L77.8066 51.0632ZM74.8926 51.9998V59.9998H69V51.9998V43.9998H74.8926V51.9998ZM69 51.9998V59.9998C57.9545 59.9998 49.0001 68.9541 49 79.9998L41 79.9998L33 79.9997C33.0002 60.1177 49.1178 43.9998 69 43.9998V51.9998ZM41 79.9998H49V114.256H41H33V79.9998H41ZM41 114.256L45.6728 120.749C44.6415 121.491 44 122.672 44 124L36 124L28 124C28.0002 117.299 31.3042 111.377 36.3272 107.762L41 114.256ZM36 124H44C44 125.973 45.4371 127.626 47.3245 127.943L46.002 135.833L44.6794 143.723C35.2143 142.136 28 133.92 28 124H36ZM46.002 135.833L53.7438 133.817C55.4626 140.418 60.0579 145.888 66.121 148.778L62.6787 156L59.2364 163.221C48.9733 158.329 41.1858 149.085 38.2601 137.849L46.002 135.833ZM62.6787 156V164H58V156V148H62.6787V156ZM58 156L58.0001 164C55.2389 164 53.0001 166.238 53 169L45 169L37 169C37.0003 157.402 46.4021 148 57.9999 148L58 156ZM45 169H53V198H45H37V169H45ZM45 198H53C53 201.436 55.4848 204.309 58.758 204.891L57.3584 212.767L55.9588 220.644C45.1833 218.729 37 209.329 37 198H45ZM57.3584 212.767L64.8204 215.652L62.5069 221.637L55.0449 218.753L47.5829 215.868L49.8964 209.883L57.3584 212.767ZM55.0449 218.753L62.5068 221.637C61.1801 225.069 59.3206 228.272 56.9948 231.126L50.793 226.073L44.5911 221.02C45.8525 219.472 46.8622 217.733 47.5831 215.868L55.0449 218.753ZM50.793 226.073L56.9947 231.127L47.19 243.159L40.9883 238.105L34.7866 233.052L44.5912 221.019L50.793 226.073ZM40.9883 238.105L47.1905 243.158C49.8532 239.89 47.5254 235 43.3145 235V243V251C34.0476 251 28.9301 240.24 34.786 233.052L40.9883 238.105ZM43.3145 243V235H69.4229V243V251H43.3145V243ZM69.4229 243V235C68.4537 235 67.5428 235.468 66.9793 236.26L73.4951 240.901L80.0109 245.543C77.571 248.968 73.626 251 69.4229 251V243ZM73.4951 240.901L66.9792 236.26L75.7527 223.943L82.2686 228.585L88.7844 233.226L80.011 245.543L73.4951 240.901ZM82.2686 228.585L75.7526 223.943C77.0245 222.158 77.9778 220.166 78.5702 218.055L86.2725 220.218L93.9747 222.38C92.8833 226.268 91.1272 229.937 88.7845 233.226L82.2686 228.585ZM86.2725 220.218L78.5703 218.055L80.8886 209.797L88.5908 211.96L96.293 214.122L93.9747 222.38L86.2725 220.218ZM88.5908 211.96L80.8886 209.797C82.0984 205.488 86.0277 202.501 90.5142 202.5L90.5156 210.5L90.5171 218.5C93.2111 218.499 95.5677 216.706 96.293 214.122L88.5908 211.96ZM90.5156 210.5V202.5H98.6719V210.5V218.5H90.5156V210.5ZM98.6719 210.5V202.5C102.698 202.5 106.328 204.914 107.889 208.62L100.516 211.724L93.1425 214.829C94.0782 217.051 96.255 218.5 98.6719 218.5V210.5ZM100.516 211.724L107.889 208.62L113.172 221.168L105.799 224.272L98.4257 227.377L93.1425 214.829L100.516 211.724ZM105.799 224.272L113.172 221.169C113.834 222.74 114.081 224.451 113.896 226.138L105.943 225.266L97.991 224.395C97.8802 225.405 98.0278 226.431 98.4254 227.376L105.799 224.272ZM105.943 225.266L113.896 226.138L112.196 241.653L104.243 240.782L96.2908 239.911L97.991 224.395L105.943 225.266ZM104.243 240.782L112.196 241.653C112.585 238.101 109.802 235 106.231 235V243V251C100.279 251 95.642 245.831 96.2908 239.91L104.243 240.782ZM106.231 243V235H130.205V243V251H106.231V243ZM130.205 243L130.203 235C127.145 235 124.57 237.304 124.24 240.354L132.193 241.216L140.147 242.077C139.597 247.157 135.308 250.999 130.207 251L130.205 243ZM132.193 241.216L124.24 240.356L126.014 223.943L133.968 224.802L141.921 225.662L140.147 242.075L132.193 241.216ZM133.968 224.802L126.014 223.944C125.948 224.554 125.977 225.161 126.092 225.745L133.941 224.202L141.791 222.659C141.984 223.638 142.031 224.65 141.922 225.661L133.968 224.802ZM133.941 224.202L126.092 225.746L122.314 206.544L130.164 205L138.014 203.456L141.791 222.658L133.941 224.202ZM130.164 205V197H138V205V213H130.164V205ZM138 205V197C134.686 197 132 199.686 132 203H140H148C148 208.523 143.523 213 138 213V205ZM140 203H132V185H140H148V203H140ZM140 185V177H184.994V185V193H140V185ZM184.994 185L188.767 177.945C190.022 178.616 191.455 179 193 179V187V195C188.756 195 184.738 193.935 181.221 192.054L184.994 185ZM193 187V179H201V187V195H193V187ZM201 187L201 179C201.552 179 202 178.552 202 178H210H218C218 187.389 210.389 195 201 195L201 187ZM210 178H202V162H210H218V178H210ZM210 162L202 162C202 161.447 201.552 161 201 161L201 153L201 145C210.389 145 218 152.611 218 161.999L210 162ZM201 153V161H193V153V145H201V153ZM193 153V161C192.763 161 192.532 161.008 192.309 161.025L191.711 153.048L191.113 145.07C191.741 145.023 192.37 145 193 145V153ZM191.711 153.048L185.591 158.2C185.991 158.675 186.617 159 187.313 159L187.313 151L187.314 143C191.539 143 195.323 144.916 197.831 147.895L191.711 153.048ZM187.313 151V159C188.333 159 189.173 158.329 189.46 157.429L181.838 155L174.216 152.57C175.981 147.031 181.165 143 187.313 143V151ZM181.838 155V163H157.24V155V147H181.838V155ZM157.24 155L153.301 148.037C160.303 144.076 165 136.581 165 128H173H181C181 142.58 172.994 155.279 161.179 161.963L157.24 155ZM173 128H165V94.5408H173H181V128H173ZM173 94.5408L170.602 86.9085C171.423 86.6509 172 85.8816 172 84.9998H180H188C188 93.0728 182.691 99.8819 175.398 102.173L173 94.5408ZM180 84.9998H172V55.283H180H188V84.9998H180ZM180 55.283L172 55.2831C172 59.7768 176.758 62.6754 180.751 60.6151L177.083 53.5056L173.415 46.3961C180.07 42.9623 188 47.7934 188 55.2828L180 55.283ZM177.083 53.5056L180.752 60.6148L171.086 65.6031L167.417 58.4939L163.748 51.3847L173.414 46.3965L177.083 53.5056ZM167.417 58.4939L171.086 65.603C164.433 69.0366 156.501 64.21 156.5 56.7191L164.5 56.7175L172.5 56.716C172.499 52.2205 167.739 49.325 163.748 51.3848L167.417 58.4939ZM164.5 56.7175H156.5V35.1384H164.5H172.5V56.7175H164.5ZM164.5 35.1384H156.5C156.5 39.8658 161.716 42.7401 165.714 40.2046L161.429 33.449L157.144 26.6933C163.804 22.4687 172.5 27.2573 172.5 35.1384H164.5ZM161.429 33.449L165.715 40.2037L145.858 52.8052L141.571 46.0505L137.285 39.2959L157.142 26.6943L161.429 33.449ZM141.571 46.0505L145.857 52.8056C139.201 57.0291 130.5 52.2483 130.5 44.3621H138.5H146.5C146.5 39.6298 141.279 36.7616 137.285 39.2955L141.571 46.0505ZM138.5 44.3621H130.5V29.5925H138.5H146.5V44.3621H138.5Z" fill="white" mask="url(#path-21-outside-1_24_232)"/>
</svg>
