<svg width="226" height="260" viewBox="0 0 226 260" fill="none" xmlns="http://www.w3.org/2000/svg">
    <path d="M136 149C143.18 149 149 154.82 149 162V193L149.257 193.007C151.899 193.141 154 195.325 154 198C154 200.761 151.761 203 149 203H148.867C147.889 210.339 141.606 216 134 216C125.716 216 119 209.284 119 201V151C119 149.895 119.895 149 121 149H136Z" fill="#F0997D"/>
    <path d="M119 151C119 149.895 119.895 149 121 149H136C143.18 149 149 154.82 149 162V172C149 173.105 148.105 174 147 174H121C119.895 174 119 173.105 119 172V151Z" fill="#BC392C"/>
    <path d="M128 196C128 194.895 127.105 194 126 194H60C58.8954 194 58 194.895 58 196V241C58 242.105 58.8954 243 60 243H87C88.1046 243 89 242.105 89 241V212.5C89 211.395 89.8954 210.5 91 210.5H98C99.1046 210.5 100 211.395 100 212.5V241C100 242.105 100.895 243 102 243H126C127.105 243 128 242.105 128 241V196Z" fill="#1E1E1E"/>
    <path d="M129 156C129 152.134 125.866 149 122 149H51V196C51 197.105 51.8954 198 53 198H127C128.105 198 129 197.105 129 196V156Z" fill="#BC392C"/>
    <path d="M129 164C129 160.134 125.866 157 122 157H51V196C51 197.105 51.8954 198 53 198H127C128.105 198 129 197.105 129 196V164Z" fill="#E74C3C"/>
    <path d="M47 149C39.8203 149 34 154.82 34 162V201C34 209.284 40.7157 216 49 216C56.6061 216 62.8894 210.339 63.8672 203H64C66.7614 203 69 200.761 69 198C69 195.239 66.7614 193 64 193V162C64 154.82 58.1797 149 51 149H47Z" fill="#FABC95"/>
    <path d="M64 162C64 154.82 58.1797 149 51 149H47C39.8203 149 34 154.82 34 162V172C34 173.105 34.8954 174 36 174H62C63.1046 174 64 173.105 64 172V162Z" fill="#D93F2F"/>
    <path d="M43 84C38.5817 84 35 87.5817 35 92V103.686C30.3397 105.333 27 109.775 27 115C27 120.57 30.7958 125.252 35.9414 126.604C39.332 140.049 51.5031 150 66 150H132C149.121 150 163 136.121 163 119V92C163 87.5817 159.418 84 155 84H43Z" fill="#F0997D"/>
    <path d="M163 85C163 84.4477 162.552 84 162 84H57C56.4477 84 56 84.4477 56 85C56 85.5523 56.4477 86 57 86H59C60.6569 86 62 87.3431 62 89V119C62 136.121 75.8792 150 93 150H132C149.121 150 163 136.121 163 119V85Z" fill="#FABC95"/>
    <rect width="15" height="15" rx="7.5" transform="matrix(-1 0 0 1 148 106)" fill="#1E1E1E"/>
    <rect width="15" height="15" rx="7.5" transform="matrix(-1 0 0 1 99 106)" fill="#1E1E1E"/>
    <path d="M170 46.2829C170 44.7849 168.414 43.8186 167.083 44.5057L157.417 49.4943C156.086 50.1813 154.5 49.215 154.5 47.7171V26.138C154.5 24.5609 152.76 23.6043 151.428 24.4493L131.572 37.0507C130.24 37.8957 128.5 36.9391 128.5 35.362V20.5924C128.5 19.0249 126.779 18.0666 125.446 18.8923L96.0535 37.1077C94.7212 37.9333 93 36.9751 93 35.4076V27.8949C93 26.2665 91.158 25.3207 89.8346 26.2695L67.8062 42.0635C66.9568 42.6725 65.9379 43 64.8928 43H59C43.536 43 31 55.536 31 71V118C31 122.971 35.0294 127 40 127H52.5C55.2614 127 57.5 124.761 57.5 122V91C57.5 88.2386 59.7386 86 62.5 86H82.15C83.1907 86 84.2002 86.322 85.0663 86.8991C89.4827 89.8421 104.124 99 115.312 99C126.501 99 141.142 89.8421 145.559 86.8991C146.425 86.322 147.434 86 148.475 86H160C165.523 86 170 81.5229 170 76V46.2829Z" fill="#34231C"/>
    <path d="M46 108C46 105.239 43.7614 103 41 103H38C31.3726 103 26 108.373 26 115C26 121.627 31.3726 127 38 127H46V108Z" fill="#F0997D"/>
    <rect x="81" y="102" width="23" height="23" rx="11.5" fill="white"/>
    <rect x="130" y="102" width="23" height="23" rx="11.5" fill="white"/>
    <rect x="86" y="107" width="13" height="13" rx="6.5" fill="#1E1E1E"/>
    <path d="M108 134.5C106.619 134.5 105.521 133.372 105.844 132.029C106.592 128.925 108.966 124 116.5 124C124.034 124 126.408 128.925 127.156 132.029C127.479 133.372 126.381 134.5 125 134.5C123.619 134.5 122.499 133.339 121.919 132.086C121.235 130.608 119.745 129 116.5 129C113.255 129 111.765 130.608 111.081 132.086C110.501 133.339 109.381 134.5 108 134.5Z" fill="#F0997D"/>
    <rect x="135" y="107" width="13" height="13" rx="6.5" fill="#1E1E1E"/>
    <mask id="path-19-outside-1_28_140" maskUnits="userSpaceOnUse" x="18" y="9.58911" width="160" height="242" fill="black">
        <rect fill="white" x="18" y="9.58911" width="160" height="242"/>
        <path d="M128.5 20.5924C128.5 19.025 126.779 18.0666 125.446 18.8922L96.0537 37.1081C94.7214 37.9337 93.0001 36.9752 93 35.4079V27.8952C93 26.267 91.1583 25.3208 89.835 26.2692L67.8066 42.0631C66.9572 42.6721 65.9377 42.9997 64.8926 42.9997H59C43.5362 42.9997 31.0002 55.5359 31 70.9997V105.256C27.9731 107.435 26.0001 110.986 26 115C26 120.946 30.3257 125.881 36.002 126.833C38.8202 137.657 47.3383 146.179 58.1611 149H47C39.8204 149 34.0002 154.82 34 162V201C34 209.284 40.7157 216 49 216C52.3778 216 55.4928 214.881 58 212.997V241C58 242.104 58.8954 243 60 243H87C88.1046 243 89 242.104 89 241V212.5C89.0002 211.395 89.8956 210.5 91 210.5H98C99.1044 210.5 99.9998 211.395 100 212.5V241C100 242.104 100.895 243 102 243H126C127.105 243 128 242.104 128 241V214.751C129.838 215.554 131.867 216 134 216C141.606 216 147.889 210.338 148.867 203H149C151.761 203 154 200.761 154 198C154 195.325 151.899 193.14 149.257 193.006L149 193V162C149 155.83 144.701 150.663 138.936 149.333C138.851 149.313 138.765 149.294 138.68 149.276C152.59 146.221 163 133.827 163 119V85.5407C167.057 84.2663 170 80.4771 170 75.9997V46.2829C170 44.7851 168.414 43.8188 167.083 44.5055L157.417 49.4948C156.086 50.1814 154.5 49.2151 154.5 47.7174V26.1383C154.5 24.5613 152.76 23.6049 151.429 24.4499L131.571 37.0504C130.24 37.8953 128.5 36.939 128.5 35.362V20.5924Z"/>
    </mask>
    <path d="M125.446 18.8922L121.232 12.0922L121.232 12.0922L125.446 18.8922ZM96.0537 37.1081L100.268 43.9081L100.268 43.9082L96.0537 37.1081ZM93 35.4079L85 35.4085V35.4079H93ZM89.835 26.2692L85.1734 19.7676L85.1749 19.7666L89.835 26.2692ZM67.8066 42.0631L72.4682 48.5647L72.4681 48.5647L67.8066 42.0631ZM31 70.9997H23V70.9996L31 70.9997ZM31 105.257H39V109.355L35.6731 111.75L31 105.257ZM26 115H18V114.999L26 115ZM36.002 126.833L37.3245 118.943L42.4375 119.8L43.7438 124.817L36.002 126.833ZM58.1611 149L60.1785 141.258L58.1611 157V149ZM47 149V141V149ZM34 162H26V161.999L34 162ZM58 212.997L53.194 206.601L66 196.978V212.997H58ZM89 212.5H81V212.498L89 212.5ZM100 212.5L108 212.498V212.5H100ZM126 243L126 251H126V243ZM128 214.751H120V202.525L131.203 207.42L128 214.751ZM148.867 203L140.937 201.943L141.862 195H148.867V203ZM154 198L162 197.999V198H154ZM149.257 193.007L149.47 185.009L149.565 185.012L149.661 185.017L149.257 193.007ZM149 193L148.787 200.997L141 200.79V193H149ZM149 162L157 161.999V162H149ZM138.936 149.333L140.735 141.538V141.538L138.936 149.333ZM138.68 149.276L137.039 157.106L136.964 141.462L138.68 149.276ZM163 85.5407H155V79.6683L160.602 77.9084L163 85.5407ZM170 46.2829L178 46.2824V46.2829H170ZM167.083 44.5055L163.414 37.3967L163.415 37.3959L167.083 44.5055ZM157.417 49.4948L161.086 56.6036L161.085 56.6045L157.417 49.4948ZM154.5 47.7174L146.5 47.7187V47.7174H154.5ZM151.429 24.4499L155.715 31.2046L155.715 31.2047L151.429 24.4499ZM131.571 37.0504L135.858 43.8053L135.857 43.8054L131.571 37.0504ZM128.5 20.5924H120.5C120.5 25.2943 125.663 28.1696 129.66 25.6923L125.446 18.8922L121.232 12.0922C127.894 7.96346 136.5 12.7557 136.5 20.5924H128.5ZM125.446 18.8922L129.661 25.6922L100.268 43.9081L96.0537 37.1081L91.8395 30.3081L121.232 12.0922L125.446 18.8922ZM96.0537 37.1081L100.268 43.9082C93.605 48.0371 85.0006 43.2438 85 35.4085L93 35.4079L101 35.4073C101 30.7066 95.8378 27.8303 91.8397 30.3079L96.0537 37.1081ZM93 35.4079H85V27.8952H93H101V35.4079H93ZM93 27.8952H85C85 32.7779 90.5232 35.6181 94.495 32.7718L89.835 26.2692L85.1749 19.7666C91.7934 15.0236 101 19.756 101 27.8952H93ZM89.835 26.2692L94.4965 32.7708L72.4682 48.5647L67.8066 42.0631L63.1451 35.5616L85.1734 19.7676L89.835 26.2692ZM67.8066 42.0631L72.4681 48.5647C70.2589 50.1487 67.609 50.9997 64.8926 50.9997V42.9997V34.9997C64.2665 34.9997 63.6556 35.1956 63.1451 35.5616L67.8066 42.0631ZM64.8926 42.9997V50.9997H59V42.9997V34.9997H64.8926V42.9997ZM59 42.9997V50.9997C47.9545 50.9997 39.0002 59.9541 39 70.9998L31 70.9997L23 70.9996C23.0003 51.1177 39.1178 34.9997 59 34.9997V42.9997ZM31 70.9997H39V105.257H31H23V70.9997H31ZM31 105.257L35.6731 111.75C34.641 112.493 34 113.673 34 115L26 115L18 114.999C18.0002 108.298 21.3052 102.377 26.3269 98.7633L31 105.257ZM26 115H34C34 116.973 35.4371 118.626 37.3245 118.943L36.002 126.833L34.6794 134.723C25.2143 133.136 18 124.92 18 115H26ZM36.002 126.833L43.7438 124.817C45.8322 132.838 52.1613 139.169 60.1785 141.258L58.1611 149L56.1437 156.741C42.5154 153.19 31.8083 142.476 28.2601 128.848L36.002 126.833ZM58.1611 149V157H47V149V141H58.1611V149ZM47 149V157C44.2389 157 42.0001 159.238 42 162L34 162L26 161.999C26.0004 150.402 35.4019 141 47 141V149ZM34 162H42V201H34H26V162H34ZM34 201H42C42 204.866 45.134 208 49 208V216V224C36.2975 224 26 213.702 26 201H34ZM49 216V208C50.5806 208 52.0208 207.483 53.194 206.601L58 212.997L62.806 219.392C58.9648 222.279 54.1751 224 49 224V216ZM58 212.997H66V241H58H50V212.997H58ZM58 241H66C66 237.686 63.3137 235 60 235V243V251C54.4772 251 50 246.523 50 241H58ZM60 243V235H87V243V251H60V243ZM87 243V235C83.6863 235 81 237.686 81 241H89H97C97 246.523 92.5229 251 87 251V243ZM89 241H81V212.5H89H97V241H89ZM89 212.5L81 212.498C81.0011 206.978 85.4757 202.5 91 202.5V210.5V218.5C94.3154 218.5 96.9994 215.812 97 212.501L89 212.5ZM91 210.5V202.5H98V210.5V218.5H91V210.5ZM98 210.5V202.5C103.524 202.5 107.999 206.978 108 212.498L100 212.5L92 212.501C92.0006 215.812 94.6846 218.5 98 218.5V210.5ZM100 212.5H108V241H100H92V212.5H100ZM100 241H108C108 237.686 105.314 235 102 235V243V251C96.4771 251 92 246.523 92 241H100ZM102 243V235H126V243V251H102V243ZM126 243L126 235C122.686 235 120 237.686 120 241H128H136C136 246.523 131.523 251 126 251L126 243ZM128 241H120V214.751H128H136V241H128ZM128 214.751L131.203 207.42C132.052 207.791 132.992 208 134 208V216V224C130.741 224 127.624 223.317 124.797 222.081L128 214.751ZM134 216V208C137.543 208 140.482 205.36 140.937 201.943L148.867 203L156.797 204.056C155.297 215.316 145.67 224 134 224V216ZM148.867 203V195H149V203V211H148.867V203ZM149 203V195C147.343 195 146 196.343 146 198H154H162C162 205.179 156.18 211 149 211V203ZM154 198L146 198C146 199.608 147.261 200.916 148.853 200.996L149.257 193.007L149.661 185.017C156.537 185.365 161.999 191.041 162 197.999L154 198ZM149.257 193.007L149.044 201.004L148.787 200.997L149 193L149.213 185.002L149.47 185.009L149.257 193.007ZM149 193H141V162H149H157V193H149ZM149 162L141 162C141 159.637 139.353 157.639 137.136 157.128L138.936 149.333L140.735 141.538C150.05 143.688 157 152.022 157 161.999L149 162ZM138.936 149.333L137.136 157.128C137.084 157.116 137.055 157.109 137.039 157.106L138.68 149.276L140.32 141.446C140.476 141.479 140.617 141.51 140.735 141.538L138.936 149.333ZM138.68 149.276L136.964 141.462C147.283 139.196 155 129.99 155 119H163H171C171 137.664 157.896 153.246 140.396 157.09L138.68 149.276ZM163 119H155V85.5407H163H171V119H163ZM163 85.5407L160.602 77.9084C161.423 77.6508 162 76.8815 162 75.9997H170H178C178 84.0728 172.691 90.8818 165.398 93.173L163 85.5407ZM170 75.9997H162V46.2829H170H178V75.9997H170ZM170 46.2829L162 46.2833C162 50.7765 166.757 53.6754 170.751 51.6151L167.083 44.5055L163.415 37.3959C170.071 33.9623 178 38.7936 178 46.2824L170 46.2829ZM167.083 44.5055L170.752 51.6144L161.086 56.6036L157.417 49.4948L153.748 42.3859L163.414 37.3967L167.083 44.5055ZM157.417 49.4948L161.085 56.6045C154.429 60.038 146.501 55.206 146.5 47.7187L154.5 47.7174L162.5 47.7162C162.499 43.2241 157.743 40.3248 153.749 42.385L157.417 49.4948ZM154.5 47.7174H146.5V26.1383H154.5H162.5V47.7174H154.5ZM154.5 26.1383H146.5C146.5 30.8697 151.721 33.7394 155.715 31.2046L151.429 24.4499L147.142 17.6951C153.8 13.4703 162.5 18.2529 162.5 26.1383H154.5ZM151.429 24.4499L155.715 31.2047L135.858 43.8053L131.571 37.0504L127.285 30.2956L147.142 17.695L151.429 24.4499ZM131.571 37.0504L135.857 43.8054C129.2 48.0293 120.5 43.248 120.5 35.362H128.5H136.5C136.5 30.63 131.279 27.7613 127.285 30.2955L131.571 37.0504ZM128.5 35.362H120.5V20.5924H128.5H136.5V35.362H128.5Z" fill="white" mask="url(#path-19-outside-1_28_140)"/>
</svg>
