<svg width="226" height="260" viewBox="0 0 226 260" fill="none" xmlns="http://www.w3.org/2000/svg">
    <path d="M136 149C143.18 149 149 154.82 149 162V193L149.257 193.007C151.899 193.141 154 195.325 154 198C154 200.761 151.761 203 149 203H148.867C147.889 210.339 141.606 216 134 216C125.716 216 119 209.284 119 201V151C119 149.895 119.895 149 121 149H136Z" fill="#F0997D"/>
    <path d="M119 151C119 149.895 119.895 149 121 149H136C143.18 149 149 154.82 149 162V172C149 173.105 148.105 174 147 174H121C119.895 174 119 173.105 119 172V151Z" fill="#BC392C"/>
    <path d="M128 196C128 194.895 127.105 194 126 194H60C58.8954 194 58 194.895 58 196V241C58 242.105 58.8954 243 60 243H87C88.1046 243 89 242.105 89 241V212.5C89 211.395 89.8954 210.5 91 210.5H98C99.1046 210.5 100 211.395 100 212.5V241C100 242.105 100.895 243 102 243H126C127.105 243 128 242.105 128 241V196Z" fill="#1E1E1E"/>
    <path d="M129 156C129 152.134 125.866 149 122 149H51V196C51 197.105 51.8954 198 53 198H127C128.105 198 129 197.105 129 196V156Z" fill="#BC392C"/>
    <path d="M129 164C129 160.134 125.866 157 122 157H51V196C51 197.105 51.8954 198 53 198H127C128.105 198 129 197.105 129 196V164Z" fill="#E74C3C"/>
    <path d="M47 149C39.8203 149 34 154.82 34 162V201C34 209.284 40.7157 216 49 216C56.6061 216 62.8894 210.339 63.8672 203H64C66.7614 203 69 200.761 69 198C69 195.239 66.7614 193 64 193V162C64 154.82 58.1797 149 51 149H47Z" fill="#FABC95"/>
    <path d="M64 162C64 154.82 58.1797 149 51 149H47C39.8203 149 34 154.82 34 162V172C34 173.105 34.8954 174 36 174H62C63.1046 174 64 173.105 64 172V162Z" fill="#D93F2F"/>
    <path d="M43 84C38.5817 84 35 87.5817 35 92V103.686C30.3397 105.333 27 109.775 27 115C27 120.57 30.7958 125.252 35.9414 126.604C39.332 140.049 51.5031 150 66 150H132C149.121 150 163 136.121 163 119V92C163 87.5817 159.418 84 155 84H43Z" fill="#F0997D"/>
    <path d="M163 85C163 84.4477 162.552 84 162 84H57C56.4477 84 56 84.4477 56 85C56 85.5523 56.4477 86 57 86H59C60.6569 86 62 87.3431 62 89V119C62 136.121 75.8792 150 93 150H132C149.121 150 163 136.121 163 119V85Z" fill="#FABC95"/>
    <rect width="15" height="15" rx="7.5" transform="matrix(-1 0 0 1 148 106)" fill="#1E1E1E"/>
    <rect width="17" height="5" rx="2.5" transform="matrix(-1 0 0 1 125 124)" fill="#F0997D"/>
    <rect width="15" height="15" rx="7.5" transform="matrix(-1 0 0 1 99 106)" fill="#1E1E1E"/>
    <path d="M170 46.2829C170 44.7849 168.414 43.8186 167.083 44.5057L157.417 49.4943C156.086 50.1813 154.5 49.215 154.5 47.7171V26.138C154.5 24.5609 152.76 23.6043 151.428 24.4493L131.572 37.0507C130.24 37.8957 128.5 36.9391 128.5 35.362V20.5924C128.5 19.0249 126.779 18.0666 125.446 18.8923L96.0535 37.1077C94.7212 37.9333 93 36.9751 93 35.4076V27.8949C93 26.2665 91.158 25.3207 89.8346 26.2695L67.8062 42.0635C66.9568 42.6725 65.9379 43 64.8928 43H59C43.536 43 31 55.536 31 71V118C31 122.971 35.0294 127 40 127H52.5C55.2614 127 57.5 124.761 57.5 122V91C57.5 88.2386 59.7386 86 62.5 86H82.15C83.1907 86 84.2002 86.322 85.0663 86.8991C89.4827 89.8421 104.124 99 115.312 99C126.501 99 141.142 89.8421 145.559 86.8991C146.425 86.322 147.434 86 148.475 86H160C165.523 86 170 81.5229 170 76V46.2829Z" fill="#34231C"/>
    <path d="M46 108C46 105.239 43.7614 103 41 103H38C31.3726 103 26 108.373 26 115C26 121.627 31.3726 127 38 127H46V108Z" fill="#F0997D"/>
    <mask id="path-15-outside-1_24_206" maskUnits="userSpaceOnUse" x="18" y="9.58936" width="160" height="242" fill="black">
        <rect fill="white" x="18" y="9.58936" width="160" height="242"/>
        <path d="M128.5 20.5923C128.5 19.0248 126.779 18.0664 125.446 18.8921L96.0537 37.1079C94.7214 37.9335 93.0001 36.9751 93 35.4077V27.895C93 26.2668 91.1583 25.3207 89.835 26.269L67.8066 42.063C66.9572 42.672 65.9377 42.9995 64.8926 42.9995H59C43.5362 42.9995 31.0002 55.5357 31 70.9995V105.256C27.9731 107.435 26.0001 110.986 26 115C26 120.946 30.3257 125.881 36.002 126.833C38.8203 137.657 47.3383 146.179 58.1611 149H47C39.8204 149 34.0002 154.82 34 162V201C34 209.284 40.7157 216 49 216C52.3778 216 55.4928 214.881 58 212.997V241C58 242.104 58.8954 243 60 243H87C88.1046 243 89 242.104 89 241V212.5C89.0002 211.395 89.8956 210.5 91 210.5H98C99.1044 210.5 99.9998 211.395 100 212.5V241C100 242.104 100.895 243 102 243H126C127.105 243 128 242.104 128 241V214.75C129.838 215.553 131.867 216 134 216C141.606 216 147.889 210.338 148.867 203H149C151.761 203 154 200.761 154 198C154 195.324 151.899 193.14 149.257 193.006L149 193V162C149 155.739 144.574 150.511 138.68 149.276C138.787 149.252 138.894 149.231 139.001 149.207C152.75 146.033 163 133.713 163 119V85.5405C167.057 84.2661 170 80.477 170 75.9995V46.2827C170 44.7849 168.414 43.8187 167.083 44.5054L157.417 49.4946C156.086 50.1812 154.5 49.2149 154.5 47.7173V26.1382C154.5 24.5611 152.76 23.6047 151.429 24.4497L131.571 37.0503C130.24 37.8952 128.5 36.9388 128.5 35.3618V20.5923Z"/>
    </mask>
    <path d="M125.446 18.8921L121.232 12.0921L121.232 12.092L125.446 18.8921ZM96.0537 37.1079L100.268 43.9079L100.268 43.9081L96.0537 37.1079ZM93 35.4077L85 35.4083V35.4077H93ZM89.835 26.269L85.1734 19.7675L85.1749 19.7664L89.835 26.269ZM67.8066 42.063L72.4682 48.5645L72.4681 48.5646L67.8066 42.063ZM59 42.9995V34.9995V42.9995ZM31 70.9995H23V70.9994L31 70.9995ZM31 105.256H39V109.355L35.6731 111.75L31 105.256ZM26 115H18V114.999L26 115ZM36.002 126.833L37.3245 118.943L42.4375 119.8L43.7438 124.817L36.002 126.833ZM58.1611 149L60.1785 141.258L58.1611 157V149ZM47 149V141V149ZM34 162H26V161.999L34 162ZM58 212.997L53.194 206.601L66 196.978V212.997H58ZM89 212.5H81V212.498L89 212.5ZM91 210.5V202.5V202.5V210.5ZM98 210.5V202.5V202.5V210.5ZM100 212.5L108 212.498V212.5H100ZM102 243V251V251V243ZM126 243L126 251H126V243ZM128 214.75H120V202.524L131.203 207.42L128 214.75ZM148.867 203L140.937 201.943L141.862 195H148.867V203ZM154 198L162 197.999V198H154ZM149.257 193.006L149.47 185.009L149.565 185.012L149.661 185.017L149.257 193.006ZM149 193L148.787 200.997L141 200.789V193H149ZM149 162L157 161.999V162H149ZM138.68 149.276L137.039 157.106L136.964 141.462L138.68 149.276ZM139.001 149.207L137.202 141.412V141.412L139.001 149.207ZM163 85.5405H155V79.6682L160.602 77.9082L163 85.5405ZM170 46.2827L178 46.2823V46.2827H170ZM167.083 44.5054L163.414 37.3965L163.415 37.3958L167.083 44.5054ZM157.417 49.4946L161.086 56.6035L161.085 56.6044L157.417 49.4946ZM154.5 47.7173L146.5 47.7185V47.7173H154.5ZM151.429 24.4497L155.715 31.2044L155.715 31.2045L151.429 24.4497ZM131.571 37.0503L135.858 43.8051L135.857 43.8052L131.571 37.0503ZM128.5 20.5923H120.5C120.5 25.2941 125.663 28.1695 129.66 25.6922L125.446 18.8921L121.232 12.092C127.894 7.96331 136.5 12.7556 136.5 20.5923H128.5ZM125.446 18.8921L129.661 25.6921L100.268 43.9079L96.0537 37.1079L91.8395 30.3079L121.232 12.0921L125.446 18.8921ZM96.0537 37.1079L100.268 43.9081C93.605 48.0369 85.0006 43.2437 85 35.4083L93 35.4077L101 35.4071C101 30.7065 95.8378 27.8301 91.8397 30.3078L96.0537 37.1079ZM93 35.4077H85V27.895H93H101V35.4077H93ZM93 27.895H85C85 32.7778 90.5232 35.618 94.495 32.7717L89.835 26.269L85.1749 19.7664C91.7934 15.0234 101 19.7559 101 27.895H93ZM89.835 26.269L94.4965 32.7706L72.4682 48.5645L67.8066 42.063L63.1451 35.5614L85.1734 19.7675L89.835 26.269ZM67.8066 42.063L72.4681 48.5646C70.2589 50.1486 67.609 50.9995 64.8926 50.9995V42.9995V34.9995C64.2665 34.9995 63.6556 35.1954 63.1451 35.5614L67.8066 42.063ZM64.8926 42.9995V50.9995H59V42.9995V34.9995H64.8926V42.9995ZM59 42.9995V50.9995C47.9545 50.9995 39.0002 59.9539 39 70.9996L31 70.9995L23 70.9994C23.0003 51.1175 39.1178 34.9995 59 34.9995V42.9995ZM31 70.9995H39V105.256H31H23V70.9995H31ZM31 105.256L35.6731 111.75C34.641 112.492 34 113.673 34 115L26 115L18 114.999C18.0002 108.298 21.3052 102.377 26.3269 98.7631L31 105.256ZM26 115H34C34 116.972 35.4371 118.626 37.3245 118.943L36.002 126.833L34.6794 134.722C25.2143 133.136 18 124.92 18 115H26ZM36.002 126.833L43.7438 124.817C45.8322 132.837 52.1613 139.169 60.1785 141.258L58.1611 149L56.1437 156.741C42.5154 153.189 31.8083 142.476 28.2601 128.848L36.002 126.833ZM58.1611 149V157H47V149V141H58.1611V149ZM47 149V157C44.2389 157 42.0001 159.238 42 162L34 162L26 161.999C26.0004 150.402 35.4019 141 47 141V149ZM34 162H42V201H34H26V162H34ZM34 201H42C42 204.866 45.134 208 49 208V216V224C36.2975 224 26 213.702 26 201H34ZM49 216V208C50.5806 208 52.0208 207.483 53.194 206.601L58 212.997L62.806 219.392C58.9648 222.279 54.1751 224 49 224V216ZM58 212.997H66V241H58H50V212.997H58ZM58 241H66C66 237.686 63.3137 235 60 235V243V251C54.4771 251 50 246.522 50 241H58ZM60 243V235H87V243V251H60V243ZM87 243V235C83.6863 235 81 237.686 81 241H89H97C97 246.522 92.5229 251 87 251V243ZM89 241H81V212.5H89H97V241H89ZM89 212.5L81 212.498C81.0011 206.978 85.4757 202.5 91 202.5V210.5V218.5C94.3154 218.5 96.9994 215.812 97 212.501L89 212.5ZM91 210.5V202.5H98V210.5V218.5H91V210.5ZM98 210.5V202.5C103.524 202.5 107.999 206.978 108 212.498L100 212.5L92 212.501C92.0006 215.812 94.6846 218.5 98 218.5V210.5ZM100 212.5H108V241H100H92V212.5H100ZM100 241H108C108 237.686 105.314 235 102 235V243V251C96.4771 251 92 246.522 92 241H100ZM102 243V235H126V243V251H102V243ZM126 243L126 235C122.686 235 120 237.686 120 241H128H136C136 246.522 131.523 251 126 251L126 243ZM128 241H120V214.75H128H136V241H128ZM128 214.75L131.203 207.42C132.052 207.79 132.992 208 134 208V216V224C130.741 224 127.624 223.316 124.797 222.081L128 214.75ZM134 216V208C137.543 208 140.482 205.36 140.937 201.943L148.867 203L156.797 204.056C155.297 215.316 145.67 224 134 224V216ZM148.867 203V195H149V203V211H148.867V203ZM149 203V195C147.343 195 146 196.343 146 198H154H162C162 205.179 156.18 211 149 211V203ZM154 198L146 198C146 199.608 147.261 200.916 148.853 200.996L149.257 193.006L149.661 185.017C156.537 185.365 161.999 191.041 162 197.999L154 198ZM149.257 193.006L149.044 201.004L148.787 200.997L149 193L149.213 185.002L149.47 185.009L149.257 193.006ZM149 193H141V162H149H157V193H149ZM149 162L141 162C141 159.601 139.303 157.58 137.039 157.106L138.68 149.276L140.32 141.446C149.845 143.442 157 151.876 157 161.999L149 162ZM138.68 149.276L136.964 141.462C137.017 141.45 137.066 141.44 137.102 141.432C137.12 141.428 137.138 141.425 137.152 141.422C137.167 141.419 137.177 141.416 137.188 141.414C137.234 141.404 137.226 141.406 137.202 141.412L139.001 149.207L140.8 157.002C140.669 157.032 140.554 157.056 140.493 157.069C140.449 157.078 140.445 157.079 140.418 157.085C140.401 157.089 140.395 157.09 140.396 157.09L138.68 149.276ZM139.001 149.207L137.202 141.412C147.401 139.057 155 129.906 155 119H163H171C171 137.52 158.099 153.008 140.8 157.002L139.001 149.207ZM163 119H155V85.5405H163H171V119H163ZM163 85.5405L160.602 77.9082C161.423 77.6506 162 76.8814 162 75.9995H170H178C178 84.0726 172.691 90.8816 165.398 93.1728L163 85.5405ZM170 75.9995H162V46.2827H170H178V75.9995H170ZM170 46.2827L162 46.2832C162 50.7764 166.757 53.6752 170.751 51.615L167.083 44.5054L163.415 37.3958C170.071 33.9621 178 38.7935 178 46.2823L170 46.2827ZM167.083 44.5054L170.752 51.6142L161.086 56.6035L157.417 49.4946L153.748 42.3858L163.414 37.3965L167.083 44.5054ZM157.417 49.4946L161.085 56.6044C154.429 60.0378 146.501 55.2059 146.5 47.7185L154.5 47.7173L162.5 47.7161C162.499 43.224 157.743 40.3246 153.749 42.3849L157.417 49.4946ZM154.5 47.7173H146.5V26.1382H154.5H162.5V47.7173H154.5ZM154.5 26.1382H146.5C146.5 30.8695 151.721 33.7393 155.715 31.2044L151.429 24.4497L147.142 17.695C153.8 13.4702 162.5 18.2528 162.5 26.1382H154.5ZM151.429 24.4497L155.715 31.2045L135.858 43.8051L131.571 37.0503L127.285 30.2955L147.142 17.6949L151.429 24.4497ZM131.571 37.0503L135.857 43.8052C129.2 48.0292 120.5 43.2478 120.5 35.3618H128.5H136.5C136.5 30.6298 131.279 27.7612 127.285 30.2954L131.571 37.0503ZM128.5 35.3618H120.5V20.5923H128.5H136.5V35.3618H128.5Z" fill="white" mask="url(#path-15-outside-1_24_206)"/>
</svg>
