<svg width="322" height="266" viewBox="0 0 322 266" fill="none" xmlns="http://www.w3.org/2000/svg">
    <path d="M106.518 177H133.518V236.5C137.936 236.5 141.518 240.082 141.518 244.5V247C141.518 248.105 140.622 249 139.518 249H108.518C107.413 249 106.518 248.105 106.518 247V177Z" fill="#34231B"/>
    <path d="M183.518 177H210.518V236.5C214.936 236.5 218.518 240.082 218.518 244.5V247C218.518 248.105 217.622 249 216.518 249H185.518C184.413 249 183.518 248.105 183.518 247V177Z" fill="#34231B"/>
    <path d="M76.9998 177H104V236.5C108.418 236.5 112 240.082 112 244.5V247C112 248.105 111.104 249 110 249H78.9998C77.8952 249 76.9998 248.105 76.9998 247V177Z" fill="#422C22"/>
    <path d="M157 177H184V236.5C188.418 236.5 192 240.082 192 244.5V247C192 248.105 191.104 249 190 249H159C157.895 249 157 248.105 157 247V177Z" fill="#422C22"/>
    <path d="M68.1187 159.325C79.046 145.622 98.6561 142.588 113.213 152.349L93.7521 173.577C79.0351 189.629 59.1795 200.494 37.7578 204.418C36.0561 204.73 34.3567 205.171 32.7197 205.731L23.2398 208.971C22.4846 209.229 21.6886 208.706 21.626 207.911C20.9119 198.843 26.0104 190.316 34.3358 186.653L36.6899 185.618C47.2761 180.96 56.5738 173.803 63.7844 164.76L68.1187 159.325Z" fill="#34231B"/>
    <path d="M76.9998 171C76.9998 156.088 89.0881 144 104 144H216C222.075 144 227 148.925 227 155V175C227 195.987 209.987 213 189 213H178.055C169.726 213 161.438 211.831 153.434 209.527L142.608 206.41C135.893 204.477 128.973 203.341 121.992 203.027L92.2798 201.688C83.7319 201.303 76.9998 194.261 76.9998 185.704V171Z" fill="#422C22"/>
    <path opacity="0.49" d="M205.407 185C211.954 185 217.71 188.385 221.022 193.5C221.413 194.102 221.399 194.876 221.011 195.48C214.257 206.016 202.445 213 189 213H185C183.895 213 183 212.105 183 211V207.407C183 195.032 193.032 185 205.407 185Z" fill="#594034"/>
    <path d="M180 89.6847C180 77.8988 183.928 66.4491 191.164 57.1459L191.926 56.1661C193.011 54.7718 195.089 54.6877 196.282 55.9898C205.477 66.0203 210.92 78.9217 211.689 92.507L212 98L180 131V89.6847Z" fill="#422C22"/>
    <path d="M189 88.3285C189 81.1369 190.634 74.0392 193.778 67.5713L194.04 67.0313C194.873 65.3192 197.282 65.2375 198.228 66.8893C202.183 73.7924 204.397 81.5551 204.678 89.5059L205 98.6L189 125V88.3285Z" fill="#4E352B"/>
    <path d="M236.027 84.9223C237.641 74.8548 242.125 65.4666 248.941 57.8835L250.011 56.6933C251.317 55.2407 253.648 55.4352 254.695 57.084C261.574 67.9177 264.858 80.646 264.08 93.4555L263.5 103L229 128.751L236.027 84.9223Z" fill="#34231B"/>
    <path d="M243.276 87.0102C244.216 80.2982 246.572 73.8627 250.189 68.1307L250.535 67.5816C251.594 65.9038 254.118 66.1741 254.797 68.038C257.375 75.1115 258.3 82.6811 257.502 90.1673L256.465 99.8808L238.102 123.967L243.276 87.0102Z" fill="#422C22"/>
    <path d="M180 135C180 114.013 197.013 97 218 97H248C262.912 97 275 109.088 275 124V166C275 170.971 270.971 175 266 175H180V135Z" fill="#422C22"/>
    <rect x="218" y="138" width="80" height="40" rx="16" fill="#4E352B"/>
    <path d="M279 166C279 167.657 280.343 169 282 169H296.391C295.442 170.948 294.109 172.674 292.49 174.081L258.924 174.472C257.667 174.486 256.709 173.351 256.934 172.114L257.202 170.643C257.375 169.692 258.203 169 259.17 169H274C275.657 169 277 167.657 277 166V150H279V166Z" fill="#422C22"/>
    <path d="M268 146.529C268 145.685 268.685 145 269.529 145H286.471C287.315 145 288 145.685 288 146.529V148C288 153.523 283.523 158 278 158C272.477 158 268 153.523 268 148V146.529Z" fill="#1E1E1E"/>
    <rect width="15" height="15" rx="7.5" transform="matrix(-1 0 0 1 270 118)" fill="#1E1E1E"/>
    <rect width="15" height="15" rx="7.5" transform="matrix(-1 0 0 1 234 118)" fill="#1E1E1E"/>
    <mask id="path-18-outside-1_50_1681" maskUnits="userSpaceOnUse" x="12.5596" y="47.0647" width="294" height="210" fill="black">
        <rect fill="white" x="12.5596" y="47.0647" width="294" height="210"/>
        <path d="M191.927 56.1665C193.011 54.7723 195.089 54.6878 196.282 55.9897C205.477 66.0202 210.92 78.922 211.689 92.5073L211.97 97.478C213.934 97.1648 215.948 97.0005 218 97.0005H234.091L236.027 84.9223C237.642 74.8549 242.126 65.4664 248.941 57.8833L250.011 56.6938C251.316 55.2412 253.647 55.4356 254.694 57.0844C261.573 67.9182 264.858 80.6461 264.08 93.4555L263.564 101.936C270.482 106.825 275 114.885 275 124V138H282C290.837 138 298 145.164 298 154V162C298 170.837 290.836 178 282 178H234C231.478 178 229.093 177.416 226.972 176.376C226.693 184.191 224.056 191.402 219.75 197.324C219.711 197.378 219.671 197.432 219.632 197.486C219.333 197.892 219.027 198.292 218.713 198.686C218.656 198.757 218.598 198.828 218.541 198.899C217.607 200.052 216.607 201.15 215.546 202.186C215.509 202.222 215.472 202.258 215.436 202.293C215.062 202.656 214.68 203.01 214.292 203.357C214.227 203.414 214.163 203.472 214.098 203.529C213.983 203.63 213.868 203.732 213.752 203.832C213.635 203.932 213.518 204.031 213.4 204.129C213.258 204.249 213.114 204.366 212.97 204.484C212.891 204.548 212.812 204.613 212.732 204.676C212.55 204.822 212.366 204.967 212.181 205.11C212.081 205.186 211.982 205.263 211.882 205.338C211.756 205.433 211.629 205.527 211.502 205.621C211.474 205.641 211.446 205.662 211.418 205.683C211.184 205.854 210.949 206.022 210.711 206.188C210.646 206.233 210.582 206.278 210.518 206.323V236.5C214.936 236.5 218.518 240.082 218.518 244.5V247C218.517 248.105 217.622 249 216.518 249H159C157.896 249 157 248.105 157 247V210.47C155.806 210.179 154.617 209.867 153.435 209.527L142.608 206.41C139.615 205.548 136.58 204.846 133.518 204.303V236.5C137.936 236.5 141.518 240.082 141.518 244.5V247C141.517 248.105 140.622 249 139.518 249H79C77.8955 249 77.0001 248.105 77 247V188.15C65.2764 196.246 51.8566 201.836 37.7578 204.418C36.0562 204.73 34.3566 205.171 32.7197 205.731L23.2402 208.971C22.485 209.229 21.6886 208.706 21.626 207.911C20.912 198.843 26.0106 190.316 34.3359 186.654L36.6894 185.618C47.2756 180.96 56.5735 173.803 63.7842 164.76L68.1181 159.326C74.2251 151.667 83.0445 147.342 92.1777 146.719C95.7482 144.978 99.76 144 104 144H180V135C180 133.565 180.082 132.149 180.237 130.755L180 131V89.685C180 77.8991 183.928 66.4492 191.164 57.146L191.927 56.1665ZM104 236.5C104.88 236.5 105.726 236.644 106.518 236.907V202.33L104 202.216V236.5Z"/>
    </mask>
    <path d="M191.927 56.1665L198.239 61.0815L198.241 61.0782L191.927 56.1665ZM196.282 55.9897L202.179 50.5839L202.179 50.5834L196.282 55.9897ZM211.689 92.5073L219.677 92.0569L219.677 92.0552L211.689 92.5073ZM211.97 97.478L203.982 97.9284L204.481 106.773L213.229 105.378L211.97 97.478ZM218 97.0005V89.0005V97.0005ZM234.091 97.0005V105H240.91L241.99 98.2669L234.091 97.0005ZM236.027 84.9223L228.128 83.6558V83.6558L236.027 84.9223ZM248.941 57.8833L242.992 52.5348L242.992 52.5354L248.941 57.8833ZM250.011 56.6938L255.96 62.0423L255.961 62.0416L250.011 56.6938ZM254.694 57.0844L261.448 52.7963L261.448 52.7963L254.694 57.0844ZM264.08 93.4555L272.065 93.941L272.065 93.9406L264.08 93.4555ZM263.564 101.936L255.579 101.45L255.309 105.898L258.947 108.469L263.564 101.936ZM275 138H267V146H275V138ZM298 162L306 162.001V162H298ZM282 178V186V178ZM226.972 176.376L230.491 169.192L219.416 163.767L218.977 176.092L226.972 176.376ZM219.75 197.324L213.28 192.619L213.28 192.619L219.75 197.324ZM219.632 197.486L226.077 202.225L226.077 202.225L219.632 197.486ZM218.713 198.686L212.46 193.695L212.46 193.696L218.713 198.686ZM218.541 198.899L224.757 203.934L224.758 203.934L218.541 198.899ZM215.546 202.186L209.956 196.463L209.956 196.463L215.546 202.186ZM215.436 202.293L221.002 208.039L221.002 208.039L215.436 202.293ZM214.292 203.357L208.965 197.388L208.964 197.389L214.292 203.357ZM214.098 203.529L219.384 209.533L219.385 209.533L214.098 203.529ZM213.752 203.832L208.538 197.764L208.537 197.764L213.752 203.832ZM213.4 204.129L218.541 210.259L218.541 210.259L213.4 204.129ZM212.97 204.484L207.919 198.279L207.919 198.28L212.97 204.484ZM212.732 204.676L217.733 210.921L217.733 210.92L212.732 204.676ZM212.181 205.11L207.296 198.774L207.295 198.775L212.181 205.11ZM211.882 205.338L216.704 211.722L216.705 211.721L211.882 205.338ZM211.502 205.621L206.759 199.178L206.759 199.178L211.502 205.621ZM211.418 205.683L216.143 212.139L216.143 212.138L211.418 205.683ZM210.711 206.188L206.134 199.626L206.134 199.627L210.711 206.188ZM210.518 206.323L205.981 199.733L202.518 202.118V206.323H210.518ZM210.518 236.5H202.518V244.5H210.518V236.5ZM218.518 247L226.518 247.002V247H218.518ZM157 247H149V247.002L157 247ZM157 210.47H165V204.184L158.893 202.697L157 210.47ZM153.435 209.527L151.221 217.214L151.221 217.215L153.435 209.527ZM142.608 206.41L144.822 198.722L144.822 198.722L142.608 206.41ZM133.518 204.303L134.914 196.426L125.518 194.761V204.303H133.518ZM133.518 236.5H125.518V244.5H133.518V236.5ZM141.518 247L149.518 247.002V247H141.518ZM77 247H69V247.002L77 247ZM77 188.15H85V172.903L72.454 181.567L77 188.15ZM37.7578 204.418L36.3164 196.549H36.3164L37.7578 204.418ZM32.7197 205.731L35.3072 213.301L35.3073 213.301L32.7197 205.731ZM23.2402 208.971L20.6527 201.401L20.6526 201.401L23.2402 208.971ZM21.626 207.911L13.6506 208.539L13.6506 208.539L21.626 207.911ZM34.3359 186.654L37.5575 193.976L37.5594 193.976L34.3359 186.654ZM36.6894 185.618L33.4678 178.295L33.466 178.296L36.6894 185.618ZM63.7842 164.76L57.5295 159.772L57.5293 159.772L63.7842 164.76ZM68.1181 159.326L74.3728 164.314L74.373 164.313L68.1181 159.326ZM92.1777 146.719L92.7217 154.701L94.2807 154.594L95.6851 153.909L92.1777 146.719ZM180 144V152H188V144H180ZM180.237 130.755L188.188 131.639L190.775 108.369L174.49 125.191L180.237 130.755ZM180 131H172V150.765L185.748 136.565L180 131ZM191.164 57.146L184.852 52.2309L184.849 52.2344L191.164 57.146ZM104 236.5H96V244.5L104 244.5L104 236.5ZM106.518 236.907L104.001 244.501L114.518 247.986V236.907H106.518ZM106.518 202.33H114.518V194.681L106.877 194.338L106.518 202.33ZM104 202.216L104.36 194.224L96 193.848V202.216H104ZM191.927 56.1665L198.241 61.0782C196.287 63.5912 192.539 63.7453 190.385 61.396L196.282 55.9897L202.179 50.5834C197.638 45.6303 189.736 45.9534 185.612 51.2547L191.927 56.1665ZM196.282 55.9897L190.385 61.3955C198.332 70.0654 203.038 81.2171 203.702 92.9594L211.689 92.5073L219.677 92.0552C218.803 76.6269 212.621 61.975 202.179 50.5839L196.282 55.9897ZM211.689 92.5073L203.702 92.9577L203.982 97.9284L211.97 97.478L219.957 97.0276L219.677 92.0569L211.689 92.5073ZM211.97 97.478L213.229 105.378C214.783 105.13 216.376 105 218 105V97.0005V89.0005C215.52 89.0005 213.085 89.1991 210.71 89.5778L211.97 97.478ZM218 97.0005V105H234.091V97.0005V89.0005H218V97.0005ZM234.091 97.0005L241.99 98.2669L243.926 86.1888L236.027 84.9223L228.128 83.6558L226.192 95.734L234.091 97.0005ZM236.027 84.9223L243.926 86.1888C245.297 77.641 249.104 69.6696 254.891 63.2311L248.941 57.8833L242.992 52.5354C235.147 61.2631 229.986 72.0687 228.128 83.6558L236.027 84.9223ZM248.941 57.8833L254.891 63.2317L255.96 62.0423L250.011 56.6938L244.061 51.3453L242.992 52.5348L248.941 57.8833ZM250.011 56.6938L255.961 62.0416C253.725 64.5285 249.733 64.1959 247.941 61.3726L254.694 57.0844L261.448 52.7963C257.562 46.6753 248.907 45.954 244.061 51.346L250.011 56.6938ZM254.694 57.0844L247.941 61.3726C253.917 70.7848 256.771 81.8425 256.095 92.9705L264.08 93.4555L272.065 93.9406C272.946 79.4498 269.229 65.0515 261.448 52.7963L254.694 57.0844ZM264.08 93.4555L256.095 92.97L255.579 101.45L263.564 101.936L271.55 102.422L272.065 93.941L264.08 93.4555ZM263.564 101.936L258.947 108.469C263.835 111.923 267 117.593 267 124H275H283C283 112.177 277.13 101.726 268.181 95.4028L263.564 101.936ZM275 124H267V138H275H283V124H275ZM275 138V146H282V138V130H275V138ZM282 138V146C286.418 146 290 149.582 290 154H298H306C306 140.746 295.255 130 282 130V138ZM298 154H290V162H298H306V154H298ZM298 162L290 162C290 166.419 286.418 170 282 170V178V186C295.255 186 306 175.255 306 162.001L298 162ZM282 178V170H234V178V186H282V178ZM234 178V170C232.728 170 231.544 169.708 230.491 169.192L226.972 176.376L223.453 183.561C226.643 185.123 230.228 186 234 186V178ZM226.972 176.376L218.977 176.092C218.757 182.263 216.68 187.944 213.28 192.619L219.75 197.324L226.22 202.029C231.433 194.86 234.63 186.119 234.967 176.661L226.972 176.376ZM219.75 197.324L213.28 192.619C213.229 192.689 213.21 192.715 213.186 192.747L219.632 197.486L226.077 202.225C226.133 202.148 226.192 202.067 226.22 202.029L219.75 197.324ZM219.632 197.486L213.187 192.747C212.947 193.073 212.705 193.389 212.46 193.695L218.713 198.686L224.965 203.677C225.349 203.196 225.719 202.711 226.077 202.225L219.632 197.486ZM218.713 198.686L212.46 193.696C212.427 193.737 212.399 193.772 212.324 193.864L218.541 198.899L224.758 203.934C224.798 203.884 224.885 203.777 224.966 203.676L218.713 198.686ZM218.541 198.899L212.324 193.864C211.585 194.776 210.794 195.644 209.956 196.463L215.546 202.186L221.135 207.909C222.419 206.656 223.628 205.328 224.757 203.934L218.541 198.899ZM215.546 202.186L209.956 196.463C209.923 196.495 209.895 196.523 209.869 196.548L215.436 202.293L221.002 208.039C221.05 207.993 221.095 207.948 221.136 207.909L215.546 202.186ZM215.436 202.293L209.869 196.548C209.573 196.834 209.272 197.115 208.965 197.388L214.292 203.357L219.619 209.325C220.089 208.906 220.55 208.477 221.002 208.039L215.436 202.293ZM214.292 203.357L208.964 197.389C208.924 197.425 208.881 197.463 208.811 197.525L214.098 203.529L219.385 209.533C219.444 209.48 219.531 209.404 219.62 209.325L214.292 203.357ZM214.098 203.529L208.811 197.524C208.663 197.655 208.606 197.705 208.538 197.764L213.752 203.832L218.966 209.899C219.13 209.758 219.302 209.605 219.384 209.533L214.098 203.529ZM213.752 203.832L208.537 197.764C208.457 197.834 208.367 197.909 208.259 198L213.4 204.129L218.541 210.259C218.669 210.152 218.814 210.029 218.966 209.899L213.752 203.832ZM213.4 204.129L208.26 197.999C208.166 198.079 208.06 198.165 207.919 198.279L212.97 204.484L218.02 210.688C218.168 210.568 218.35 210.419 218.541 210.259L213.4 204.129ZM212.97 204.484L207.919 198.28C207.824 198.357 207.779 198.394 207.731 198.432L212.732 204.676L217.733 210.92C217.845 210.831 217.958 210.739 218.021 210.688L212.97 204.484ZM212.732 204.676L207.732 198.432C207.587 198.548 207.442 198.662 207.296 198.774L212.181 205.11L217.065 211.445C217.29 211.272 217.512 211.097 217.733 210.921L212.732 204.676ZM212.181 205.11L207.295 198.775C207.204 198.845 207.129 198.903 207.059 198.955L211.882 205.338L216.705 211.721C216.835 211.623 216.958 211.528 217.066 211.445L212.181 205.11ZM211.882 205.338L207.06 198.955C206.978 199.017 206.888 199.083 206.759 199.178L211.502 205.621L216.244 212.063C216.37 211.971 216.534 211.85 216.704 211.722L211.882 205.338ZM211.502 205.621L206.759 199.178C206.733 199.197 206.711 199.214 206.695 199.225C206.681 199.236 206.667 199.247 206.663 199.25C206.657 199.254 206.658 199.253 206.662 199.25C206.667 199.247 206.677 199.239 206.692 199.228L211.418 205.683L216.143 212.138C216.173 212.117 216.197 212.099 216.216 212.085C216.234 212.071 216.249 212.06 216.257 212.054C216.267 212.047 216.267 212.047 216.267 212.047C216.265 212.048 216.257 212.054 216.245 212.063L211.502 205.621ZM211.418 205.683L206.693 199.227C206.512 199.36 206.326 199.493 206.134 199.626L210.711 206.188L215.287 212.75C215.571 212.552 215.856 212.348 216.143 212.139L211.418 205.683ZM210.711 206.188L206.134 199.627C206.025 199.702 206.02 199.707 205.981 199.733L210.518 206.323L215.054 212.912C215.145 212.85 215.268 212.763 215.288 212.749L210.711 206.188ZM210.518 206.323H202.518V236.5H210.518H218.518V206.323H210.518ZM210.518 236.5V244.5H218.518H226.518C226.518 235.664 219.354 228.5 210.518 228.5V236.5ZM218.518 244.5H210.518V247H218.518H226.518V244.5H218.518ZM218.518 247L210.518 246.999C210.518 243.688 213.202 241 216.518 241V249V257C222.042 257 226.517 252.522 226.518 247.002L218.518 247ZM216.518 249V241H159V249V257H216.518V249ZM159 249V241C162.315 241 164.999 243.688 165 246.999L157 247L149 247.002C149.001 252.522 153.476 257 159 257V249ZM157 247H165V210.47H157H149V247H157ZM157 210.47L158.893 202.697C157.791 202.429 156.71 202.145 155.648 201.839L153.435 209.527L151.221 217.215C152.524 217.589 153.821 217.93 155.107 218.243L157 210.47ZM153.435 209.527L155.648 201.839L144.822 198.722L142.608 206.41L140.395 214.097L151.221 217.214L153.435 209.527ZM142.608 206.41L144.822 198.722C141.556 197.782 138.249 197.017 134.914 196.426L133.518 204.303L132.122 212.18C134.911 212.675 137.673 213.314 140.395 214.097L142.608 206.41ZM133.518 204.303H125.518V236.5H133.518H141.518V204.303H133.518ZM133.518 236.5V244.5H141.518H149.518C149.518 235.664 142.354 228.5 133.518 228.5V236.5ZM141.518 244.5H133.518V247H141.518H149.518V244.5H141.518ZM141.518 247L133.518 246.999C133.518 243.688 136.202 241 139.518 241V249V257C145.042 257 149.517 252.522 149.518 247.002L141.518 247ZM139.518 249V241H79V249V257H139.518V249ZM79 249V241C82.3149 241 84.9995 243.688 85 246.999L77 247L69 247.002C69.0008 252.522 73.4761 257 79 257V249ZM77 247H85V188.15H77H69V247H77ZM77 188.15L72.454 181.567C61.6566 189.023 49.2938 194.172 36.3164 196.549L37.7578 204.418L39.1992 212.288C54.4194 209.5 68.8963 203.468 81.5459 194.733L77 188.15ZM37.7578 204.418L36.3164 196.549C34.2324 196.931 32.1495 197.471 30.1321 198.161L32.7197 205.731L35.3073 213.301C36.5638 212.871 37.8799 212.529 39.1992 212.288L37.7578 204.418ZM32.7197 205.731L30.1322 198.161L20.6527 201.401L23.2402 208.971L25.8277 216.541L35.3072 213.301L32.7197 205.731ZM23.2402 208.971L20.6526 201.401C24.8372 199.971 29.2536 202.867 29.6013 207.283L21.626 207.911L13.6506 208.539C14.1237 214.545 20.1329 218.488 25.8278 216.541L23.2402 208.971ZM21.626 207.911L29.6013 207.283C29.1544 201.607 32.3458 196.269 37.5575 193.976L34.3359 186.654L31.1143 179.331C19.6754 184.364 12.6696 196.08 13.6506 208.539L21.626 207.911ZM34.3359 186.654L37.5594 193.976L39.9129 192.939L36.6894 185.618L33.466 178.296L31.1125 179.332L34.3359 186.654ZM36.6894 185.618L39.911 192.94C51.6824 187.762 62.0211 179.803 70.039 169.748L63.7842 164.76L57.5293 159.772C51.1259 167.803 42.8689 174.159 33.4678 178.295L36.6894 185.618ZM63.7842 164.76L70.0388 169.748L74.3728 164.314L68.1181 159.326L61.8635 154.338L57.5295 159.772L63.7842 164.76ZM68.1181 159.326L74.373 164.313C79.0281 158.476 85.7424 155.176 92.7217 154.701L92.1777 146.719L91.6337 138.738C80.3466 139.507 69.4221 144.859 61.8633 154.338L68.1181 159.326ZM92.1777 146.719L95.6851 153.909C98.1867 152.689 101.001 152 104 152V144V136C98.5186 136 93.3096 137.266 88.6704 139.529L92.1777 146.719ZM104 144V152H180V144V136H104V144ZM180 144H188V135H180H172V144H180ZM180 135H188C188 133.872 188.065 132.751 188.188 131.639L180.237 130.755L172.286 129.872C172.1 131.547 172 133.259 172 135H180ZM180.237 130.755L174.49 125.191L174.252 125.436L180 131L185.748 136.565L185.985 136.32L180.237 130.755ZM180 131H188V89.685H180H172V131H180ZM180 89.685H188C188 79.678 191.335 69.9563 197.479 62.0575L191.164 57.146L184.849 52.2344C176.521 62.942 172 76.1203 172 89.685H180ZM191.164 57.146L197.476 62.061L198.239 61.0815L191.927 56.1665L185.615 51.2515L184.852 52.2309L191.164 57.146ZM104 236.5L104 244.5C104.002 244.5 104.002 244.501 104.002 244.501C104.002 244.5 104.001 244.5 104.001 244.5C103.999 244.5 103.999 244.5 104.001 244.501L106.518 236.907L109.034 229.313C107.452 228.789 105.758 228.5 104 228.5L104 236.5ZM106.518 236.907H114.518V202.33H106.518H98.5176V236.907H106.518ZM106.518 202.33L106.877 194.338L104.36 194.224L104 202.216L103.64 210.208L106.158 210.321L106.518 202.33ZM104 202.216H96V236.5H104H112V202.216H104Z" fill="white" mask="url(#path-18-outside-1_50_1681)"/>
</svg>
