<svg width="322" height="266" viewBox="0 0 322 266" fill="none" xmlns="http://www.w3.org/2000/svg">
    <path d="M104.518 177H131.518V236.5C135.936 236.5 139.518 240.082 139.518 244.5V247C139.518 248.105 138.623 249 137.518 249H106.518C105.413 249 104.518 248.105 104.518 247V177Z" fill="#34231B"/>
    <path d="M181.518 177H208.518V236.5C212.936 236.5 216.518 240.082 216.518 244.5V247C216.518 248.105 215.623 249 214.518 249H183.518C182.413 249 181.518 248.105 181.518 247V177Z" fill="#34231B"/>
    <path d="M64.5181 177H91.5181V236.5C95.9363 236.5 99.5181 240.082 99.5181 244.5V247C99.5181 248.105 98.6226 249 97.5181 249H66.5181C65.4135 249 64.5181 248.105 64.5181 247V177Z" fill="#422C22"/>
    <path d="M143.518 177H170.518V236.5C174.936 236.5 178.518 240.082 178.518 244.5V247C178.518 248.105 177.623 249 176.518 249H145.518C144.413 249 143.518 248.105 143.518 247V177Z" fill="#422C22"/>
    <path d="M54.6299 152.859C61.4235 142.772 73.0805 137.073 85.2137 137.907L96.5481 138.686L76.6334 167.016C70.0198 176.424 65.0786 186.903 62.0271 197.991L57.2355 215.402C55.8339 220.495 53.2978 225.205 49.8172 229.178L47.4525 231.877C46.592 232.86 45.0361 232.767 44.2981 231.69L43.4992 230.524C38.8374 223.718 36.7289 215.485 37.5459 207.277L38.5114 197.577C40.1049 181.568 45.643 166.204 54.6299 152.859Z" fill="#34231B"/>
    <path d="M64.5181 164C64.5181 149.088 76.6064 137 91.5181 137H203.518C209.593 137 214.518 141.925 214.518 148V168C214.518 188.987 197.505 206 176.518 206H165.574C157.245 206 148.957 204.831 140.952 202.527L130.126 199.41C123.411 197.477 116.491 196.341 109.51 196.027L79.7981 194.688C71.2502 194.303 64.5181 187.261 64.5181 178.704V164Z" fill="#422C22"/>
    <path opacity="0.49" d="M192.925 157C203.194 157 211.518 165.324 211.518 175.593V182.416C211.518 182.684 211.465 182.95 211.357 183.196C205.494 196.619 192.102 206 176.518 206H172.518C171.413 206 170.518 205.105 170.518 204V179.407C170.518 167.032 180.55 157 192.925 157Z" fill="#594034"/>
    <path d="M145.519 60.6847C145.519 48.8988 149.447 37.4491 156.683 28.1459L157.445 27.1661C158.529 25.7718 160.607 25.6877 161.801 26.9898C170.995 37.0203 176.439 49.9217 177.208 63.507L177.519 69L145.519 102V60.6847Z" fill="#422C22"/>
    <path d="M154.519 59.3285C154.519 52.1369 156.152 45.0392 159.296 38.5713L159.559 38.0313C160.391 36.3192 162.8 36.2375 163.747 37.8893C167.702 44.7924 169.916 52.5551 170.197 60.5059L170.519 69.6L154.519 96V59.3285Z" fill="#4E352B"/>
    <path d="M201.546 55.9223C203.16 45.8548 207.644 36.4666 214.46 28.8835L215.529 27.6933C216.835 26.2407 219.166 26.4352 220.213 28.084C227.092 38.9177 230.376 51.646 229.598 64.4555L229.019 74L194.519 99.7514L201.546 55.9223Z" fill="#34231B"/>
    <path d="M208.795 58.0102C209.735 51.2982 212.091 44.8627 215.707 39.1307L216.054 38.5816C217.112 36.9038 219.636 37.1741 220.316 39.038C222.894 46.1115 223.819 53.6811 223.02 61.1673L221.984 70.8808L203.621 94.9673L208.795 58.0102Z" fill="#422C22"/>
    <path d="M145.519 106C145.519 85.0132 162.532 68 183.519 68H213.519C228.43 68 240.519 80.0883 240.519 95V137C240.519 141.971 236.489 146 231.519 146H145.519V106Z" fill="#422C22"/>
    <rect x="183.519" y="109" width="80" height="40" rx="16" fill="#4E352B"/>
    <path d="M244.518 137C244.518 138.657 245.862 140 247.518 140H261.91C261.561 140.715 261.161 141.399 260.714 142.05L223.872 142.479C222.989 142.489 222.379 141.599 222.707 140.779C222.895 140.309 223.351 140 223.857 140H239.518C241.175 140 242.518 138.657 242.518 137V121H244.518V137Z" fill="#422C22"/>
    <path d="M233.519 117.529C233.519 116.685 234.203 116 235.048 116H251.989C252.834 116 253.519 116.685 253.519 117.529V119C253.519 124.523 249.041 129 243.519 129C237.996 129 233.519 124.523 233.519 119V117.529Z" fill="#1E1E1E"/>
    <rect width="15" height="15" rx="7.5" transform="matrix(-1 0 0 1 235.519 89)" fill="#D9D9D9"/>
    <rect width="15" height="15" rx="7.5" transform="matrix(-1 0 0 1 199.519 89)" fill="#D9D9D9"/>
    <rect x="180" y="85" width="23" height="23" rx="11.5" fill="white"/>
    <rect x="216" y="84" width="23" height="23" rx="11.5" fill="white"/>
    <rect x="185" y="90" width="13" height="13" rx="6.5" fill="#1E1E1E"/>
    <rect x="221" y="89" width="13" height="13" rx="6.5" fill="#1E1E1E"/>
    <mask id="path-22-outside-1_50_1715" maskUnits="userSpaceOnUse" x="28.3738" y="17.0647" width="244" height="240" fill="black">
        <rect fill="white" x="28.3738" y="17.0647" width="244" height="240"/>
        <path d="M157.445 27.1663C158.529 25.7721 160.607 25.6877 161.801 26.9895C170.995 37.02 176.439 49.9218 177.208 63.5071L177.488 68.4778C179.452 68.1646 181.466 68.0003 183.518 68.0002H199.609L201.546 55.9221C203.16 45.8547 207.644 36.4662 214.46 28.8831L215.53 27.6936C216.836 26.2411 219.167 26.4354 220.214 28.0842C227.092 38.9179 230.376 51.646 229.598 64.4553L229.083 72.9358C236.001 77.8247 240.518 85.8847 240.518 95.0002V109H247.518C256.355 109 263.518 116.164 263.518 125V133C263.518 141.837 256.355 149 247.518 149H214.518V168C214.518 173.389 213.393 178.514 211.371 183.157C211.366 183.17 211.363 183.183 211.357 183.196C211.317 183.287 211.275 183.378 211.234 183.469C211.197 183.552 211.161 183.635 211.124 183.717C211.042 183.897 210.959 184.075 210.875 184.253C210.805 184.4 210.734 184.545 210.663 184.691C210.584 184.851 210.505 185.012 210.424 185.171C210.373 185.272 210.321 185.372 210.269 185.472C210.189 185.628 210.106 185.782 210.023 185.937C209.979 186.02 209.935 186.103 209.889 186.186C209.627 186.667 209.354 187.142 209.071 187.611C209.024 187.688 208.977 187.765 208.929 187.842C208.846 187.977 208.763 188.112 208.678 188.246C208.625 188.331 208.573 188.418 208.518 188.502V236.5C212.937 236.5 216.518 240.082 216.518 244.5V247C216.518 248.105 215.623 249 214.518 249H183.518C182.414 249 181.518 248.105 181.518 247V205.673C181.491 205.677 181.464 205.679 181.436 205.683C181.356 205.693 181.276 205.703 181.195 205.713C180.99 205.738 180.783 205.762 180.577 205.783C180.473 205.794 180.369 205.805 180.265 205.816C180.039 205.838 179.812 205.858 179.584 205.876C179.528 205.881 179.472 205.886 179.417 205.89C179.128 205.912 178.839 205.93 178.549 205.946C178.479 205.949 178.409 205.952 178.339 205.955C178.102 205.966 177.865 205.975 177.627 205.982C177.556 205.984 177.486 205.987 177.416 205.989C177.359 205.99 177.303 205.992 177.247 205.993L176.518 206H170.518V236.5C174.937 236.5 178.518 240.082 178.518 244.5V247C178.518 248.105 177.623 249 176.518 249H145.518C144.414 249 143.518 248.105 143.518 247V203.22C142.66 203.001 141.805 202.772 140.953 202.527L131.518 199.81V236.5C135.937 236.5 139.518 240.082 139.518 244.5V247C139.518 248.105 138.623 249 137.518 249H106.518C105.414 249 104.518 248.105 104.518 247V195.801L91.5183 195.215V236.5C95.9365 236.5 99.5183 240.082 99.5183 244.5V247C99.5181 248.105 98.6227 249 97.5183 249H66.5183C65.4139 249 64.5185 248.105 64.5183 247V190.202C63.5837 192.76 62.7516 195.358 62.0271 197.99L57.2351 215.403C55.8335 220.495 53.2976 225.205 49.8171 229.178L47.4529 231.877C46.5924 232.859 45.0367 232.767 44.2986 231.69L43.4998 230.524C38.8379 223.718 36.7286 215.485 37.5457 207.277L38.5115 197.577C40.105 181.568 45.6428 166.204 54.6296 152.86C61.3234 142.92 72.7392 137.241 84.6794 137.874C86.8636 137.304 89.1555 137 91.5183 137H145.518V106C145.518 104.565 145.601 103.149 145.756 101.755L145.518 102V60.6848C145.518 48.8989 149.447 37.449 156.683 28.1458L157.445 27.1663Z"/>
    </mask>
    <path d="M157.445 27.1663L151.13 22.2547L151.13 22.2552L157.445 27.1663ZM161.801 26.9895L167.698 21.5837L167.697 21.5828L161.801 26.9895ZM177.208 63.5071L185.195 63.0567L185.195 63.055L177.208 63.5071ZM177.488 68.4778L169.501 68.9282L169.999 77.773L178.748 76.378L177.488 68.4778ZM183.518 68.0002V60.0002H183.518L183.518 68.0002ZM199.609 68.0002V76.0002H206.429L207.508 69.2667L199.609 68.0002ZM201.546 55.9221L193.647 54.6556V54.6556L201.546 55.9221ZM214.46 28.8831L208.513 23.5319L208.51 23.5352L214.46 28.8831ZM215.53 27.6936L221.477 33.0448L221.48 33.0415L215.53 27.6936ZM220.214 28.0842L226.967 23.7961L226.967 23.7961L220.214 28.0842ZM229.598 64.4553L237.584 64.9408L237.584 64.9404L229.598 64.4553ZM229.083 72.9358L221.098 72.4503L220.827 76.8976L224.466 79.469L229.083 72.9358ZM240.518 109H232.518V117H240.518V109ZM263.518 133L271.518 133V133H263.518ZM214.518 149V141H206.518V149H214.518ZM214.518 168L222.518 168V168H214.518ZM211.371 183.157L204.036 179.963L204.003 180.039L203.972 180.115L211.371 183.157ZM211.357 183.196L218.688 186.398L218.689 186.396L211.357 183.196ZM211.234 183.469L218.54 186.729V186.729L211.234 183.469ZM211.124 183.717L203.842 180.404L203.842 180.404L211.124 183.717ZM210.875 184.253L218.104 187.679L218.104 187.679L210.875 184.253ZM210.663 184.691L203.478 181.172L203.478 181.172L210.663 184.691ZM210.424 185.171L217.558 188.791L217.558 188.791L210.424 185.171ZM210.269 185.472L203.168 181.788L203.168 181.788L210.269 185.472ZM210.023 185.937L217.073 189.719L217.073 189.719L210.023 185.937ZM209.889 186.186L202.868 182.351L202.868 182.351L209.889 186.186ZM209.071 187.611L215.92 191.745L215.92 191.745L209.071 187.611ZM208.929 187.842L202.11 183.659L202.11 183.659L208.929 187.842ZM208.678 188.246L215.445 192.515L215.445 192.515L208.678 188.246ZM208.518 188.502L201.786 184.18L200.518 186.155V188.502H208.518ZM208.518 236.5H200.518V244.5L208.518 244.5L208.518 236.5ZM216.518 247L224.518 247.002V247H216.518ZM214.518 249V257H214.519L214.518 249ZM181.518 247H173.518V247.002L181.518 247ZM181.518 205.673H189.518V196.553L180.476 197.741L181.518 205.673ZM181.436 205.683L182.462 213.617H182.462L181.436 205.683ZM181.195 205.713L180.22 197.773H180.22L181.195 205.713ZM180.577 205.783L181.422 213.739H181.422L180.577 205.783ZM180.265 205.816L179.486 197.854H179.486L180.265 205.816ZM179.584 205.876L180.22 213.851H180.22L179.584 205.876ZM179.417 205.89L178.815 197.913H178.815L179.417 205.89ZM178.549 205.946L178.969 213.934H178.969L178.549 205.946ZM178.339 205.955L177.962 197.964H177.962L178.339 205.955ZM177.627 205.982L177.856 213.978H177.856L177.627 205.982ZM177.416 205.989L177.23 197.991H177.23L177.416 205.989ZM177.247 205.993L177.322 213.993L177.36 213.993L177.397 213.992L177.247 205.993ZM176.518 206V214H176.556L176.593 214L176.518 206ZM170.518 206V198H162.518V206H170.518ZM170.518 236.5H162.518V244.5L170.518 244.5L170.518 236.5ZM178.518 247L186.518 247.002V247H178.518ZM176.518 249V257H176.519L176.518 249ZM143.518 247H135.518V247.002L143.518 247ZM143.518 203.22H151.518V197.009L145.501 195.47L143.518 203.22ZM140.953 202.527L138.739 210.214L138.74 210.214L140.953 202.527ZM131.518 199.81L133.732 192.122L123.518 189.181V199.81H131.518ZM131.518 236.5H123.518V244.5L131.518 244.5L131.518 236.5ZM139.518 247L147.518 247.002V247H139.518ZM137.518 249V257H137.519L137.518 249ZM104.518 247H96.5183V247.002L104.518 247ZM104.518 195.801H112.518V188.153L104.879 187.809L104.518 195.801ZM91.5183 195.215L91.8785 187.223L83.5183 186.846V195.215H91.5183ZM91.5183 236.5H83.5183V244.5L91.5182 244.5L91.5183 236.5ZM99.5183 247L107.518 247.002V247H99.5183ZM97.5183 249V257H97.5189L97.5183 249ZM64.5183 247H56.5183V247.002L64.5183 247ZM64.5183 190.202H72.5183L57.0043 187.457L64.5183 190.202ZM62.0271 197.99L69.7403 200.113L69.7403 200.113L62.0271 197.99ZM57.2351 215.403L64.9483 217.525L64.9483 217.525L57.2351 215.403ZM49.8171 229.178L43.7995 223.907L43.7992 223.907L49.8171 229.178ZM47.4529 231.877L53.4705 237.149L53.4708 237.148L47.4529 231.877ZM44.2986 231.69L37.6988 236.211L37.6991 236.211L44.2986 231.69ZM43.4998 230.524L36.8998 235.045L36.9 235.045L43.4998 230.524ZM37.5457 207.277L29.585 206.484L29.585 206.484L37.5457 207.277ZM38.5115 197.577L46.4721 198.37L46.4721 198.37L38.5115 197.577ZM54.6296 152.86L47.9941 148.391L47.9941 148.391L54.6296 152.86ZM84.6794 137.874L84.2559 145.863L85.4972 145.929L86.7001 145.615L84.6794 137.874ZM145.518 137V145H153.518V137H145.518ZM145.756 101.755L153.707 102.639L156.293 79.3692L140.008 96.1906L145.756 101.755ZM145.518 102H137.518V121.765L151.266 107.565L145.518 102ZM156.683 28.1458L162.998 33.0573L162.999 33.0568L156.683 28.1458ZM157.445 27.1663L163.76 32.0778C161.805 34.5917 158.057 34.7444 155.904 32.3962L161.801 26.9895L167.697 21.5828C163.156 16.6311 155.254 16.9524 151.13 22.2547L157.445 27.1663ZM161.801 26.9895L155.903 32.3953C163.851 41.0652 168.556 52.2169 169.221 63.9592L177.208 63.5071L185.195 63.055C184.322 47.6267 178.14 32.9748 167.698 21.5837L161.801 26.9895ZM177.208 63.5071L169.22 63.9574L169.501 68.9282L177.488 68.4778L185.475 68.0274L185.195 63.0567L177.208 63.5071ZM177.488 68.4778L178.748 76.378C180.301 76.1303 181.894 76.0003 183.518 76.0002L183.518 68.0002L183.518 60.0002C181.038 60.0003 178.603 60.1989 176.228 60.5776L177.488 68.4778ZM183.518 68.0002V76.0002H199.609V68.0002V60.0002H183.518V68.0002ZM199.609 68.0002L207.508 69.2667L209.445 57.1886L201.546 55.9221L193.647 54.6556L191.71 66.7338L199.609 68.0002ZM201.546 55.9221L209.445 57.1886C210.815 48.6408 214.623 40.6694 220.41 34.2309L214.46 28.8831L208.51 23.5352C200.665 32.2629 195.504 43.0685 193.647 54.6556L201.546 55.9221ZM214.46 28.8831L220.407 34.2342L221.477 33.0448L215.53 27.6936L209.583 22.3424L208.513 23.5319L214.46 28.8831ZM215.53 27.6936L221.48 33.0415C219.245 35.5282 215.253 35.1958 213.46 32.3724L220.214 28.0842L226.967 23.7961C223.081 17.6751 214.427 16.9539 209.58 22.3457L215.53 27.6936ZM220.214 28.0842L213.46 32.3723C219.436 41.7842 222.289 52.842 221.613 63.9703L229.598 64.4553L237.584 64.9404C238.464 50.45 234.749 36.0515 226.967 23.7961L220.214 28.0842ZM229.598 64.4553L221.613 63.9698L221.098 72.4503L229.083 72.9358L237.068 73.4213L237.584 64.9408L229.598 64.4553ZM229.083 72.9358L224.466 79.469C229.354 82.9232 232.518 88.5924 232.518 95.0002H240.518H248.518C248.518 83.177 242.648 72.7263 233.7 66.4025L229.083 72.9358ZM240.518 95.0002H232.518V109H240.518H248.518V95.0002H240.518ZM240.518 109V117H247.518V109V101H240.518V109ZM247.518 109V117C251.937 117 255.518 120.582 255.518 125H263.518H271.518C271.518 111.745 260.773 101 247.518 101V109ZM263.518 125H255.518V133H263.518H271.518V125H263.518ZM263.518 133L255.518 133C255.518 137.418 251.936 141 247.518 141V149V157C260.773 157 271.518 146.255 271.518 133L263.518 133ZM247.518 149V141H214.518V149V157H247.518V149ZM214.518 149H206.518V168H214.518H222.518V149H214.518ZM214.518 168L206.518 168C206.518 172.265 205.63 176.305 204.036 179.963L211.371 183.157L218.705 186.352C221.157 180.723 222.518 174.512 222.518 168L214.518 168ZM211.371 183.157L203.972 180.115C203.931 180.214 203.898 180.301 203.87 180.375C203.843 180.448 203.821 180.51 203.805 180.558C203.789 180.604 203.776 180.641 203.77 180.661C203.766 180.672 203.764 180.68 203.762 180.684C203.762 180.685 203.761 180.687 203.761 180.687C203.761 180.688 203.761 180.687 203.762 180.686C203.763 180.683 203.77 180.66 203.78 180.63C203.791 180.6 203.807 180.553 203.827 180.496C203.867 180.384 203.933 180.207 204.025 179.995L211.357 183.196L218.689 186.396C218.784 186.178 218.853 185.995 218.895 185.877C218.916 185.816 218.933 185.766 218.945 185.732C218.956 185.7 218.964 185.674 218.966 185.667C218.971 185.652 218.965 185.671 218.962 185.682C218.956 185.699 218.945 185.733 218.93 185.776C218.901 185.861 218.847 186.013 218.77 186.2L211.371 183.157ZM211.357 183.196L204.026 179.993C204.031 179.982 204.031 179.983 204.012 180.024C204.007 180.035 203.99 180.072 203.979 180.097C203.965 180.127 203.948 180.166 203.929 180.209L211.234 183.469L218.54 186.729C218.546 186.715 218.55 186.707 218.58 186.641C218.603 186.591 218.644 186.5 218.688 186.398L211.357 183.196ZM211.234 183.469L203.929 180.209C203.914 180.242 203.9 180.272 203.89 180.297C203.884 180.309 203.879 180.321 203.874 180.331C203.87 180.342 203.866 180.35 203.862 180.359C203.855 180.376 203.85 180.386 203.846 180.395C203.843 180.402 203.841 180.405 203.842 180.404L211.124 183.717L218.406 187.03C218.443 186.948 218.475 186.875 218.496 186.828C218.522 186.769 218.529 186.753 218.54 186.729L211.234 183.469ZM211.124 183.717L203.842 180.404C203.778 180.545 203.713 180.686 203.645 180.827L210.875 184.253L218.104 187.679C218.206 187.465 218.306 187.248 218.406 187.03L211.124 183.717ZM210.875 184.253L203.645 180.827C203.602 180.92 203.553 181.02 203.478 181.172L210.663 184.691L217.847 188.209C217.916 188.07 218.009 187.88 218.104 187.679L210.875 184.253ZM210.663 184.691L203.478 181.172C203.413 181.306 203.35 181.432 203.29 181.551L210.424 185.171L217.558 188.791C217.659 188.592 217.756 188.397 217.848 188.209L210.663 184.691ZM210.424 185.171L203.29 181.551C203.249 181.631 203.208 181.71 203.168 181.788L210.269 185.472L217.371 189.156C217.434 189.034 217.496 188.912 217.558 188.791L210.424 185.171ZM210.269 185.472L203.168 181.788C203.113 181.894 203.052 182.009 202.974 182.155L210.023 185.937L217.073 189.719C217.16 189.555 217.264 189.362 217.371 189.156L210.269 185.472ZM210.023 185.937L202.974 182.155C202.9 182.292 202.895 182.302 202.868 182.351L209.889 186.186L216.911 190.02C216.974 189.904 217.057 189.748 217.073 189.719L210.023 185.937ZM209.889 186.186L202.868 182.351C202.66 182.733 202.444 183.108 202.222 183.476L209.071 187.611L215.92 191.745C216.263 191.176 216.593 190.601 216.911 190.02L209.889 186.186ZM209.071 187.611L202.222 183.476C202.195 183.521 202.177 183.55 202.11 183.659L208.929 187.842L215.748 192.026C215.776 191.98 215.853 191.855 215.92 191.745L209.071 187.611ZM208.929 187.842L202.11 183.659C202.036 183.78 201.972 183.884 201.912 183.978L208.678 188.246L215.445 192.515C215.554 192.341 215.657 192.174 215.748 192.025L208.929 187.842ZM208.678 188.246L201.912 183.978C201.886 184.019 201.863 184.057 201.845 184.085C201.83 184.11 201.809 184.144 201.802 184.155C201.778 184.194 201.778 184.192 201.786 184.18L208.518 188.502L215.25 192.824C215.313 192.727 215.366 192.641 215.396 192.594C215.434 192.532 215.438 192.525 215.445 192.515L208.678 188.246ZM208.518 188.502H200.518V236.5H208.518H216.518V188.502H208.518ZM208.518 236.5L208.518 244.5H208.518H216.518H224.518C224.518 235.664 217.355 228.5 208.518 228.5L208.518 236.5ZM216.518 244.5H208.518V247H216.518H224.518V244.5H216.518ZM216.518 247L208.518 246.999C208.519 243.687 211.204 241.001 214.518 241L214.518 249L214.519 257C220.042 257 224.517 252.523 224.518 247.002L216.518 247ZM214.518 249V241H183.518V249V257H214.518V249ZM183.518 249V241C186.833 241 189.518 243.687 189.518 246.999L181.518 247L173.518 247.002C173.519 252.522 177.994 257 183.518 257V249ZM181.518 247H189.518V205.673H181.518H173.518V247H181.518ZM181.518 205.673L180.476 197.741C180.514 197.736 180.543 197.733 180.559 197.731C180.573 197.729 180.584 197.728 180.576 197.729C180.574 197.729 180.567 197.73 180.559 197.731C180.551 197.732 180.54 197.733 180.526 197.735C180.5 197.738 180.459 197.743 180.411 197.749L181.436 205.683L182.462 213.617C182.427 213.621 182.4 213.625 182.387 213.626C182.376 213.627 182.367 213.628 182.379 213.627C182.385 213.626 182.409 213.624 182.437 213.62C182.466 213.617 182.509 213.612 182.561 213.605L181.518 205.673ZM181.436 205.683L180.411 197.749C180.354 197.756 180.292 197.764 180.22 197.773L181.195 205.713L182.17 213.654C182.259 213.643 182.358 213.63 182.462 213.617L181.436 205.683ZM181.195 205.713L180.22 197.773C180.069 197.791 179.907 197.81 179.732 197.828L180.577 205.783L181.422 213.739C181.66 213.713 181.91 213.685 182.17 213.654L181.195 205.713ZM180.577 205.783L179.732 197.828C179.622 197.84 179.552 197.847 179.486 197.854L180.265 205.816L181.045 213.778C181.187 213.764 181.324 213.749 181.422 213.739L180.577 205.783ZM180.265 205.816L179.486 197.854C179.307 197.871 179.128 197.887 178.947 197.902L179.584 205.876L180.22 213.851C180.495 213.829 180.77 213.805 181.045 213.778L180.265 205.816ZM179.584 205.876L178.947 197.902C178.92 197.904 178.895 197.906 178.876 197.907C178.86 197.909 178.838 197.911 178.831 197.911C178.806 197.913 178.807 197.913 178.815 197.913L179.417 205.89L180.018 213.867C180.083 213.862 180.139 213.858 180.17 213.855C180.21 213.852 180.214 213.851 180.22 213.851L179.584 205.876ZM179.417 205.89L178.815 197.913C178.585 197.93 178.356 197.945 178.128 197.957L178.549 205.946L178.969 213.934C179.321 213.916 179.671 213.893 180.018 213.867L179.417 205.89ZM178.549 205.946L178.128 197.957C178.076 197.959 178.122 197.957 177.962 197.964L178.339 205.955L178.716 213.946C178.738 213.945 178.752 213.945 178.802 213.943C178.842 213.941 178.902 213.938 178.969 213.934L178.549 205.946ZM178.339 205.955L177.962 197.964C177.787 197.972 177.601 197.979 177.398 197.985L177.627 205.982L177.856 213.978C178.128 213.971 178.417 213.961 178.716 213.946L178.339 205.955ZM177.627 205.982L177.398 197.985C177.358 197.986 177.324 197.987 177.297 197.988C177.274 197.989 177.246 197.99 177.236 197.99C177.203 197.992 177.211 197.991 177.23 197.991L177.416 205.989L177.601 213.986C177.69 213.984 177.769 213.982 177.806 213.98C177.858 213.978 177.856 213.978 177.856 213.978L177.627 205.982ZM177.416 205.989L177.23 197.991C177.188 197.992 177.152 197.993 177.126 197.994C177.102 197.994 177.077 197.995 177.069 197.995C177.056 197.996 177.056 197.996 177.059 197.996C177.063 197.996 177.077 197.995 177.096 197.995L177.247 205.993L177.397 213.992C177.488 213.99 177.567 213.988 177.594 213.987C177.614 213.986 177.617 213.986 177.621 213.986C177.623 213.986 177.615 213.986 177.601 213.986L177.416 205.989ZM177.247 205.993L177.172 197.994L176.443 198.001L176.518 206L176.593 214L177.322 213.993L177.247 205.993ZM176.518 206V198H170.518V206V214H176.518V206ZM170.518 206H162.518V236.5H170.518H178.518V206H170.518ZM170.518 236.5L170.518 244.5H170.518H178.518H186.518C186.518 235.664 179.355 228.5 170.518 228.5L170.518 236.5ZM178.518 244.5H170.518V247H178.518H186.518V244.5H178.518ZM178.518 247L170.518 246.999C170.519 243.687 173.204 241 176.518 241L176.518 249L176.519 257C182.042 257 186.517 252.522 186.518 247.002L178.518 247ZM176.518 249V241H145.518V249V257H176.518V249ZM145.518 249V241C148.833 241 151.518 243.687 151.518 246.999L143.518 247L135.518 247.002C135.519 252.522 139.994 257 145.518 257V249ZM143.518 247H151.518V203.22H143.518H135.518V247H143.518ZM143.518 203.22L145.501 195.47C144.697 195.264 143.921 195.056 143.166 194.839L140.953 202.527L138.74 210.214C139.688 210.487 140.624 210.737 141.536 210.97L143.518 203.22ZM140.953 202.527L143.167 194.839L133.732 192.122L131.518 199.81L129.305 207.497L138.739 210.214L140.953 202.527ZM131.518 199.81H123.518V236.5H131.518H139.518V199.81H131.518ZM131.518 236.5L131.518 244.5H131.518H139.518H147.518C147.518 235.664 140.355 228.5 131.518 228.5L131.518 236.5ZM139.518 244.5H131.518V247H139.518H147.518V244.5H139.518ZM139.518 247L131.518 246.999C131.519 243.687 134.204 241.001 137.518 241L137.518 249L137.519 257C143.042 257 147.517 252.523 147.518 247.002L139.518 247ZM137.518 249V241H106.518V249V257H137.518V249ZM106.518 249V241C109.833 241 112.518 243.687 112.518 246.999L104.518 247L96.5183 247.002C96.5192 252.522 100.994 257 106.518 257V249ZM104.518 247H112.518V195.801H104.518H96.5183V247H104.518ZM104.518 195.801L104.879 187.809L91.8785 187.223L91.5183 195.215L91.1581 203.207L104.158 203.793L104.518 195.801ZM91.5183 195.215H83.5183V236.5H91.5183H99.5183V195.215H91.5183ZM91.5183 236.5L91.5182 244.5H91.5183H99.5183H107.518C107.518 235.664 100.355 228.5 91.5185 228.5L91.5183 236.5ZM99.5183 244.5H91.5183V247H99.5183H107.518V244.5H99.5183ZM99.5183 247L91.5183 246.999C91.5189 243.687 94.2035 241 97.5177 241L97.5183 249L97.5189 257C103.042 257 107.517 252.522 107.518 247.002L99.5183 247ZM97.5183 249V241H66.5183V249V257H97.5183V249ZM66.5183 249V241C69.8335 241 72.5178 243.687 72.5183 246.999L64.5183 247L56.5183 247.002C56.5192 252.522 60.9942 257 66.5183 257V249ZM64.5183 247H72.5183V190.202H64.5183H56.5183V247H64.5183ZM64.5183 190.202L57.0043 187.457C55.9956 190.217 55.0969 193.022 54.3139 195.868L62.0271 197.99L69.7403 200.113C70.4063 197.693 71.1717 195.303 72.0323 192.948L64.5183 190.202ZM62.0271 197.99L54.3139 195.868L49.5219 213.28L57.2351 215.403L64.9483 217.525L69.7403 200.113L62.0271 197.99ZM57.2351 215.403L49.5219 213.28C48.4406 217.209 46.4843 220.842 43.7995 223.907L49.8171 229.178L55.8348 234.449C60.1109 229.568 63.2264 223.782 64.9483 217.525L57.2351 215.403ZM49.8171 229.178L43.7992 223.907L41.435 226.606L47.4529 231.877L53.4708 237.148L55.8351 234.449L49.8171 229.178ZM47.4529 231.877L41.4352 226.606C44.0171 223.658 48.6842 223.937 50.8981 227.168L44.2986 231.69L37.6991 236.211C41.3892 241.597 49.1677 242.061 53.4705 237.149L47.4529 231.877ZM44.2986 231.69L50.8983 227.168L50.0995 226.002L43.4998 230.524L36.9 235.045L37.6988 236.211L44.2986 231.69ZM43.4998 230.524L50.0997 226.002C46.5031 220.752 44.8761 214.401 45.5063 208.069L37.5457 207.277L29.585 206.484C28.5812 216.569 31.1727 226.685 36.8998 235.045L43.4998 230.524ZM37.5457 207.277L45.5063 208.069L46.4721 198.37L38.5115 197.577L30.5508 196.785L29.585 206.484L37.5457 207.277ZM38.5115 197.577L46.4721 198.37C47.9346 183.677 53.0173 169.575 61.2651 157.328L54.6296 152.86L47.9941 148.391C38.2684 162.832 32.2753 179.46 30.5508 196.785L38.5115 197.577ZM54.6296 152.86L61.2651 157.328C66.3865 149.724 75.1209 145.379 84.2559 145.863L84.6794 137.874L85.103 129.885C70.3575 129.104 56.2604 136.117 47.9941 148.391L54.6296 152.86ZM84.6794 137.874L86.7001 145.615C88.231 145.215 89.844 145 91.5183 145V137V129C88.467 129 85.4962 129.393 82.6588 130.134L84.6794 137.874ZM91.5183 137V145H145.518V137V129H91.5183V137ZM145.518 137H153.518V106H145.518H137.518V137H145.518ZM145.518 106H153.518C153.518 104.872 153.583 103.75 153.707 102.639L145.756 101.755L137.805 100.871C137.618 102.547 137.518 104.259 137.518 106H145.518ZM145.756 101.755L140.008 96.1906L139.771 96.4357L145.518 102L151.266 107.565L151.503 107.32L145.756 101.755ZM145.518 102H153.518V60.6848H145.518H137.518V102H145.518ZM145.518 60.6848H153.518C153.518 50.6782 156.854 40.9565 162.998 33.0573L156.683 28.1458L150.369 23.2342C142.041 33.9415 137.518 47.1196 137.518 60.6848H145.518ZM156.683 28.1458L162.999 33.0568L163.76 32.0773L157.445 27.1663L151.13 22.2552L150.368 23.2347L156.683 28.1458Z" fill="white" mask="url(#path-22-outside-1_50_1715)"/>
</svg>
