<svg width="420" height="359" viewBox="0 0 420 359" fill="none" xmlns="http://www.w3.org/2000/svg">
    <path d="M200 282H99.3238C97.1849 282 95.421 283.693 95.6966 285.814C95.9702 287.921 96.5952 290.422 98.0005 292C99.48 293.661 100.927 294.821 101.965 295.546C102.807 296.135 103.222 297.231 102.856 298.191L97.3796 312.567C96.1395 315.823 94.2579 318.795 91.8466 321.309L75.2468 338.616C74.0272 339.887 74.9284 342 76.6902 342H122.98C124.676 342 126.292 341.283 127.43 340.025L139.72 326.439C142.303 323.583 144.22 320.19 145.332 316.503L149.214 303.627C149.469 302.782 150.247 302.204 151.129 302.204H159.83C160.553 302.204 161.22 302.594 161.574 303.224L168.693 315.893C170.206 318.586 171 321.622 171 324.711V340C171 341.105 171.896 342 173 342H208C209.105 342 210 341.105 210 340V315.376C210 313.471 209.698 311.578 209.105 309.768L200 282Z" fill="#1E1E1E"/>
    <path d="M301.623 216.816L320.02 161.811L370.283 178.622C378.663 181.425 383.185 190.491 380.382 198.871L367.986 235.932C367.386 237.727 366.203 239.27 364.625 240.316C360.406 243.112 354.683 241.107 353.131 236.289L352.574 234.558C352.37 233.924 351.614 233.663 351.062 234.036L347.802 236.241C343.87 238.901 338.61 238.43 335.213 235.114L329.425 229.463C328.961 229.009 328.454 228.602 327.911 228.247L323.307 225.238C320.873 223.648 318.246 222.376 315.489 221.454L301.623 216.816Z" fill="#545456"/>
    <path d="M213.346 187.554C204.966 184.751 200.444 175.686 203.247 167.305L204.992 162.089C211.473 142.71 232.438 132.254 251.817 138.736L337.17 167.283L323.092 173.119L335.409 188.311L316.272 193.509L324.641 204.743L318.614 222.762L213.346 187.554Z" fill="#242424"/>
    <path d="M75.0005 142.35C75.0005 142.118 75.0386 141.894 75.1203 141.677C75.8152 139.834 79.4561 130.561 84.0005 126C88.5956 121.388 99.6884 117.318 101.689 116.609C101.896 116.536 102.113 116.5 102.333 116.5H210.575C210.856 116.5 211.128 116.557 211.382 116.675C213.232 117.539 221.319 121.478 225 126C228.839 130.714 231.117 140.299 231.456 141.8C231.487 141.938 231.5 142.071 231.5 142.212V206.165C231.5 206.387 231.464 206.607 231.391 206.817L211 266H96.0005L75.1145 206.823C75.039 206.609 75.0005 206.384 75.0005 206.157V142.35Z" fill="#242424"/>
    <path d="M109.069 170C102.069 170 91.8135 174.519 90.0689 194.5C88.3254 220.466 120.53 230.488 120.569 230.5V266H207.001V230.5C207.001 230.5 239.245 220.481 237.501 194.5C235.756 174.519 225.501 170 218.501 170H109.069Z" fill="#545456"/>
    <rect x="170" y="226" width="26" height="18" rx="3" fill="#5D5D5D"/>
    <rect x="170" y="248" width="20" height="14" rx="3" fill="#5D5D5D"/>
    <rect x="144" y="248" width="20" height="14" rx="3" fill="#5D5D5D"/>
    <path d="M97.66 181.248C99.9696 175.987 105.303 172.713 111.039 173.034L157.392 175.63C161.1 175.838 164 178.905 164 182.619V210.427C164 215.78 159.794 220.18 154.443 220.355C141.608 220.775 119.797 221.268 114.5 220C109.77 218.867 104.56 216.062 101.285 214.095C99.1231 212.796 97.6178 210.678 96.9166 208.256L96.0694 205.329C93.7635 197.363 94.3264 188.841 97.66 181.248Z" fill="#5D5D5D"/>
    <path d="M229.357 181.785C227.041 176.509 221.676 173.241 215.925 173.604L176.56 176.086C172.872 176.319 170 179.378 170 183.072V211.01C170 216.33 174.158 220.714 179.474 220.911C190.379 221.315 207.439 221.712 212.5 220.5C217.231 219.367 222.441 216.562 225.716 214.595C227.878 213.296 229.383 211.178 230.084 208.756L230.943 205.789C233.242 197.849 232.68 189.354 229.357 181.785Z" fill="#5D5D5D"/>
    <rect x="138" y="226" width="26" height="18" rx="3" fill="#5D5D5D"/>
    <rect x="96.0005" y="264" width="115" height="24" rx="2" fill="#FBA24E"/>
    <rect x="149" y="264" width="38" height="24" fill="#FBCF4E"/>
    <path d="M81.7336 154.537C81.5918 145.701 74.3143 138.654 65.4789 138.796L59.9796 138.884C39.5477 139.212 23.2502 156.041 23.5782 176.473L24.7803 251.366C25.0202 266.313 37.3315 278.235 52.2784 277.995C69.636 277.716 83.4813 263.419 83.2027 246.062L81.7336 154.537Z" fill="#242424"/>
    <path d="M72.8506 187.168C66.401 193.487 66.2949 203.838 72.6138 210.288L101.762 240.04L139.621 202.949C145.933 196.765 146.037 186.635 139.853 180.323L112.601 152.506C111.213 151.091 109.393 150.179 107.429 149.916C102.365 149.239 97.9802 153.511 98.4028 158.602C98.5764 160.694 99.4776 162.689 100.946 164.188L106.773 170.136C107.98 171.368 107.903 173.36 106.604 174.495L98.2708 181.776C96.8091 183.053 94.6742 183.195 93.0555 182.124C91.2186 180.909 90.5934 178.504 91.6058 176.548L95.5744 168.879C97.5513 165.059 94.9849 160.461 90.6959 160.138C88.006 159.936 85.5117 161.554 84.5994 164.092L80.6501 175.082C80.4307 175.693 80.1524 176.281 79.819 176.838L76.1064 183.038C75.2022 184.549 74.108 185.937 72.8506 187.168Z" fill="#545456"/>
    <path d="M34.1025 226.93C23.6357 237.687 23.0594 254.636 32.7714 266.079C43.8855 279.173 63.8604 279.852 75.8384 267.543L112.151 230.227L96.9122 230.045L102.697 211.362L82.9994 213.653L86.5902 200.112L74.2952 185.626L34.1025 226.93Z" fill="#2B2B2B"/>
    <path d="M128.098 52.2179C132.558 40.6388 143.686 33 156.094 33H171.227C181.65 33 191.326 38.4097 196.784 47.2888L221.946 88.2181C224.27 91.9986 225.5 96.3494 225.5 100.787V155C225.5 169.912 213.412 182 198.5 182H156.28C147.624 182 139.494 177.85 134.415 170.841L112.135 140.088C108.797 135.481 107 129.937 107 124.247V112.02C107 108.702 107.612 105.412 108.804 102.316L128.098 52.2179Z" fill="#242424"/>
    <path d="M103 108.5C103 101.044 109.044 95 116.5 95H120C121.105 95 122 95.8954 122 97V120C122 121.105 121.105 122 120 122H116.5C109.044 122 103 115.956 103 108.5Z" fill="#5D5D5D"/>
    <path d="M137 101C137 91.0589 145.059 83 155 83H206C215.941 83 224 91.0589 224 101V118.5C224 125.956 217.956 132 210.5 132L215.922 138.929C222.926 147.878 221.54 160.775 212.795 168.032L211.387 169.2C207.259 172.625 202.064 174.5 196.7 174.5H170.3C164.936 174.5 159.741 172.625 155.613 169.2L153.345 167.318C144.95 160.352 143.287 148.119 149.516 139.165L154.5 132C144.835 132 137 124.165 137 114.5V101Z" fill="#545456"/>
    <path d="M155.284 138.517C158.366 133.825 163.603 131 169.216 131H206.469C208.69 131 210.779 132.054 212.099 133.839L216.629 139.969C222.069 147.329 221.522 157.514 215.324 164.248C211.364 168.551 205.784 171 199.936 171H175.558C169.97 171 164.574 168.966 160.377 165.278L158.701 163.806C151.418 157.407 149.96 146.62 155.284 138.517Z" fill="#5D5D5D"/>
    <path d="M145 94.5C145 91.4624 147.462 89 150.5 89H215.5C218.538 89 221 91.4624 221 94.5C221 97.5376 218.538 100 215.5 100H150.5C147.462 100 145 97.5376 145 94.5Z" fill="#5D5D5D"/>
    <rect width="15" height="15" rx="7.5" transform="matrix(-1 0 0 1 213 102)" fill="#1E1E1E"/>
    <rect width="55" height="8" rx="4" transform="matrix(-1 0 0 1 215 151)" fill="#45454A"/>
    <rect width="15" height="15" rx="7.5" transform="matrix(-1 0 0 1 169 102)" fill="#1E1E1E"/>
    <rect width="9" height="9" rx="4.5" transform="matrix(-1 0 0 1 184 128)" fill="#1E1E1E"/>
    <rect width="9" height="9" rx="4.5" transform="matrix(-1 0 0 1 201 128)" fill="#1E1E1E"/>
    <mask id="path-27-outside-1_49_1298" maskUnits="userSpaceOnUse" x="15.2124" y="25" width="375" height="325" fill="black">
        <rect fill="white" x="15.2124" y="25" width="375" height="325"/>
        <path d="M156.094 33C143.686 33 132.558 40.6387 128.098 52.2178L111.208 96.0771C106.382 98.1355 103 102.923 103 108.5C103 111.495 103.976 114.261 105.625 116.5H102.333C102.113 116.5 101.896 116.536 101.689 116.609C99.6886 117.319 88.5956 121.388 84.0005 126C79.4561 130.561 75.8156 139.835 75.1206 141.678C75.1049 141.719 75.0921 141.762 75.0796 141.804C72.3824 139.86 69.0585 138.738 65.479 138.796L59.98 138.884C39.5481 139.212 23.2508 156.041 23.5786 176.473L24.7808 251.365C25.0207 266.312 37.332 278.235 52.2788 277.995C58.8626 277.889 64.94 275.765 69.9341 272.224C72.045 270.957 74.0331 269.398 75.8384 267.543L91.0347 251.927L96.0005 266V283.96C95.7286 284.508 95.6091 285.139 95.6968 285.814C95.9704 287.921 96.5952 290.422 98.0005 292C99.4799 293.661 100.926 294.82 101.964 295.546C102.806 296.135 103.222 297.231 102.856 298.191L97.3794 312.567C96.1393 315.823 94.2575 318.796 91.8462 321.31L75.2466 338.615C74.0271 339.887 74.9283 342 76.6899 342H122.98C124.676 342 126.293 341.283 127.43 340.025L139.72 326.438C142.303 323.583 144.22 320.189 145.332 316.503L149.214 303.627C149.469 302.782 150.247 302.204 151.129 302.204H159.831C160.553 302.204 161.22 302.595 161.574 303.225L168.693 315.893C170.206 318.585 171 321.622 171 324.711V340C171 341.105 171.896 342 173 342H208C209.105 342 210 341.105 210 340V315.376C210 313.471 209.698 311.578 209.105 309.768L201.968 288H209C210.105 288 211 287.105 211 286V266L227.346 218.557C233.143 213.089 237.846 205.571 237.555 195.65L318.614 222.763L318.64 222.685C320.258 223.412 321.819 224.266 323.307 225.238L327.911 228.247C328.454 228.602 328.961 229.01 329.425 229.463L335.213 235.113C338.61 238.43 343.87 238.901 347.802 236.241L351.062 234.036C351.614 233.663 352.369 233.924 352.574 234.558L353.131 236.289C354.683 241.107 360.406 243.112 364.625 240.315C366.203 239.27 367.386 237.727 367.986 235.932L380.381 198.871C383.184 190.491 378.663 181.425 370.283 178.622L336.818 167.429L337.169 167.283L251.817 138.736C244.652 136.34 237.271 136.261 230.485 138.09C229.496 134.698 227.803 129.846 225.5 126.657V100.787C225.5 96.3494 224.27 91.9982 221.946 88.2178L196.784 47.2891C191.325 38.41 181.65 33 171.227 33H156.094Z"/>
    </mask>
    <path d="M128.098 52.2178L120.633 49.3427L120.633 49.3426L128.098 52.2178ZM111.208 96.0771L118.673 98.9522L117.458 102.109L114.346 103.436L111.208 96.0771ZM105.625 116.5L112.066 111.754L121.458 124.5H105.625V116.5ZM102.333 116.5L102.332 108.5H102.333V116.5ZM101.689 116.609L99.0156 109.069L99.0167 109.069L101.689 116.609ZM84.0005 126L78.3335 120.353L78.3335 120.353L84.0005 126ZM75.1206 141.678L67.6348 138.856L67.6351 138.855L75.1206 141.678ZM75.0796 141.804L82.7494 144.078L79.5453 154.882L70.403 148.294L75.0796 141.804ZM65.479 138.796L65.6073 146.795L65.6068 146.795L65.479 138.796ZM59.98 138.884L59.8516 130.885L59.8521 130.885L59.98 138.884ZM23.5786 176.473L15.5797 176.601V176.601L23.5786 176.473ZM24.7808 251.365L32.7797 251.237V251.237L24.7808 251.365ZM52.2788 277.995L52.4073 285.994H52.4072L52.2788 277.995ZM69.9341 272.224L65.3064 265.698L65.5553 265.521L65.8168 265.364L69.9341 272.224ZM75.8384 267.543L70.1049 261.964L70.1049 261.964L75.8384 267.543ZM91.0347 251.927L85.3012 246.348L94.29 237.11L98.5788 249.265L91.0347 251.927ZM96.0005 266L103.545 263.338L104 264.63V266H96.0005ZM96.0005 283.96H104V285.837L103.166 287.518L96.0005 283.96ZM95.6968 285.814L87.7635 286.845V286.845L95.6968 285.814ZM98.0005 292L92.0264 297.321V297.321L98.0005 292ZM101.964 295.546L97.3811 302.103L97.381 302.103L101.964 295.546ZM102.856 298.191L95.3801 295.343L102.856 298.191ZM97.3794 312.567L104.855 315.415V315.415L97.3794 312.567ZM91.8462 321.31L97.6196 326.847L97.6196 326.847L91.8462 321.31ZM75.2466 338.615L69.4731 333.077L69.4732 333.077L75.2466 338.615ZM76.6899 342V350H76.6893L76.6899 342ZM127.43 340.025L133.363 345.392L133.363 345.392L127.43 340.025ZM139.72 326.438L133.787 321.072L133.787 321.072L139.72 326.438ZM145.332 316.503L137.672 314.193L137.672 314.193L145.332 316.503ZM149.214 303.627L156.874 305.937L156.874 305.937L149.214 303.627ZM159.831 302.204V294.204H159.832L159.831 302.204ZM161.574 303.225L154.6 307.144L154.599 307.144L161.574 303.225ZM168.693 315.893L175.667 311.973L175.667 311.974L168.693 315.893ZM208 342L208.001 350H208V342ZM210 340H218H210ZM209.105 309.768L201.503 312.26V312.26L209.105 309.768ZM201.968 288L194.366 290.492L190.926 280H201.968V288ZM209 288L209.001 296H209V288ZM211 266H203V264.661L203.437 263.394L211 266ZM227.346 218.557L219.783 215.951L220.424 214.088L221.857 212.737L227.346 218.557ZM237.555 195.65L229.559 195.885L229.223 184.428L240.093 188.064L237.555 195.65ZM318.614 222.763L326.194 225.321L323.642 232.88L316.076 230.35L318.614 222.763ZM318.64 222.685L311.06 220.126L313.879 211.775L321.919 215.387L318.64 222.685ZM323.307 225.238L318.93 231.935L318.93 231.935L323.307 225.238ZM327.911 228.247L332.287 221.551L332.288 221.551L327.911 228.247ZM329.425 229.463L323.837 235.187L323.837 235.187L329.425 229.463ZM335.213 235.113L340.802 229.389L340.802 229.389L335.213 235.113ZM347.802 236.241L352.285 242.868L352.285 242.868L347.802 236.241ZM351.062 234.036L346.58 227.41L346.581 227.409L351.062 234.036ZM352.574 234.558L360.187 232.102L360.189 232.105L352.574 234.558ZM353.131 236.289L360.746 233.837L360.746 233.837L353.131 236.289ZM364.625 240.315L369.045 246.984L369.045 246.984L364.625 240.315ZM367.986 235.932L360.399 233.394L360.399 233.394L367.986 235.932ZM380.381 198.871L387.968 201.409L387.968 201.409L380.381 198.871ZM370.283 178.622L367.745 186.209L367.745 186.209L370.283 178.622ZM336.818 167.429L334.28 175.016L313.977 168.224L333.758 160.037L336.818 167.429ZM337.169 167.283L339.707 159.696L360.011 166.487L340.229 174.675L337.169 167.283ZM251.817 138.736L254.354 131.149L254.354 131.149L251.817 138.736ZM230.485 138.09L232.567 145.814L224.999 147.854L222.805 140.329L230.485 138.09ZM225.5 126.657L219.015 131.341L217.5 129.244V126.657H225.5ZM221.946 88.2178L228.761 84.028L228.761 84.0281L221.946 88.2178ZM196.784 47.2891L189.969 51.4788L189.969 51.4787L196.784 47.2891ZM156.094 33V41C146.995 41 138.834 46.6019 135.564 55.093L128.098 52.2178L120.633 49.3426C126.282 34.6754 140.377 25 156.094 25V33ZM128.098 52.2178L135.564 55.0928L118.673 98.9522L111.208 96.0771L103.742 93.2021L120.633 49.3427L128.098 52.2178ZM111.208 96.0771L114.346 103.436C112.365 104.281 111 106.24 111 108.5H103H95.0005C95.0005 99.6053 100.4 91.99 108.069 88.7187L111.208 96.0771ZM103 108.5H111C111 109.729 111.394 110.843 112.066 111.754L105.625 116.5L99.1852 121.246C96.5568 117.679 95.0005 113.26 95.0005 108.5H103ZM105.625 116.5V124.5H102.333V116.5V108.5H105.625V116.5ZM102.333 116.5L102.333 124.5C102.991 124.5 103.681 124.391 104.361 124.15L101.689 116.609L99.0167 109.069C100.112 108.681 101.234 108.5 102.332 108.5L102.333 116.5ZM101.689 116.609L104.362 124.149C103.482 124.462 100.477 125.559 97.2068 127.088C93.67 128.742 90.8887 130.421 89.6674 131.647L84.0005 126L78.3335 120.353C81.7074 116.967 86.7702 114.306 90.4287 112.595C94.3543 110.759 97.8955 109.466 99.0156 109.069L101.689 116.609ZM84.0005 126L89.6675 131.647C88.3299 132.989 86.7453 135.501 85.2673 138.446C83.874 141.223 82.9006 143.719 82.6061 144.5L75.1206 141.678L67.6351 138.855C68.0356 137.793 69.2299 134.731 70.9667 131.27C72.6188 127.978 75.1266 123.572 78.3335 120.353L84.0005 126ZM75.1206 141.678L82.6064 144.5C82.6588 144.361 82.696 144.248 82.718 144.18C82.7387 144.115 82.7524 144.068 82.7494 144.078L75.0796 141.804L67.4098 139.529C67.4239 139.481 67.5074 139.194 67.6348 138.856L75.1206 141.678ZM75.0796 141.804L70.403 148.294C69.0563 147.324 67.4075 146.766 65.6073 146.795L65.479 138.796L65.3507 130.797C70.7094 130.711 75.7085 132.397 79.7562 135.313L75.0796 141.804ZM65.479 138.796L65.6068 146.795L60.1078 146.883L59.98 138.884L59.8521 130.885L65.3512 130.797L65.479 138.796ZM59.98 138.884L60.1084 146.883C44.0942 147.14 31.3206 160.33 31.5776 176.344L23.5786 176.473L15.5797 176.601C15.1809 151.752 35.002 131.284 59.8516 130.885L59.98 138.884ZM23.5786 176.473L31.5776 176.344L32.7797 251.237L24.7808 251.365L16.7818 251.494L15.5797 176.601L23.5786 176.473ZM24.7808 251.365L32.7797 251.237C32.9487 261.766 41.6215 270.165 52.1504 269.996L52.2788 277.995L52.4072 285.994C33.0424 286.305 17.0926 270.858 16.7818 251.494L24.7808 251.365ZM52.2788 277.995L52.1503 269.996C57.0677 269.917 61.5858 268.336 65.3064 265.698L69.9341 272.224L74.5617 278.749C68.2943 283.194 60.6575 285.862 52.4073 285.994L52.2788 277.995ZM69.9341 272.224L65.8168 265.364C67.3443 264.448 68.7876 263.318 70.1049 261.964L75.8384 267.543L81.5718 273.122C79.2786 275.479 76.7457 277.465 74.0514 279.083L69.9341 272.224ZM75.8384 267.543L70.1049 261.964L85.3012 246.348L91.0347 251.927L96.7681 257.506L81.5718 273.122L75.8384 267.543ZM91.0347 251.927L98.5788 249.265L103.545 263.338L96.0005 266L88.4564 268.662L83.4905 254.589L91.0347 251.927ZM96.0005 266H104V283.96H96.0005H88.0005V266H96.0005ZM96.0005 283.96L103.166 287.518C103.585 286.674 103.751 285.711 103.63 284.784L95.6968 285.814L87.7635 286.845C87.4675 284.567 87.8722 282.342 88.8351 280.402L96.0005 283.96ZM95.6968 285.814L103.63 284.784C103.724 285.503 103.857 286.109 104.005 286.55C104.076 286.76 104.13 286.871 104.148 286.905C104.167 286.94 104.121 286.843 103.975 286.679L98.0005 292L92.0264 297.321C88.9147 293.827 88.0712 289.214 87.7635 286.845L95.6968 285.814ZM98.0005 292L103.975 286.679C104.966 287.793 105.92 288.55 106.548 288.989L101.964 295.546L97.381 302.103C95.9326 301.09 93.9934 299.529 92.0264 297.321L98.0005 292ZM101.964 295.546L106.548 288.989C109.969 291.381 112.18 296.188 110.332 301.039L102.856 298.191L95.3801 295.343C94.2635 298.274 95.6438 300.889 97.3811 302.103L101.964 295.546ZM102.856 298.191L110.332 301.039L104.855 315.415L97.3794 312.567L89.9035 309.719L95.3801 295.343L102.856 298.191ZM97.3794 312.567L104.855 315.415C103.234 319.672 100.773 323.56 97.6196 326.847L91.8462 321.31L86.0728 315.772C87.7422 314.031 89.045 311.973 89.9035 309.719L97.3794 312.567ZM91.8462 321.31L97.6196 326.847L81.02 344.153L75.2466 338.615L69.4732 333.077L86.0728 315.772L91.8462 321.31ZM75.2466 338.615L81.02 344.153C84.6788 340.339 81.9753 334 76.6906 334L76.6899 342L76.6893 350C67.8812 349.999 63.3753 339.435 69.4731 333.077L75.2466 338.615ZM76.6899 342V334H122.98V342V350H76.6899V342ZM122.98 342V334C122.417 334 121.878 334.238 121.497 334.659L127.43 340.025L133.363 345.392C130.708 348.328 126.935 350 122.98 350V342ZM127.43 340.025L121.497 334.659L133.787 321.072L139.72 326.438L145.653 331.805L133.363 345.392L127.43 340.025ZM139.72 326.438L133.787 321.072C135.576 319.095 136.903 316.745 137.672 314.193L145.332 316.503L152.991 318.813C151.537 323.634 149.031 328.071 145.653 331.805L139.72 326.438ZM145.332 316.503L137.672 314.193L141.555 301.317L149.214 303.627L156.874 305.937L152.991 318.813L145.332 316.503ZM149.214 303.627L141.555 301.317C142.828 297.095 146.718 294.204 151.129 294.204V302.204V310.204C153.777 310.204 156.11 308.47 156.874 305.937L149.214 303.627ZM151.129 302.204V294.204H159.831V302.204V310.204H151.129V302.204ZM159.831 302.204L159.832 294.204C163.448 294.205 166.779 296.157 168.548 299.306L161.574 303.225L154.599 307.144C155.661 309.032 157.659 310.204 159.829 310.204L159.831 302.204ZM161.574 303.225L168.548 299.305L175.667 311.973L168.693 315.893L161.719 319.812L154.6 307.144L161.574 303.225ZM168.693 315.893L175.667 311.974C177.853 315.863 179 320.25 179 324.711H171H163C163 322.995 162.559 321.307 161.719 319.812L168.693 315.893ZM171 324.711H179V340H171H163V324.711H171ZM171 340H179C179 336.686 176.314 334 173 334V342V350C167.478 350 163 345.523 163 340H171ZM173 342V334H208V342V350H173V342ZM208 342L208 334C204.687 334 202 336.686 202 340H210H218C218 345.523 213.523 350 208.001 350L208 342ZM210 340H202V315.376H210H218V340H210ZM210 315.376H202C202 314.317 201.832 313.264 201.503 312.26L209.105 309.768L216.707 307.275C217.564 309.891 218 312.626 218 315.376H210ZM209.105 309.768L201.503 312.26L194.366 290.492L201.968 288L209.57 285.508L216.707 307.275L209.105 309.768ZM201.968 288V280H209V288V296H201.968V288ZM209 288L209 280C205.687 280 203 282.686 203 286H211H219C219 291.523 214.523 296 209.001 296L209 288ZM211 286H203V266H211H219V286H211ZM211 266L203.437 263.394L219.783 215.951L227.346 218.557L234.91 221.163L218.564 268.606L211 266ZM227.346 218.557L221.857 212.737C226.566 208.296 229.762 202.837 229.559 195.885L237.555 195.65L245.552 195.416C245.929 208.305 239.721 217.882 232.835 224.376L227.346 218.557ZM237.555 195.65L240.093 188.064L321.151 215.176L318.614 222.763L316.076 230.35L235.018 203.237L237.555 195.65ZM318.614 222.763L311.034 220.204L311.06 220.126L318.64 222.685L326.22 225.243L326.194 225.321L318.614 222.763ZM318.64 222.685L321.919 215.387C323.919 216.286 325.847 217.341 327.684 218.542L323.307 225.238L318.93 231.935C317.791 231.19 316.598 230.537 315.361 229.982L318.64 222.685ZM323.307 225.238L327.684 218.542L332.287 221.551L327.911 228.247L323.534 234.944L318.93 231.935L323.307 225.238ZM327.911 228.247L332.288 221.551C333.268 222.192 334.181 222.925 335.014 223.739L329.425 229.463L323.837 235.187C323.741 235.094 323.639 235.013 323.534 234.944L327.911 228.247ZM329.425 229.463L335.014 223.738L340.802 229.389L335.213 235.113L329.625 240.838L323.837 235.187L329.425 229.463ZM335.213 235.113L340.802 229.389C341.482 230.053 342.534 230.147 343.32 229.615L347.802 236.241L352.285 242.868C345.207 247.655 335.738 246.807 329.625 240.837L335.213 235.113ZM347.802 236.241L343.32 229.615L346.58 227.41L351.062 234.036L355.544 240.662L352.285 242.868L347.802 236.241ZM351.062 234.036L346.581 227.409C351.549 224.051 358.347 226.397 360.187 232.102L352.574 234.558L344.96 237.013C346.391 241.45 351.679 243.276 355.543 240.664L351.062 234.036ZM352.574 234.558L360.189 232.105L360.746 233.837L353.131 236.289L345.517 238.741L344.959 237.01L352.574 234.558ZM353.131 236.289L360.746 233.837C360.738 233.811 360.707 233.749 360.649 233.691C360.601 233.642 360.556 233.619 360.523 233.607C360.49 233.596 360.44 233.586 360.372 233.594C360.291 233.603 360.228 233.632 360.206 233.647L364.625 240.315L369.045 246.984C360.409 252.708 348.693 248.605 345.516 238.741L353.131 236.289ZM364.625 240.315L360.206 233.647C360.295 233.588 360.364 233.499 360.399 233.394L367.986 235.932L375.573 238.469C374.407 241.954 372.111 244.952 369.045 246.984L364.625 240.315ZM367.986 235.932L360.399 233.394L372.794 196.334L380.381 198.871L387.968 201.409L375.573 238.469L367.986 235.932ZM380.381 198.871L372.794 196.334C374.196 192.143 371.935 187.61 367.745 186.209L370.283 178.622L372.82 171.035C385.391 175.24 392.173 188.838 387.968 201.409L380.381 198.871ZM370.283 178.622L367.745 186.209L334.28 175.016L336.818 167.429L339.356 159.842L372.82 171.035L370.283 178.622ZM336.818 167.429L333.758 160.037L334.11 159.891L337.169 167.283L340.229 174.675L339.877 174.821L336.818 167.429ZM337.169 167.283L334.632 174.87L249.279 146.323L251.817 138.736L254.354 131.149L339.707 159.696L337.169 167.283ZM251.817 138.736L249.279 146.323C243.654 144.442 237.882 144.382 232.567 145.814L230.485 138.09L228.403 130.365C236.66 128.14 245.65 128.238 254.354 131.149L251.817 138.736ZM230.485 138.09L222.805 140.329C221.835 137.005 220.447 133.324 219.015 131.341L225.5 126.657L231.986 121.973C235.16 126.368 237.156 132.391 238.165 135.851L230.485 138.09ZM225.5 126.657H217.5V100.787H225.5H233.5V126.657H225.5ZM225.5 100.787H217.5C217.5 97.8288 216.68 94.9279 215.131 92.4074L221.946 88.2178L228.761 84.0281C231.86 89.0686 233.5 94.87 233.5 100.787H225.5ZM221.946 88.2178L215.131 92.4076L189.969 51.4788L196.784 47.2891L203.599 43.0993L228.761 84.028L221.946 88.2178ZM196.784 47.2891L189.969 51.4787C185.966 44.9672 178.87 41 171.227 41V33V25C184.429 25 196.685 31.8528 203.599 43.0994L196.784 47.2891ZM171.227 33V41H156.094V33V25H171.227V33Z" fill="white" mask="url(#path-27-outside-1_49_1298)"/>
</svg>
