<svg width="420" height="359" viewBox="0 0 420 359" fill="none" xmlns="http://www.w3.org/2000/svg">
    <path d="M205 282H98C98 282 100.191 288.846 103 292C105.057 294.31 108.927 296.454 110.852 297.437C111.548 297.792 112 298.501 112 299.282V340C112 341.105 112.895 342 114 342H152.643C153.747 342 154.643 341.105 154.643 340V304.204C154.643 303.1 155.538 302.204 156.643 302.204H164C165.105 302.204 166 303.1 166 304.204V340C166 341.105 166.895 342 168 342H203C204.105 342 205 341.105 205 340V282Z" fill="#1E1E1E"/>
    <path d="M218.25 243H276.25V296C276.25 304.837 269.087 312 260.25 312H221.309C219.327 312 217.401 311.338 215.839 310.118C211.812 306.975 211.794 300.853 215.727 297.592C217.342 296.253 219.398 295.5 221.497 295.5H229.824C231.548 295.5 232.917 294.05 232.819 292.329L232.187 281.281C232.077 279.343 230.685 277.718 228.787 277.311C226.633 276.85 224.478 278.086 223.789 280.178L221.088 288.38C219.743 292.466 214.663 293.85 211.431 291.012C209.404 289.232 208.814 286.319 209.989 283.89L215.075 273.378C215.358 272.794 215.583 272.184 215.747 271.556L217.141 266.236C217.877 263.424 218.25 260.528 218.25 257.621V243Z" fill="#545456"/>
    <path d="M218 150C218 141.163 225.163 134 234 134H239.5C259.935 134 276.5 150.565 276.5 171V261L266.5 249.5L256 266L245 249.5L237 261H218V150Z" fill="#242424"/>
    <path d="M77 137.35C77 137.118 77.0382 136.894 77.1198 136.677C77.8148 134.834 81.4556 125.561 86 121C90.5951 116.388 101.688 112.318 103.688 111.609C103.896 111.536 104.112 111.5 104.332 111.5H212.575C212.855 111.5 213.128 111.557 213.382 111.675C215.232 112.539 223.318 116.478 227 121C230.839 125.714 233.116 135.299 233.456 136.8C233.487 136.938 233.5 137.071 233.5 137.212V201.165C233.5 201.387 233.463 201.607 233.391 201.817L213 261H98L77.114 201.823C77.0386 201.609 77 201.384 77 201.157V137.35Z" fill="#242424"/>
    <path d="M111.068 165C104.068 165 93.813 169.519 92.0684 189.5C90.3249 215.466 122.529 225.488 122.568 225.5V261H209V225.5C209 225.5 241.245 215.481 239.5 189.5C237.755 169.519 227.5 165 220.5 165H111.068Z" fill="#545456"/>
    <rect x="172" y="221" width="26" height="18" rx="3" fill="#5D5D5D"/>
    <rect x="172" y="243" width="20" height="14" rx="3" fill="#5D5D5D"/>
    <rect x="146" y="243" width="20" height="14" rx="3" fill="#5D5D5D"/>
    <path d="M99.6595 176.248C101.969 170.987 107.302 167.713 113.039 168.034L159.391 170.63C163.1 170.838 166 173.905 166 177.619V205.427C166 210.78 161.793 215.18 156.443 215.355C143.608 215.775 121.796 216.268 116.5 215C111.77 213.867 106.559 211.062 103.285 209.095C101.123 207.796 99.6173 205.678 98.9161 203.256L98.0689 200.329C95.763 192.363 96.326 183.841 99.6595 176.248Z" fill="#5D5D5D"/>
    <path d="M231.357 176.785C229.041 171.509 223.675 168.241 217.924 168.604L178.559 171.086C174.872 171.319 172 174.378 172 178.072V206.01C172 211.33 176.158 215.714 181.474 215.911C192.378 216.315 209.439 216.712 214.5 215.5C219.23 214.367 224.441 211.562 227.715 209.595C229.877 208.296 231.383 206.178 232.084 203.756L232.943 200.789C235.241 192.849 234.68 184.354 231.357 176.785Z" fill="#5D5D5D"/>
    <rect x="140" y="221" width="26" height="18" rx="3" fill="#5D5D5D"/>
    <rect x="98" y="259" width="115" height="24" rx="2" fill="#FBA24E"/>
    <rect x="151" y="259" width="38" height="24" fill="#FBCF4E"/>
    <path d="M84.25 243H26.25V296C26.25 304.837 33.4134 312 42.25 312H81.1915C83.1735 312 85.0986 311.338 86.6611 310.118C90.6884 306.975 90.7055 300.853 86.773 297.592C85.1577 296.253 83.1016 295.5 81.0032 295.5H72.6763C70.9522 295.5 69.5828 294.05 69.6812 292.329L70.3125 281.281C70.4233 279.343 71.8153 277.718 73.7132 277.311C75.867 276.85 78.0223 278.086 78.7112 280.178L81.4118 288.38C82.757 292.466 87.8373 293.85 91.0694 291.012C93.0964 289.232 93.6864 286.319 92.5115 283.89L87.4249 273.378C87.1423 272.794 86.9172 272.184 86.7528 271.556L85.3593 266.236C84.6228 263.424 84.25 260.528 84.25 257.621V243Z" fill="#5D5D5D"/>
    <path d="M84.5 150C84.5 141.163 77.3366 134 68.5 134H63C42.5655 134 26 150.565 26 171V261L36 249.5L46.5 266L57.5 249.5L65.5 261H84.5V150Z" fill="#2B2B2B"/>
    <path d="M126.098 43.2179C130.558 31.6388 141.686 24 154.094 24H169.227C179.65 24 189.326 29.4097 194.784 38.2888L219.946 79.2181C222.27 82.9986 223.5 87.3494 223.5 91.7871V146C223.5 160.912 211.412 173 196.5 173H154.28C145.624 173 137.494 168.85 132.415 161.841L110.135 131.088C106.797 126.481 105 120.937 105 115.247V103.02C105 99.7016 105.612 96.4121 106.804 93.3158L126.098 43.2179Z" fill="#242424"/>
    <path d="M101 99.5C101 92.0442 107.044 86 114.5 86H118C119.105 86 120 86.8954 120 88V111C120 112.105 119.105 113 118 113H114.5C107.044 113 101 106.956 101 99.5Z" fill="#5D5D5D"/>
    <path d="M135 92C135 82.0589 143.059 74 153 74H204C213.941 74 222 82.0589 222 92V109.5C222 116.956 215.956 123 208.5 123L213.922 129.929C220.926 138.878 219.54 151.775 210.795 159.032L209.387 160.2C205.259 163.625 200.064 165.5 194.7 165.5H168.3C162.936 165.5 157.741 163.625 153.613 160.2L151.345 158.318C142.95 151.352 141.287 139.119 147.516 130.165L152.5 123C142.835 123 135 115.165 135 105.5V92Z" fill="#545456"/>
    <path d="M153.284 129.517C156.366 124.825 161.603 122 167.216 122H204.469C206.69 122 208.779 123.054 210.099 124.839L214.629 130.969C220.069 138.329 219.522 148.514 213.324 155.248C209.364 159.551 203.784 162 197.936 162H173.558C167.97 162 162.574 159.966 158.377 156.278L156.701 154.806C149.418 148.407 147.96 137.62 153.284 129.517Z" fill="#5D5D5D"/>
    <path d="M143 85.5C143 82.4624 145.462 80 148.5 80H213.5C216.538 80 219 82.4624 219 85.5C219 88.5376 216.538 91 213.5 91H148.5C145.462 91 143 88.5376 143 85.5Z" fill="#5D5D5D"/>
    <rect width="15" height="15" rx="7.5" transform="matrix(-1 0 0 1 211 93)" fill="#1E1E1E"/>
    <rect width="55" height="8" rx="4" transform="matrix(-1 0 0 1 213 140)" fill="#45454A"/>
    <rect width="15" height="15" rx="7.5" transform="matrix(-1 0 0 1 167 93)" fill="#1E1E1E"/>
    <rect width="9" height="9" rx="4.5" transform="matrix(-1 0 0 1 182 119)" fill="#1E1E1E"/>
    <rect width="9" height="9" rx="4.5" transform="matrix(-1 0 0 1 199 119)" fill="#1E1E1E"/>
    <mask id="path-26-outside-1_49_1195" maskUnits="userSpaceOnUse" x="17.5" y="16" width="267" height="334" fill="black">
        <rect fill="white" x="17.5" y="16" width="267" height="334"/>
        <path d="M154.094 24C141.686 24.0001 130.558 31.6388 126.099 43.2178L109.207 87.0771C104.382 89.1356 101 93.9228 101 99.5C101 103.251 102.53 106.644 105 109.091V111.5H104.332C104.112 111.5 103.896 111.536 103.688 111.609C101.688 112.319 90.5951 116.388 86 121C81.5526 125.463 77.9723 134.441 77.1699 136.55C74.6718 134.936 71.6952 134 68.5 134H63C42.5655 134 26 150.565 26 171V261L26.25 260.712V296C26.25 304.837 33.4134 312 42.25 312H81.1914C83.1734 312 85.0987 311.338 86.6611 310.118C90.6884 306.975 90.7059 300.853 86.7734 297.592C85.1582 296.252 83.1013 295.5 81.0029 295.5H72.6768C70.9527 295.5 69.5834 294.05 69.6816 292.329L70.3125 281.281C70.4232 279.344 71.8152 277.718 73.7129 277.312C75.8667 276.85 78.022 278.087 78.7109 280.179L81.4121 288.38C82.7573 292.465 87.8373 293.85 91.0693 291.013C93.0963 289.233 93.6865 286.319 92.5117 283.891L87.4248 273.378C87.1423 272.794 86.9173 272.184 86.7529 271.557L85.3594 266.235C84.909 264.516 84.5952 262.765 84.4189 261H84.5V222.749L98 261V281C98 281.365 98.0991 281.706 98.2695 282H98C98 282 100.191 288.846 103 292C105.057 294.31 108.927 296.454 110.853 297.437C111.548 297.792 112 298.501 112 299.282V340C112 341.105 112.895 342 114 342H152.643C153.747 342 154.643 341.105 154.643 340V304.204C154.643 303.1 155.538 302.204 156.643 302.204H164C165.105 302.204 166 303.1 166 304.204V340C166 341.105 166.895 342 168 342H203C204.105 342 205 341.105 205 340V283H210.419L209.988 283.891C208.814 286.319 209.404 289.233 211.431 291.013C214.663 293.85 219.743 292.465 221.088 288.38L223.789 280.179C224.478 278.087 226.633 276.85 228.787 277.312C230.685 277.718 232.077 279.344 232.188 281.281L232.818 292.329C232.917 294.05 231.547 295.5 229.823 295.5H221.497C219.399 295.5 217.342 296.252 215.727 297.592C211.794 300.853 211.812 306.975 215.839 310.118C217.401 311.338 219.327 312 221.309 312H260.25C269.087 312 276.25 304.837 276.25 296V260.712L276.5 261V171C276.5 150.565 259.935 134 239.5 134H234C233.582 134 233.167 134.016 232.757 134.048C231.763 130.452 229.796 124.434 227 121C226.061 119.847 224.835 118.732 223.5 117.696V91.7871C223.5 87.3494 222.269 82.9982 219.945 79.2178L194.784 38.2891C189.326 29.4101 179.65 24.0001 169.228 24H154.094ZM218 261H218.081C217.905 262.765 217.591 264.516 217.141 266.235L215.747 271.557C215.583 272.184 215.358 272.794 215.075 273.378L213 277.666V261L218 246.487V261Z"/>
    </mask>
    <path d="M154.094 24L154.094 16H154.094V24ZM126.099 43.2178L118.633 40.3426L118.633 40.3425L126.099 43.2178ZM109.207 87.0771L116.673 89.9523L115.457 93.1084L112.346 94.4355L109.207 87.0771ZM105 109.091L110.63 103.407L113 105.755V109.091H105ZM105 111.5H113V119.5H105V111.5ZM104.332 111.5L104.331 103.5H104.332V111.5ZM103.688 111.609L101.015 104.069L101.016 104.069L103.688 111.609ZM86 121L91.667 126.647L86 121ZM77.1699 136.55L84.647 139.395L81.1322 148.633L72.8293 143.27L77.1699 136.55ZM68.5 134V126V126V134ZM26 171H18V171H26ZM26 261L32.0421 266.243L18 282.425V261H26ZM26.25 260.712L20.2079 255.469L34.25 239.287V260.712H26.25ZM26.25 296H18.25H26.25ZM86.6611 310.118L91.5833 316.425L91.5833 316.425L86.6611 310.118ZM86.7734 297.592L91.8801 291.434L91.8802 291.434L86.7734 297.592ZM69.6816 292.329L61.6946 291.873L61.6947 291.873L69.6816 292.329ZM70.3125 281.281L62.3255 280.825L62.3255 280.825L70.3125 281.281ZM73.7129 277.312L72.0361 269.489L72.0367 269.489L73.7129 277.312ZM78.7109 280.179L71.1125 282.681L71.1123 282.681L78.7109 280.179ZM81.4121 288.38L89.0106 285.877L89.0108 285.878L81.4121 288.38ZM91.0693 291.013L96.3477 297.024L96.3474 297.024L91.0693 291.013ZM92.5117 283.891L99.713 280.406L99.7132 280.406L92.5117 283.891ZM87.4248 273.378L80.2236 276.862L80.2234 276.862L87.4248 273.378ZM86.7529 271.557L79.014 273.584L79.0139 273.583L86.7529 271.557ZM85.3594 266.235L93.0984 264.209L93.0984 264.209L85.3594 266.235ZM84.4189 261L76.4585 261.795L75.5802 253H84.4189V261ZM84.5 261H92.5V269H84.5V261ZM84.5 222.749H76.5L92.0439 220.087L84.5 222.749ZM98 261L105.544 258.337L106 259.63V261H98ZM98 281H90V281H98ZM98.2695 282L105.192 277.991L112.147 290H98.2695V282ZM98 282L90.3806 284.438L87.0404 274H98V282ZM103 292L97.0259 297.321L97.0259 297.321L103 292ZM110.853 297.437L114.49 290.311L114.491 290.312L110.853 297.437ZM112 340H104V340H112ZM114 342V350H114L114 342ZM156.643 302.204L156.641 294.204H156.643V302.204ZM166 340H158V340H166ZM168 342V350H168L168 342ZM205 340H213V340H205ZM205 283H197V275H205V283ZM210.419 283V275H223.174L217.621 286.483L210.419 283ZM209.988 283.891L217.19 287.373L217.19 287.375L209.988 283.891ZM211.431 291.013L206.153 297.024L206.152 297.024L211.431 291.013ZM221.088 288.38L213.489 285.878L213.489 285.877L221.088 288.38ZM223.789 280.179L231.388 282.681L231.388 282.681L223.789 280.179ZM228.787 277.312L230.463 269.489L230.464 269.489L228.787 277.312ZM232.188 281.281L240.174 280.825L240.174 280.825L232.188 281.281ZM232.818 292.329L240.805 291.873L240.805 291.873L232.818 292.329ZM215.727 297.592L210.62 291.434L210.62 291.434L215.727 297.592ZM215.839 310.118L210.917 316.425L210.917 316.425L215.839 310.118ZM276.25 296H284.25H276.25ZM276.25 260.712H268.25V239.287L282.292 255.469L276.25 260.712ZM276.5 261H284.5V282.425L270.458 266.243L276.5 261ZM276.5 171H284.5V171H276.5ZM234 134V126V126V134ZM232.757 134.048L233.37 142.024L226.801 142.529L225.046 136.179L232.757 134.048ZM227 121L220.796 126.051L227 121ZM223.5 117.696L218.596 124.017L215.5 121.615V117.696H223.5ZM219.945 79.2178L226.76 75.0281L226.76 75.0281L219.945 79.2178ZM194.784 38.2891L187.969 42.4787L187.969 42.4787L194.784 38.2891ZM169.228 24V16H169.228L169.228 24ZM218 261V269H210V261H218ZM218.081 261V253H226.92L226.041 261.795L218.081 261ZM217.141 266.235L209.402 264.209L209.402 264.209L217.141 266.235ZM215.747 271.557L223.486 273.583L223.486 273.584L215.747 271.557ZM215.075 273.378L222.277 276.862L222.276 276.863L215.075 273.378ZM213 277.666L220.201 281.151L205 277.666H213ZM213 261H205V259.661L205.436 258.394L213 261ZM218 246.487L210.436 243.881L226 246.487H218ZM154.094 24L154.094 32C144.995 32.0001 136.834 37.6018 133.564 46.093L126.099 43.2178L118.633 40.3425C124.282 25.6759 138.377 16.0001 154.094 16L154.094 24ZM126.099 43.2178L133.564 46.093L116.673 89.9523L109.207 87.0771L101.742 84.202L118.633 40.3426L126.099 43.2178ZM109.207 87.0771L112.346 94.4355C110.364 95.281 109 97.2404 109 99.5H101H93C93 90.6053 98.3997 82.9901 106.068 79.7188L109.207 87.0771ZM101 99.5H109C109 101.029 109.614 102.401 110.63 103.407L105 109.091L99.3699 114.774C95.4464 110.888 93 105.473 93 99.5H101ZM105 109.091H113V111.5H105H97V109.091H105ZM105 111.5V119.5H104.332V111.5V103.5H105V111.5ZM104.332 111.5L104.333 119.5C104.99 119.5 105.68 119.391 106.361 119.15L103.688 111.609L101.016 104.069C102.112 103.681 103.234 103.5 104.331 103.5L104.332 111.5ZM103.688 111.609L106.362 119.149C105.482 119.462 102.476 120.559 99.2063 122.088C95.6695 123.742 92.8882 125.421 91.667 126.647L86 121L80.333 115.353C83.7069 111.967 88.7697 109.306 92.4282 107.595C96.3539 105.759 99.895 104.466 101.015 104.069L103.688 111.609ZM86 121L91.667 126.647C90.3639 127.954 88.8157 130.385 87.3563 133.27C85.9784 135.993 84.9944 138.482 84.647 139.395L77.1699 136.55L69.6928 133.705C70.1478 132.509 71.3552 129.455 73.0798 126.046C74.7231 122.798 77.1887 118.509 80.333 115.353L86 121ZM77.1699 136.55L72.8293 143.27C71.5863 142.467 70.1102 142 68.5 142V134V126C73.2801 126 77.7573 127.405 81.5106 129.83L77.1699 136.55ZM68.5 134V142H63V134V126H68.5V134ZM63 134V142C46.9837 142 34 154.984 34 171H26H18C18 146.147 38.1472 126 63 126V134ZM26 171H34V261H26H18V171H26ZM26 261L19.9579 255.757L20.2079 255.469L26.25 260.712L32.2921 265.955L32.0421 266.243L26 261ZM26.25 260.712H34.25V296H26.25H18.25V260.712H26.25ZM26.25 296H34.25C34.25 300.418 37.8317 304 42.25 304V312V320C28.9952 320 18.25 309.255 18.25 296H26.25ZM42.25 312V304H81.1914V312V320H42.25V312ZM81.1914 312V304C81.3898 304 81.5826 303.934 81.739 303.812L86.6611 310.118L91.5833 316.425C88.6147 318.742 84.957 320 81.1914 320V312ZM86.6611 310.118L81.7389 303.812C81.7448 303.807 81.7384 303.811 81.7273 303.825C81.7168 303.838 81.7088 303.852 81.7038 303.862C81.6949 303.881 81.7022 303.875 81.7024 303.844C81.7025 303.829 81.701 303.815 81.6982 303.801C81.6955 303.789 81.6922 303.78 81.6902 303.775C81.6884 303.771 81.6873 303.77 81.6867 303.769C81.6867 303.769 81.682 303.763 81.6667 303.75L86.7734 297.592L91.8802 291.434C99.6417 297.87 99.7424 310.056 91.5833 316.425L86.6611 310.118ZM86.7734 297.592L81.6667 303.75C81.4664 303.584 81.2098 303.5 81.0029 303.5V295.5V287.5C84.9928 287.5 88.85 288.921 91.8801 291.434L86.7734 297.592ZM81.0029 295.5V303.5H72.6768V295.5V287.5H81.0029V295.5ZM72.6768 295.5V303.5C66.3553 303.5 61.3345 298.185 61.6946 291.873L69.6816 292.329L77.6686 292.785C77.8324 289.916 75.5501 287.5 72.6768 287.5V295.5ZM69.6816 292.329L61.6947 291.873L62.3255 280.825L70.3125 281.281L78.2995 281.737L77.6686 292.785L69.6816 292.329ZM70.3125 281.281L62.3255 280.825C62.6417 275.292 66.6157 270.651 72.0361 269.489L73.7129 277.312L75.3897 285.134C77.0146 284.785 78.2048 283.395 78.2995 281.738L70.3125 281.281ZM73.7129 277.312L72.0367 269.489C78.1877 268.171 84.3425 271.702 86.3096 277.677L78.7109 280.179L71.1123 282.681C71.7016 284.471 73.5457 285.529 75.3891 285.134L73.7129 277.312ZM78.7109 280.179L86.3094 277.676L89.0106 285.877L81.4121 288.38L73.8136 290.883L71.1125 282.681L78.7109 280.179ZM81.4121 288.38L89.0108 285.878C88.5628 284.517 86.8697 284.054 85.7912 285.001L91.0693 291.013L96.3474 297.024C88.8048 303.647 76.9517 300.413 73.8134 290.882L81.4121 288.38ZM91.0693 291.013L85.7909 285.001C85.1153 285.594 84.9186 286.565 85.3103 287.375L92.5117 283.891L99.7132 280.406C102.454 286.072 101.077 292.871 96.3477 297.024L91.0693 291.013ZM92.5117 283.891L85.3105 287.375L80.2236 276.862L87.4248 273.378L94.626 269.893L99.713 280.406L92.5117 283.891ZM87.4248 273.378L80.2234 276.862C79.7149 275.811 79.3099 274.713 79.014 273.584L86.7529 271.557L94.4918 269.529C94.5247 269.655 94.5697 269.777 94.6262 269.894L87.4248 273.378ZM86.7529 271.557L79.0139 273.583L77.6204 268.262L85.3594 266.235L93.0984 264.209L94.4919 269.53L86.7529 271.557ZM85.3594 266.235L77.6204 268.262C77.0637 266.136 76.6761 263.974 76.4585 261.795L84.4189 261L92.3793 260.205C92.5143 261.557 92.7544 262.895 93.0984 264.209L85.3594 266.235ZM84.4189 261V253H84.5V261V269H84.4189V261ZM84.5 261H76.5V222.749H84.5H92.5V261H84.5ZM84.5 222.749L92.0439 220.087L105.544 258.337L98 261L90.4561 263.663L76.9561 225.412L84.5 222.749ZM98 261H106V281H98H90V261H98ZM98 281H106C106 279.894 105.695 278.859 105.192 277.991L98.2695 282L91.3467 286.009C90.5029 284.552 90 282.836 90 281H98ZM98.2695 282V290H98V282V274H98.2695V282ZM98 282C105.619 279.562 105.619 279.561 105.619 279.56C105.619 279.56 105.619 279.559 105.618 279.559C105.618 279.558 105.618 279.557 105.618 279.556C105.617 279.554 105.617 279.553 105.616 279.552C105.616 279.551 105.616 279.551 105.616 279.552C105.617 279.556 105.62 279.565 105.625 279.58C105.635 279.61 105.653 279.664 105.678 279.737C105.728 279.886 105.807 280.114 105.912 280.404C106.123 280.99 106.429 281.797 106.804 282.676C107.665 284.694 108.499 286.145 108.974 286.679L103 292L97.0259 297.321C94.692 294.7 93.0253 291.152 92.0887 288.958C91.5654 287.732 91.1482 286.63 90.8607 285.833C90.7161 285.432 90.6019 285.102 90.5212 284.863C90.4809 284.744 90.4487 284.647 90.4252 284.575C90.4134 284.539 90.4038 284.51 90.3963 284.487C90.3926 284.475 90.3894 284.466 90.3868 284.458C90.3855 284.453 90.3843 284.45 90.3833 284.447C90.3828 284.445 90.3823 284.443 90.3819 284.442C90.3816 284.441 90.3813 284.44 90.3812 284.44C90.3809 284.439 90.3806 284.438 98 282ZM103 292L108.974 286.679C109.291 287.035 110.067 287.688 111.32 288.498C112.478 289.247 113.669 289.892 114.49 290.311L110.853 297.437L107.215 304.562C105.393 303.631 100.212 300.898 97.0259 297.321L103 292ZM110.853 297.437L114.491 290.312C117.752 291.977 120 295.372 120 299.282H112H104C104 301.63 105.345 303.607 107.214 304.561L110.853 297.437ZM112 299.282H120V340H112H104V299.282H112ZM112 340H120C120 336.686 117.314 334 114 334L114 342L114 350C108.477 350 104 345.523 104 340H112ZM114 342V334H152.643V342V350H114V342ZM152.643 342V334C149.329 334 146.643 336.686 146.643 340H154.643H162.643C162.643 345.523 158.165 350 152.643 350V342ZM154.643 340H146.643V304.204H154.643H162.643V340H154.643ZM154.643 304.204H146.643C146.643 298.68 151.121 294.205 156.641 294.204L156.643 302.204L156.644 310.204C159.955 310.204 162.643 307.519 162.643 304.204H154.643ZM156.643 302.204V294.204H164V302.204V310.204H156.643V302.204ZM164 302.204V294.204C169.523 294.204 174 298.681 174 304.204H166H158C158 307.518 160.686 310.204 164 310.204V302.204ZM166 304.204H174V340H166H158V304.204H166ZM166 340H174C174 336.686 171.314 334 168 334L168 342L168 350C162.477 350 158 345.523 158 340H166ZM168 342V334H203V342V350H168V342ZM203 342V334C199.686 334 197 336.686 197 340H205H213C213 345.523 208.523 350 203 350V342ZM205 340H197V283H205H213V340H205ZM205 283V275H210.419V283V291H205V283ZM210.419 283L217.621 286.483L217.19 287.373L209.988 283.891L202.786 280.408L203.217 279.517L210.419 283ZM209.988 283.891L217.19 287.375C217.581 286.565 217.385 285.594 216.709 285.001L211.431 291.013L206.152 297.024C201.423 292.871 200.046 286.072 202.787 280.406L209.988 283.891ZM211.431 291.013L216.709 285.001C215.63 284.054 213.937 284.517 213.489 285.878L221.088 288.38L228.687 290.882C225.548 300.413 213.695 303.647 206.153 297.024L211.431 291.013ZM221.088 288.38L213.489 285.877L216.191 277.676L223.789 280.179L231.388 282.681L228.686 290.883L221.088 288.38ZM223.789 280.179L216.19 277.677C218.158 271.702 224.312 268.171 230.463 269.489L228.787 277.312L227.111 285.134C228.954 285.529 230.798 284.471 231.388 282.681L223.789 280.179ZM228.787 277.312L230.464 269.489C235.884 270.651 239.858 275.292 240.174 280.825L232.188 281.281L224.201 281.738C224.295 283.395 225.485 284.785 227.11 285.134L228.787 277.312ZM232.188 281.281L240.174 280.825L240.805 291.873L232.818 292.329L224.831 292.785L224.201 281.737L232.188 281.281ZM232.818 292.329L240.805 291.873C241.166 298.185 236.145 303.5 229.823 303.5V295.5V287.5C226.95 287.5 224.668 289.916 224.831 292.785L232.818 292.329ZM229.823 295.5V303.5H221.497V295.5V287.5H229.823V295.5ZM221.497 295.5V303.5C221.29 303.5 221.034 303.584 220.833 303.75L215.727 297.592L210.62 291.434C213.65 288.921 217.507 287.5 221.497 287.5V295.5ZM215.727 297.592L220.833 303.75C220.818 303.763 220.813 303.769 220.813 303.769C220.813 303.77 220.812 303.771 220.81 303.775C220.808 303.78 220.804 303.789 220.802 303.801C220.799 303.815 220.798 303.829 220.798 303.844C220.798 303.875 220.805 303.881 220.796 303.862C220.791 303.852 220.783 303.838 220.773 303.825C220.762 303.811 220.755 303.807 220.761 303.812L215.839 310.118L210.917 316.425C202.758 310.056 202.858 297.87 210.62 291.434L215.727 297.592ZM215.839 310.118L220.761 303.812C220.917 303.934 221.11 304 221.309 304V312V320C217.543 320 213.885 318.742 210.917 316.425L215.839 310.118ZM221.309 312V304H260.25V312V320H221.309V312ZM260.25 312V304C264.668 304 268.25 300.418 268.25 296H276.25H284.25C284.25 309.255 273.505 320 260.25 320V312ZM276.25 296H268.25V260.712H276.25H284.25V296H276.25ZM276.25 260.712L282.292 255.469L282.542 255.757L276.5 261L270.458 266.243L270.208 265.955L276.25 260.712ZM276.5 261H268.5V171H276.5H284.5V261H276.5ZM276.5 171H268.5C268.5 154.984 255.516 142 239.5 142V134V126C264.353 126 284.5 146.147 284.5 171H276.5ZM239.5 134V142H234V134V126H239.5V134ZM234 134V142C233.79 142 233.58 142.008 233.37 142.024L232.757 134.048L232.144 126.071C232.754 126.024 233.373 126 234 126V134ZM232.757 134.048L225.046 136.179C224.597 134.555 223.95 132.468 223.14 130.467C222.286 128.359 221.45 126.855 220.796 126.051L227 121L233.204 115.949C235.345 118.579 236.892 121.801 237.969 124.459C239.089 127.225 239.923 129.945 240.468 131.917L232.757 134.048ZM227 121L220.796 126.051C220.375 125.534 219.654 124.838 218.596 124.017L223.5 117.696L228.404 111.376C230.016 112.626 231.747 114.16 233.204 115.949L227 121ZM223.5 117.696H215.5V91.7871H223.5H231.5V117.696H223.5ZM223.5 91.7871H215.5C215.5 88.8288 214.68 85.9279 213.13 83.4074L219.945 79.2178L226.76 75.0281C229.859 80.0686 231.5 85.87 231.5 91.7871H223.5ZM219.945 79.2178L213.13 83.4074L187.969 42.4787L194.784 38.2891L201.599 34.0994L226.76 75.0281L219.945 79.2178ZM194.784 38.2891L187.969 42.4787C183.966 35.9674 176.871 32.0001 169.227 32L169.228 24L169.228 16C182.43 16.0002 194.685 22.8528 201.599 34.0994L194.784 38.2891ZM169.228 24V32H154.094V24V16H169.228V24ZM218 261V253H218.081V261V269H218V261ZM218.081 261L226.041 261.795C225.824 263.974 225.436 266.136 224.88 268.262L217.141 266.235L209.402 264.209C209.746 262.895 209.986 261.557 210.121 260.205L218.081 261ZM217.141 266.235L224.88 268.262L223.486 273.583L215.747 271.557L208.008 269.53L209.402 264.209L217.141 266.235ZM215.747 271.557L223.486 273.584C223.19 274.713 222.785 275.811 222.277 276.862L215.075 273.378L207.874 269.894C207.93 269.777 207.975 269.655 208.008 269.529L215.747 271.557ZM215.075 273.378L222.276 276.863L220.201 281.151L213 277.666L205.799 274.181L207.874 269.893L215.075 273.378ZM213 277.666H205V261H213H221V277.666H213ZM213 261L205.436 258.394L210.436 243.881L218 246.487L225.564 249.093L220.564 263.606L213 261ZM218 246.487H226V261H218H210V246.487H218Z" fill="white" mask="url(#path-26-outside-1_49_1195)"/>
</svg>
