<svg width="280" height="270" viewBox="0 0 280 270" fill="none" xmlns="http://www.w3.org/2000/svg">
    <path d="M139.392 253.809L162.431 154.452C162.722 153.198 161.77 152 160.483 152H84.5979C83.9141 152 83.2777 152.349 82.9106 152.926L25.7695 242.719C24.9636 243.986 25.7882 245.656 27.2836 245.786L137.271 255.35C138.263 255.436 139.167 254.779 139.392 253.809Z" fill="#1E1E1E"/>
    <path d="M169 164.595C169 157.415 174.82 151.595 182 151.595L218.234 151.595L218.241 151.307C218.391 148.351 220.836 146 223.829 146C226.919 146 229.424 148.505 229.424 151.595L229.424 151.743C237.635 152.837 243.97 159.868 243.97 168.379C243.97 177.649 236.455 185.163 227.186 185.163L171 185.163C169.895 185.163 169 184.268 169 183.163L169 164.595Z" fill="#1E1E1E"/>
    <path d="M150 185.2C148.895 185.2 148 184.305 148 183.2L148 164.6C148 157.42 153.82 151.6 161 151.6L218 151.6L218 185.2L150 185.2Z" fill="#4F4F4F"/>
    <path d="M154.695 203.687C154.512 202.761 153.707 202.089 152.764 202.074L86.2795 201.022C85.4424 201.009 84.6857 201.518 84.3831 202.299L73.7523 229.723C72.7246 232.374 71.2845 234.847 69.4854 237.048L58.0024 251.102C56.4015 253.061 57.7955 256 60.3255 256H90.0353C91.65 256 93.1653 255.22 94.1038 253.906L104.207 239.763C106.021 237.224 107.381 234.389 108.226 231.385L110.95 221.708C111.193 220.846 111.98 220.25 112.876 220.25H122.168C122.972 220.25 123.698 220.731 124.011 221.472L129.911 235.446C130.044 235.76 130.094 236.103 130.057 236.442L128.151 253.782C128.021 254.965 128.948 256 130.139 256H156.999C158.02 256 158.877 255.231 158.987 254.216L160.967 235.953C160.989 235.752 160.98 235.549 160.941 235.351L154.695 203.687Z" fill="#636363"/>
    <path d="M156.133 204.984C156.133 203.88 155.238 202.984 154.133 202.984H82.8065C81.702 202.984 80.8065 203.88 80.8065 204.984V211.528C80.8065 212.43 81.4095 213.22 82.279 213.458L111.235 221.376C111.407 221.423 111.584 221.447 111.763 221.447H123.547C123.717 221.447 123.886 221.426 124.05 221.383L154.636 213.444C155.518 213.215 156.133 212.419 156.133 211.508V204.984Z" fill="#1E1E1E"/>
    <rect x="79" y="206" width="77" height="5" fill="#FBCF4E"/>
    <path d="M163.252 159.393C163.252 155.527 160.118 152.393 156.252 152.393H75.9738V205.222C75.9738 206.327 76.8692 207.222 77.9738 207.222H161.252C162.357 207.222 163.252 206.327 163.252 205.222V159.393Z" fill="#1E1E1E"/>
    <path d="M163.252 169.191C163.252 165.01 159.611 161.761 155.457 162.236L124.81 165.739C124.33 165.793 123.847 165.798 123.366 165.754L75.9738 161.345V205.222C75.9738 206.327 76.8692 207.222 77.9738 207.222H161.252C162.357 207.222 163.252 206.327 163.252 205.222V169.191Z" fill="#636363"/>
    <ellipse cx="125.208" cy="184.843" rx="20.1412" ry="12.3085" fill="#FBCF4E"/>
    <path d="M134.315 176.484C132.929 175.096 143.111 179.725 143.111 184.817C143.111 188.625 139.875 191.111 137.94 192.05C137.789 192.123 137.626 191.981 137.663 191.816C138.029 190.196 137.962 187.595 135.242 187.594C132.28 187.594 131.847 189.137 132.001 189.909C131.847 189.292 131.168 188.057 129.687 188.057C127.835 188.057 125.521 190.835 125.521 193.149C125.52 190.835 123.206 188.058 121.354 188.057C119.873 188.057 119.193 189.292 119.039 189.909C119.193 189.137 118.761 187.594 115.799 187.594C113.079 187.595 113.012 190.196 113.378 191.816C113.415 191.981 113.251 192.123 113.1 192.05C111.165 191.111 107.93 188.625 107.93 184.817C107.93 179.725 118.113 175.095 116.725 176.484C115.336 177.873 116.725 182.502 119.965 182.503C122.288 182.503 123.298 179.032 123.594 176.757C123.609 176.641 123.834 176.622 123.875 176.731C124.159 177.485 124.695 178.336 125.521 178.336C126.345 178.336 126.881 177.485 127.165 176.731C127.206 176.622 127.432 176.641 127.447 176.757C127.743 179.032 128.752 182.502 131.075 182.503C134.316 182.503 135.704 177.873 134.315 176.484Z" fill="#1E1E1E"/>
    <path d="M90.3547 165.5C90.3547 158.32 84.5344 152.5 77.3547 152.5H69.8868C62.7071 152.5 56.8868 158.32 56.8868 165.5V199.355C56.8868 208.597 64.3789 216.089 73.6208 216.089C82.8627 216.089 90.3547 208.597 90.3547 199.355V165.5Z" fill="#727070"/>
    <path d="M64.8593 211.539C71.8426 217.593 82.4111 216.84 88.4647 209.856L103.12 192.951C109.173 185.968 108.419 175.399 101.436 169.346C95.0238 163.788 85.5902 163.968 79.4033 169.44L79.2919 169.344C76.9643 167.326 73.4418 167.577 71.4239 169.904C69.469 172.159 69.6434 175.536 71.7725 177.58L71.985 177.773L63.1761 187.934C57.1226 194.918 57.8762 205.485 64.8593 211.539Z" fill="#1E1E1E"/>
    <path d="M63.1759 187.934C57.1223 194.917 57.8759 205.486 64.8592 211.54C71.8425 217.593 82.411 216.84 88.4647 209.856L97.2815 199.686L71.9928 177.763L63.1759 187.934Z" fill="#727070"/>
    <path d="M185.899 46.9738C183.217 37.9967 176.293 25.5788 173.583 20.892C173.152 20.1482 172.062 20.2809 171.8 21.0992L163.965 45.5834C163.7 46.4118 162.93 46.9738 162.06 46.9738H79.9397C79.0699 46.9738 78.2999 46.4118 78.0348 45.5834L70.1999 21.0992C69.938 20.2809 68.8475 20.1482 68.4174 20.892C65.7074 25.5787 58.7826 37.9967 56.1007 46.9738C49.6152 68.6824 50.2603 74.212 49.387 96.7673C49.0688 104.985 48.9831 114.893 49.0026 124.158C49.0379 140.979 62.8067 154.393 79.6283 154.393H162.372C179.193 154.393 192.962 140.979 192.997 124.158C193.017 114.893 192.931 104.985 192.613 96.7673C191.74 74.212 192.385 68.6824 185.899 46.9738Z" fill="#1E1E1E"/>
    <path d="M192.998 113.128C192.998 111.888 191.881 110.946 190.659 111.157L141.281 119.652C141.073 119.688 140.86 119.69 140.651 119.659L82.2742 111.09C81.0669 110.913 79.9837 111.849 79.9837 113.069V124.393C79.9837 140.962 93.4152 154.393 109.984 154.393H162.998C179.567 154.393 192.998 140.962 192.998 124.393V113.128Z" fill="#FABC95"/>
    <rect width="19.0222" height="19.0222" rx="9.51111" transform="matrix(-1 0 0 1 178.452 92.851)" fill="white"/>
    <rect width="19.0222" height="5.59477" rx="2.79738" transform="matrix(-1 0 0 1 150.478 125.301)" fill="#F0997D"/>
    <rect width="19.0222" height="19.0222" rx="9.51111" transform="matrix(-1 0 0 1 122.504 92.851)" fill="white"/>
    <mask id="path-19-outside-1_42_921" maskUnits="userSpaceOnUse" x="16.9697" y="11.4028" width="235" height="253" fill="black">
        <rect fill="white" x="16.9697" y="11.4028" width="235" height="253"/>
        <path d="M70.2002 21.099C69.9383 20.2807 68.8471 20.1482 68.417 20.892C65.7069 25.579 58.7825 37.9971 56.1006 46.974C49.6153 68.6823 50.26 74.212 49.3867 96.767C49.0685 104.985 48.9835 114.893 49.0029 124.158C49.0304 137.256 57.3843 148.286 69.0225 152.529C62.2458 152.974 56.8867 158.611 56.8867 165.5V193.82L25.7695 242.719C24.9637 243.985 25.788 245.655 27.2832 245.786L60.0205 248.632L58.002 251.102C56.4017 253.061 57.7956 255.999 60.3252 255.999H90.0352C91.6499 255.999 93.1649 255.22 94.1035 253.906L95.6572 251.731L128.223 254.563C128.465 255.385 129.222 255.999 130.139 255.999H156.999C158.02 255.999 158.877 255.23 158.987 254.215L160.967 235.954C160.989 235.753 160.98 235.549 160.941 235.351L156.133 210.978V207.222H161.252C162.357 207.222 163.252 206.327 163.252 205.222V185.2H218V185.163H227.186C236.455 185.163 243.97 177.648 243.97 168.378C243.97 159.868 237.635 152.837 229.424 151.743V151.594C229.424 148.505 226.919 146 223.829 145.999C220.836 145.999 218.391 148.35 218.241 151.306L218.234 151.594H182C181.879 151.594 181.759 151.597 181.639 151.6H175.65C185.896 146.827 192.998 136.44 192.998 124.393V122.408C192.998 121.696 192.999 120.981 192.998 120.265V113.127C192.998 112.997 192.984 112.87 192.96 112.747C192.908 107.149 192.803 101.659 192.613 96.767C191.74 74.212 192.385 68.6823 185.899 46.974C183.218 37.9971 176.293 25.579 173.583 20.892C173.153 20.1482 172.062 20.2807 171.8 21.099L163.965 45.5834C163.7 46.4116 162.93 46.9739 162.061 46.974H79.9395C79.0699 46.974 78.3003 46.4116 78.0352 45.5834L70.2002 21.099Z"/>
    </mask>
    <path d="M70.2002 21.099L77.8196 18.6608V18.6608L70.2002 21.099ZM68.417 20.892L61.4914 16.8875V16.8875L68.417 20.892ZM56.1006 46.974L48.4353 44.6841V44.684L56.1006 46.974ZM49.3867 96.767L57.3807 97.0765V97.0765L49.3867 96.767ZM49.0029 124.158L41.0029 124.174V124.174L49.0029 124.158ZM69.0225 152.529L71.7622 145.013L69.5465 160.512L69.0225 152.529ZM56.8867 193.82H64.8867V196.149L63.636 198.115L56.8867 193.82ZM25.7695 242.719L32.5189 247.014L32.5188 247.014L25.7695 242.719ZM27.2832 245.786L26.5902 253.755L26.5887 253.755L27.2832 245.786ZM60.0205 248.632L60.7135 240.662L75.7948 241.974L66.2148 253.695L60.0205 248.632ZM58.002 251.102L51.8062 246.041L51.8077 246.039L58.002 251.102ZM60.3252 255.999V263.999H60.3246L60.3252 255.999ZM94.1035 253.906L87.5938 249.256L87.594 249.255L94.1035 253.906ZM95.6572 251.731L89.1478 247.08L91.8018 243.365L96.3503 243.761L95.6572 251.731ZM128.223 254.563L128.916 246.593L134.356 247.066L135.898 252.305L128.223 254.563ZM130.139 255.999V263.999H130.137L130.139 255.999ZM156.999 255.999L156.999 263.999H156.999V255.999ZM158.987 254.215L166.941 255.077L166.941 255.077L158.987 254.215ZM160.967 235.954L153.013 235.091L153.013 235.091L160.967 235.954ZM160.941 235.351L168.79 233.803L168.791 233.805L160.941 235.351ZM156.133 210.978L148.284 212.526L148.133 211.76V210.978H156.133ZM156.133 207.222H148.133V199.222H156.133V207.222ZM163.252 205.222H171.252V205.222L163.252 205.222ZM163.252 185.2H155.252V177.2H163.252V185.2ZM218 185.2H226V193.2H218V185.2ZM218 185.163H210V177.163H218V185.163ZM227.186 185.163V193.163V193.163V185.163ZM243.97 168.378L251.97 168.378V168.378L243.97 168.378ZM229.424 151.743L228.367 159.673L221.424 158.747V151.743H229.424ZM229.424 151.594L237.424 151.594V151.594H229.424ZM223.829 145.999V137.999H223.83L223.829 145.999ZM218.241 151.306L210.243 151.116L210.246 151.008L210.251 150.9L218.241 151.306ZM218.234 151.594L226.232 151.784L226.047 159.594H218.234V151.594ZM182 151.594V143.594V143.594V151.594ZM181.639 151.6L181.857 159.597L181.748 159.6H181.639V151.6ZM175.65 151.6V159.6L172.272 144.348L175.65 151.6ZM192.998 122.408H184.998V122.403L192.998 122.408ZM192.998 120.265L184.998 120.275V120.265H192.998ZM192.998 113.127L200.998 113.127V113.127H192.998ZM192.96 112.747L185.104 114.256L184.967 113.545L184.96 112.82L192.96 112.747ZM192.613 96.767L184.619 97.0765V97.0765L192.613 96.767ZM185.899 46.974L193.565 44.684L193.565 44.6841L185.899 46.974ZM173.583 20.892L180.509 16.8875L180.509 16.8875L173.583 20.892ZM171.8 21.099L164.18 18.6608L164.18 18.6608L171.8 21.099ZM163.965 45.5834L171.584 48.0216L171.584 48.0225L163.965 45.5834ZM162.061 46.974L162.062 54.974H162.061V46.974ZM79.9395 46.974V54.974H79.9388L79.9395 46.974ZM78.0352 45.5834L70.4161 48.0226L70.4158 48.0216L78.0352 45.5834ZM70.2002 21.099L62.5808 23.5373C64.3516 29.071 72.1625 30.3963 75.3426 24.8965L68.417 20.892L61.4914 16.8875C65.5317 9.90004 75.5251 11.4904 77.8196 18.6608L70.2002 21.099ZM68.417 20.892L75.3426 24.8965C72.5711 29.6897 66.1376 41.3251 63.7658 49.264L56.1006 46.974L48.4353 44.684C51.4273 34.669 58.8427 21.4683 61.4914 16.8875L68.417 20.892ZM56.1006 46.974L63.7658 49.264C57.6056 69.884 58.256 74.4701 57.3807 97.0765L49.3867 96.767L41.3927 96.4575C42.264 73.9538 41.6249 67.4806 48.4353 44.6841L56.1006 46.974ZM49.3867 96.767L57.3807 97.0765C57.0688 105.133 56.9835 114.915 57.0029 124.141L49.0029 124.158L41.0029 124.174C40.9834 114.871 41.0683 104.837 41.3927 96.4575L49.3867 96.767ZM49.0029 124.158L57.0029 124.141C57.023 133.723 63.1237 141.864 71.7622 145.013L69.0225 152.529L66.2827 160.045C51.6449 154.709 41.0378 140.788 41.0029 124.174L49.0029 124.158ZM69.0225 152.529L69.5465 160.512C66.9476 160.682 64.8867 162.854 64.8867 165.5H56.8867H48.8867C48.8867 154.368 57.544 145.265 68.4984 144.546L69.0225 152.529ZM56.8867 165.5H64.8867V193.82H56.8867H48.8867V165.5H56.8867ZM56.8867 193.82L63.636 198.115L32.5189 247.014L25.7695 242.719L19.0202 238.424L50.1374 189.525L56.8867 193.82ZM25.7695 242.719L32.5188 247.014C34.9359 243.216 32.4641 238.207 27.9777 237.816L27.2832 245.786L26.5887 253.755C19.1119 253.104 14.9915 244.755 19.0202 238.424L25.7695 242.719ZM27.2832 245.786L27.9762 237.816L60.7135 240.662L60.0205 248.632L59.3275 256.602L26.5902 253.755L27.2832 245.786ZM60.0205 248.632L66.2148 253.695L64.1962 256.165L58.002 251.102L51.8077 246.039L53.8262 243.57L60.0205 248.632ZM58.002 251.102L64.1977 256.163C66.8656 252.897 64.5407 248 60.3258 247.999L60.3252 255.999L60.3246 263.999C51.0504 263.999 45.9378 253.225 51.8062 246.041L58.002 251.102ZM60.3252 255.999V247.999H90.0352V255.999V263.999H60.3252V255.999ZM90.0352 255.999V247.999C89.0657 247.999 88.1566 248.468 87.5938 249.256L94.1035 253.906L100.613 258.556C98.1733 261.971 94.234 263.999 90.0352 263.999V255.999ZM94.1035 253.906L87.594 249.255L89.1478 247.08L95.6572 251.731L102.167 256.381L100.613 258.556L94.1035 253.906ZM95.6572 251.731L96.3503 243.761L128.916 246.593L128.223 254.563L127.53 262.533L94.9641 259.701L95.6572 251.731ZM128.223 254.563L135.898 252.305C135.183 249.877 132.928 248 130.14 247.999L130.139 255.999L130.137 263.999C125.515 263.999 121.746 260.894 120.548 256.82L128.223 254.563ZM130.139 255.999V247.999H156.999V255.999V263.999H130.139V255.999ZM156.999 255.999L156.999 247.999C153.937 248 151.364 250.306 151.034 253.353L158.987 254.215L166.941 255.077C166.39 260.155 162.103 263.999 156.999 263.999L156.999 255.999ZM158.987 254.215L151.034 253.353L153.013 235.091L160.967 235.954L168.92 236.816L166.941 255.077L158.987 254.215ZM160.967 235.954L153.013 235.091C152.95 235.676 152.972 236.285 153.092 236.897L160.941 235.351L168.791 233.805C168.989 234.814 169.027 235.83 168.92 236.816L160.967 235.954ZM160.941 235.351L153.093 236.899L148.284 212.526L156.133 210.978L163.982 209.429L168.79 233.803L160.941 235.351ZM156.133 210.978H148.133V207.222H156.133H164.133V210.978H156.133ZM156.133 207.222V199.222H161.252V207.222V215.222H156.133V207.222ZM161.252 207.222V199.222C157.938 199.222 155.252 201.908 155.252 205.222L163.252 205.222L171.252 205.222C171.252 210.745 166.775 215.222 161.252 215.222V207.222ZM163.252 205.222H155.252V185.2H163.252H171.252V205.222H163.252ZM163.252 185.2V177.2H218V185.2V193.2H163.252V185.2ZM218 185.2H210V185.163H218H226V185.2H218ZM218 185.163V177.163H227.186V185.163V193.163H218V185.163ZM227.186 185.163V177.163C232.037 177.163 235.97 173.23 235.97 168.378L243.97 168.378L251.97 168.378C251.97 182.066 240.874 193.163 227.186 193.163V185.163ZM243.97 168.378L235.97 168.379C235.97 163.931 232.657 160.244 228.367 159.673L229.424 151.743L230.481 143.813C242.614 145.43 251.969 155.805 251.97 168.378L243.97 168.378ZM229.424 151.743H221.424V151.594H229.424H237.424V151.743H229.424ZM229.424 151.594L221.424 151.595C221.424 152.923 222.5 153.999 223.829 153.999L223.829 145.999L223.83 137.999C231.337 138 237.423 144.086 237.424 151.594L229.424 151.594ZM223.829 145.999V153.999C225.118 153.999 226.166 152.99 226.231 151.712L218.241 151.306L210.251 150.9C210.616 143.711 216.554 137.999 223.829 137.999V145.999ZM218.241 151.306L226.239 151.496L226.232 151.784L218.234 151.594L210.237 151.404L210.243 151.116L218.241 151.306ZM218.234 151.594V159.594H182V151.594V143.594H218.234V151.594ZM182 151.594V159.594C181.987 159.594 181.951 159.594 181.857 159.597L181.639 151.6L181.42 143.603C181.566 143.599 181.771 143.594 182 143.594V151.594ZM181.639 151.6V159.6H175.65V151.6V143.6H181.639V151.6ZM175.65 151.6L172.272 144.348C179.805 140.839 184.998 133.215 184.998 124.393H192.998H200.998C200.998 139.666 191.987 152.815 179.029 158.852L175.65 151.6ZM192.998 124.393H184.998V122.408H192.998H200.998V124.393H192.998ZM192.998 122.408L184.998 122.403C184.998 121.689 184.999 120.983 184.998 120.275L192.998 120.265L200.998 120.255C200.999 120.98 200.998 121.703 200.998 122.413L192.998 122.408ZM192.998 120.265H184.998V113.127H192.998H200.998V120.265H192.998ZM192.998 113.127L184.998 113.128C184.998 113.586 185.049 113.97 185.104 114.256L192.96 112.747L200.816 111.237C200.918 111.769 200.998 112.407 200.998 113.127L192.998 113.127ZM192.96 112.747L184.96 112.82C184.909 107.268 184.805 101.862 184.619 97.0765L192.613 96.767L200.607 96.4575C200.801 101.456 200.908 107.031 200.96 112.673L192.96 112.747ZM192.613 96.767L184.619 97.0765C183.744 74.4701 184.394 69.884 178.234 49.264L185.899 46.974L193.565 44.6841C200.375 67.4805 199.736 73.9538 200.607 96.4575L192.613 96.767ZM185.899 46.974L178.234 49.264C175.862 41.3252 169.429 29.6897 166.657 24.8965L173.583 20.892L180.509 16.8875C183.157 21.4684 190.573 34.6691 193.565 44.684L185.899 46.974ZM173.583 20.892L166.657 24.8965C169.838 30.3964 177.648 29.071 179.419 23.5372L171.8 21.099L164.18 18.6608C166.475 11.4904 176.468 9.90003 180.509 16.8875L173.583 20.892ZM171.8 21.099L179.419 23.5372L171.584 48.0216L163.965 45.5834L156.345 43.1452L164.18 18.6608L171.8 21.099ZM163.965 45.5834L171.584 48.0225C170.259 52.1599 166.413 54.9735 162.062 54.974L162.061 46.974L162.059 38.974C159.447 38.9744 157.14 40.6632 156.346 43.1444L163.965 45.5834ZM162.061 46.974V54.974H79.9395V46.974V38.974H162.061V46.974ZM79.9395 46.974L79.9388 54.974C75.5867 54.9737 71.7405 52.1595 70.4161 48.0226L78.0352 45.5834L85.6542 43.1442C84.8601 40.6637 82.5531 38.9742 79.9401 38.974L79.9395 46.974ZM78.0352 45.5834L70.4158 48.0216L62.5808 23.5372L70.2002 21.099L77.8196 18.6608L85.6546 43.1452L78.0352 45.5834Z" fill="white" mask="url(#path-19-outside-1_42_921)"/>
</svg>
