<svg width="280" height="270" viewBox="0 0 280 270" fill="none" xmlns="http://www.w3.org/2000/svg">
    <path d="M146.807 249.323L138.162 151.823C138.07 150.791 137.206 150 136.169 150H60.0449C59.1349 150 58.3396 150.614 58.1097 151.495L32.6541 248.995C32.3232 250.262 33.2795 251.5 34.5892 251.5H144.815C145.989 251.5 146.911 250.493 146.807 249.323Z" fill="#1E1E1E"/>
    <path d="M147.631 150.393C154.811 150.393 160.631 156.214 160.631 163.393V199.628L160.919 199.635C163.875 199.784 166.226 202.229 166.226 205.223C166.226 208.312 163.721 210.817 160.631 210.817H160.483C159.388 219.029 152.358 225.363 143.847 225.363C134.577 225.363 127.063 217.849 127.063 208.579V152.393C127.063 151.289 127.958 150.393 129.063 150.393H147.631Z" fill="#1E1E1E"/>
    <path d="M127.063 152.393C127.063 151.289 127.958 150.393 129.063 150.393H147.631C154.811 150.393 160.631 156.214 160.631 163.393V199.627H127.063V152.393Z" fill="#4F4F4F"/>
    <path d="M137.133 202.746C137.133 201.642 136.238 200.746 135.133 200.746H60.8065C59.702 200.746 58.8065 201.642 58.8065 202.746V253.575C58.8065 254.68 59.702 255.575 60.8065 255.575H91.4941C92.5987 255.575 93.4941 254.68 93.4941 253.575V221.209C93.4941 220.105 94.3895 219.209 95.4941 219.209H103.803C104.907 219.209 105.803 220.105 105.803 221.209V253.575C105.803 254.68 106.698 255.575 107.803 255.575H135.133C136.238 255.575 137.133 254.68 137.133 253.575V202.746Z" fill="#636363"/>
    <path d="M137.133 204.984C137.133 203.88 136.238 202.984 135.133 202.984H60.8065C59.702 202.984 58.8065 203.88 58.8065 204.984V211.481C58.8065 212.404 59.4387 213.208 60.3362 213.425L93.2623 221.391C93.4163 221.428 93.5742 221.447 93.7326 221.447H105.539C105.714 221.447 105.888 221.424 106.057 221.379L135.651 213.452C136.525 213.218 137.133 212.425 137.133 211.52V204.984Z" fill="#1E1E1E"/>
    <rect x="58.8066" y="205.222" width="78.3268" height="4.47581" fill="#FBCF4E"/>
    <path d="M138.252 157.393C138.252 153.527 135.118 150.393 131.252 150.393H50.9738V203.222C50.9738 204.327 51.8692 205.222 52.9738 205.222H136.252C137.357 205.222 138.252 204.327 138.252 203.222V157.393Z" fill="#1E1E1E"/>
    <path d="M138.252 167.191C138.252 163.01 134.611 159.761 130.457 160.236L99.8096 163.738C99.3304 163.793 98.8467 163.798 98.3664 163.754L50.9738 159.345V203.222C50.9738 204.327 51.8692 205.222 52.9738 205.222H136.252C137.357 205.222 138.252 204.327 138.252 203.222V167.191Z" fill="#636363"/>
    <ellipse cx="100.208" cy="182.843" rx="20.1412" ry="12.3085" fill="#FBCF4E"/>
    <path d="M109.315 174.485C107.927 173.096 118.111 177.725 118.111 182.817C118.111 186.625 114.875 189.112 112.94 190.05C112.789 190.123 112.626 189.98 112.663 189.816C113.029 188.196 112.962 185.594 110.242 185.594C107.279 185.594 106.847 187.138 107.001 187.909C106.847 187.292 106.168 186.057 104.687 186.057C102.835 186.057 100.521 188.835 100.521 191.15C100.521 188.835 98.2061 186.057 96.3545 186.057C94.8731 186.057 94.1934 187.292 94.0391 187.909C94.1934 187.138 93.7615 185.594 90.7988 185.594C88.079 185.594 88.0124 188.195 88.3779 189.816C88.4151 189.98 88.2515 190.124 88.0996 190.05C86.165 189.112 82.9297 186.625 82.9297 182.817C82.9299 177.725 93.1134 173.096 91.7246 174.485C90.3364 175.874 91.7249 180.502 94.9648 180.502C97.2883 180.502 98.2982 177.032 98.5938 174.756C98.6088 174.641 98.8339 174.622 98.875 174.731C99.1593 175.485 99.6954 176.336 100.521 176.336C101.345 176.336 101.881 175.485 102.165 174.731C102.206 174.622 102.432 174.641 102.447 174.756C102.743 177.031 103.752 180.502 106.075 180.502C109.316 180.502 110.704 175.873 109.315 174.485Z" fill="#1E1E1E"/>
    <path d="M44.9519 150.393C37.7722 150.393 31.9519 156.214 31.9519 163.393V208.579C31.9519 217.849 39.4664 225.363 48.7361 225.363C57.2468 225.363 64.2776 219.029 65.3718 210.817H65.5203C68.61 210.817 71.1148 208.312 71.115 205.223C71.115 202.229 68.7644 199.785 65.8083 199.635L65.5203 199.628V163.393C65.5203 156.214 59.7 150.393 52.5203 150.393H44.9519Z" fill="#1E1E1E"/>
    <path d="M65.5203 163.393C65.5203 156.214 59.7 150.393 52.5203 150.393H44.9517C37.772 150.393 31.9517 156.214 31.9517 163.393V199.627H65.5203V163.393Z" fill="#727070"/>
    <path d="M159.899 42.9738C157.217 33.9967 150.293 21.5788 147.583 16.892C147.152 16.1482 146.062 16.2809 145.8 17.0992L137.965 41.5834C137.7 42.4118 136.93 42.9738 136.06 42.9738H53.9397C53.0699 42.9738 52.2999 42.4118 52.0348 41.5834L44.1999 17.0992C43.938 16.2809 42.8475 16.1482 42.4174 16.892C39.7074 21.5787 32.7826 33.9967 30.1007 42.9738C23.6152 64.6824 24.2603 70.212 23.387 92.7673C23.0688 100.985 22.9831 110.893 23.0026 120.158C23.0379 136.979 36.8067 150.393 53.6283 150.393H136.372C153.193 150.393 166.962 136.979 166.997 120.158C167.017 110.893 166.931 100.985 166.613 92.7673C165.74 70.212 166.385 64.6824 159.899 42.9738Z" fill="#1E1E1E"/>
    <path d="M166.998 109.128C166.998 107.888 165.881 106.946 164.659 107.157L115.281 115.652C115.073 115.688 114.86 115.69 114.651 115.659L56.2742 107.09C55.0669 106.913 53.9837 107.849 53.9837 109.069V120.393C53.9837 136.962 67.4152 150.393 83.9837 150.393H136.998C153.567 150.393 166.998 136.962 166.998 120.393V109.128Z" fill="#FABC95"/>
    <rect width="26" height="26" rx="13" transform="matrix(-1 0 0 1 156 83)" fill="white"/>
    <path d="M106.5 131.5C105.119 131.5 104.021 130.372 104.344 129.029C105.092 125.925 107.466 121 115 121C122.534 121 124.908 125.925 125.656 129.029C125.979 130.372 124.881 131.5 123.5 131.5C122.119 131.5 120.999 130.339 120.419 129.086C119.735 127.608 118.245 126 115 126C111.755 126 110.265 127.608 109.581 129.086C109.001 130.339 107.881 131.5 106.5 131.5Z" fill="#F0997D"/>
    <rect width="24" height="24" rx="12" transform="matrix(-1 0 0 1 99 84)" fill="white"/>
    <mask id="path-18-outside-1_42_1070" maskUnits="userSpaceOnUse" x="14.999" y="7.40308" width="160" height="257" fill="black">
        <rect fill="white" x="14.999" y="7.40308" width="160" height="257"/>
        <path d="M44.1997 17.0993C43.9378 16.281 42.8476 16.1484 42.4175 16.8923C39.7074 21.5791 32.782 33.9972 30.1001 42.9743C23.6148 64.6824 24.2605 70.2122 23.3872 92.7673C23.069 100.985 22.983 110.893 23.0024 120.158C23.0378 136.98 36.8067 150.393 53.6284 150.393H44.9516C44.3906 150.393 43.8377 150.429 43.2954 150.498C42.4279 150.608 41.5871 150.804 40.7817 151.077C40.4798 151.179 40.1826 151.291 39.8911 151.415C39.5024 151.579 39.1236 151.763 38.7554 151.963C38.2026 152.263 37.674 152.602 37.1733 152.976C36.8397 153.226 36.5182 153.49 36.2104 153.77C35.4409 154.47 34.7554 155.26 34.1714 156.125C34.0546 156.298 33.942 156.473 33.8335 156.652C33.7249 156.831 33.6211 157.013 33.521 157.197C33.4209 157.381 33.3252 157.568 33.2339 157.757C33.1425 157.947 33.0554 158.139 32.9731 158.334C32.9321 158.431 32.8918 158.528 32.853 158.627C32.7754 158.824 32.7024 159.023 32.6343 159.224C32.6002 159.325 32.5673 159.426 32.5356 159.528C32.2192 160.545 32.0244 161.617 31.9682 162.724C31.957 162.946 31.9516 163.169 31.9516 163.393V208.579C31.9516 214.453 34.9707 219.621 39.5405 222.62L32.6538 248.995C32.323 250.262 33.2796 251.5 34.5893 251.5H58.8061V253.575C58.8061 254.679 59.7017 255.575 60.8061 255.575H91.4936C92.5982 255.575 93.4936 254.679 93.4936 253.575V251.5H105.802V253.575C105.802 254.679 106.698 255.575 107.802 255.575H135.133C136.238 255.575 137.133 254.679 137.133 253.575V251.5H144.815C145.989 251.5 146.911 250.493 146.807 249.323L144.681 225.341C152.813 224.943 159.425 218.759 160.483 210.817H160.631C163.721 210.817 166.226 208.312 166.226 205.222C166.226 202.229 163.875 199.784 160.919 199.634L160.631 199.628V163.393C160.631 163.169 160.626 162.946 160.615 162.724C160.598 162.392 160.568 162.063 160.527 161.738C160.513 161.629 160.498 161.521 160.482 161.414C160.416 160.983 160.329 160.56 160.222 160.144C160.142 159.833 160.05 159.526 159.948 159.224C159.88 159.023 159.808 158.823 159.73 158.627C159.652 158.43 159.57 158.236 159.483 158.044C159.266 157.564 159.021 157.099 158.749 156.652C158.532 156.295 158.298 155.949 158.048 155.615C157.799 155.281 157.534 154.96 157.254 154.652C156.695 154.037 156.077 153.475 155.41 152.976C155.243 152.851 155.073 152.731 154.9 152.614C154.727 152.497 154.551 152.384 154.373 152.275C153.926 152.004 153.461 151.759 152.981 151.542C152.885 151.498 152.789 151.456 152.692 151.415C152.4 151.291 152.102 151.179 151.8 151.077C151.7 151.043 151.599 151.01 151.498 150.978C151.294 150.915 151.088 150.856 150.88 150.802C150.569 150.722 150.252 150.654 149.932 150.596C149.719 150.558 149.503 150.525 149.287 150.498C149.178 150.484 149.07 150.472 148.96 150.461C148.742 150.438 148.522 150.421 148.3 150.41C148.079 150.399 147.856 150.393 147.631 150.393H137.359C137.357 150.392 137.355 150.39 137.353 150.388C153.758 150.198 166.999 136.843 166.999 120.393V118.408C166.999 117.709 166.999 117.008 166.999 116.304V109.128C166.999 108.998 166.984 108.871 166.96 108.749C166.909 103.151 166.802 97.6596 166.613 92.7673C165.739 70.2121 166.384 64.6826 159.899 42.9743C157.217 33.9973 150.293 21.5792 147.582 16.8923C147.152 16.1485 146.062 16.281 145.8 17.0993L137.965 41.5837C137.7 42.4119 136.93 42.9743 136.06 42.9743H53.9399C53.0703 42.9743 52.2998 42.4119 52.0346 41.5837L44.1997 17.0993Z"/>
    </mask>
    <path d="M44.1997 17.0993L51.8191 14.6611L51.8191 14.6611L44.1997 17.0993ZM42.4175 16.8923L35.4919 12.8877L35.4919 12.8877L42.4175 16.8923ZM30.1001 42.9743L22.4348 40.6843V40.6843L30.1001 42.9743ZM23.3872 92.7673L31.3812 93.0768V93.0768L23.3872 92.7673ZM23.0024 120.158L15.0024 120.175V120.175L23.0024 120.158ZM43.2954 150.498L42.2861 142.562L42.2863 142.562L43.2954 150.498ZM40.7817 151.077L43.3465 158.655L43.3464 158.655L40.7817 151.077ZM39.8911 151.415L36.7744 144.047L36.7746 144.047L39.8911 151.415ZM38.7554 151.963L42.5741 158.992L42.574 158.992L38.7554 151.963ZM37.1733 152.976L32.3819 146.57L32.382 146.57L37.1733 152.976ZM36.2104 153.77L41.5912 159.69L41.5911 159.69L36.2104 153.77ZM34.1714 156.125L27.5423 151.646L27.5424 151.646L34.1714 156.125ZM33.8335 156.652L40.6703 160.806L40.6703 160.806L33.8335 156.652ZM33.521 157.197L26.4912 153.378L26.4913 153.378L33.521 157.197ZM33.2339 157.757L40.4409 161.23L40.4408 161.23L33.2339 157.757ZM32.9731 158.334L25.6049 155.218L25.605 155.218L32.9731 158.334ZM32.853 158.627L40.2953 161.561L40.2953 161.561L32.853 158.627ZM32.6343 159.224L25.0563 156.66L25.0563 156.66L32.6343 159.224ZM32.5356 159.528L40.1748 161.904L40.1748 161.904L32.5356 159.528ZM31.9682 162.724L39.958 163.129V163.129L31.9682 162.724ZM31.9516 163.393H23.9516V163.393L31.9516 163.393ZM39.5405 222.62L43.9297 215.931L48.7322 219.083L47.281 224.641L39.5405 222.62ZM32.6538 248.995L24.9132 246.974L24.9133 246.974L32.6538 248.995ZM58.8061 251.5V243.5H66.8061V251.5H58.8061ZM60.8061 255.575V263.575H60.8048L60.8061 255.575ZM93.4936 251.5H85.4936V243.5H93.4936V251.5ZM105.802 251.5V243.5H113.802V251.5H105.802ZM107.802 255.575V263.575H107.801L107.802 255.575ZM135.133 255.575L135.134 263.575H135.133V255.575ZM137.133 251.5H129.133V243.5H137.133V251.5ZM144.815 251.5L144.816 259.5H144.815V251.5ZM146.807 249.323L138.838 250.029L138.838 250.029L146.807 249.323ZM144.681 225.341L136.712 226.048L135.977 217.758L144.29 217.351L144.681 225.341ZM160.483 210.817L152.553 209.76L153.478 202.817H160.483V210.817ZM160.631 210.817L160.632 218.817H160.631V210.817ZM166.226 205.222L174.226 205.222V205.223L166.226 205.222ZM160.919 199.634L161.109 191.637L161.217 191.639L161.325 191.645L160.919 199.634ZM160.631 199.628L160.442 207.625L152.631 207.44V199.628H160.631ZM160.631 163.393L168.631 163.393V163.393H160.631ZM160.615 162.724L168.604 162.319L168.604 162.319L160.615 162.724ZM160.527 161.738L152.591 162.747L152.591 162.747L160.527 161.738ZM160.482 161.414L168.39 160.206L168.39 160.206L160.482 161.414ZM160.222 160.144L152.475 162.138L152.475 162.138L160.222 160.144ZM159.948 159.224L167.526 156.66L167.526 156.66L159.948 159.224ZM159.73 158.627L152.288 161.561L152.288 161.561L159.73 158.627ZM159.483 158.044L166.773 154.748L166.773 154.748L159.483 158.044ZM158.749 156.652L151.913 160.806L151.913 160.806L158.749 156.652ZM158.048 155.615L164.455 150.823L164.455 150.824L158.048 155.615ZM157.254 154.652L151.334 160.033L151.334 160.033L157.254 154.652ZM155.41 152.976L160.201 146.57L160.201 146.57L155.41 152.976ZM154.9 152.614L150.421 159.243L150.421 159.243L154.9 152.614ZM154.373 152.275L158.527 145.438L158.527 145.438L154.373 152.275ZM152.981 151.542L149.685 158.831L149.685 158.831L152.981 151.542ZM152.692 151.415L155.808 144.047L155.809 144.047L152.692 151.415ZM151.8 151.077L149.236 158.655L149.236 158.655L151.8 151.077ZM151.498 150.978L153.874 143.339L153.874 143.339L151.498 150.978ZM150.88 150.802L148.887 158.55L148.887 158.55L150.88 150.802ZM149.932 150.596L151.339 142.721L151.339 142.721L149.932 150.596ZM149.287 150.498L148.278 158.434L148.278 158.434L149.287 150.498ZM148.96 150.461L149.769 142.502L149.769 142.502L148.96 150.461ZM148.3 150.41L147.895 158.4L147.895 158.4L148.3 150.41ZM147.631 150.393V142.393H147.632L147.631 150.393ZM137.359 150.393V158.393H134.718L132.596 156.821L137.359 150.393ZM137.353 150.388L132.615 156.834L113.342 142.666L137.26 142.389L137.353 150.388ZM166.999 118.408H158.999L158.999 118.403L166.999 118.408ZM166.999 116.304L158.999 116.314V116.304H166.999ZM166.999 109.128L174.999 109.127V109.128H166.999ZM166.96 108.749L159.103 110.25L158.967 109.543L158.961 108.822L166.96 108.749ZM166.613 92.7673L158.619 93.0768V93.0768L166.613 92.7673ZM159.899 42.9743L167.564 40.6843L167.564 40.6843L159.899 42.9743ZM147.582 16.8923L154.508 12.8877L154.508 12.8877L147.582 16.8923ZM145.8 17.0993L138.181 14.6611L138.181 14.6608L145.8 17.0993ZM137.965 41.5837L145.585 44.0219L145.584 44.0225L137.965 41.5837ZM52.0346 41.5837L44.4155 44.0227L44.4153 44.0219L52.0346 41.5837ZM44.1997 17.0993L36.5803 19.5375C38.3505 25.0693 46.1619 26.3984 49.343 20.8968L42.4175 16.8923L35.4919 12.8877C39.5332 5.89849 49.5252 7.49265 51.8191 14.6611L44.1997 17.0993ZM42.4175 16.8923L49.343 20.8968C46.5713 25.6904 40.137 37.3255 37.7653 45.2643L30.1001 42.9743L22.4348 40.6843C25.4269 30.669 32.8435 17.4679 35.4919 12.8877L42.4175 16.8923ZM30.1001 42.9743L37.7653 45.2643C31.6052 65.8839 32.2565 70.4698 31.3812 93.0768L23.3872 92.7673L15.3932 92.4577C16.2645 69.9546 15.6244 63.4808 22.4348 40.6843L30.1001 42.9743ZM23.3872 92.7673L31.3812 93.0768C31.0692 101.134 30.983 110.916 31.0024 120.141L23.0024 120.158L15.0024 120.175C14.9829 110.87 15.0688 100.837 15.3932 92.4577L23.3872 92.7673ZM23.0024 120.158L31.0024 120.141C31.0282 132.44 41.1062 142.393 53.6284 142.393V150.393V158.393C32.5072 158.393 15.0473 141.519 15.0024 120.175L23.0024 120.158ZM53.6284 150.393V158.393H44.9516V150.393V142.393H53.6284V150.393ZM44.9516 150.393V158.393C44.7286 158.393 44.5128 158.407 44.3045 158.434L43.2954 150.498L42.2863 142.562C43.1626 142.45 44.0525 142.393 44.9516 142.393V150.393ZM43.2954 150.498L44.3046 158.434C43.9738 158.476 43.6538 158.551 43.3465 158.655L40.7817 151.077L38.2169 143.499C39.5204 143.058 40.882 142.74 42.2861 142.562L43.2954 150.498ZM40.7817 151.077L43.3464 158.655C43.2217 158.697 43.1091 158.74 43.0076 158.783L39.8911 151.415L36.7746 144.047C37.2561 143.843 37.7378 143.661 38.2171 143.499L40.7817 151.077ZM39.8911 151.415L43.0078 158.783C42.8672 158.842 42.7225 158.912 42.5741 158.992L38.7554 151.963L34.9366 144.933C35.5248 144.613 36.1376 144.316 36.7744 144.047L39.8911 151.415ZM38.7554 151.963L42.574 158.992C42.3605 159.108 42.1569 159.239 41.9647 159.383L37.1733 152.976L32.382 146.57C33.191 145.965 34.0447 145.417 34.9367 144.933L38.7554 151.963ZM37.1733 152.976L41.9648 159.383C41.8301 159.483 41.7057 159.586 41.5912 159.69L36.2104 153.77L30.8296 147.85C31.3306 147.395 31.8493 146.968 32.3819 146.57L37.1733 152.976ZM36.2104 153.77L41.5911 159.69C41.2916 159.963 41.0258 160.269 40.8004 160.603L34.1714 156.125L27.5424 151.646C28.4851 150.251 29.5901 148.977 30.8297 147.85L36.2104 153.77ZM34.1714 156.125L40.8004 160.603C40.7575 160.667 40.7141 160.734 40.6703 160.806L33.8335 156.652L26.9966 152.498C27.1699 152.213 27.3517 151.928 27.5423 151.646L34.1714 156.125ZM33.8335 156.652L40.6703 160.806C40.6377 160.86 40.5981 160.928 40.5507 161.016L33.521 157.197L26.4913 153.378C26.644 153.097 26.812 152.802 26.9967 152.498L33.8335 156.652ZM33.521 157.197L40.5507 161.016C40.5122 161.087 40.4755 161.158 40.4409 161.23L33.2339 157.757L26.0269 154.285C26.1748 153.978 26.3297 153.676 26.4912 153.378L33.521 157.197ZM33.2339 157.757L40.4408 161.23C40.4032 161.308 40.3702 161.381 40.3413 161.45L32.9731 158.334L25.605 155.218C25.7406 154.897 25.8819 154.586 26.0269 154.285L33.2339 157.757ZM32.9731 158.334L40.3413 161.45C40.3172 161.507 40.3033 161.541 40.2953 161.561L32.853 158.627L25.4107 155.692C25.4802 155.516 25.5469 155.355 25.6049 155.218L32.9731 158.334ZM32.853 158.627L40.2953 161.561C40.2662 161.635 40.2384 161.711 40.2122 161.788L32.6343 159.224L25.0563 156.66C25.1664 156.335 25.2846 156.012 25.4107 155.692L32.853 158.627ZM32.6343 159.224L40.2122 161.788C40.1986 161.829 40.1861 161.867 40.1748 161.904L32.5356 159.528L24.8965 157.152C24.9484 156.985 25.0018 156.821 25.0563 156.66L32.6343 159.224ZM32.5356 159.528L40.1748 161.904C40.0551 162.288 39.9799 162.698 39.958 163.129L31.9682 162.724L23.9785 162.319C24.0689 160.536 24.3833 158.803 24.8965 157.152L32.5356 159.528ZM31.9682 162.724L39.958 163.129C39.954 163.209 39.9516 163.296 39.9516 163.393L31.9516 163.393L23.9516 163.393C23.9516 163.041 23.9601 162.683 23.9785 162.319L31.9682 162.724ZM31.9516 163.393H39.9516V208.579H31.9516H23.9516V163.393H31.9516ZM31.9516 208.579H39.9516C39.9516 211.643 41.5159 214.347 43.9297 215.931L39.5405 222.62L35.1513 229.308C28.4256 224.895 23.9516 217.263 23.9516 208.579H31.9516ZM39.5405 222.62L47.281 224.641L40.3943 251.016L32.6538 248.995L24.9133 246.974L31.8 220.599L39.5405 222.62ZM32.6538 248.995L40.3944 251.015C41.3877 247.21 38.515 243.5 34.5893 243.5V251.5V259.5C28.0443 259.5 23.2583 253.314 24.9132 246.974L32.6538 248.995ZM34.5893 251.5V243.5H58.8061V251.5V259.5H34.5893V251.5ZM58.8061 251.5H66.8061V253.575H58.8061H50.8061V251.5H58.8061ZM58.8061 253.575H66.8061C66.8061 250.26 64.119 247.575 60.8074 247.575L60.8061 255.575L60.8048 263.575C55.2845 263.574 50.8061 259.099 50.8061 253.575H58.8061ZM60.8061 255.575V247.575H91.4936V255.575V263.575H60.8061V255.575ZM91.4936 255.575V247.575C88.1799 247.575 85.4936 250.261 85.4936 253.575H93.4936H101.494C101.494 259.098 97.0165 263.575 91.4936 263.575V255.575ZM93.4936 253.575H85.4936V251.5H93.4936H101.494V253.575H93.4936ZM93.4936 251.5V243.5H105.802V251.5V259.5H93.4936V251.5ZM105.802 251.5H113.802V253.575H105.802H97.8022V251.5H105.802ZM105.802 253.575H113.802C113.802 250.26 111.115 247.575 107.803 247.575L107.802 255.575L107.801 263.575C102.28 263.574 97.8022 259.099 97.8022 253.575H105.802ZM107.802 255.575V247.575H135.133V255.575V263.575H107.802V255.575ZM135.133 255.575L135.133 247.575C131.82 247.575 129.133 250.261 129.133 253.575H137.133H145.133C145.133 259.098 140.656 263.575 135.134 263.575L135.133 255.575ZM137.133 253.575H129.133V251.5H137.133H145.133V253.575H137.133ZM137.133 251.5V243.5H144.815V251.5V259.5H137.133V251.5ZM144.815 251.5L144.814 243.5C141.292 243.5 138.527 246.52 138.838 250.029L146.807 249.323L154.776 248.616C155.294 254.465 150.686 259.499 144.816 259.5L144.815 251.5ZM146.807 249.323L138.838 250.029L136.712 226.048L144.681 225.341L152.65 224.635L154.776 248.616L146.807 249.323ZM144.681 225.341L144.29 217.351C148.533 217.143 152.001 213.906 152.553 209.76L160.483 210.817L168.413 211.874C166.849 223.612 157.093 232.743 145.072 233.332L144.681 225.341ZM160.483 210.817V202.817H160.631V210.817V218.817H160.483V210.817ZM160.631 210.817L160.631 202.817C159.302 202.817 158.226 203.894 158.226 205.222L166.226 205.222L174.226 205.223C174.226 212.73 168.139 218.817 160.632 218.817L160.631 210.817ZM166.226 205.222L158.226 205.223C158.226 206.511 159.236 207.559 160.514 207.624L160.919 199.634L161.325 191.645C168.515 192.01 174.226 197.947 174.226 205.222L166.226 205.222ZM160.919 199.634L160.73 207.632L160.442 207.625L160.631 199.628L160.821 191.63L161.109 191.637L160.919 199.634ZM160.631 199.628H152.631V163.393H160.631H168.631V199.628H160.631ZM160.631 163.393L152.631 163.393C152.631 163.296 152.629 163.209 152.625 163.129L160.615 162.724L168.604 162.319C168.623 162.683 168.631 163.041 168.631 163.393L160.631 163.393ZM160.615 162.724L152.625 163.129C152.619 163.006 152.607 162.878 152.591 162.747L160.527 161.738L168.463 160.729C168.529 161.248 168.577 161.778 168.604 162.319L160.615 162.724ZM160.527 161.738L152.591 162.747C152.582 162.682 152.577 162.644 152.574 162.622L160.482 161.414L168.39 160.206C168.42 160.399 168.444 160.577 168.463 160.729L160.527 161.738ZM160.482 161.414L152.574 162.622C152.549 162.459 152.516 162.298 152.475 162.138L160.222 160.144L167.97 158.151C168.142 158.822 168.283 159.507 168.39 160.206L160.482 161.414ZM160.222 160.144L152.475 162.138C152.447 162.032 152.413 161.916 152.37 161.788L159.948 159.224L167.526 156.66C167.687 157.136 167.837 157.633 167.97 158.151L160.222 160.144ZM159.948 159.224L152.37 161.789C152.336 161.688 152.309 161.614 152.288 161.561L159.73 158.627L167.172 155.692C167.306 156.032 167.423 156.358 167.526 156.66L159.948 159.224ZM159.73 158.627L152.288 161.561C152.262 161.497 152.231 161.424 152.193 161.339L159.483 158.044L166.773 154.748C166.908 155.048 167.042 155.363 167.172 155.692L159.73 158.627ZM159.483 158.044L152.193 161.339C152.108 161.151 152.014 160.974 151.913 160.806L158.749 156.652L165.586 152.498C166.028 153.224 166.423 153.976 166.773 154.748L159.483 158.044ZM158.749 156.652L151.913 160.806C151.832 160.674 151.742 160.54 151.642 160.406L158.048 155.615L164.455 150.824C164.854 151.357 165.232 151.915 165.586 152.498L158.749 156.652ZM158.048 155.615L151.642 160.406C151.541 160.272 151.438 160.147 151.334 160.033L157.254 154.652L163.174 149.271C163.63 149.772 164.056 150.291 164.455 150.823L158.048 155.615ZM157.254 154.652L151.334 160.033C151.119 159.796 150.879 159.578 150.618 159.383L155.41 152.976L160.201 146.57C161.274 147.373 162.271 148.277 163.174 149.271L157.254 154.652ZM155.41 152.976L150.618 159.383C150.557 159.337 150.492 159.29 150.421 159.243L154.9 152.614L159.379 145.985C159.654 146.171 159.928 146.366 160.201 146.57L155.41 152.976ZM154.9 152.614L150.421 159.243C150.34 159.188 150.273 159.145 150.218 159.112L154.373 152.275L158.527 145.438C158.829 145.622 159.114 145.806 159.379 145.985L154.9 152.614ZM154.373 152.275L150.218 159.112C150.051 159.01 149.873 158.916 149.685 158.831L152.981 151.542L156.277 144.252C157.049 144.601 157.8 144.997 158.527 145.438L154.373 152.275ZM152.981 151.542L149.685 158.831C149.626 158.805 149.593 158.79 149.575 158.783L152.692 151.415L155.809 144.047C155.985 144.121 156.144 144.192 156.277 144.252L152.981 151.542ZM152.692 151.415L149.575 158.783C149.478 158.742 149.366 158.699 149.236 158.655L151.8 151.077L154.364 143.499C154.839 143.659 155.322 143.841 155.808 144.047L152.692 151.415ZM151.8 151.077L149.236 158.655C149.182 158.636 149.145 158.625 149.121 158.617L151.498 150.978L153.874 143.339C154.053 143.395 154.218 143.449 154.365 143.499L151.8 151.077ZM151.498 150.978L149.121 158.617C149.032 158.589 148.954 158.567 148.887 158.55L150.88 150.802L152.874 143.055C153.222 143.144 153.556 143.24 153.874 143.339L151.498 150.978ZM150.88 150.802L148.887 158.55C148.773 158.521 148.653 158.494 148.525 158.472L149.932 150.596L151.339 142.721C151.852 142.813 152.364 142.924 152.874 143.055L150.88 150.802ZM149.932 150.596L148.526 158.472C148.443 158.457 148.36 158.444 148.278 158.434L149.287 150.498L150.295 142.562C150.647 142.606 150.995 142.66 151.339 142.721L149.932 150.596ZM149.287 150.498L148.278 158.434C148.244 158.43 148.203 158.425 148.152 158.42L148.96 150.461L149.769 142.502C149.936 142.519 150.112 142.538 150.295 142.562L149.287 150.498ZM148.96 150.461L148.152 158.42C148.053 158.41 147.968 158.403 147.895 158.4L148.3 150.41L148.705 142.42C149.075 142.439 149.431 142.467 149.769 142.502L148.96 150.461ZM148.3 150.41L147.895 158.4C147.816 158.396 147.728 158.393 147.631 158.393L147.631 150.393L147.632 142.393C147.983 142.393 148.341 142.402 148.705 142.42L148.3 150.41ZM147.631 150.393V158.393H137.359V150.393V142.393H147.631V150.393ZM137.359 150.393L132.596 156.821C132.502 156.752 132.421 156.688 132.353 156.634C132.286 156.579 132.229 156.532 132.185 156.495C132.163 156.477 132.144 156.46 132.128 156.446C132.111 156.432 132.098 156.42 132.087 156.411C132.077 156.402 132.068 156.394 132.063 156.39C132.061 156.388 132.059 156.386 132.058 156.385C132.057 156.384 132.056 156.383 132.056 156.384C132.056 156.384 132.057 156.385 132.059 156.386C132.06 156.387 132.063 156.389 132.066 156.392C132.071 156.397 132.08 156.405 132.091 156.414C132.103 156.424 132.117 156.437 132.134 156.451C132.151 156.466 132.171 156.483 132.194 156.502C132.239 156.54 132.297 156.589 132.367 156.644C132.436 156.7 132.519 156.764 132.615 156.834L137.353 150.388L142.091 143.943C142.187 144.013 142.271 144.078 142.341 144.134C142.411 144.189 142.47 144.238 142.515 144.277C142.56 144.315 142.597 144.346 142.619 144.366C142.63 144.376 142.64 144.384 142.646 144.389C142.651 144.394 142.656 144.398 142.656 144.398C142.657 144.399 142.653 144.396 142.649 144.392C142.644 144.388 142.636 144.381 142.626 144.372C142.606 144.355 142.572 144.325 142.53 144.289C142.487 144.252 142.43 144.205 142.363 144.152C142.296 144.098 142.215 144.035 142.122 143.966L137.359 150.393ZM137.353 150.388L137.26 142.389C149.29 142.249 158.999 132.455 158.999 120.393H166.999H174.999C174.999 141.232 158.226 158.147 137.446 158.388L137.353 150.388ZM166.999 120.393H158.999V118.408H166.999H174.999V120.393H166.999ZM166.999 118.408L158.999 118.403C158.999 117.703 158.999 117.009 158.999 116.314L166.999 116.304L174.999 116.294C174.999 117.006 174.999 117.716 174.999 118.413L166.999 118.408ZM166.999 116.304H158.999V109.128H166.999H174.999V116.304H166.999ZM166.999 109.128L158.999 109.128C158.999 109.6 159.052 109.984 159.103 110.25L166.96 108.749L174.818 107.247C174.916 107.758 174.998 108.396 174.999 109.127L166.999 109.128ZM166.96 108.749L158.961 108.822C158.91 103.271 158.804 97.8636 158.619 93.0768L166.613 92.7673L174.607 92.4577C174.8 97.4557 174.908 103.031 174.96 108.675L166.96 108.749ZM166.613 92.7673L158.619 93.0768C157.743 70.4703 158.394 65.8843 152.234 45.2643L159.899 42.9743L167.564 40.6843C174.375 63.4808 173.735 69.954 174.607 92.4577L166.613 92.7673ZM159.899 42.9743L152.234 45.2643C149.862 37.3253 143.428 25.6899 140.657 20.8968L147.582 16.8923L154.508 12.8877C157.157 17.4685 164.572 30.6693 167.564 40.6843L159.899 42.9743ZM147.582 16.8923L140.657 20.8968C143.838 26.399 151.649 25.0686 153.42 19.5378L145.8 17.0993L138.181 14.6608C140.475 7.49338 150.466 5.89794 154.508 12.8877L147.582 16.8923ZM145.8 17.0993L153.42 19.5375L145.585 44.0219L137.965 41.5837L130.346 39.1455L138.181 14.6611L145.8 17.0993ZM137.965 41.5837L145.584 44.0225C144.259 48.1639 140.408 50.9743 136.06 50.9743V42.9743V34.9743C133.451 34.9743 131.142 36.6599 130.346 39.1448L137.965 41.5837ZM136.06 42.9743V50.9743H53.9399V42.9743V34.9743H136.06V42.9743ZM53.9399 42.9743V50.9743C49.5914 50.9743 45.7412 48.1637 44.4155 44.0227L52.0346 41.5837L59.6538 39.1446C58.8584 36.6601 56.5491 34.9743 53.9399 34.9743V42.9743ZM52.0346 41.5837L44.4153 44.0219L36.5803 19.5375L44.1997 17.0993L51.8191 14.6611L59.654 39.1455L52.0346 41.5837Z" fill="white" mask="url(#path-18-outside-1_42_1070)"/>
</svg>
