<svg width="280" height="270" viewBox="0 0 280 270" fill="none" xmlns="http://www.w3.org/2000/svg">
    <path d="M146.807 249.323L138.162 151.823C138.07 150.791 137.206 150 136.169 150H60.0449C59.1349 150 58.3396 150.614 58.1097 151.495L32.6541 248.995C32.3232 250.262 33.2795 251.5 34.5892 251.5H144.815C145.989 251.5 146.911 250.493 146.807 249.323Z" fill="#1E1E1E"/>
    <path d="M147.631 150.393C154.811 150.393 160.631 156.214 160.631 163.393V199.628L160.919 199.635C163.875 199.784 166.226 202.229 166.226 205.223C166.226 208.312 163.721 210.817 160.631 210.817H160.483C159.388 219.029 152.358 225.363 143.847 225.363C134.577 225.363 127.063 217.849 127.063 208.579V152.393C127.063 151.289 127.958 150.393 129.063 150.393H147.631Z" fill="#1E1E1E"/>
    <path d="M127.063 152.393C127.063 151.289 127.958 150.393 129.063 150.393H147.631C154.811 150.393 160.631 156.214 160.631 163.393V199.627H127.063V152.393Z" fill="#4F4F4F"/>
    <path d="M137.133 202.746C137.133 201.642 136.238 200.746 135.133 200.746H60.8065C59.702 200.746 58.8065 201.642 58.8065 202.746V253.575C58.8065 254.68 59.702 255.575 60.8065 255.575H91.4941C92.5987 255.575 93.4941 254.68 93.4941 253.575V221.209C93.4941 220.105 94.3895 219.209 95.4941 219.209H103.803C104.907 219.209 105.803 220.105 105.803 221.209V253.575C105.803 254.68 106.698 255.575 107.803 255.575H135.133C136.238 255.575 137.133 254.68 137.133 253.575V202.746Z" fill="#636363"/>
    <path d="M137.133 204.984C137.133 203.88 136.238 202.984 135.133 202.984H60.8065C59.702 202.984 58.8065 203.88 58.8065 204.984V211.481C58.8065 212.404 59.4387 213.208 60.3362 213.425L93.2623 221.391C93.4163 221.428 93.5742 221.447 93.7326 221.447H105.539C105.714 221.447 105.888 221.424 106.057 221.379L135.651 213.452C136.525 213.218 137.133 212.425 137.133 211.52V204.984Z" fill="#1E1E1E"/>
    <rect x="58.8065" y="205.222" width="78.3268" height="4.47581" fill="#FBCF4E"/>
    <path d="M138.252 157.393C138.252 153.527 135.118 150.393 131.252 150.393H50.9738V203.222C50.9738 204.327 51.8692 205.222 52.9738 205.222H136.252C137.357 205.222 138.252 204.327 138.252 203.222V157.393Z" fill="#1E1E1E"/>
    <path d="M138.252 167.191C138.252 163.01 134.611 159.761 130.457 160.236L99.8096 163.738C99.3304 163.793 98.8467 163.798 98.3664 163.754L50.9738 159.345V203.222C50.9738 204.327 51.8692 205.222 52.9738 205.222H136.252C137.357 205.222 138.252 204.327 138.252 203.222V167.191Z" fill="#636363"/>
    <ellipse cx="100.208" cy="182.843" rx="20.1412" ry="12.3085" fill="#FBCF4E"/>
    <path d="M109.315 174.484C107.927 173.096 118.111 177.725 118.111 182.816C118.111 186.624 114.875 189.111 112.94 190.05C112.789 190.123 112.626 189.98 112.663 189.815C113.028 188.195 112.961 185.595 110.242 185.595C107.279 185.595 106.847 187.138 107.001 187.909C106.847 187.292 106.168 186.058 104.686 186.058C102.835 186.058 100.52 188.835 100.52 191.149C100.52 188.835 98.206 186.058 96.3544 186.058C94.873 186.058 94.1932 187.292 94.0389 187.909C94.1932 187.138 93.7614 185.595 90.7987 185.595C88.079 185.595 88.0124 188.195 88.3778 189.815C88.4149 189.98 88.2513 190.123 88.0995 190.05C86.1648 189.111 82.9296 186.624 82.9296 182.816C82.9302 177.724 93.1132 173.096 91.7245 174.484C90.336 175.873 91.7247 180.502 94.9647 180.502C97.2881 180.502 98.2981 177.031 98.5936 174.756C98.6091 174.641 98.8335 174.622 98.8749 174.731C99.1592 175.485 99.6953 176.336 100.52 176.336C101.345 176.336 101.881 175.485 102.165 174.731C102.206 174.622 102.432 174.641 102.447 174.756C102.743 177.031 103.752 180.502 106.075 180.502C109.316 180.502 110.704 175.873 109.315 174.484Z" fill="#1E1E1E"/>
    <path d="M44.9519 150.393C37.7722 150.393 31.9519 156.214 31.9519 163.393V208.579C31.9519 217.849 39.4664 225.363 48.7361 225.363C57.2468 225.363 64.2776 219.029 65.3718 210.817H65.5203C68.61 210.817 71.1148 208.312 71.115 205.223C71.115 202.229 68.7644 199.785 65.8083 199.635L65.5203 199.628V163.393C65.5203 156.214 59.7 150.393 52.5203 150.393H44.9519Z" fill="#1E1E1E"/>
    <path d="M65.5203 163.393C65.5203 156.214 59.7 150.393 52.5203 150.393H44.9517C37.772 150.393 31.9517 156.214 31.9517 163.393V199.627H65.5203V163.393Z" fill="#727070"/>
    <path d="M159.899 42.9738C157.217 33.9967 150.293 21.5788 147.583 16.892C147.152 16.1482 146.062 16.2809 145.8 17.0992L137.965 41.5834C137.7 42.4118 136.93 42.9738 136.06 42.9738H53.9397C53.0699 42.9738 52.2999 42.4118 52.0348 41.5834L44.1999 17.0992C43.938 16.2809 42.8475 16.1482 42.4174 16.892C39.7074 21.5787 32.7826 33.9967 30.1007 42.9738C23.6152 64.6824 24.2603 70.212 23.387 92.7673C23.0688 100.985 22.9831 110.893 23.0026 120.158C23.0379 136.979 36.8067 150.393 53.6283 150.393H136.372C153.193 150.393 166.962 136.979 166.997 120.158C167.017 110.893 166.931 100.985 166.613 92.7673C165.74 70.212 166.385 64.6824 159.899 42.9738Z" fill="#1E1E1E"/>
    <path d="M166.998 109.128C166.998 107.888 165.881 106.946 164.659 107.157L115.281 115.652C115.073 115.688 114.86 115.69 114.651 115.659L56.2742 107.09C55.0669 106.913 53.9837 107.849 53.9837 109.069V120.393C53.9837 136.962 67.4152 150.393 83.9837 150.393H136.998C153.567 150.393 166.998 136.962 166.998 120.393V109.128Z" fill="#FABC95"/>
    <rect width="19.0222" height="19.0222" rx="9.51111" transform="matrix(-1 0 0 1 152.452 88.851)" fill="white"/>
    <rect width="19.0222" height="5.59477" rx="2.79738" transform="matrix(-1 0 0 1 124.478 121.301)" fill="#F0997D"/>
    <rect width="19.0222" height="19.0222" rx="9.51111" transform="matrix(-1 0 0 1 96.504 88.851)" fill="white"/>
    <mask id="path-18-outside-1_42_887" maskUnits="userSpaceOnUse" x="14.9985" y="7.40283" width="161" height="257" fill="black">
        <rect fill="white" x="14.9985" y="7.40283" width="161" height="257"/>
        <path d="M44.1997 17.0991C43.9378 16.2809 42.8476 16.1483 42.4175 16.8921C39.7075 21.5789 32.782 33.997 30.1001 42.9741C23.6148 64.6823 24.2605 70.2121 23.3872 92.7671C23.069 100.985 22.983 110.893 23.0024 120.158C23.0378 136.979 36.8067 150.393 53.6284 150.393H44.9517C44.3906 150.393 43.8377 150.429 43.2954 150.498C42.4279 150.608 41.5871 150.804 40.7817 151.077C40.4798 151.179 40.1826 151.291 39.8911 151.415C39.7941 151.456 39.6978 151.498 39.6021 151.542C39.41 151.628 39.2206 151.72 39.0337 151.816C38.9403 151.864 38.8474 151.912 38.7554 151.962C38.2026 152.263 37.674 152.602 37.1733 152.976C36.8398 153.226 36.5182 153.49 36.2104 153.77C35.4409 154.469 34.7554 155.26 34.1714 156.125C33.9962 156.384 33.8308 156.65 33.6743 156.922C33.5699 157.104 33.4693 157.288 33.3735 157.475C33.3257 157.568 33.2795 157.663 33.2339 157.757C33.1425 157.947 33.0554 158.139 32.9731 158.333C32.8087 158.722 32.6622 159.121 32.5356 159.528C32.2192 160.545 32.0244 161.616 31.9683 162.724C31.957 162.946 31.9517 163.169 31.9517 163.393V208.579C31.9517 214.453 34.9708 219.621 39.5405 222.62L32.6538 248.995C32.3229 250.262 33.2796 251.5 34.5894 251.5H58.8062V253.575C58.8062 254.679 59.7017 255.575 60.8062 255.575H91.4937C92.5982 255.575 93.4937 254.679 93.4937 253.575V251.5H105.802V253.575C105.802 254.679 106.698 255.575 107.802 255.575H135.133C136.238 255.575 137.133 254.679 137.133 253.575V251.5H144.815C145.989 251.499 146.911 250.493 146.807 249.324L144.681 225.341C152.813 224.943 159.425 218.758 160.483 210.817H160.631C163.721 210.817 166.226 208.312 166.226 205.222C166.226 202.229 163.875 199.784 160.919 199.634L160.631 199.627V163.393C160.631 163.169 160.626 162.946 160.615 162.724C160.598 162.392 160.568 162.063 160.527 161.738C160.485 161.412 160.432 161.091 160.367 160.773C160.323 160.561 160.276 160.352 160.222 160.144C160.142 159.833 160.05 159.526 159.948 159.224C159.88 159.023 159.808 158.823 159.73 158.626C159.652 158.43 159.57 158.235 159.483 158.043C159.266 157.564 159.021 157.099 158.75 156.653C158.532 156.295 158.298 155.949 158.048 155.616C157.799 155.282 157.534 154.961 157.254 154.653C156.695 154.037 156.077 153.475 155.41 152.976C155.243 152.851 155.073 152.731 154.9 152.614C154.727 152.497 154.551 152.384 154.373 152.276C153.926 152.004 153.461 151.759 152.981 151.542C152.885 151.498 152.789 151.456 152.692 151.415C152.4 151.291 152.103 151.179 151.8 151.077C151.7 151.043 151.598 151.01 151.497 150.978C151.293 150.915 151.088 150.856 150.88 150.802C150.569 150.722 150.252 150.653 149.932 150.596C149.719 150.558 149.504 150.525 149.287 150.498C149.178 150.484 149.07 150.472 148.96 150.46C148.742 150.438 148.522 150.422 148.3 150.411C148.079 150.399 147.856 150.393 147.631 150.393H137.358C137.356 150.392 137.354 150.39 137.352 150.388C153.757 150.198 166.998 136.843 166.998 120.393V120.158C167 118.767 167 117.362 166.998 115.951V109.127C166.998 108.997 166.984 108.871 166.96 108.749C166.909 103.151 166.802 97.6594 166.613 92.7671C165.74 70.212 166.384 64.6824 159.899 42.9741C157.217 33.9971 150.293 21.579 147.583 16.8921C147.152 16.1483 146.062 16.2809 145.8 17.0991L137.965 41.5835C137.7 42.4118 136.93 42.9741 136.06 42.9741H53.9399C53.0702 42.9741 52.2998 42.4118 52.0347 41.5835L44.1997 17.0991Z"/>
    </mask>
    <path d="M44.1997 17.0991L51.8189 14.6603L51.8191 14.6609L44.1997 17.0991ZM42.4175 16.8921L35.4919 12.8876V12.8876L42.4175 16.8921ZM30.1001 42.9741L22.4349 40.6841V40.6841L30.1001 42.9741ZM23.3872 92.7671L31.3812 93.0766V93.0766L23.3872 92.7671ZM23.0024 120.158L15.0025 120.175V120.175L23.0024 120.158ZM43.2954 150.498L42.2862 142.561L42.2863 142.561L43.2954 150.498ZM40.7817 151.077L43.3465 158.654L43.3464 158.654L40.7817 151.077ZM39.8911 151.415L36.7745 144.047L36.7746 144.047L39.8911 151.415ZM39.6021 151.542L42.8977 158.831L42.8976 158.831L39.6021 151.542ZM39.0337 151.816L35.3866 144.696L35.3867 144.696L39.0337 151.816ZM38.7554 151.962L42.5741 158.992L42.574 158.992L38.7554 151.962ZM37.1733 152.976L32.3819 146.57L32.382 146.57L37.1733 152.976ZM36.2104 153.77L41.5912 159.69L41.5911 159.69L36.2104 153.77ZM34.1714 156.125L27.5424 151.646L27.5424 151.646L34.1714 156.125ZM33.6743 156.922L40.6095 160.91L40.6094 160.91L33.6743 156.922ZM33.3735 157.475L26.2531 153.828L26.2532 153.828L33.3735 157.475ZM33.2339 157.757L40.4409 161.23L40.4408 161.23L33.2339 157.757ZM32.9731 158.333L25.605 155.217L25.605 155.217L32.9731 158.333ZM32.5356 159.528L40.1748 161.904L40.1748 161.904L32.5356 159.528ZM31.9683 162.724L39.958 163.129V163.129L31.9683 162.724ZM31.9517 163.393H23.9517V163.393L31.9517 163.393ZM39.5405 222.62L43.9298 215.931L48.7322 219.083L47.281 224.641L39.5405 222.62ZM32.6538 248.995L24.9133 246.974L24.9133 246.974L32.6538 248.995ZM58.8062 251.5V243.5H66.8062V251.5H58.8062ZM60.8062 255.575V263.575H60.8049L60.8062 255.575ZM93.4937 251.5H85.4937V243.5H93.4937V251.5ZM105.802 251.5V243.5H113.802V251.5H105.802ZM107.802 255.575V263.575H107.801L107.802 255.575ZM135.133 255.575L135.134 263.575H135.133V255.575ZM137.133 251.5H129.133V243.5H137.133V251.5ZM144.815 251.5L144.816 259.5H144.815V251.5ZM146.807 249.324L154.776 248.617L154.776 248.619L146.807 249.324ZM144.681 225.341L136.712 226.048L135.978 217.758L144.29 217.351L144.681 225.341ZM160.483 210.817L152.553 209.76L153.478 202.817H160.483V210.817ZM160.631 210.817L160.632 218.817H160.631V210.817ZM166.226 205.222L174.226 205.222V205.223L166.226 205.222ZM160.919 199.634L161.109 191.637L161.217 191.639L161.325 191.645L160.919 199.634ZM160.631 199.627L160.442 207.625L152.631 207.44V199.627H160.631ZM160.631 163.393L168.631 163.393V163.393H160.631ZM160.615 162.724L168.604 162.319H168.604L160.615 162.724ZM160.527 161.738L152.591 162.747L152.591 162.746L160.527 161.738ZM160.367 160.773L168.204 159.169L168.204 159.169L160.367 160.773ZM160.222 160.144L152.475 162.138L152.475 162.138L160.222 160.144ZM159.948 159.224L167.526 156.66L167.526 156.66L159.948 159.224ZM159.73 158.626L152.288 161.561L152.288 161.561L159.73 158.626ZM159.483 158.043L166.773 154.748L166.773 154.748L159.483 158.043ZM158.75 156.653L151.912 160.807L151.912 160.807L158.75 156.653ZM158.048 155.616L164.455 150.825L164.455 150.825L158.048 155.616ZM157.254 154.653L151.334 160.033L151.334 160.033L157.254 154.653ZM155.41 152.976L160.201 146.57L160.201 146.57L155.41 152.976ZM154.9 152.614L150.421 159.243L150.421 159.243L154.9 152.614ZM154.373 152.276L158.527 145.439L158.527 145.439L154.373 152.276ZM152.981 151.542L149.685 158.831L149.685 158.831L152.981 151.542ZM152.692 151.415L155.808 144.047L155.809 144.047L152.692 151.415ZM151.8 151.077L149.236 158.655L149.236 158.655L151.8 151.077ZM151.497 150.978L153.872 143.339L153.872 143.339L151.497 150.978ZM150.88 150.802L148.887 158.55L148.887 158.55L150.88 150.802ZM149.932 150.596L151.339 142.721L151.339 142.721L149.932 150.596ZM149.287 150.498L148.278 158.434L148.278 158.434L149.287 150.498ZM148.96 150.46L149.769 142.501L149.769 142.501L148.96 150.46ZM148.3 150.411L147.895 158.4L147.895 158.4L148.3 150.411ZM147.631 150.393V142.393H147.632L147.631 150.393ZM137.358 150.393V158.393H134.719L132.598 156.823L137.358 150.393ZM137.352 150.388L132.616 156.836L113.323 142.665L137.26 142.389L137.352 150.388ZM166.998 120.158H158.998V120.149L158.998 120.141L166.998 120.158ZM166.998 115.951L158.998 115.963V115.951H166.998ZM166.998 109.127L174.998 109.127V109.127H166.998ZM166.96 108.749L159.103 110.25L158.967 109.543L158.961 108.822L166.96 108.749ZM166.613 92.7671L158.619 93.0766V93.0766L166.613 92.7671ZM159.899 42.9741L167.564 40.6841L167.564 40.6841L159.899 42.9741ZM147.583 16.8921L154.508 12.8876L154.508 12.8876L147.583 16.8921ZM145.8 17.0991L138.181 14.6609L138.181 14.6598L145.8 17.0991ZM137.965 41.5835L145.585 44.0217L145.585 44.0219L137.965 41.5835ZM52.0347 41.5835L44.4154 44.0222L44.4153 44.0217L52.0347 41.5835ZM44.1997 17.0991L36.5805 19.538C38.3506 25.0678 46.1613 26.3994 49.3431 20.8966L42.4175 16.8921L35.4919 12.8876C39.5339 5.89723 49.525 7.49394 51.8189 14.6603L44.1997 17.0991ZM42.4175 16.8921L49.3431 20.8966C46.5714 25.6901 40.1371 37.3253 37.7653 45.2641L30.1001 42.9741L22.4349 40.6841C25.427 30.6688 32.8436 17.4677 35.4919 12.8876L42.4175 16.8921ZM30.1001 42.9741L37.7653 45.2641C31.6052 65.8838 32.2565 70.4697 31.3812 93.0766L23.3872 92.7671L15.3932 92.4576C16.2645 69.9545 15.6244 63.4807 22.4349 40.6841L30.1001 42.9741ZM23.3872 92.7671L31.3812 93.0766C31.0693 101.134 30.983 110.916 31.0024 120.141L23.0024 120.158L15.0025 120.175C14.9829 110.87 15.0688 100.836 15.3932 92.4576L23.3872 92.7671ZM23.0024 120.158L31.0024 120.141C31.0282 132.439 41.1062 142.393 53.6284 142.393V150.393V158.393C32.5073 158.393 15.0473 141.519 15.0025 120.175L23.0024 120.158ZM53.6284 150.393V158.393H44.9517V150.393V142.393H53.6284V150.393ZM44.9517 150.393V158.393C44.7287 158.393 44.5128 158.407 44.3045 158.434L43.2954 150.498L42.2863 142.561C43.1627 142.45 44.0525 142.393 44.9517 142.393V150.393ZM43.2954 150.498L44.3047 158.434C43.9738 158.476 43.6539 158.55 43.3465 158.654L40.7817 151.077L38.217 143.499C39.5204 143.058 40.882 142.74 42.2862 142.561L43.2954 150.498ZM40.7817 151.077L43.3464 158.654C43.2218 158.697 43.1092 158.74 43.0076 158.783L39.8911 151.415L36.7746 144.047C37.2561 143.843 37.7378 143.661 38.2171 143.499L40.7817 151.077ZM39.8911 151.415L43.0077 158.783C42.9901 158.79 42.9571 158.804 42.8977 158.831L39.6021 151.542L36.3064 144.252C36.4386 144.192 36.5981 144.121 36.7745 144.047L39.8911 151.415ZM39.6021 151.542L42.8976 158.831C42.8362 158.859 42.7644 158.893 42.6807 158.936L39.0337 151.816L35.3867 144.696C35.6769 144.547 35.9838 144.398 36.3065 144.252L39.6021 151.542ZM39.0337 151.816L42.6808 158.936C42.6296 158.962 42.5959 158.98 42.5741 158.992L38.7554 151.962L34.9366 144.933C35.0989 144.844 35.251 144.765 35.3866 144.696L39.0337 151.816ZM38.7554 151.962L42.574 158.992C42.3606 159.108 42.157 159.239 41.9646 159.383L37.1733 152.976L32.382 146.57C33.191 145.965 34.0447 145.417 34.9367 144.933L38.7554 151.962ZM37.1733 152.976L41.9647 159.383C41.8302 159.483 41.7057 159.586 41.5912 159.69L36.2104 153.77L30.8297 147.85C31.3306 147.395 31.8493 146.968 32.3819 146.57L37.1733 152.976ZM36.2104 153.77L41.5911 159.69C41.2917 159.962 41.0258 160.269 40.8003 160.603L34.1714 156.125L27.5424 151.646C28.4851 150.251 29.5901 148.977 30.8298 147.85L36.2104 153.77ZM34.1714 156.125L40.8004 160.603C40.7403 160.692 40.6765 160.794 40.6095 160.91L33.6743 156.922L26.7392 152.934C26.9851 152.507 27.2521 152.076 27.5424 151.646L34.1714 156.125ZM33.6743 156.922L40.6094 160.91C40.5633 160.991 40.5253 161.061 40.4939 161.122L33.3735 157.475L26.2532 153.828C26.4133 153.515 26.5765 153.217 26.7392 152.934L33.6743 156.922ZM33.3735 157.475L40.4939 161.122C40.4867 161.136 40.4713 161.167 40.4409 161.23L33.2339 157.757L26.0269 154.285C26.0877 154.159 26.1647 154.001 26.2531 153.828L33.3735 157.475ZM33.2339 157.757L40.4408 161.23C40.4032 161.308 40.3702 161.381 40.3413 161.45L32.9731 158.333L25.605 155.217C25.7406 154.897 25.8818 154.586 26.0269 154.285L33.2339 157.757ZM32.9731 158.333L40.3413 161.45C40.2768 161.602 40.2214 161.754 40.1748 161.904L32.5356 159.528L24.8965 157.152C25.1031 156.488 25.3406 155.842 25.605 155.217L32.9731 158.333ZM32.5356 159.528L40.1748 161.904C40.0552 162.288 39.9799 162.697 39.958 163.129L31.9683 162.724L23.9785 162.319C24.069 160.535 24.3833 158.803 24.8965 157.152L32.5356 159.528ZM31.9683 162.724L39.958 163.129C39.954 163.208 39.9517 163.296 39.9517 163.393L31.9517 163.393L23.9517 163.393C23.9517 163.041 23.9601 162.683 23.9785 162.319L31.9683 162.724ZM31.9517 163.393H39.9517V208.579H31.9517H23.9517V163.393H31.9517ZM31.9517 208.579H39.9517C39.9517 211.643 41.5159 214.347 43.9298 215.931L39.5405 222.62L35.1513 229.308C28.4256 224.894 23.9517 217.263 23.9517 208.579H31.9517ZM39.5405 222.62L47.281 224.641L40.3943 251.016L32.6538 248.995L24.9133 246.974L31.8 220.599L39.5405 222.62ZM32.6538 248.995L40.3943 251.016C41.3879 247.21 38.5146 243.5 34.5894 243.5V251.5V259.5C28.0446 259.5 23.258 253.314 24.9133 246.974L32.6538 248.995ZM34.5894 251.5V243.5H58.8062V251.5V259.5H34.5894V251.5ZM58.8062 251.5H66.8062V253.575H58.8062H50.8062V251.5H58.8062ZM58.8062 253.575H66.8062C66.8062 250.26 64.119 247.575 60.8074 247.575L60.8062 255.575L60.8049 263.575C55.2844 263.574 50.8062 259.099 50.8062 253.575H58.8062ZM60.8062 255.575V247.575H91.4937V255.575V263.575H60.8062V255.575ZM91.4937 255.575V247.575C88.1799 247.575 85.4937 250.261 85.4937 253.575H93.4937H101.494C101.494 259.098 97.0165 263.575 91.4937 263.575V255.575ZM93.4937 253.575H85.4937V251.5H93.4937H101.494V253.575H93.4937ZM93.4937 251.5V243.5H105.802V251.5V259.5H93.4937V251.5ZM105.802 251.5H113.802V253.575H105.802H97.8022V251.5H105.802ZM105.802 253.575H113.802C113.802 250.26 111.115 247.575 107.803 247.575L107.802 255.575L107.801 263.575C102.28 263.574 97.8022 259.099 97.8022 253.575H105.802ZM107.802 255.575V247.575H135.133V255.575V263.575H107.802V255.575ZM135.133 255.575L135.133 247.575C131.82 247.575 129.133 250.261 129.133 253.575H137.133H145.133C145.133 259.098 140.656 263.575 135.134 263.575L135.133 255.575ZM137.133 253.575H129.133V251.5H137.133H145.133V253.575H137.133ZM137.133 251.5V243.5H144.815V251.5V259.5H137.133V251.5ZM144.815 251.5L144.814 243.5C141.295 243.5 138.528 246.517 138.838 250.029L146.807 249.324L154.776 248.619C155.293 254.469 150.683 259.499 144.816 259.5L144.815 251.5ZM146.807 249.324L138.838 250.03L136.712 226.048L144.681 225.341L152.65 224.635L154.776 248.617L146.807 249.324ZM144.681 225.341L144.29 217.351C148.533 217.143 152.001 213.905 152.553 209.76L160.483 210.817L168.413 211.874C166.849 223.611 157.093 232.743 145.072 233.332L144.681 225.341ZM160.483 210.817V202.817H160.631V210.817V218.817H160.483V210.817ZM160.631 210.817L160.631 202.817C159.302 202.817 158.226 203.893 158.226 205.222L166.226 205.222L174.226 205.223C174.226 212.73 168.139 218.816 160.632 218.817L160.631 210.817ZM166.226 205.222L158.226 205.223C158.226 206.511 159.235 207.559 160.514 207.624L160.919 199.634L161.325 191.645C168.515 192.009 174.226 197.947 174.226 205.222L166.226 205.222ZM160.919 199.634L160.73 207.632L160.442 207.625L160.631 199.627L160.821 191.63L161.109 191.637L160.919 199.634ZM160.631 199.627H152.631V163.393H160.631H168.631V199.627H160.631ZM160.631 163.393L152.631 163.393C152.631 163.296 152.629 163.208 152.625 163.129L160.615 162.724L168.604 162.319C168.623 162.683 168.631 163.041 168.631 163.393L160.631 163.393ZM160.615 162.724L152.625 163.129C152.619 163.006 152.607 162.878 152.591 162.747L160.527 161.738L168.463 160.729C168.529 161.248 168.577 161.778 168.604 162.319L160.615 162.724ZM160.527 161.738L152.591 162.746C152.576 162.627 152.555 162.504 152.529 162.377L160.367 160.773L168.204 159.169C168.308 159.677 168.395 160.197 168.463 160.729L160.527 161.738ZM160.367 160.773L152.529 162.377C152.509 162.281 152.491 162.202 152.475 162.138L160.222 160.144L167.97 158.15C168.06 158.501 168.137 158.842 168.204 159.169L160.367 160.773ZM160.222 160.144L152.475 162.138C152.447 162.032 152.413 161.916 152.37 161.788L159.948 159.224L167.526 156.66C167.687 157.136 167.837 157.633 167.97 158.15L160.222 160.144ZM159.948 159.224L152.37 161.788C152.336 161.688 152.309 161.614 152.288 161.561L159.73 158.626L167.172 155.692C167.307 156.032 167.423 156.358 167.526 156.66L159.948 159.224ZM159.73 158.626L152.288 161.561C152.262 161.497 152.231 161.423 152.193 161.339L159.483 158.043L166.773 154.748C166.908 155.047 167.042 155.362 167.172 155.692L159.73 158.626ZM159.483 158.043L152.193 161.339C152.11 161.156 152.017 160.978 151.912 160.807L158.75 156.653L165.587 152.499C166.025 153.221 166.422 153.971 166.773 154.748L159.483 158.043ZM158.75 156.653L151.912 160.807C151.833 160.675 151.742 160.542 151.642 160.407L158.048 155.616L164.455 150.825C164.853 151.357 165.232 151.916 165.587 152.499L158.75 156.653ZM158.048 155.616L151.642 160.407C151.541 160.273 151.439 160.148 151.334 160.033L157.254 154.653L163.175 149.272C163.63 149.773 164.056 150.291 164.455 150.825L158.048 155.616ZM157.254 154.653L151.334 160.033C151.116 159.793 150.876 159.575 150.618 159.382L155.41 152.976L160.201 146.57C161.278 147.375 162.274 148.281 163.175 149.272L157.254 154.653ZM155.41 152.976L150.618 159.383C150.557 159.337 150.492 159.29 150.421 159.243L154.9 152.614L159.379 145.985C159.654 146.171 159.928 146.366 160.201 146.57L155.41 152.976ZM154.9 152.614L150.421 159.243C150.358 159.2 150.291 159.157 150.218 159.113L154.373 152.276L158.527 145.439C158.812 145.612 159.096 145.794 159.379 145.985L154.9 152.614ZM154.373 152.276L150.218 159.113C150.043 159.006 149.865 158.913 149.685 158.831L152.981 151.542L156.277 144.252C157.057 144.605 157.808 145.002 158.527 145.439L154.373 152.276ZM152.981 151.542L149.685 158.831C149.626 158.804 149.593 158.79 149.575 158.782L152.692 151.415L155.809 144.047C155.985 144.121 156.144 144.192 156.277 144.252L152.981 151.542ZM152.692 151.415L149.575 158.783C149.478 158.742 149.366 158.699 149.236 158.655L151.8 151.077L154.364 143.499C154.839 143.659 155.322 143.841 155.808 144.047L152.692 151.415ZM151.8 151.077L149.236 158.655C149.196 158.641 149.158 158.629 149.121 158.617L151.497 150.978L153.872 143.339C154.039 143.391 154.203 143.444 154.365 143.499L151.8 151.077ZM151.497 150.978L149.121 158.617C149.024 158.587 148.948 158.566 148.887 158.55L150.88 150.802L152.874 143.055C153.228 143.146 153.562 143.242 153.872 143.339L151.497 150.978ZM150.88 150.802L148.887 158.55C148.773 158.521 148.653 158.494 148.525 158.472L149.932 150.596L151.339 142.721C151.852 142.813 152.364 142.923 152.874 143.055L150.88 150.802ZM149.932 150.596L148.526 158.472C148.443 158.457 148.36 158.444 148.278 158.434L149.287 150.498L150.295 142.561C150.647 142.606 150.995 142.659 151.339 142.721L149.932 150.596ZM149.287 150.498L148.278 158.434C148.244 158.429 148.203 158.425 148.152 158.419L148.96 150.46L149.769 142.501C149.936 142.518 150.112 142.538 150.295 142.561L149.287 150.498ZM148.96 150.46L148.152 158.42C148.077 158.412 147.992 158.405 147.895 158.4L148.3 150.411L148.705 142.421C149.052 142.438 149.407 142.465 149.769 142.501L148.96 150.46ZM148.3 150.411L147.895 158.4C147.792 158.395 147.705 158.393 147.631 158.393L147.631 150.393L147.632 142.393C148.006 142.393 148.365 142.404 148.705 142.421L148.3 150.411ZM147.631 150.393V158.393H137.358V150.393V142.393H147.631V150.393ZM137.358 150.393L132.598 156.823C132.503 156.753 132.421 156.689 132.353 156.634C132.285 156.58 132.228 156.532 132.184 156.495C132.162 156.476 132.142 156.459 132.126 156.445C132.11 156.431 132.096 156.419 132.085 156.41C132.075 156.4 132.066 156.393 132.061 156.389C132.059 156.386 132.057 156.385 132.056 156.384C132.055 156.383 132.054 156.382 132.054 156.382C132.054 156.382 132.055 156.383 132.057 156.385C132.058 156.386 132.06 156.388 132.063 156.391C132.069 156.396 132.078 156.404 132.089 156.413C132.101 156.423 132.115 156.436 132.132 156.451C132.149 156.465 132.17 156.483 132.192 156.502C132.238 156.54 132.297 156.589 132.367 156.645C132.437 156.701 132.52 156.765 132.616 156.836L137.352 150.388L142.088 143.94C142.184 144.011 142.269 144.077 142.339 144.133C142.409 144.189 142.469 144.238 142.515 144.277C142.56 144.315 142.597 144.347 142.619 144.367C142.631 144.377 142.64 144.385 142.646 144.39C142.649 144.393 142.651 144.395 142.653 144.396C142.655 144.398 142.656 144.399 142.656 144.399C142.657 144.4 142.654 144.397 142.649 144.393C142.645 144.389 142.637 144.382 142.626 144.373C142.606 144.355 142.572 144.326 142.529 144.289C142.486 144.252 142.429 144.205 142.361 144.151C142.293 144.096 142.212 144.033 142.118 143.963L137.358 150.393ZM137.352 150.388L137.26 142.389C149.289 142.25 158.998 132.455 158.998 120.393H166.998H174.998C174.998 141.232 158.226 158.147 137.445 158.388L137.352 150.388ZM166.998 120.393H158.998V120.158H166.998H174.998V120.393H166.998ZM166.998 120.158L158.998 120.141C159 118.764 159 117.37 158.998 115.963L166.998 115.951L174.998 115.938C175 117.355 175 118.771 174.998 120.175L166.998 120.158ZM166.998 115.951H158.998V109.127H166.998H174.998V115.951H166.998ZM166.998 109.127L158.998 109.128C158.998 109.561 159.043 109.94 159.103 110.25L166.96 108.749L174.818 107.247C174.924 107.802 174.997 108.433 174.998 109.127L166.998 109.127ZM166.96 108.749L158.961 108.822C158.91 103.27 158.804 97.8634 158.619 93.0766L166.613 92.7671L174.607 92.4576C174.8 97.4555 174.908 103.031 174.96 108.675L166.96 108.749ZM166.613 92.7671L158.619 93.0766C157.744 70.4702 158.394 65.8842 152.234 45.2641L159.899 42.9741L167.564 40.6841C174.375 63.4807 173.736 69.9539 174.607 92.4576L166.613 92.7671ZM159.899 42.9741L152.234 45.2641C149.862 37.3251 143.428 25.6896 140.657 20.8966L147.583 16.8921L154.508 12.8876C157.157 17.4683 164.572 30.669 167.564 40.6841L159.899 42.9741ZM147.583 16.8921L140.657 20.8966C143.839 26.4001 151.649 25.0669 153.419 19.5384L145.8 17.0991L138.181 14.6598C140.475 7.49493 150.466 5.89649 154.508 12.8876L147.583 16.8921ZM145.8 17.0991L153.42 19.5373L145.585 44.0217L137.965 41.5835L130.346 39.1453L138.181 14.6609L145.8 17.0991ZM137.965 41.5835L145.585 44.0219C144.259 48.1641 140.408 50.9741 136.06 50.9741V42.9741V34.9741C133.451 34.9741 131.141 36.6595 130.346 39.1451L137.965 41.5835ZM136.06 42.9741V50.9741H53.9399V42.9741V34.9741H136.06V42.9741ZM53.9399 42.9741V50.9741C49.5917 50.9741 45.7411 48.1639 44.4154 44.0222L52.0347 41.5835L59.6539 39.1448C58.8585 36.6597 56.5488 34.9741 53.9399 34.9741V42.9741ZM52.0347 41.5835L44.4153 44.0217L36.5803 19.5373L44.1997 17.0991L51.8191 14.6609L59.6541 39.1453L52.0347 41.5835Z" fill="white" mask="url(#path-18-outside-1_42_887)"/>
</svg>
