<svg width="450" height="299" viewBox="0 0 450 299" fill="none" xmlns="http://www.w3.org/2000/svg">
    <path d="M156 253.052L168.923 251.639L170.661 267.545C170.781 268.643 171.769 269.436 172.867 269.316L180.38 268.494C183.607 268.142 186.871 268.58 189.89 269.771L197.737 272.865C199.679 273.631 199.296 276.487 197.22 276.714L161.03 280.669C159.932 280.789 158.945 279.996 158.825 278.898L156 253.052Z" fill="#E97528"/>
    <path d="M100.137 246.948L113.014 248.728L110.823 264.577C110.671 265.671 111.436 266.681 112.53 266.832L120.017 267.868C123.232 268.312 126.291 269.532 128.929 271.423L135.785 276.337C137.482 277.554 136.414 280.23 134.346 279.944L98.2829 274.958C97.1887 274.806 96.4243 273.797 96.5756 272.702L100.137 246.948Z" fill="#F5A33F"/>
    <path d="M56 184.5C56 183.395 56.8954 182.5 58 182.5H107L154 164L187 153.5C200.398 164.664 208.573 180.879 209.582 198.29L210 205.5C210 231.457 188.957 252.5 163 252.5H121C85.1015 252.5 56 223.398 56 187.5V184.5Z" fill="#A1A1A1"/>
    <path d="M56 192.35C56 191.328 56.8286 190.499 57.8507 190.499H87.7708C89.2089 190.499 90.5992 189.983 91.6884 189.044L102.368 179.837C113.302 170.411 126.288 163.686 140.315 160.274C155.191 156.655 174.988 151.896 190 148.5C222.982 141.038 259.603 139.26 273.483 138.843C277.056 138.736 280.32 136.8 282.079 133.689C287.168 124.687 298.591 121.516 307.592 126.605L311.316 128.709L323.068 135.353C333.164 141.061 336.721 153.873 331.013 163.969L329.291 167.016L316.987 188.779L298.684 178.431C296.708 177.314 294.456 176.78 292.19 176.892L210.906 180.882C209.841 180.934 209.004 181.813 209.004 182.879V183.5L210 205.499C210 231.457 188.957 252.499 163 252.499H116.149C82.9297 252.499 56 225.57 56 192.35Z" fill="#E1E1E1"/>
    <path d="M75.8948 208.776C75.6922 207.865 76.386 207 77.3199 207H91.5001C93.0225 207 94.4045 207.89 95.0345 209.276L96.8258 213.216C101.195 222.828 110.779 229 121.337 229H123.938C142.7 229 158.403 214.769 160.244 196.097L160.383 194.682C160.45 194.011 161.014 193.5 161.689 193.5C162.413 193.5 163 194.087 163 194.811V199.369C163 220.98 145.481 238.5 123.87 238.5H112.948C95.1578 238.5 79.7541 226.143 75.8948 208.776Z" fill="#A1A1A1"/>
    <path d="M313.419 153.646C314.926 151.331 318.023 150.676 320.337 152.182L329.644 158.239C331.871 159.689 332.998 162.344 332.493 164.953C331.015 172.595 334.315 180.37 340.839 184.615L345.973 187.957L350.164 190.684C354.33 193.396 355.509 198.971 352.798 203.137C350.086 207.303 344.511 208.482 340.345 205.77L331.964 200.316L316.878 190.497L301.791 180.679C299.477 179.172 298.822 176.075 300.328 173.761L313.419 153.646Z" fill="#F5A33F"/>
    <rect x="323.288" y="162.388" width="9" height="6.40834" rx="3.20417" transform="rotate(93.6569 323.288 162.388)" fill="#E97528"/>
    <rect x="298.546" y="138" width="13" height="13" rx="6.5" transform="rotate(33.0571 298.546 138)" fill="#1E1E1E"/>
    <mask id="path-9-outside-1_49_1544" maskUnits="userSpaceOnUse" x="48" y="115.177" width="315" height="174" fill="black">
        <rect fill="white" x="48" y="115.177" width="315" height="174"/>
        <path d="M282.079 133.689C287.168 124.688 298.591 121.516 307.593 126.605L311.315 128.71L323.067 135.353C332.348 140.6 336.102 151.849 332.215 161.474C332.613 162.564 332.723 163.764 332.493 164.954C331.015 172.595 334.316 180.369 340.839 184.615L345.973 187.957L350.164 190.684C354.33 193.395 355.509 198.97 352.798 203.136C350.087 207.302 344.511 208.481 340.345 205.77L331.964 200.316L316.878 190.498L301.791 180.678C301.272 180.341 300.837 179.923 300.491 179.453L298.684 178.431C296.708 177.314 294.456 176.781 292.189 176.892L210.906 180.881C209.841 180.934 209.004 181.813 209.004 182.879V183.5L210 205.5C210 229.433 192.111 249.187 168.976 252.123L170.661 267.544C170.781 268.642 171.769 269.436 172.867 269.316L180.38 268.495C183.606 268.142 186.87 268.579 189.89 269.77L197.737 272.865C199.679 273.631 199.296 276.486 197.221 276.713L161.03 280.668C159.932 280.788 158.944 279.996 158.824 278.898L156 253.051L161.05 252.5H116.149C114.926 252.5 113.712 252.461 112.507 252.389L110.823 264.578C110.672 265.672 111.436 266.681 112.53 266.833L120.017 267.868C123.232 268.312 126.291 269.533 128.929 271.423L135.784 276.337C137.481 277.554 136.414 280.23 134.346 279.944L98.2832 274.958C97.1891 274.806 96.4241 273.797 96.5752 272.703L99.6836 250.217C74.4687 243.056 56 219.86 56 192.35C56 192.109 56.0469 191.879 56.1309 191.668C56.0437 190.289 56 188.9 56 187.5V184.5C56.0001 183.395 56.8955 182.5 58 182.5H99.2803L102.368 179.837C113.302 170.411 126.288 163.687 140.315 160.274C155.191 156.655 174.988 151.896 190 148.5C222.982 141.037 259.603 139.26 273.483 138.843C277.056 138.736 280.32 136.8 282.079 133.689Z"/>
    </mask>
    <path d="M282.079 133.689L289.043 137.626L289.043 137.626L282.079 133.689ZM307.593 126.605L303.656 133.569L303.656 133.569L307.593 126.605ZM311.315 128.71L307.378 135.674L307.378 135.674L311.315 128.71ZM323.067 135.353L327.005 128.389L327.004 128.389L323.067 135.353ZM332.215 161.474L324.797 158.478L323.645 161.33L324.7 164.218L332.215 161.474ZM332.493 164.954L324.639 163.434L324.639 163.435L332.493 164.954ZM340.839 184.615L345.203 177.91L345.203 177.91L340.839 184.615ZM345.973 187.957L341.608 194.661L341.609 194.662L345.973 187.957ZM350.164 190.684L354.528 183.979L354.527 183.979L350.164 190.684ZM352.798 203.136L359.503 207.5L359.503 207.5L352.798 203.136ZM340.345 205.77L344.709 199.065L344.708 199.065L340.345 205.77ZM331.964 200.316L327.6 207.021L327.6 207.021L331.964 200.316ZM316.878 190.498L312.514 197.203L312.514 197.203L316.878 190.498ZM301.791 180.678L297.427 187.383L297.427 187.383L301.791 180.678ZM300.491 179.453L306.935 174.711L305.919 173.331L304.427 172.488L300.491 179.453ZM298.684 178.431L294.746 185.395L294.748 185.396L298.684 178.431ZM292.189 176.892L292.582 184.883L292.582 184.882L292.189 176.892ZM210.906 180.881L210.514 172.891L210.514 172.891L210.906 180.881ZM209.004 183.5H201.004V183.681L201.012 183.861L209.004 183.5ZM210 205.5H218V205.319L217.992 205.138L210 205.5ZM168.976 252.123L167.969 244.186L160.169 245.176L161.023 252.992L168.976 252.123ZM170.661 267.544L178.614 266.675L178.614 266.675L170.661 267.544ZM172.867 269.316L173.736 277.269L173.737 277.269L172.867 269.316ZM180.38 268.495L179.511 260.542L179.51 260.542L180.38 268.495ZM189.89 269.77L192.824 262.328L192.824 262.328L189.89 269.77ZM197.737 272.865L200.673 265.423L200.672 265.423L197.737 272.865ZM197.221 276.713L198.09 284.666L198.091 284.666L197.221 276.713ZM161.03 280.668L161.899 288.621H161.899L161.03 280.668ZM158.824 278.898L150.872 279.767L150.872 279.768L158.824 278.898ZM156 253.051L155.131 245.099L147.178 245.968L148.047 253.92L156 253.051ZM161.05 252.5L161.919 260.452L161.05 244.5V252.5ZM112.507 252.389L112.984 244.403L105.595 243.962L104.582 251.295L112.507 252.389ZM110.823 264.578L102.898 263.483L102.898 263.483L110.823 264.578ZM112.53 266.833L113.626 258.908H113.626L112.53 266.833ZM120.017 267.868L118.921 275.792H118.921L120.017 267.868ZM128.929 271.423L133.589 264.921L133.589 264.921L128.929 271.423ZM135.784 276.337L131.123 282.84L131.124 282.84L135.784 276.337ZM134.346 279.944L133.25 287.868L133.25 287.869L134.346 279.944ZM98.2832 274.958L99.3789 267.033H99.3789L98.2832 274.958ZM96.5752 272.703L88.6506 271.607L88.6505 271.608L96.5752 272.703ZM99.6836 250.217L107.608 251.313L108.561 244.422L101.869 242.522L99.6836 250.217ZM56 192.35H48V192.35L56 192.35ZM56.1309 191.668L63.5659 194.621L64.2282 192.953L64.1149 191.162L56.1309 191.668ZM56 184.5L48 184.499V184.5H56ZM58 182.5V174.5H58L58 182.5ZM99.2803 182.5V190.5H102.253L104.504 188.559L99.2803 182.5ZM102.368 179.837L97.1446 173.778L97.1445 173.778L102.368 179.837ZM140.315 160.274L138.424 152.501V152.501L140.315 160.274ZM190 148.5L188.235 140.697V140.697L190 148.5ZM273.483 138.843L273.243 130.847H273.243L273.483 138.843ZM282.079 133.689L289.043 137.626C291.958 132.471 298.5 130.654 303.656 133.569L307.593 126.605L311.53 119.641C298.683 112.378 282.379 116.904 275.115 129.752L282.079 133.689ZM307.593 126.605L303.656 133.569L307.378 135.674L311.315 128.71L315.252 121.745L311.53 119.641L307.593 126.605ZM311.315 128.71L307.378 135.674L319.13 142.317L323.067 135.353L327.004 128.389L315.252 121.745L311.315 128.71ZM323.067 135.353L319.13 142.317C324.869 145.562 327.201 152.526 324.797 158.478L332.215 161.474L339.633 164.47C345.004 151.172 339.827 135.638 327.005 128.389L323.067 135.353ZM332.215 161.474L324.7 164.218C324.613 163.98 324.586 163.706 324.639 163.434L332.493 164.954L340.348 166.473C340.861 163.821 340.613 161.149 339.73 158.73L332.215 161.474ZM332.493 164.954L324.639 163.435C322.543 174.273 327.224 185.299 336.475 191.32L340.839 184.615L345.203 177.91C341.408 175.44 339.488 170.917 340.348 166.473L332.493 164.954ZM340.839 184.615L336.475 191.319L341.608 194.661L345.973 187.957L350.337 181.252L345.203 177.91L340.839 184.615ZM345.973 187.957L341.609 194.662L345.801 197.389L350.164 190.684L354.527 183.979L350.336 181.251L345.973 187.957ZM350.164 190.684L345.8 197.389C346.263 197.69 346.394 198.31 346.093 198.773L352.798 203.136L359.503 207.5C364.624 199.631 362.397 189.101 354.528 183.979L350.164 190.684ZM352.798 203.136L346.093 198.772C345.792 199.235 345.172 199.366 344.709 199.065L340.345 205.77L335.981 212.475C343.85 217.596 354.381 215.369 359.503 207.5L352.798 203.136ZM340.345 205.77L344.708 199.065L336.327 193.611L331.964 200.316L327.6 207.021L335.981 212.475L340.345 205.77ZM331.964 200.316L336.328 193.611L321.242 183.793L316.878 190.498L312.514 197.203L327.6 207.021L331.964 200.316ZM316.878 190.498L321.242 183.793L306.155 173.973L301.791 180.678L297.427 187.383L312.514 197.203L316.878 190.498ZM301.791 180.678L306.155 173.974C306.456 174.169 306.721 174.421 306.935 174.711L300.491 179.453L294.048 184.194C294.954 185.425 296.089 186.512 297.427 187.383L301.791 180.678ZM300.491 179.453L304.427 172.488L302.619 171.466L298.684 178.431L294.748 185.396L296.555 186.418L300.491 179.453ZM298.684 178.431L302.621 171.467C299.327 169.605 295.574 168.716 291.797 168.902L292.189 176.892L292.582 184.882C293.338 184.845 294.089 185.023 294.746 185.395L298.684 178.431ZM292.189 176.892L291.797 168.902L210.514 172.891L210.906 180.881L211.298 188.872L292.582 184.883L292.189 176.892ZM210.906 180.881L210.514 172.891C205.188 173.152 201.004 177.547 201.004 182.879H209.004H217.004C217.004 186.079 214.494 188.715 211.298 188.872L210.906 180.881ZM209.004 182.879H201.004V183.5H209.004H217.004V182.879H209.004ZM209.004 183.5L201.012 183.861L202.008 205.861L210 205.5L217.992 205.138L216.996 183.138L209.004 183.5ZM210 205.5H202C202 225.353 187.158 241.751 167.969 244.186L168.976 252.123L169.983 260.059C197.064 256.623 218 233.513 218 205.5H210ZM168.976 252.123L161.023 252.992L162.708 268.414L170.661 267.544L178.614 266.675L176.928 251.253L168.976 252.123ZM170.661 267.544L162.708 268.414C163.308 273.903 168.246 277.869 173.736 277.269L172.867 269.316L171.998 261.363C175.293 261.003 178.254 263.382 178.614 266.675L170.661 267.544ZM172.867 269.316L173.737 277.269L181.249 276.447L180.38 268.495L179.51 260.542L171.998 261.363L172.867 269.316ZM180.38 268.495L181.249 276.447C183.186 276.236 185.144 276.498 186.955 277.212L189.89 269.77L192.824 262.328C188.596 260.661 184.027 260.048 179.511 260.542L180.38 268.495ZM189.89 269.77L186.955 277.212L194.802 280.307L197.737 272.865L200.672 265.423L192.824 262.328L189.89 269.77ZM197.737 272.865L194.801 280.307C188.974 278.007 190.126 269.442 196.351 268.761L197.221 276.713L198.091 284.666C208.466 283.531 210.384 269.254 200.673 265.423L197.737 272.865ZM197.221 276.713L196.352 268.761L160.161 272.716L161.03 280.668L161.899 288.621L198.09 284.666L197.221 276.713ZM161.03 280.668L160.161 272.716C163.451 272.356 166.416 274.73 166.777 278.028L158.824 278.898L150.872 279.768C151.472 285.262 156.414 289.221 161.899 288.621L161.03 280.668ZM158.824 278.898L166.777 278.029L163.953 252.182L156 253.051L148.047 253.92L150.872 279.767L158.824 278.898ZM156 253.051L156.869 261.004L161.919 260.452L161.05 252.5L160.181 244.547L155.131 245.099L156 253.051ZM161.05 252.5V244.5H116.149V252.5V260.5H161.05V252.5ZM116.149 252.5V244.5C115.094 244.5 114.038 244.466 112.984 244.403L112.507 252.389L112.03 260.375C113.385 260.456 114.759 260.5 116.149 260.5V252.5ZM112.507 252.389L104.582 251.295L102.898 263.483L110.823 264.578L118.748 265.672L120.432 253.484L112.507 252.389ZM110.823 264.578L102.898 263.483C102.143 268.951 105.962 274.001 111.435 274.757L112.53 266.833L113.626 258.908C116.91 259.362 119.201 262.392 118.748 265.672L110.823 264.578ZM112.53 266.833L111.435 274.757L118.921 275.792L120.017 267.868L121.112 259.943L113.626 258.908L112.53 266.833ZM120.017 267.868L118.921 275.792C120.85 276.059 122.686 276.791 124.268 277.926L128.929 271.423L133.589 264.921C129.896 262.274 125.613 260.565 121.112 259.943L120.017 267.868ZM128.929 271.423L124.268 277.925L131.123 282.84L135.784 276.337L140.445 269.835L133.589 264.921L128.929 271.423ZM135.784 276.337L131.124 282.84C126.036 279.193 129.232 271.161 135.441 272.019L134.346 279.944L133.25 287.869C143.596 289.298 148.926 275.914 140.445 269.835L135.784 276.337ZM134.346 279.944L135.441 272.019L99.3789 267.033L98.2832 274.958L97.1875 282.882L133.25 287.868L134.346 279.944ZM98.2832 274.958L99.3789 267.033C102.657 267.486 104.954 270.511 104.5 273.797L96.5752 272.703L88.6505 271.608C87.8942 277.082 91.7213 282.126 97.1875 282.882L98.2832 274.958ZM96.5752 272.703L104.5 273.798L107.608 251.313L99.6836 250.217L91.759 249.122L88.6506 271.607L96.5752 272.703ZM99.6836 250.217L101.869 242.522C80.0034 236.312 64 216.19 64 192.35L56 192.35L48 192.35C48 223.531 68.934 249.801 97.4981 257.913L99.6836 250.217ZM56 192.35H64C64 193.156 63.8417 193.926 63.5659 194.621L56.1309 191.668L48.6959 188.714C48.2522 189.831 48 191.062 48 192.35H56ZM56.1309 191.668L64.1149 191.162C64.0385 189.955 64 188.733 64 187.5H56H48C48 189.066 48.0488 190.624 48.1468 192.173L56.1309 191.668ZM56 187.5H64V184.5H56H48V187.5H56ZM56 184.5L64 184.5C63.9998 187.813 61.3143 190.5 58 190.5L58 182.5L58 174.5C52.4767 174.5 48.0003 178.977 48 184.499L56 184.5ZM58 182.5V190.5H99.2803V182.5V174.5H58V182.5ZM99.2803 182.5L104.504 188.559L107.592 185.897L102.368 179.837L97.1445 173.778L94.0566 176.44L99.2803 182.5ZM102.368 179.837L107.592 185.897C117.578 177.287 129.425 171.157 142.207 168.047L140.315 160.274L138.424 152.501C123.151 156.216 109.027 163.535 97.1446 173.778L102.368 179.837ZM140.315 160.274L142.207 168.047C157.077 164.429 176.821 159.683 191.765 156.302L190 148.5L188.235 140.697C173.156 144.108 153.304 148.881 138.424 152.501L140.315 160.274ZM190 148.5L191.765 156.302C223.972 149.016 259.966 147.253 273.724 146.84L273.483 138.843L273.243 130.847C259.24 131.268 221.992 133.059 188.235 140.697L190 148.5ZM273.483 138.843L273.724 146.84C280.04 146.65 285.881 143.219 289.043 137.626L282.079 133.689L275.115 129.752C274.759 130.381 274.071 130.822 273.243 130.847L273.483 138.843Z" fill="white" mask="url(#path-9-outside-1_49_1544)"/>
</svg>
