<svg width="450" height="299" viewBox="0 0 450 299" fill="none" xmlns="http://www.w3.org/2000/svg">
    <path d="M129 251.5H142V267.5C142 268.605 142.895 269.5 144 269.5H151.558C154.804 269.5 158.001 270.29 160.873 271.802L168.337 275.73C170.185 276.703 169.494 279.5 167.406 279.5H131C129.895 279.5 129 278.605 129 277.5V251.5Z" fill="#E97528"/>
    <path d="M96 251.5H109V267.5C109 268.605 109.895 269.5 111 269.5H118.558C121.804 269.5 125.001 270.29 127.873 271.802L135.337 275.73C137.185 276.703 136.494 279.5 134.406 279.5H98C96.8954 279.5 96 278.605 96 277.5V251.5Z" fill="#F5A33F"/>
    <path d="M36 185.5C36 184.395 36.8954 183.5 38 183.5H87L134 165L167 154.5C180.398 165.665 188.573 181.88 189.582 199.29L190 206.5C190 232.457 168.957 253.5 143 253.5H101C65.1015 253.5 36 224.399 36 188.5V185.5Z" fill="#A1A1A1"/>
    <path d="M36 193.351C36 192.329 36.8286 191.5 37.8507 191.5H67.7708C69.2089 191.5 70.5992 190.983 71.6884 190.044L74.7959 187.366C90.4726 173.851 110.248 166.018 130.927 165.132L134 165V55.5V54C134 41.2975 144.297 31 157 31H170.5C182.098 31 191.5 40.402 191.5 52V55.5V80.5H179C172.373 80.5 167 85.8726 167 92.5V154.5C180.398 165.665 188.573 181.88 189.582 199.29L190 206.5C190 232.457 168.957 253.5 143 253.5H96.1493C62.9297 253.5 36 226.57 36 193.351Z" fill="#E1E1E1"/>
    <path d="M55.8948 209.777C55.6922 208.865 56.386 208 57.3199 208H71.5001C73.0225 208 74.4045 208.89 75.0345 210.276L76.8258 214.217C81.1949 223.829 90.7789 230 101.337 230H103.938C122.7 230 138.403 215.769 140.244 197.098L140.383 195.683C140.45 195.012 141.014 194.5 141.689 194.5C142.413 194.5 143 195.087 143 195.811V200.37C143 221.981 125.481 239.5 103.87 239.5H92.9485C75.1578 239.5 59.7541 227.144 55.8948 209.777Z" fill="#A1A1A1"/>
    <path d="M171 53.5C171 50.7386 173.239 48.5 176 48.5H187.104C189.762 48.5 192.154 50.1105 193.155 52.5727C196.084 59.7835 203.091 64.5 210.874 64.5H217H222C226.971 64.5 231 68.5294 231 73.5C231 78.4706 226.971 82.5 222 82.5H212H194H176C173.239 82.5 171 80.2614 171 77.5V53.5Z" fill="#F5A33F"/>
    <rect x="184.04" y="55.4442" width="9" height="6.40834" rx="3.20417" transform="rotate(60.5998 184.04 55.4442)" fill="#E97528"/>
    <rect x="150" y="48.5" width="13" height="13" rx="6.5" fill="#1E1E1E"/>
    <mask id="path-9-outside-1_49_1528" maskUnits="userSpaceOnUse" x="28" y="23" width="211" height="265" fill="black">
        <rect fill="white" x="28" y="23" width="211" height="265"/>
        <path d="M170.5 31C181.467 31 190.467 39.4065 191.415 50.127C192.162 50.783 192.764 51.6123 193.154 52.5723C196.084 59.7831 203.091 64.5 210.874 64.5H222C226.971 64.5 231 68.5294 231 73.5C231 78.4706 226.971 82.5 222 82.5H176C175.091 82.5 174.24 82.2557 173.506 81.832C169.643 83.8257 167 87.8531 167 92.5V154.5C180.398 165.665 188.573 181.88 189.582 199.29L190 206.5C190 232.457 168.957 253.5 143 253.5H142V267.5C142 268.605 142.895 269.5 144 269.5H151.559C154.804 269.5 158.001 270.29 160.873 271.802L168.337 275.73C170.184 276.703 169.494 279.5 167.406 279.5H98C96.8954 279.5 96 278.605 96 277.5V253.499C62.8491 253.419 36 226.52 36 193.351C36 193.109 36.0469 192.879 36.1309 192.668C36.0436 191.29 36 189.9 36 188.5V185.5C36 184.395 36.8954 183.5 38 183.5H79.5986C94.4207 172.361 112.307 165.93 130.927 165.132L134 165V54C134 41.2975 144.297 31 157 31H170.5ZM109 267.5C109 268.605 109.895 269.5 111 269.5H118.559C121.804 269.5 125.001 270.29 127.873 271.802L129 272.395V253.5H109V267.5Z"/>
    </mask>
    <path d="M191.415 50.127L183.446 50.8314L183.728 54.022L186.134 56.1364L191.415 50.127ZM193.154 52.5723L200.566 49.5612L200.566 49.5607L193.154 52.5723ZM222 82.5V90.5V90.5V82.5ZM176 82.5V90.5V90.5V82.5ZM173.506 81.832L177.504 74.9027L173.72 72.7192L169.837 74.7229L173.506 81.832ZM167 154.5H159V158.247L161.879 160.646L167 154.5ZM189.582 199.29L197.569 198.827V198.827L189.582 199.29ZM190 206.5H198V206.268L197.987 206.037L190 206.5ZM142 253.5V245.5H134V253.5H142ZM151.559 269.5L151.559 261.5H151.559V269.5ZM160.873 271.802L164.599 264.723L164.599 264.722L160.873 271.802ZM168.337 275.73L164.611 282.81L164.611 282.81L168.337 275.73ZM167.406 279.5V287.5H167.408L167.406 279.5ZM98 279.5L98 287.5H98V279.5ZM96 277.5H88V277.5H96ZM96 253.499H104V245.518L96.0194 245.499L96 253.499ZM36 193.351L28 193.35V193.351H36ZM36.1309 192.668L43.5655 195.622L44.2282 193.954L44.1149 192.163L36.1309 192.668ZM38 183.5V175.5H38L38 183.5ZM79.5986 183.5V191.5H82.2695L84.4047 189.895L79.5986 183.5ZM130.927 165.132L131.269 173.124L131.27 173.124L130.927 165.132ZM134 165L134.343 172.993L142 172.664V165H134ZM118.559 269.5L118.559 261.5H118.559V269.5ZM127.873 271.802L124.147 278.881L124.149 278.882L127.873 271.802ZM129 272.395L125.276 279.475L137 285.642V272.395H129ZM129 253.5H137V245.5H129V253.5ZM109 253.5V245.5H101V253.5H109ZM170.5 31V39C177.283 39 182.86 44.202 183.446 50.8314L191.415 50.127L199.384 49.4225C198.075 34.611 185.65 23 170.5 23V31ZM191.415 50.127L186.134 56.1364C185.972 55.9935 185.833 55.8046 185.743 55.5839L193.154 52.5723L200.566 49.5607C199.696 47.42 198.352 45.5725 196.696 44.1175L191.415 50.127ZM193.154 52.5723L185.743 55.5833C189.897 65.8101 199.835 72.5 210.874 72.5V64.5V56.5C206.347 56.5 202.27 53.7561 200.566 49.5612L193.154 52.5723ZM210.874 64.5V72.5H222V64.5V56.5H210.874V64.5ZM222 64.5V72.5C222.552 72.5 223 72.9477 223 73.5H231H239C239 64.1112 231.389 56.5 222 56.5V64.5ZM231 73.5H223C223 74.0523 222.552 74.5 222 74.5V82.5V90.5C231.389 90.5 239 82.8888 239 73.5H231ZM222 82.5V74.5H176V82.5V90.5H222V82.5ZM176 82.5V74.5C176.545 74.5 177.067 74.6504 177.504 74.9027L173.506 81.832L169.508 88.7613C171.414 89.8611 173.638 90.5 176 90.5V82.5ZM173.506 81.832L169.837 74.7229C163.422 78.0336 159 84.7403 159 92.5H167H175C175 90.9659 175.864 89.6177 177.175 88.9412L173.506 81.832ZM167 92.5H159V154.5H167H175V92.5H167ZM167 154.5L161.879 160.646C173.576 170.394 180.714 184.552 181.595 199.753L189.582 199.29L197.569 198.827C196.431 179.208 187.219 160.935 172.121 148.354L167 154.5ZM189.582 199.29L181.595 199.753L182.013 206.963L190 206.5L197.987 206.037L197.569 198.827L189.582 199.29ZM190 206.5H182C182 228.039 164.539 245.5 143 245.5V253.5V261.5C173.376 261.5 198 236.876 198 206.5H190ZM143 253.5V245.5H142V253.5V261.5H143V253.5ZM142 253.5H134V267.5H142H150V253.5H142ZM142 267.5H134C134 273.023 138.477 277.5 144 277.5V269.5V261.5C147.314 261.5 150 264.186 150 267.5H142ZM144 269.5V277.5H151.559V269.5V261.5H144V269.5ZM151.559 269.5L151.558 277.5C153.506 277.5 155.424 277.974 157.147 278.881L160.873 271.802L164.599 264.722C160.578 262.606 156.103 261.5 151.559 261.5L151.559 269.5ZM160.873 271.802L157.147 278.881L164.611 282.81L168.337 275.73L172.063 268.651L164.599 264.723L160.873 271.802ZM168.337 275.73L164.611 282.81C159.072 279.894 161.138 271.501 167.405 271.5L167.406 279.5L167.408 287.5C177.85 287.498 181.297 273.511 172.063 268.651L168.337 275.73ZM167.406 279.5V271.5H98V279.5V287.5H167.406V279.5ZM98 279.5L98 271.5C101.314 271.5 104 274.186 104 277.5H96H88C88 283.023 92.4772 287.5 98 287.5L98 279.5ZM96 277.5H104V253.499H96H88V277.5H96ZM96 253.499L96.0194 245.499C67.278 245.429 44 222.108 44 193.351H36H28C28 230.932 58.4202 261.408 95.9806 261.499L96 253.499ZM36 193.351L44 193.351C43.9999 194.156 43.8421 194.926 43.5655 195.622L36.1309 192.668L28.6962 189.714C28.2517 190.833 28.0001 192.063 28 193.35L36 193.351ZM36.1309 192.668L44.1149 192.163C44.0385 190.955 44 189.734 44 188.5H36H28C28 190.066 28.0488 191.625 28.1468 193.173L36.1309 192.668ZM36 188.5H44V185.5H36H28V188.5H36ZM36 185.5H44C44 188.814 41.3137 191.5 38 191.5L38 183.5L38 175.5C32.4772 175.5 28 179.977 28 185.5H36ZM38 183.5V191.5H79.5986V183.5V175.5H38V183.5ZM79.5986 183.5L84.4047 189.895C97.9381 179.725 114.269 173.853 131.269 173.124L130.927 165.132L130.584 157.139C110.345 158.007 90.9033 164.998 74.7926 177.105L79.5986 183.5ZM130.927 165.132L131.27 173.124L134.343 172.993L134 165L133.657 157.007L130.584 157.139L130.927 165.132ZM134 165H142V54H134H126V165H134ZM134 54H142C142 45.7157 148.716 39 157 39V31V23C139.879 23 126 36.8792 126 54H134ZM157 31V39H170.5V31V23H157V31ZM109 267.5H101C101 273.023 105.477 277.5 111 277.5V269.5V261.5C114.314 261.5 117 264.186 117 267.5H109ZM111 269.5V277.5H118.559V269.5V261.5H111V269.5ZM118.559 269.5L118.558 277.5C120.506 277.5 122.424 277.974 124.147 278.881L127.873 271.802L131.599 264.722C127.578 262.606 123.103 261.5 118.559 261.5L118.559 269.5ZM127.873 271.802L124.149 278.882L125.276 279.475L129 272.395L132.724 265.314L131.597 264.721L127.873 271.802ZM129 272.395H137V253.5H129H121V272.395H129ZM129 253.5V245.5H109V253.5V261.5H129V253.5ZM109 253.5H101V267.5H109H117V253.5H109Z" fill="white" mask="url(#path-9-outside-1_49_1528)"/>
</svg>
