<svg width="165" height="204" viewBox="0 0 165 204" fill="none" xmlns="http://www.w3.org/2000/svg">
    <path fill-rule="evenodd" clip-rule="evenodd" d="M89 115.5C89 121.299 93.701 126 99.5 126L142.5 126C148.299 126 153 121.299 153 115.5C153 109.701 148.299 105 142.5 105L142 105L142 104.5C142 103.119 140.881 102 139.5 102C138.119 102 137 103.119 137 104.5L137 105L99.5 105C93.701 105 89 109.701 89 115.5Z" fill="#FABC95"/>
    <path d="M102.5 105C96.701 105 92 109.701 92 115.5C92 121.299 96.701 126 102.5 126L107.797 126C112.328 126 116 122.328 116 117.797L116 113.203C116 108.672 112.328 105 107.797 105L102.5 105Z" fill="#F0997D"/>
    <path d="M102 107C102 105.895 101.105 105 100 105H44C42.8954 105 42 105.895 42 107V137H102V107Z" fill="#F0997D"/>
    <path d="M102 113C102 111.895 101.105 111 100 111H44C42.8954 111 42 111.895 42 113V137H102V113Z" fill="#FABC95"/>
    <path d="M99.2314 146.736C99.0989 145.742 98.2514 145 97.249 145H50.6192C49.6751 145 48.8595 145.66 48.663 146.584L44.3984 166.627C44.1345 167.868 43.6755 169.059 43.0386 170.156L37.6166 179.494C36.4553 181.494 37.8983 184 40.211 184H57.0964C57.7833 184 58.4222 183.647 58.7884 183.066L63.3731 175.791C63.9221 174.92 64.3567 173.982 64.6661 173L66.7592 166.357C67.0216 165.524 67.7937 164.958 68.6668 164.958H76.5332C77.4063 164.958 78.1784 165.524 78.4408 166.357L80.9075 174.185C80.9688 174.38 81 174.583 81 174.786V182C81 183.105 81.8954 184 83 184H101C102.105 184 103 183.105 103 182V175L99.2314 146.736Z" fill="#F7F8AA"/>
    <path d="M102 137H42L42.7625 152.25C42.8955 154.911 45.0919 157 47.7562 157H99C100.657 157 102 155.657 102 154V137Z" fill="#F7F8AA"/>
    <rect width="21" height="36" rx="10.5" transform="matrix(-1 0 0 1 49 105)" fill="#F0997D"/>
    <path fill-rule="evenodd" clip-rule="evenodd" d="M30.1667 134.183C31.9565 139.699 37.8789 142.72 43.3948 140.93L58.3749 136.069C63.8908 134.279 66.9113 128.357 65.1215 122.841C63.3317 117.325 57.4093 114.304 51.8934 116.094L51.4178 116.249L51.2635 115.773C50.8374 114.46 49.4273 113.741 48.114 114.167C46.8007 114.593 46.0815 116.003 46.5076 117.316L46.6619 117.792L36.9133 120.955C31.3974 122.745 28.3769 128.667 30.1667 134.183Z" fill="#FFC7A3"/>
    <path d="M59 32C40.2223 32 25 47.2223 25 66V70H24.5C19.2533 70 15 74.2533 15 79.5C15 84.7467 19.2533 89 24.5 89H25.6006C27.8438 98.1838 36.1252 105 46 105H101C111.23 105 119.75 97.6848 121.618 88H122C126.971 88 131 83.9706 131 79C131 74.1847 127.218 70.2526 122.463 70.0117L122 70V66C122 47.2223 106.778 32 88 32H59Z" fill="#FABC95"/>
    <path d="M103.924 75.8684C104.404 73.1489 102.588 70.5556 99.8682 70.0761L96.9721 72.104L94.0759 74.1319C93.5964 76.8514 95.4122 79.4447 98.1317 79.9242C100.851 80.4037 103.444 78.5878 103.924 75.8684Z" fill="#1E1E1E"/>
    <rect width="14" height="4" rx="2" transform="matrix(-1 0 0 1 88 85)" fill="#F0997D"/>
    <path d="M64.028 72.1039L61.1319 70.076C58.4124 70.5555 56.5966 73.1488 57.0761 75.8683C57.5556 78.5878 60.1489 80.4036 62.8684 79.9241C65.5878 79.4446 67.4037 76.8513 66.9241 74.1318L64.028 72.1039Z" fill="#1E1E1E"/>
    <path d="M90 31.5C90 25.1487 84.8513 20 78.5 20H67C66.4477 20 66 20.4477 66 21V26.3672C66 26.9687 66.527 27.4403 67.1273 27.4032C70.1134 27.2188 78 27.2305 78 32.5C78 36.6129 74.0857 37.2308 72.1112 37.2808C71.5169 37.2959 71 37.7684 71 38.3629V42C71 42.5523 71.4477 43 72 43H78.5C84.8513 43 90 37.8513 90 31.5Z" fill="#1E1E1E"/>
    <mask id="path-14-outside-1_26_38" maskUnits="userSpaceOnUse" x="7" y="12" width="154" height="180" fill="black">
        <rect fill="white" x="7" y="12" width="154" height="180"/>
        <path d="M67 20C66.4477 20 66 20.4477 66 21V26.3672C66 26.9686 66.5268 27.4402 67.127 27.4033C70.0154 27.2249 77.4891 27.23 77.9746 32H59C40.2223 32 25 47.2223 25 66V70H24.5C19.2533 70 15 74.2533 15 79.5C15 84.7467 19.2533 89 24.5 89H25.6006C27.8438 98.1838 36.1252 105 46 105H44C43.363 105 42.7969 105.299 42.4307 105.763C41.2164 105.272 39.8901 105 38.5 105C32.701 105 28 109.701 28 115.5V130.5C28.0001 135.658 31.7205 139.944 36.624 140.829C38.3731 141.455 40.2972 141.622 42.2129 141.236L42.7627 152.25C42.8739 154.471 44.4234 156.293 46.4824 156.834L44.3984 166.627C44.1345 167.867 43.6758 169.059 43.0391 170.155L37.6162 179.493C36.4549 181.493 37.8983 184 40.2109 184H57.0967C57.7834 184 58.4219 183.647 58.7881 183.066L63.373 175.791C63.922 174.92 64.3566 173.981 64.666 172.999L66.7588 166.356C67.0212 165.524 67.794 164.958 68.667 164.958H76.5332C77.4062 164.958 78.178 165.524 78.4404 166.356L80.9072 174.186C80.9685 174.38 81 174.582 81 174.786V182C81 183.105 81.8954 184 83 184H101C102.105 184 103 183.105 103 182V175L100.543 156.568C101.415 156.044 102 155.092 102 154V126H142.5C148.299 126 153 121.299 153 115.5C153 109.701 148.299 105 142.5 105H142V104.5C142 103.119 140.881 102 139.5 102C138.119 102 137 103.119 137 104.5V105H101C111.23 105 119.75 97.6848 121.618 88H122C126.971 88 131 83.9706 131 79C131 74.1847 127.218 70.2526 122.463 70.0117L122 70V66C122 47.8891 107.839 33.0871 89.9863 32.0586C89.9952 31.8735 90 31.6873 90 31.5C90 25.1487 84.8513 20 78.5 20H67Z"/>
    </mask>
    <path d="M67 20V12V12V20ZM66 21H58V21L66 21ZM67.127 27.4033L67.6201 35.3881L67.6171 35.3883L67.127 27.4033ZM77.9746 32L85.9335 31.1899L86.8302 40H77.9746V32ZM59 32V24V24V32ZM25 66H17V66H25ZM25 70H33V78H25V70ZM24.5 70V62V70ZM25.6006 89V81H31.8817L33.3721 87.1017L25.6006 89ZM42.4307 105.763L48.7097 110.72L44.9938 115.427L39.4336 113.18L42.4307 105.763ZM28 130.5L20 130.5V130.5H28ZM36.624 140.829L38.0445 132.956L38.6961 133.074L39.3195 133.297L36.624 140.829ZM42.2129 141.236L40.6341 133.394L49.7398 131.561L50.2029 140.837L42.2129 141.236ZM42.7627 152.25L34.7727 152.65L34.7726 152.649L42.7627 152.25ZM46.4824 156.834L48.517 149.097L55.8951 151.037L54.3072 158.499L46.4824 156.834ZM44.3984 166.627L36.5736 164.962L36.5737 164.962L44.3984 166.627ZM43.0391 170.155L49.9576 174.172L49.9571 174.173L43.0391 170.155ZM37.6162 179.493L30.6979 175.476L30.6982 175.476L37.6162 179.493ZM40.2109 184V192H40.2109L40.2109 184ZM57.0967 184L57.0981 192H57.0967V184ZM58.7881 183.066L65.5562 187.332L65.5556 187.333L58.7881 183.066ZM63.373 175.791L70.1412 180.056L70.1412 180.056L63.373 175.791ZM64.666 172.999L72.2963 175.403L72.2962 175.403L64.666 172.999ZM66.7588 166.356L59.1285 163.952L59.1286 163.952L66.7588 166.356ZM78.4404 166.356L86.0704 163.951L86.0706 163.952L78.4404 166.356ZM80.9072 174.186L88.5374 171.781L88.5375 171.782L80.9072 174.186ZM81 174.786L89 174.785V174.786H81ZM81 182L73 182V182H81ZM101 184L101 192H101V184ZM103 182H111V182L103 182ZM103 175L110.93 173.943L111 174.469V175H103ZM100.543 156.568L92.6131 157.625L91.9195 152.422L96.4167 149.715L100.543 156.568ZM102 154H110V154L102 154ZM102 126H94V118H102V126ZM142.5 126V134V134V126ZM153 115.5H161V115.5L153 115.5ZM142.5 105V97V97V105ZM142 105V113H134V105H142ZM142 104.5H134V104.5H142ZM137 104.5H129V104.5H137ZM137 105H145V113H137V105ZM121.618 88L113.763 86.485L115.014 80H121.618V88ZM131 79H139V79H131ZM122.463 70.0117L122.665 62.0143L122.767 62.0168L122.868 62.022L122.463 70.0117ZM122 70L121.798 77.9974L114 77.8V70H122ZM122 66H130V66H122ZM89.9863 32.0586L89.5262 40.0454L81.617 39.5897L81.9955 31.6764L89.9863 32.0586ZM67 20V28C70.866 28 74 24.866 74 21L66 21L58 21C58 16.0294 62.0294 12 67 12V20ZM66 21H74V26.3672H66H58V21H66ZM66 26.3672H74C74 22.1181 70.3966 19.1876 66.6368 19.4183L67.127 27.4033L67.6171 35.3883C62.657 35.6927 58 31.819 58 26.3672H66ZM67.127 27.4033L66.6339 19.4185C68.3098 19.315 71.8925 19.2059 75.4007 20.087C78.5562 20.8796 85.1534 23.5259 85.9335 31.1899L77.9746 32L70.0157 32.8101C70.0629 33.2738 70.2156 33.8151 70.5137 34.3454C70.804 34.862 71.1452 35.2144 71.4042 35.427C71.8438 35.788 72.0235 35.7358 71.5031 35.605C71.0471 35.4905 70.3983 35.4026 69.6142 35.3675C68.8564 35.3336 68.1426 35.3558 67.6201 35.3881L67.127 27.4033ZM77.9746 32V40H59V32V24H77.9746V32ZM59 32V40C44.6406 40 33 51.6406 33 66H25H17C17 42.804 35.804 24 59 24V32ZM25 66H33V70H25H17V66H25ZM25 70V78H24.5V70V62H25V70ZM24.5 70V78C23.6716 78 23 78.6716 23 79.5H15H7C7 69.835 14.835 62 24.5 62V70ZM15 79.5H23C23 80.3284 23.6716 81 24.5 81V89V97C14.835 97 7 89.165 7 79.5H15ZM24.5 89V81H25.6006V89V97H24.5V89ZM25.6006 89L33.3721 87.1017C34.7611 92.7883 39.8986 97 46 97V105V113C32.3518 113 20.9266 103.579 17.8291 90.8983L25.6006 89ZM46 105V113H44V105V97H46V105ZM44 105V113C45.9292 113 47.6334 112.083 48.7097 110.72L42.4307 105.763L36.1516 100.806C37.9604 98.5143 40.7968 97 44 97V105ZM42.4307 105.763L39.4336 113.18C39.1478 113.065 38.8376 113 38.5 113V105V97C40.9426 97 43.2849 97.4795 45.4278 98.3453L42.4307 105.763ZM38.5 105V113C37.1193 113 36 114.119 36 115.5H28H20C20 105.283 28.2827 97 38.5 97V105ZM28 115.5H36V130.5H28H20V115.5H28ZM28 130.5L36 130.5C36 131.716 36.8782 132.746 38.0445 132.956L36.624 140.829L35.2036 148.702C26.5629 147.143 20.0001 139.601 20 130.5L28 130.5ZM36.624 140.829L39.3195 133.297C39.7381 133.447 40.1856 133.484 40.6341 133.394L42.2129 141.236L43.7916 149.079C40.4088 149.76 37.008 149.463 33.9286 148.361L36.624 140.829ZM42.2129 141.236L50.2029 140.837L50.7527 151.851L42.7627 152.25L34.7726 152.649L34.2228 141.635L42.2129 141.236ZM42.7627 152.25L50.7527 151.85C50.6852 150.503 49.7454 149.42 48.517 149.097L46.4824 156.834L44.4479 164.571C39.1015 163.165 35.0626 158.44 34.7727 152.65L42.7627 152.25ZM46.4824 156.834L54.3072 158.499L52.2232 168.292L44.3984 166.627L36.5737 164.962L38.6576 155.169L46.4824 156.834ZM44.3984 166.627L52.2233 168.292C51.7837 170.358 51.0195 172.343 49.9576 174.172L43.0391 170.155L36.1206 166.139C36.3322 165.774 36.4853 165.377 36.5736 164.962L44.3984 166.627ZM43.0391 170.155L49.9571 174.173L44.5342 183.511L37.6162 179.493L30.6982 175.476L36.121 166.138L43.0391 170.155ZM37.6162 179.493L44.5345 183.51C46.4703 180.176 44.0648 176 40.211 176L40.2109 184L40.2109 192C31.7317 192 26.4395 182.81 30.6979 175.476L37.6162 179.493ZM40.2109 184V176H57.0967V184V192H40.2109V184ZM57.0967 184L57.0953 176C55.0335 176 53.1182 177.059 52.0205 178.8L58.7881 183.066L65.5556 187.333C63.7255 190.236 60.5333 191.999 57.0981 192L57.0967 184ZM58.7881 183.066L52.02 178.801L56.6049 171.526L63.373 175.791L70.1412 180.056L65.5562 187.332L58.7881 183.066ZM63.373 175.791L56.6049 171.526C56.7871 171.237 56.9323 170.923 57.0358 170.595L64.666 172.999L72.2962 175.403C71.7809 177.039 71.0569 178.603 70.1412 180.056L63.373 175.791ZM64.666 172.999L57.0357 170.595L59.1285 163.952L66.7588 166.356L74.3891 168.76L72.2963 175.403L64.666 172.999ZM66.7588 166.356L59.1286 163.952C60.4423 159.783 64.3082 156.958 68.667 156.958V164.958V172.958C71.2797 172.958 73.6 171.265 74.389 168.761L66.7588 166.356ZM68.667 164.958V156.958H76.5332V164.958V172.958H68.667V164.958ZM76.5332 164.958V156.958C80.8972 156.958 84.758 159.788 86.0704 163.951L78.4404 166.356L70.8105 168.761C71.598 171.26 73.9151 172.958 76.5332 172.958V164.958ZM78.4404 166.356L86.0706 163.952L88.5374 171.781L80.9072 174.186L73.277 176.59L70.8102 168.761L78.4404 166.356ZM80.9072 174.186L88.5375 171.782C88.8408 172.744 88.9999 173.757 89 174.785L81 174.786L73 174.787C73.0001 175.408 73.0961 176.016 73.2769 176.589L80.9072 174.186ZM81 174.786H89V182H81H73V174.786H81ZM81 182L89 182C88.9999 178.686 86.3139 176 83 176V184V192C77.477 192 73.0001 187.523 73 182L81 182ZM83 184V176H101V184V192H83V184ZM101 184L101 176C97.6861 176 95.0001 178.686 95 182L103 182L111 182C111 187.523 106.523 192 101 192L101 184ZM103 182H95V175H103H111V182H103ZM103 175L95.0701 176.057L92.6131 157.625L100.543 156.568L108.473 155.511L110.93 173.943L103 175ZM100.543 156.568L96.4167 149.715C95.0041 150.565 94 152.149 94 154L102 154L110 154C110 158.034 107.825 161.522 104.669 163.422L100.543 156.568ZM102 154H94V126H102H110V154H102ZM102 126V118H142.5V126V134H102V126ZM142.5 126V118C143.881 118 145 116.881 145 115.5L153 115.5L161 115.5C161 125.717 152.717 134 142.5 134V126ZM153 115.5H145C145 114.119 143.881 113 142.5 113V105V97C152.717 97 161 105.283 161 115.5H153ZM142.5 105V113H142V105V97H142.5V105ZM142 105H134V104.5H142H150V105H142ZM142 104.5H134C134 107.538 136.462 110 139.5 110V102V94C145.299 94 150 98.701 150 104.5H142ZM139.5 102V110C142.538 110 145 107.538 145 104.5H137H129C129 98.701 133.701 94 139.5 94V102ZM137 104.5H145V105H137H129V104.5H137ZM137 105V113H101V105V97H137V105ZM101 105V97C107.323 97 112.607 92.4769 113.763 86.485L121.618 88L129.473 89.515C126.893 102.893 115.137 113 101 113V105ZM121.618 88V80H122V88V96H121.618V88ZM122 88V80C122.552 80 123 79.5523 123 79H131H139C139 88.3888 131.389 96 122 96V88ZM131 79H123C123 78.4674 122.58 78.0279 122.058 78.0015L122.463 70.0117L122.868 62.022C131.857 62.4774 139 69.902 139 79H131ZM122.463 70.0117L122.26 78.0092L121.798 77.9974L122 70L122.202 62.0026L122.665 62.0143L122.463 70.0117ZM122 70H114V66H122H130V70H122ZM122 66H114C114 52.1537 103.172 40.8315 89.5262 40.0454L89.9863 32.0586L90.4464 24.0718C112.507 25.3427 130 43.6245 130 66H122ZM89.9863 32.0586L81.9955 31.6764C81.9987 31.6086 82 31.5501 82 31.5H90H98C98 31.8244 97.9917 32.1384 97.9772 32.4408L89.9863 32.0586ZM90 31.5H82C82 29.567 80.433 28 78.5 28V20V12C89.2696 12 98 20.7304 98 31.5H90ZM78.5 20V28H67V20V12H78.5V20Z" fill="white" mask="url(#path-14-outside-1_26_38)"/>
</svg>
