<svg width="165" height="204" viewBox="0 0 165 204" fill="none" xmlns="http://www.w3.org/2000/svg">
    <path d="M101.5 105C95.701 105 91 109.701 91 115.5V148.5C91 154.299 95.701 159 101.5 159C107.299 159 112 154.299 112 148.5V148H112.5C113.881 148 115 146.881 115 145.5C115 144.119 113.881 143 112.5 143H112V115.5C112 109.701 107.299 105 101.5 105Z" fill="#F0997D"/>
    <path d="M102 107C102 105.895 101.105 105 100 105H44C42.8954 105 42 105.895 42 107V137H102V107Z" fill="#F0997D"/>
    <path d="M102 113C102 111.895 101.105 111 100 111H44C42.8954 111 42 111.895 42 113V137H102V113Z" fill="#FABC95"/>
    <path d="M100 147C100 145.895 99.1046 145 98 145H46C44.8954 145 44 145.895 44 147V182C44 183.105 44.8954 184 46 184H65.2C66.3046 184 67.2 183.105 67.2 182V166.958C67.2 165.853 68.0954 164.958 69.2 164.958H76C77.1046 164.958 78 165.853 78 166.958V182C78 183.105 78.8954 184 80 184H98C99.1046 184 100 183.105 100 182V147Z" fill="#F7F8AA"/>
    <path d="M102 137H42V154C42 155.657 43.3431 157 45 157H99C100.657 157 102 155.657 102 154V137Z" fill="#F7F8AA"/>
    <path d="M38.5 105C32.701 105 28 109.701 28 115.5V148.5C28 154.299 32.701 159 38.5 159C44.299 159 49 154.299 49 148.5V148H49.5C50.8807 148 52 146.881 52 145.5C52 144.119 50.8807 143 49.5 143H49V115.5C49 109.701 44.299 105 38.5 105Z" fill="#FABC95"/>
    <path d="M59 32C40.2223 32 25 47.2223 25 66V70H24.5C19.2533 70 15 74.2533 15 79.5C15 84.7467 19.2533 89 24.5 89H25.6006C27.8438 98.1838 36.1252 105 46 105H101C111.23 105 119.75 97.6848 121.618 88H122C126.971 88 131 83.9706 131 79C131 74.1847 127.218 70.2526 122.463 70.0117L122 70V66C122 47.2223 106.778 32 88 32H59Z" fill="#FABC95"/>
    <rect width="10" height="10" rx="5" transform="matrix(-1 0 0 1 104 70)" fill="#1E1E1E"/>
    <rect width="14" height="4" rx="2" transform="matrix(-1 0 0 1 88 85)" fill="#F0997D"/>
    <rect width="10" height="10" rx="5" transform="matrix(-1 0 0 1 67 70)" fill="#1E1E1E"/>
    <path d="M90 31.5C90 25.1487 84.8513 20 78.5 20H67C66.4477 20 66 20.4477 66 21V26.3672C66 26.9687 66.527 27.4403 67.1273 27.4032C70.1134 27.2188 78 27.2305 78 32.5C78 36.6129 74.0857 37.2308 72.1112 37.2808C71.5169 37.2959 71 37.7684 71 38.3629V42C71 42.5523 71.4477 43 72 43H78.5C84.8513 43 90 37.8513 90 31.5Z" fill="#1E1E1E"/>
    <mask id="path-12-outside-1_26_15" maskUnits="userSpaceOnUse" x="7" y="12" width="132" height="180" fill="black">
        <rect fill="white" x="7" y="12" width="132" height="180"/>
        <path d="M67 20C66.4477 20 66 20.4477 66 21V26.3672C66 26.9686 66.5268 27.4402 67.127 27.4033C70.0154 27.2249 77.4891 27.23 77.9746 32H59C40.2223 32 25 47.2223 25 66V70H24.5C19.2533 70 15 74.2533 15 79.5C15 84.7467 19.2533 89 24.5 89H25.6006C27.8438 98.1838 36.1252 105 46 105H44C43.363 105 42.7969 105.299 42.4307 105.763C41.2164 105.272 39.8901 105 38.5 105C32.701 105 28 109.701 28 115.5V148.5C28 154.299 32.701 159 38.5 159C40.5171 159 42.4002 158.429 44 157.443V182C44 183.105 44.8954 184 46 184H65.2002C66.3047 184 67.2002 183.105 67.2002 182V166.958C67.2002 165.853 68.0956 164.958 69.2002 164.958H76C77.1046 164.958 78 165.853 78 166.958V182C78 183.105 78.8954 184 80 184H98C99.1046 184 100 183.105 100 182V158.891C100.49 158.961 100.991 159 101.5 159C107.299 159 112 154.299 112 148.5V148H112.5C113.881 148 115 146.881 115 145.5C115 144.119 113.881 143 112.5 143H112V115.5C112 109.701 107.299 105 101.5 105C101.146 105 100.796 105.018 100.45 105.053C100.305 105.019 100.155 105 100 105H101C111.23 105 119.75 97.6848 121.618 88H122C126.971 88 131 83.9706 131 79C131 74.1847 127.218 70.2526 122.463 70.0117L122 70V66C122 47.8891 107.839 33.0871 89.9863 32.0586C89.9952 31.8735 90 31.6873 90 31.5C90 25.1487 84.8513 20 78.5 20H67Z"/>
    </mask>
    <path d="M67 20V12V12V20ZM66 21H58V21L66 21ZM67.127 27.4033L67.6201 35.3881L67.6171 35.3883L67.127 27.4033ZM77.9746 32L85.9335 31.1899L86.8302 40H77.9746V32ZM59 32V24V24V32ZM25 66H17V66H25ZM25 70H33V78H25V70ZM24.5 70V62V70ZM25.6006 89V81H31.8817L33.3721 87.1017L25.6006 89ZM44 105L44 97H44V105ZM42.4307 105.763L48.7096 110.72L44.9937 115.427L39.4336 113.18L42.4307 105.763ZM28 115.5H20H28ZM44 157.443L39.8027 150.633L52 143.116V157.443H44ZM65.2002 184L65.201 192H65.2002V184ZM76 164.958V156.958H76L76 164.958ZM80 184V192V192V184ZM100 158.891H92V149.665L101.133 150.971L100 158.891ZM112 148.5H120H112ZM112 148H104V140H112V148ZM112.5 148V156V156V148ZM112.5 143V135V135V143ZM112 143V151H104V143H112ZM100.45 105.053L101.241 113.014L99.9343 113.143L98.6551 112.849L100.45 105.053ZM101 105V113V113V105ZM121.618 88L113.763 86.485L115.014 80H121.618V88ZM131 79H139V79H131ZM122.463 70.0117L122.665 62.0143L122.767 62.0168L122.868 62.022L122.463 70.0117ZM122 70L121.798 77.9974L114 77.8V70H122ZM122 66H130V66H122ZM89.9863 32.0586L89.5262 40.0454L81.617 39.5897L81.9955 31.6764L89.9863 32.0586ZM67 20L67 28C70.866 28 74 24.866 74 21L66 21L58 21C58 16.0294 62.0294 12 67 12V20ZM66 21H74V26.3672H66H58V21H66ZM66 26.3672H74C74 22.1181 70.3966 19.1876 66.6368 19.4183L67.127 27.4033L67.6171 35.3883C62.657 35.6927 58 31.819 58 26.3672H66ZM67.127 27.4033L66.6339 19.4185C68.3098 19.315 71.8925 19.2059 75.4007 20.087C78.5562 20.8796 85.1534 23.5259 85.9335 31.1899L77.9746 32L70.0157 32.8101C70.0629 33.2738 70.2156 33.8151 70.5137 34.3454C70.804 34.862 71.1452 35.2144 71.4042 35.427C71.8438 35.788 72.0235 35.7358 71.5031 35.605C71.0471 35.4905 70.3983 35.4026 69.6142 35.3675C68.8564 35.3336 68.1426 35.3558 67.6201 35.3881L67.127 27.4033ZM77.9746 32V40H59V32V24H77.9746V32ZM59 32V40C44.6406 40 33 51.6406 33 66H25H17C17 42.804 35.804 24 59 24V32ZM25 66H33V70H25H17V66H25ZM25 70V78H24.5V70V62H25V70ZM24.5 70V78C23.6716 78 23 78.6716 23 79.5H15H7C7 69.835 14.835 62 24.5 62V70ZM15 79.5H23C23 80.3284 23.6716 81 24.5 81V89V97C14.835 97 7 89.165 7 79.5H15ZM24.5 89V81H25.6006V89V97H24.5V89ZM25.6006 89L33.3721 87.1017C34.7611 92.7883 39.8986 97 46 97V105V113C32.3518 113 20.9266 103.579 17.8291 90.8983L25.6006 89ZM46 105V113H44V105V97H46V105ZM44 105L44 113C45.9294 113 47.6334 112.083 48.7096 110.72L42.4307 105.763L36.1517 100.805C37.9604 98.5144 40.7967 97 44 97L44 105ZM42.4307 105.763L39.4336 113.18C39.1478 113.065 38.8376 113 38.5 113V105V97C40.9426 97 43.2849 97.4795 45.4277 98.3453L42.4307 105.763ZM38.5 105V113C37.1193 113 36 114.119 36 115.5H28H20C20 105.283 28.2827 97 38.5 97V105ZM28 115.5H36V148.5H28H20V115.5H28ZM28 148.5H36C36 149.881 37.1193 151 38.5 151V159V167C28.2827 167 20 158.717 20 148.5H28ZM38.5 159V151C38.9866 151 39.4231 150.867 39.8027 150.633L44 157.443L48.1973 164.254C45.3773 165.992 42.0476 167 38.5 167V159ZM44 157.443H52V182H44H36V157.443H44ZM44 182H52C52 178.686 49.3137 176 46 176V184V192C40.4771 192 36 187.523 36 182H44ZM46 184V176H65.2002V184V192H46V184ZM65.2002 184L65.1994 176C61.887 176 59.2002 178.685 59.2002 182H67.2002H75.2002C75.2002 187.524 70.7224 191.999 65.201 192L65.2002 184ZM67.2002 182H59.2002V166.958H67.2002H75.2002V182H67.2002ZM67.2002 166.958H59.2002C59.2002 161.435 63.6773 156.958 69.2002 156.958V164.958V172.958C72.5139 172.958 75.2002 170.272 75.2002 166.958H67.2002ZM69.2002 164.958V156.958H76V164.958V172.958H69.2002V164.958ZM76 164.958L76 156.958C81.5228 156.958 86 161.435 86 166.958H78H70C70 170.272 72.6863 172.958 76 172.958L76 164.958ZM78 166.958H86V182H78H70V166.958H78ZM78 182H86C86 178.686 83.3137 176 80 176V184V192C74.4772 192 70 187.523 70 182H78ZM80 184V176H98V184V192H80V184ZM98 184V176C94.6863 176 92 178.686 92 182H100H108C108 187.523 103.523 192 98 192V184ZM100 182H92V158.891H100H108V182H100ZM100 158.891L101.133 150.971C101.281 150.992 101.402 151 101.5 151V159V167C100.579 167 99.6987 166.929 98.8669 166.81L100 158.891ZM101.5 159V151C102.881 151 104 149.881 104 148.5H112H120C120 158.717 111.717 167 101.5 167V159ZM112 148.5H104V148H112H120V148.5H112ZM112 148V140H112.5V148V156H112V148ZM112.5 148V140C109.462 140 107 142.462 107 145.5H115H123C123 151.299 118.299 156 112.5 156V148ZM115 145.5H107C107 148.538 109.462 151 112.5 151V143V135C118.299 135 123 139.701 123 145.5H115ZM112.5 143V151H112V143V135H112.5V143ZM112 143H104V115.5H112H120V143H112ZM112 115.5H104C104 114.119 102.881 113 101.5 113V105V97C111.717 97 120 105.283 120 115.5H112ZM101.5 105V113C101.424 113 101.338 113.004 101.241 113.014L100.45 105.053L99.6599 97.0919C100.253 97.0329 100.868 97 101.5 97V105ZM100.45 105.053L98.6551 112.849C99.0307 112.935 99.4845 113 100 113V105V97C100.825 97 101.58 97.1035 102.245 97.2567L100.45 105.053ZM100 105V97H101V105V113H100V105ZM101 105V97C107.323 97 112.607 92.4769 113.763 86.485L121.618 88L129.473 89.515C126.893 102.893 115.137 113 101 113V105ZM121.618 88V80H122V88V96H121.618V88ZM122 88V80C122.552 80 123 79.5523 123 79H131H139C139 88.3888 131.389 96 122 96V88ZM131 79H123C123 78.4674 122.58 78.0279 122.058 78.0015L122.463 70.0117L122.868 62.022C131.857 62.4774 139 69.902 139 79H131ZM122.463 70.0117L122.26 78.0092L121.798 77.9974L122 70L122.202 62.0026L122.665 62.0143L122.463 70.0117ZM122 70H114V66H122H130V70H122ZM122 66H114C114 52.1537 103.172 40.8315 89.5262 40.0454L89.9863 32.0586L90.4464 24.0718C112.507 25.3427 130 43.6245 130 66H122ZM89.9863 32.0586L81.9955 31.6764C81.9987 31.6086 82 31.5501 82 31.5H90H98C98 31.8244 97.9917 32.1384 97.9772 32.4408L89.9863 32.0586ZM90 31.5H82C82 29.567 80.433 28 78.5 28V20V12C89.2696 12 98 20.7304 98 31.5H90ZM78.5 20V28H67V20V12H78.5V20Z" fill="white" mask="url(#path-12-outside-1_26_15)"/>
</svg>
