<svg width="320" height="260" viewBox="0 0 320 260" fill="none" xmlns="http://www.w3.org/2000/svg">
    <path d="M154.762 153.38C161.507 150.922 168.976 154.395 171.444 161.137L182.104 190.269L182.107 190.268C184.703 189.323 187.576 190.659 188.526 193.253C189.475 195.848 188.141 198.718 185.545 199.664L185.417 199.711C187.018 206.942 183.056 214.413 175.905 217.019C168.114 219.858 159.487 215.847 156.638 208.059L139.449 161.088C139.069 160.051 139.603 158.903 140.641 158.525L154.762 153.38Z" fill="#F0997D"/>
    <path d="M187.74 191.481L191.246 203.065C191.246 203.065 204.074 201.561 213.711 201.569C221.696 201.575 259.505 192.423 285.57 185.28C293.046 183.231 297.354 175.518 295.34 168.035C293.259 160.307 285.25 155.773 277.574 158.045C251.749 165.686 215.328 177.045 207.015 181.872C197.03 187.67 190.005 190.694 187.74 191.481Z" fill="#B1854A"/>
    <rect width="13.2545" height="34.3225" rx="2" transform="matrix(-0.288509 -0.957394 -0.957925 0.287297 192.193 203.578)" fill="#4F331D"/>
    <rect width="17.9325" height="7.80057" rx="3.90028" transform="matrix(-0.288509 -0.957394 -0.957925 0.287297 160.737 215.454)" fill="#B1854A"/>
    <path d="M157.608 210.71C155.294 204.387 158.547 197.392 164.873 195.086L170.177 193.154C176.504 190.848 183.508 194.106 185.822 200.429C188.136 206.753 184.884 213.748 178.557 216.053L173.253 217.986C166.926 220.291 159.922 217.034 157.608 210.71Z" fill="#FABC95"/>
    <path d="M151.066 195.587C150.883 194.661 150.079 193.989 149.135 193.974L89.0542 193.022C88.2167 193.009 87.4597 193.519 87.1574 194.3L77.6921 218.75C76.6662 221.4 75.2285 223.871 73.432 226.073L63.6152 238.103C62.0163 240.063 63.4105 243 65.9396 243H92.0958C93.7116 243 95.2278 242.219 96.1662 240.903L104.953 228.586C106.764 226.048 108.121 223.215 108.965 220.213L111.286 211.959C111.528 211.096 112.315 210.5 113.211 210.5H121.385C122.189 210.5 122.915 210.982 123.228 211.723L128.519 224.271C128.651 224.585 128.701 224.928 128.664 225.266L126.961 240.782C126.831 241.965 127.758 243 128.949 243H152.964C153.985 243 154.842 242.23 154.952 241.215L156.729 224.803C156.751 224.602 156.742 224.399 156.703 224.201L151.066 195.587Z" fill="#00549C"/>
    <rect x="86.6594" y="198" width="70.1026" height="6" fill="#1E1E1E"/>
    <rect x="117.705" y="198" width="14.0205" height="6" fill="#FBCF4E"/>
    <path d="M157.906 150H79.7912V197C79.7912 198.104 80.6866 199 81.7912 199H155.906C157.01 199 157.906 198.104 157.906 197V150Z" fill="#D9D9D9"/>
    <path d="M157.906 158H79.7912V197C79.7912 198.104 80.6866 199 81.7912 199H155.906C157.01 199 157.906 198.104 157.906 197V158Z" fill="white"/>
    <g opacity="0.35">
        <rect x="99.6785" y="158" width="4.00587" height="41" fill="#503CE7"/>
        <rect x="87.6609" y="158" width="4.00587" height="41" fill="#503CE7"/>
        <rect x="99.6785" y="150" width="4.00587" height="8" fill="#4336A5"/>
        <rect x="87.6609" y="150" width="4.00587" height="8" fill="#4336A5"/>
        <rect x="111.696" y="158" width="4.00587" height="41" fill="#503CE7"/>
        <rect x="111.696" y="150" width="4.00587" height="8" fill="#4336A5"/>
        <rect x="123.714" y="158" width="4.00587" height="41" fill="#503CE7"/>
        <rect x="123.714" y="150" width="4.00587" height="8" fill="#4336A5"/>
        <rect x="147.749" y="158" width="4.00587" height="41" fill="#503CE7"/>
        <rect x="147.749" y="150" width="4.00587" height="8" fill="#4336A5"/>
        <rect x="135.731" y="158" width="4.00587" height="41" fill="#503CE7"/>
        <rect x="135.731" y="150" width="4.00587" height="8" fill="#4336A5"/>
    </g>
    <path d="M92.6345 163C92.6345 155.82 86.8142 150 79.6345 150H75.5905C68.4108 150 62.5905 155.82 62.5905 163V191.978C62.5905 200.274 69.3161 207 77.6125 207C85.9089 207 92.6345 200.274 92.6345 191.978V163Z" fill="#F0997D"/>
    <path d="M69.7468 202.922C76.0156 208.348 85.5041 207.671 90.9396 201.411L104.091 186.262C109.526 180.001 108.85 170.526 102.582 165.1C96.8266 160.119 88.3593 160.281 82.8043 165.185L82.7024 165.097C80.6133 163.289 77.4514 163.514 75.64 165.6C73.8287 167.687 74.0539 170.844 76.1429 172.652L76.1437 172.653L68.2378 181.76C62.8026 188.021 63.4782 197.495 69.7468 202.922Z" fill="#FABC95"/>
    <path d="M75.7732 86.8188C71.3549 86.8188 67.7732 90.4006 67.7732 94.8188V106.5C63.1067 108.145 59.7615 112.59 59.7615 117.819C59.7615 123.394 63.5633 128.079 68.7156 129.427C72.1076 142.869 84.2777 152.819 98.7732 152.819H164.961C182.082 152.819 195.961 138.94 195.961 121.819V94.8188C195.961 90.4006 192.379 86.8188 187.961 86.8188H75.7732Z" fill="#F0997D"/>
    <path d="M195.961 87.8188C195.961 87.2666 195.513 86.8188 194.961 86.8188H89.8038C89.2515 86.8188 88.8038 87.2666 88.8038 87.8188C88.8038 88.3711 89.2515 88.8188 89.8038 88.8188H91.8082C93.4675 88.8188 94.8126 90.164 94.8126 91.8232V121.819C94.8126 138.94 108.692 152.819 125.813 152.819H164.961C182.082 152.819 195.961 138.94 195.961 121.819V87.8188Z" fill="#FABC95"/>
    <rect width="15.022" height="15" rx="7.5" transform="matrix(-1 0 0 1 180.939 108.819)" fill="#1E1E1E"/>
    <rect width="17.0249" height="5" rx="2.5" transform="matrix(-1 0 0 1 157.905 126.819)" fill="#F0997D"/>
    <rect width="15.022" height="15" rx="7.5" transform="matrix(-1 0 0 1 131.867 108.819)" fill="#1E1E1E"/>
    <path d="M195.961 79.8913C195.961 72.4955 189.965 66.5 182.569 66.5H91.7671C76.3032 66.5 63.7671 79.036 63.7671 94.5V120.819C63.7671 125.789 67.7966 129.819 72.7671 129.819H85.306C88.0674 129.819 90.306 127.58 90.306 124.819V93.8189C90.306 91.0575 92.5446 88.8189 95.306 88.8189H116.594C116.594 88.8189 164.656 88.8189 187.055 88.8189C191.986 88.8189 195.961 84.8219 195.961 79.8913Z" fill="#34231C"/>
    <path d="M53.7524 100C41.911 107.1 32.5799 102.071 32.5799 102.071C32.5799 102.071 34.2064 91.1273 45.3589 85.5429C56.5114 79.9585 68.1133 83.5419 68.1133 83.5419C68.1133 83.5419 64.6736 93.452 53.7524 100Z" fill="#503CE7"/>
    <path d="M78.7891 110.819C78.7891 108.057 76.5505 105.819 73.7891 105.819H70.7597C64.1323 105.819 58.7597 111.191 58.7597 117.819C58.7597 124.446 64.1323 129.819 70.7597 129.819H78.7891V110.819Z" fill="#F0997D"/>
    <path d="M45.24 83C34.3629 74.5 35.726 64 35.726 64C35.726 64 46.5419 61.6 55.7554 70C64.9688 78.4 65.77 90.5 65.77 90.5C65.77 90.5 55.2718 90.8395 45.24 83Z" fill="#4336A5"/>
    <path d="M63.7672 81V99H195.961V81C195.961 63.3269 181.634 49 163.961 49H95.7671C78.094 49 63.7672 63.3269 63.7672 81Z" fill="#503CE7"/>
    <ellipse cx="82.6531" cy="85" rx="10.0147" ry="10" fill="#4336A5"/>
    <ellipse cx="114.7" cy="85" rx="10.0147" ry="10" fill="#4336A5"/>
    <ellipse cx="146.747" cy="85" rx="10.0147" ry="10" fill="#4336A5"/>
    <ellipse cx="178.794" cy="85" rx="10.0147" ry="10" fill="#4336A5"/>
    <mask id="path-39-outside-1_42_350" maskUnits="userSpaceOnUse" x="23.8345" y="41" width="280" height="210" fill="black">
        <rect fill="white" x="23.8345" y="41" width="280" height="210"/>
        <path d="M95.7671 49C78.094 49 63.7671 63.3269 63.7671 81V82.1289C62.3334 78.2944 59.8943 73.7735 55.7554 70C46.5419 61.6 35.7261 64 35.7261 64C35.7235 64.02 34.3732 74.5081 45.2397 83C45.9773 83.5763 46.7183 84.1073 47.4565 84.5986C46.7576 84.8796 46.0573 85.1933 45.3589 85.543C34.2065 91.1274 32.5796 102.071 32.5796 102.071C32.5796 102.071 41.9111 107.1 53.7524 100C58.282 97.2842 61.5231 93.989 63.7671 91.0635V108.069C60.7358 110.247 58.7603 113.802 58.7603 117.819C58.7605 123.771 63.0928 128.709 68.7759 129.654C71.1357 138.714 77.4887 146.16 85.8442 150H79.7915V150.001C79.7392 150 79.6867 150 79.6343 150H75.5903C68.4107 150 62.5903 155.82 62.5903 163V191.978C62.5903 200.274 69.3164 207 77.6128 207C79.0267 207 80.3948 206.804 81.6919 206.438C81.9668 206.4 82.2406 206.353 82.5132 206.299L77.6919 218.75C76.6661 221.4 75.2286 223.872 73.4321 226.073L63.6147 238.104C62.0164 240.063 63.4111 243 65.9399 243H92.0962C93.7119 243 95.2282 242.219 96.1665 240.903L104.953 228.586C106.763 226.047 108.121 223.215 108.965 220.213L111.286 211.959C111.528 211.096 112.315 210.5 113.211 210.5H121.384C122.188 210.5 122.914 210.982 123.227 211.723L128.519 224.271C128.651 224.585 128.701 224.928 128.664 225.267L126.961 240.781C126.832 241.965 127.758 243 128.949 243H152.963C153.985 243 154.842 242.23 154.952 241.215L156.729 224.803C156.751 224.602 156.742 224.399 156.703 224.201L155.301 217.084L160.737 215.454L160.728 215.423C163.981 218.464 168.785 219.613 173.253 217.985L175.883 217.026C175.89 217.024 175.898 217.022 175.905 217.02C175.912 217.017 175.92 217.013 175.927 217.011L178.557 216.053C183.283 214.33 186.293 209.991 186.549 205.27L192.193 203.578L192.013 202.98C194.915 202.661 205.478 201.561 213.711 201.568C221.697 201.575 259.505 192.423 285.57 185.28C293.046 183.231 297.354 175.517 295.339 168.034C293.258 160.307 285.25 155.773 277.574 158.045C251.75 165.687 215.329 177.045 207.015 181.872C197.93 187.147 191.294 190.124 188.466 191.211L188.369 190.889L187.169 191.248C185.837 190.053 183.905 189.614 182.107 190.269L182.104 190.27L171.444 161.138C169.811 156.677 165.989 153.647 161.635 152.819H164.96C182.081 152.819 195.96 138.94 195.96 121.819V81C195.96 80.7467 195.958 80.4941 195.952 80.2422C195.956 80.1259 195.96 80.009 195.96 79.8916C195.96 79.1981 195.908 78.5167 195.806 77.8516C194.224 61.6563 180.571 49 163.96 49H95.7671Z"/>
    </mask>
    <path d="M95.7671 49L95.7671 41H95.7671V49ZM63.7671 82.1289H71.7671L56.2737 84.9306L63.7671 82.1289ZM55.7554 70L61.1452 64.0882V64.0882L55.7554 70ZM35.7261 64L27.7921 62.9743L28.5119 57.4062L33.993 56.19L35.7261 64ZM45.2397 83L40.3138 89.3035L40.3137 89.3035L45.2397 83ZM47.4565 84.5986L51.889 77.9388L64.5358 86.3559L50.44 92.0215L47.4565 84.5986ZM45.3589 85.543L41.777 78.3897L41.777 78.3896L45.3589 85.543ZM32.5796 102.071L28.7846 109.114L23.8408 106.45L24.6665 100.895L32.5796 102.071ZM53.7524 100L57.8662 106.861V106.861L53.7524 100ZM63.7671 91.0635L57.4194 86.1945L71.7671 67.4895V91.0635H63.7671ZM63.7671 108.069H71.7671V112.172L68.4351 114.566L63.7671 108.069ZM58.7603 117.819L50.7603 117.82V117.819H58.7603ZM68.7759 129.654L70.0889 121.763L75.2092 122.615L76.5176 127.638L68.7759 129.654ZM85.8442 150L89.185 142.731L85.8442 158V150ZM79.7915 150H71.7915V142H79.7915V150ZM79.7915 150.001H87.7915V158.096L79.6968 158L79.7915 150.001ZM75.5903 150L75.5903 142H75.5903V150ZM77.6128 207L77.613 215H77.6128V207ZM81.6919 206.438L79.5239 198.738L80.042 198.592L80.5751 198.517L81.6919 206.438ZM82.5132 206.299L80.9618 198.451L95.2225 195.632L89.9734 209.188L82.5132 206.299ZM77.6919 218.75L70.2314 215.862L70.2316 215.861L77.6919 218.75ZM73.4321 226.073L79.6304 231.131L79.6302 231.131L73.4321 226.073ZM63.6147 238.104L57.4156 233.047L57.4166 233.046L63.6147 238.104ZM92.0962 243L92.0968 251H92.0962V243ZM96.1665 240.903L102.679 245.549L102.679 245.549L96.1665 240.903ZM104.953 228.586L98.4398 223.94L98.4399 223.94L104.953 228.586ZM108.965 220.213L101.264 218.048V218.048L108.965 220.213ZM111.286 211.959L118.987 214.124V214.124L111.286 211.959ZM123.227 211.723L130.598 208.613L130.598 208.614L123.227 211.723ZM128.519 224.271L135.89 221.163L135.891 221.165L128.519 224.271ZM128.664 225.267L120.711 224.394L120.711 224.394L128.664 225.267ZM126.961 240.781L134.914 241.654L134.914 241.654L126.961 240.781ZM128.949 243V251H128.947L128.949 243ZM154.952 241.215L146.998 240.354L146.998 240.354L154.952 241.215ZM156.729 224.803L164.683 225.664L164.682 225.664L156.729 224.803ZM156.703 224.201L164.552 222.656L164.552 222.656L156.703 224.201ZM155.301 217.084L147.452 218.63L146.049 211.506L153.003 209.421L155.301 217.084ZM160.737 215.454L168.438 213.288L170.567 220.858L163.035 223.117L160.737 215.454ZM160.728 215.423L153.027 217.589L145.274 190.024L166.191 209.579L160.728 215.423ZM173.253 217.985L175.994 225.501L175.992 225.502L173.253 217.985ZM175.883 217.026L173.143 209.51L173.156 209.506L175.883 217.026ZM175.905 217.02L178.644 224.536L178.644 224.536L175.905 217.02ZM175.927 217.011L173.177 209.498L173.189 209.494L175.927 217.011ZM178.557 216.053L181.296 223.569L181.295 223.57L178.557 216.053ZM186.549 205.27L178.561 204.837L178.865 199.221L184.253 197.606L186.549 205.27ZM192.193 203.578L199.854 201.275L202.159 208.943L194.49 211.241L192.193 203.578ZM192.013 202.98L184.352 205.284L181.585 196.081L191.137 195.029L192.013 202.98ZM213.711 201.568L213.705 209.568H213.705L213.711 201.568ZM285.57 185.28L287.684 192.996L287.684 192.996L285.57 185.28ZM295.339 168.034L303.064 165.954L303.064 165.954L295.339 168.034ZM277.574 158.045L275.304 150.374L275.304 150.374L277.574 158.045ZM207.015 181.872L202.998 174.954L202.998 174.954L207.015 181.872ZM188.466 191.211L191.336 198.678L183.305 201.765L180.81 193.531L188.466 191.211ZM188.369 190.889L186.072 183.225L193.712 180.936L196.025 188.569L188.369 190.889ZM187.169 191.248L189.466 198.911L185.17 200.199L181.83 197.205L187.169 191.248ZM182.107 190.269L184.845 197.785L184.741 197.823L184.637 197.858L182.107 190.269ZM182.104 190.27L184.634 197.859L177.262 200.316L174.591 193.019L182.104 190.27ZM171.444 161.138L178.957 158.388L178.957 158.389L171.444 161.138ZM161.635 152.819L160.141 160.679L161.635 144.819V152.819ZM195.96 121.819H203.96V121.819L195.96 121.819ZM195.952 80.2422L187.954 80.4281L187.948 80.1814L187.958 79.9349L195.952 80.2422ZM195.96 79.8916H203.96V79.8918L195.96 79.8916ZM195.806 77.8516L187.898 79.0602L187.865 78.8454L187.844 78.6292L195.806 77.8516ZM95.7671 49L95.7671 57C82.5123 57 71.7671 67.7452 71.7671 81H63.7671H55.7671C55.7671 58.9086 73.6757 41 95.7671 41L95.7671 49ZM63.7671 81H71.7671V82.1289H63.7671H55.7671V81H63.7671ZM63.7671 82.1289L56.2737 84.9306C55.1441 81.9093 53.3092 78.5956 50.3655 75.9118L55.7554 70L61.1452 64.0882C66.4794 68.9514 69.5228 74.6795 71.2605 79.3272L63.7671 82.1289ZM55.7554 70L50.3655 75.9118C47.2719 73.0914 43.963 72.1001 41.3583 71.7961C40.0427 71.6425 38.9385 71.6708 38.2056 71.7302C37.8429 71.7595 37.5833 71.7955 37.4487 71.8166C37.3817 71.8271 37.3471 71.8337 37.3476 71.8336C37.3479 71.8336 37.3571 71.8318 37.3755 71.828C37.3847 71.8261 37.3962 71.8237 37.4102 71.8207C37.4171 71.8192 37.4247 71.8176 37.4328 71.8158C37.4369 71.8149 37.4411 71.814 37.4455 71.813C37.4477 71.8126 37.4511 71.8118 37.4522 71.8116C37.4556 71.8108 37.4591 71.81 35.7261 64C33.993 56.19 33.9966 56.1892 34.0002 56.1884C34.0015 56.1881 34.0051 56.1873 34.0076 56.1867C34.0127 56.1856 34.0179 56.1845 34.0233 56.1833C34.0341 56.181 34.0455 56.1785 34.0577 56.1759C34.0821 56.1706 34.1093 56.1649 34.1393 56.1587C34.1992 56.1463 34.2702 56.1321 34.352 56.1166C34.5154 56.0854 34.7221 56.0487 34.969 56.0099C35.4618 55.9326 36.1192 55.8467 36.9144 55.7823C38.4974 55.6542 40.673 55.6075 43.2131 55.9039C48.3196 56.4999 55.0253 58.5086 61.1452 64.0882L55.7554 70ZM35.7261 64L43.66 65.0257C43.8127 63.8448 42.5574 70.7507 50.1658 76.6965L45.2397 83L40.3137 89.3035C26.1891 78.2655 27.6343 64.1951 27.7921 62.9743L35.7261 64ZM45.2397 83L50.1657 76.6965C50.7328 77.1396 51.3083 77.5523 51.889 77.9388L47.4565 84.5986L43.0241 91.2584C42.1284 90.6623 41.2217 90.0131 40.3138 89.3035L45.2397 83ZM47.4565 84.5986L50.44 92.0215C49.9375 92.2235 49.4372 92.4477 48.9408 92.6963L45.3589 85.543L41.777 78.3896C42.6774 77.9388 43.5776 77.5357 44.473 77.1758L47.4565 84.5986ZM45.3589 85.543L48.9408 92.6963C45.1951 94.5719 43.0861 97.3014 41.872 99.6166C41.2586 100.786 40.8905 101.824 40.6842 102.527C40.5821 102.875 40.523 103.129 40.4947 103.262C40.4806 103.327 40.4745 103.362 40.4746 103.361C40.4747 103.361 40.4764 103.351 40.4795 103.332C40.481 103.323 40.4829 103.311 40.4851 103.297C40.4862 103.29 40.4874 103.283 40.4886 103.274C40.4892 103.27 40.4899 103.266 40.4906 103.261C40.4909 103.259 40.4914 103.256 40.4916 103.255C40.4921 103.251 40.4926 103.248 32.5796 102.071C24.6665 100.895 24.6671 100.891 24.6676 100.888C24.6678 100.886 24.6684 100.883 24.6688 100.88C24.6695 100.875 24.6703 100.87 24.6712 100.864C24.6728 100.853 24.6746 100.842 24.6765 100.829C24.6804 100.805 24.6848 100.777 24.6897 100.747C24.6996 100.687 24.7118 100.615 24.7265 100.533C24.756 100.369 24.7957 100.163 24.8479 99.9186C24.9521 99.4306 25.1072 98.7862 25.3319 98.0208C25.7791 96.4973 26.5148 94.4502 27.7021 92.186C30.0896 87.6331 34.3703 82.0985 41.777 78.3897L45.3589 85.543ZM32.5796 102.071C36.3746 95.0287 36.3708 95.0266 36.367 95.0246C36.3658 95.024 36.362 95.0219 36.3596 95.0206C36.3547 95.018 36.3499 95.0155 36.3453 95.013C36.336 95.0081 36.3273 95.0034 36.319 94.9991C36.3025 94.9903 36.2879 94.9827 36.2753 94.9762C36.2501 94.9632 36.2327 94.9545 36.2228 94.9497C36.2031 94.94 36.2133 94.9454 36.2516 94.9625C36.329 94.9968 36.5154 95.0758 36.7987 95.1721C37.3697 95.3664 38.2981 95.6191 39.4974 95.7354C41.8028 95.9588 45.3477 95.7115 49.6387 93.1387L53.7524 100L57.8662 106.861C50.3158 111.388 43.2743 112.176 37.9536 111.661C35.3398 111.407 33.1953 110.847 31.6466 110.32C30.87 110.056 30.235 109.797 29.7557 109.584C29.5158 109.478 29.3139 109.382 29.1517 109.302C29.0706 109.262 28.9994 109.226 28.9381 109.195C28.9075 109.179 28.8794 109.164 28.8538 109.151C28.841 109.144 28.8288 109.138 28.8173 109.131C28.8115 109.128 28.8059 109.125 28.8005 109.122C28.7977 109.121 28.7938 109.119 28.7924 109.118C28.7885 109.116 28.7846 109.114 32.5796 102.071ZM53.7524 100L49.6387 93.1387C53.154 91.0311 55.671 88.4739 57.4194 86.1945L63.7671 91.0635L70.1148 95.9325C67.3751 99.5041 63.41 103.537 57.8662 106.861L53.7524 100ZM63.7671 91.0635H71.7671V108.069H63.7671H55.7671V91.0635H63.7671ZM63.7671 108.069L68.4351 114.566C67.403 115.308 66.7603 116.489 66.7603 117.819H58.7603H50.7603C50.7603 111.114 54.0686 105.187 59.099 101.572L63.7671 108.069ZM58.7603 117.819L66.7603 117.819C66.7603 119.794 68.1999 121.448 70.0889 121.763L68.7759 129.654L67.4628 137.546C57.9857 135.969 50.7607 127.747 50.7603 117.82L58.7603 117.819ZM68.7759 129.654L76.5176 127.638C78.264 134.342 82.9792 139.879 89.185 142.731L85.8442 150L82.5034 157.269C71.9982 152.441 64.0074 143.085 61.0342 131.671L68.7759 129.654ZM85.8442 150V158H79.7915V150V142H85.8442V150ZM79.7915 150H87.7915V150.001H79.7915H71.7915V150H79.7915ZM79.7915 150.001L79.6968 158C79.6712 158 79.6507 158 79.6343 158V150V142C79.7228 142 79.8072 142.001 79.8862 142.002L79.7915 150.001ZM79.6343 150V158H75.5903V150V142H79.6343V150ZM75.5903 150L75.5904 158C72.8289 158 70.5903 160.239 70.5903 163H62.5903H54.5903C54.5903 151.402 63.9924 142 75.5903 142L75.5903 150ZM62.5903 163H70.5903V191.978H62.5903H54.5903V163H62.5903ZM62.5903 191.978H70.5903C70.5903 195.856 73.7346 199 77.6128 199V207V215C64.8981 215 54.5903 204.692 54.5903 191.978H62.5903ZM77.6128 207L77.6126 199C78.2828 199 78.9218 198.907 79.5239 198.738L81.6919 206.438L83.8599 214.139C81.8678 214.7 79.7706 215 77.613 215L77.6128 207ZM81.6919 206.438L80.5751 198.517C80.6919 198.5 80.8203 198.479 80.9618 198.451L82.5132 206.299L84.0646 214.147C83.6608 214.227 83.2417 214.299 82.8087 214.36L81.6919 206.438ZM82.5132 206.299L89.9734 209.188L85.1521 221.639L77.6919 218.75L70.2316 215.861L75.0529 203.41L82.5132 206.299ZM77.6919 218.75L85.1524 221.638C83.8229 225.072 81.9597 228.277 79.6304 231.131L73.4321 226.073L67.2339 221.015C68.4975 219.467 69.5092 217.727 70.2314 215.862L77.6919 218.75ZM73.4321 226.073L79.6302 231.131L69.8129 243.162L63.6147 238.104L57.4166 233.046L67.234 221.015L73.4321 226.073ZM63.6147 238.104L69.8139 243.16C72.4791 239.893 70.1529 235 65.9399 235V243V251C56.6693 251 51.5537 240.233 57.4156 233.047L63.6147 238.104ZM65.9399 243V235H92.0962V243V251H65.9399V243ZM92.0962 243L92.0955 235C91.1253 235 90.2163 235.469 89.6538 236.257L96.1665 240.903L102.679 245.549C100.24 248.968 96.2985 251 92.0968 251L92.0962 243ZM96.1665 240.903L89.6536 236.258L98.4398 223.94L104.953 228.586L111.465 233.232L102.679 245.549L96.1665 240.903ZM104.953 228.586L98.4399 223.94C99.7148 222.153 100.67 220.159 101.264 218.048L108.965 220.213L116.667 222.378C115.573 226.27 113.812 229.942 111.465 233.232L104.953 228.586ZM108.965 220.213L101.264 218.048L103.584 209.794L111.286 211.959L118.987 214.124L116.667 222.378L108.965 220.213ZM111.286 211.959L103.584 209.794C104.797 205.48 108.731 202.5 113.211 202.5V210.5V218.5C115.899 218.5 118.259 216.712 118.987 214.124L111.286 211.959ZM113.211 210.5V202.5H121.384V210.5V218.5H113.211V210.5ZM121.384 210.5V202.5C125.405 202.5 129.035 204.908 130.598 208.613L123.227 211.723L115.856 214.832C116.794 217.055 118.972 218.5 121.384 218.5V210.5ZM123.227 211.723L130.598 208.614L135.89 221.163L128.519 224.271L121.148 227.38L115.856 214.831L123.227 211.723ZM128.519 224.271L135.891 221.165C136.556 222.742 136.801 224.455 136.616 226.139L128.664 225.267L120.711 224.394C120.601 225.401 120.747 226.429 121.147 227.378L128.519 224.271ZM128.664 225.267L136.616 226.139L134.914 241.654L126.961 240.781L119.009 239.909L120.711 224.394L128.664 225.267ZM126.961 240.781L134.914 241.654C135.303 238.107 132.527 235.001 128.951 235L128.949 243L128.947 251C122.989 250.999 118.36 245.823 119.009 239.908L126.961 240.781ZM128.949 243V235H152.963V243V251H128.949V243ZM152.963 243V235C149.897 235 147.328 237.311 146.998 240.354L154.952 241.215L162.905 242.076C162.356 247.15 158.073 251 152.963 251V243ZM154.952 241.215L146.998 240.354L148.776 223.941L156.729 224.803L164.682 225.664L162.905 242.076L154.952 241.215ZM156.729 224.803L148.775 223.942C148.709 224.552 148.738 225.161 148.853 225.747L156.703 224.201L164.552 222.656C164.745 223.638 164.792 224.652 164.683 225.664L156.729 224.803ZM156.703 224.201L148.853 225.747L147.452 218.63L155.301 217.084L163.151 215.538L164.552 222.656L156.703 224.201ZM155.301 217.084L153.003 209.421L158.439 207.791L160.737 215.454L163.035 223.117L157.599 224.747L155.301 217.084ZM160.737 215.454L153.036 217.62L153.027 217.589L160.728 215.423L168.429 213.257L168.438 213.288L160.737 215.454ZM160.728 215.423L166.191 209.579C167.334 210.647 168.992 211.024 170.515 210.469L173.253 217.985L175.992 225.502C168.579 228.203 160.628 226.281 155.265 221.267L160.728 215.423ZM173.253 217.985L170.513 210.469L173.143 209.51L175.883 217.026L178.624 224.542L175.994 225.501L173.253 217.985ZM175.883 217.026L173.156 209.506C173.232 209.478 173.301 209.454 173.358 209.435C173.416 209.416 173.466 209.4 173.505 209.388C173.524 209.382 173.541 209.377 173.556 209.372C173.571 209.368 173.583 209.364 173.593 209.361C173.603 209.358 173.611 209.356 173.615 209.354C173.618 209.354 173.62 209.353 173.621 209.353C173.622 209.352 173.622 209.352 173.623 209.352C173.623 209.352 173.623 209.352 173.623 209.352C173.623 209.352 173.623 209.352 173.623 209.352C173.623 209.352 173.623 209.352 173.623 209.352C173.624 209.352 173.621 209.353 173.617 209.354C173.612 209.355 173.605 209.357 173.596 209.36C173.586 209.363 173.574 209.367 173.56 209.371C173.546 209.375 173.529 209.381 173.51 209.387C173.472 209.398 173.423 209.414 173.366 209.433C173.309 209.452 173.242 209.475 173.166 209.503L175.905 217.02L178.644 224.536C178.566 224.564 178.497 224.588 178.438 224.608C178.379 224.627 178.329 224.644 178.289 224.656C178.25 224.668 178.218 224.678 178.198 224.684C178.188 224.687 178.179 224.69 178.174 224.691C178.169 224.693 178.165 224.694 178.165 224.694C178.163 224.694 178.166 224.693 178.17 224.692C178.174 224.691 178.181 224.689 178.19 224.687C178.207 224.681 178.236 224.672 178.273 224.661C178.31 224.65 178.358 224.634 178.414 224.616C178.47 224.597 178.536 224.574 178.611 224.547L175.883 217.026ZM175.905 217.02L173.166 209.503C173.123 209.519 173.086 209.533 173.055 209.544C173.024 209.556 172.997 209.567 172.977 209.575C172.957 209.582 172.941 209.589 172.932 209.593C172.927 209.595 172.923 209.596 172.921 209.597C172.919 209.598 172.917 209.598 172.918 209.598C172.918 209.598 172.918 209.598 172.918 209.598C172.918 209.598 172.918 209.598 172.918 209.598C172.918 209.598 172.919 209.598 172.919 209.598C172.92 209.597 172.921 209.597 172.922 209.596C172.925 209.595 172.929 209.594 172.935 209.591C172.945 209.587 172.962 209.581 172.983 209.572C173.004 209.564 173.031 209.553 173.063 209.541C173.095 209.529 173.133 209.514 173.177 209.498L175.927 217.011L178.678 224.523C178.719 224.508 178.756 224.494 178.786 224.482C178.816 224.471 178.841 224.461 178.861 224.453C178.88 224.446 178.895 224.44 178.903 224.437C178.907 224.435 178.911 224.433 178.913 224.433C178.914 224.432 178.915 224.432 178.914 224.432C178.914 224.432 178.905 224.436 178.895 224.44C178.883 224.445 178.865 224.452 178.844 224.46C178.822 224.469 178.793 224.48 178.76 224.493C178.728 224.505 178.688 224.52 178.644 224.536L175.905 217.02ZM175.927 217.011L173.189 209.494L175.819 208.536L178.557 216.053L181.295 223.57L178.665 224.528L175.927 217.011ZM178.557 216.053L175.818 208.536C177.429 207.949 178.472 206.472 178.561 204.837L186.549 205.27L194.538 205.703C194.114 213.51 189.138 220.712 181.296 223.569L178.557 216.053ZM186.549 205.27L184.253 197.606L189.896 195.915L192.193 203.578L194.49 211.241L188.846 212.933L186.549 205.27ZM192.193 203.578L184.532 205.882L184.352 205.284L192.013 202.98L199.674 200.677L199.854 201.275L192.193 203.578ZM192.013 202.98L191.137 195.029C194.033 194.71 204.994 193.561 213.718 193.568L213.711 201.568L213.705 209.568C205.963 209.562 195.797 210.612 192.889 210.932L192.013 202.98ZM213.711 201.568L213.718 193.568C214.826 193.569 217.937 193.166 223.143 192.172C228.074 191.231 234.251 189.89 241.053 188.312C254.649 185.158 270.515 181.111 283.455 177.565L285.57 185.28L287.684 192.996C274.56 196.592 258.49 200.692 244.669 203.898C237.763 205.5 231.362 206.893 226.143 207.889C221.199 208.832 216.59 209.571 213.705 209.568L213.711 201.568ZM285.57 185.28L283.455 177.565C286.588 176.706 288.51 173.441 287.614 170.114L295.339 168.034L303.064 165.954C306.198 177.593 299.504 189.756 287.684 192.996L285.57 185.28ZM295.339 168.034L287.615 170.114C286.69 166.682 283.164 164.734 279.844 165.716L277.574 158.045L275.304 150.374C287.336 146.813 299.827 153.931 303.064 165.954L295.339 168.034ZM277.574 158.045L279.844 165.716C266.97 169.525 251.494 174.25 238.228 178.613C231.59 180.797 225.562 182.871 220.716 184.681C215.686 186.56 212.45 187.967 211.032 188.79L207.015 181.872L202.998 174.954C205.737 173.363 210.171 171.54 215.116 169.693C220.244 167.778 226.494 165.629 233.229 163.414C246.707 158.981 262.353 154.206 275.304 150.374L277.574 158.045ZM207.015 181.872L211.032 188.79C201.661 194.232 194.639 197.409 191.336 198.678L188.466 191.211L185.596 183.743C187.949 182.839 194.199 180.063 202.998 174.954L207.015 181.872ZM188.466 191.211L180.81 193.531L180.712 193.209L188.369 190.889L196.025 188.569L196.123 188.891L188.466 191.211ZM188.369 190.889L190.665 198.552L189.466 198.911L187.169 191.248L184.873 183.585L186.072 183.225L188.369 190.889ZM187.169 191.248L181.83 197.205C182.607 197.902 183.759 198.181 184.845 197.785L182.107 190.269L179.369 182.752C184.051 181.046 189.066 182.205 192.509 185.291L187.169 191.248ZM182.107 190.269L184.637 197.858L184.634 197.859L182.104 190.27L179.574 182.68L179.577 182.679L182.107 190.269ZM182.104 190.27L174.591 193.019L163.931 163.887L171.444 161.138L178.957 158.389L189.617 187.52L182.104 190.27ZM171.444 161.138L163.931 163.887C163.306 162.18 161.847 161.003 160.141 160.679L161.635 152.819L163.129 144.96C170.131 146.291 176.316 151.173 178.957 158.388L171.444 161.138ZM161.635 152.819V144.819H164.96V152.819V160.819H161.635V152.819ZM164.96 152.819V144.819C177.663 144.819 187.96 134.522 187.96 121.819L195.96 121.819L203.96 121.819C203.96 143.358 186.5 160.819 164.96 160.819V152.819ZM195.96 121.819H187.96V81H195.96H203.96V121.819H195.96ZM195.96 81H187.96C187.96 80.8085 187.958 80.6178 187.954 80.4281L195.952 80.2422L203.95 80.0563C203.957 80.3703 203.96 80.6849 203.96 81H195.96ZM195.952 80.2422L187.958 79.9349C187.959 79.9067 187.959 79.8878 187.96 79.8714C187.961 79.8557 187.961 79.8471 187.961 79.8431C187.961 79.8393 187.961 79.8421 187.961 79.8499C187.961 79.8578 187.96 79.872 187.96 79.8914L195.96 79.8916L203.96 79.8918C203.96 80.184 203.95 80.4462 203.946 80.5495L195.952 80.2422ZM195.96 79.8916H187.96C187.96 79.6034 187.939 79.326 187.898 79.0602L195.806 77.8516L203.714 76.6429C203.877 77.7073 203.96 78.7928 203.96 79.8916H195.96ZM195.806 77.8516L187.844 78.6292C186.659 66.4908 176.413 57 163.96 57V49V41C184.729 41 201.79 56.8218 203.768 77.074L195.806 77.8516ZM163.96 49V57H95.7671V49V41H163.96V49Z" fill="white" mask="url(#path-39-outside-1_42_350)"/>
</svg>
