<svg width="320" height="260" viewBox="0 0 320 260" fill="none" xmlns="http://www.w3.org/2000/svg">
    <path d="M143.099 156.47C146.23 150.009 154.006 147.31 160.467 150.441L188.364 163.959L188.482 163.731C189.755 161.412 192.637 160.474 195.044 161.64C197.529 162.845 198.567 165.835 197.363 168.32L197.305 168.44C203.483 172.52 205.838 180.643 202.521 187.488C198.908 194.943 189.936 198.058 182.481 194.445L137.486 172.641C136.492 172.159 136.076 170.963 136.558 169.969L143.099 156.47Z" fill="#F0997D"/>
    <path d="M193.248 160.913L203.817 166.799C203.817 166.799 211.97 156.802 218.886 150.11C224.616 144.566 245.359 111.717 259.083 88.4691C263.021 81.7969 260.747 73.2562 254.097 69.2794C247.233 65.1739 238.339 67.484 234.413 74.4531C221.209 97.8926 202.992 131.366 200.387 140.613C197.259 151.718 194.324 158.773 193.248 160.913Z" fill="#B1854A"/>
    <rect width="13.248" height="34.289" rx="2" transform="matrix(-0.873071 -0.487594 -0.487594 0.873071 204.853 166.51)" fill="#4F331D"/>
    <rect width="17.9238" height="7.79295" rx="3.89647" transform="matrix(-0.873071 -0.487594 -0.487594 0.873071 190.555 196.906)" fill="#B1854A"/>
    <path d="M185.013 195.672C178.956 192.737 176.425 185.448 179.36 179.391L181.815 174.327C184.75 168.271 192.039 165.74 198.095 168.675C204.152 171.61 206.683 178.899 203.748 184.956L201.294 190.02C198.359 196.077 191.069 198.607 185.013 195.672Z" fill="#FABC95"/>
    <path d="M154.142 196C154.142 194.896 153.246 194 152.142 194H86.1417C85.0372 194 84.1417 194.896 84.1417 196V241C84.1417 242.105 85.0372 243 86.1417 243H113.142C114.246 243 115.142 242.105 115.142 241V212.5C115.142 211.396 116.037 210.5 117.142 210.5H124.142C125.246 210.5 126.142 211.396 126.142 212.5V241C126.142 242.105 127.037 243 128.142 243H152.142C153.246 243 154.142 242.105 154.142 241V196Z" fill="#00549C"/>
    <rect x="84" y="197" width="70" height="6" fill="#1E1E1E"/>
    <rect x="115" y="197" width="14" height="6" fill="#FBCF4E"/>
    <path d="M155.142 149H77.1417V196C77.1417 197.105 78.0372 198 79.1417 198H153.142C154.246 198 155.142 197.105 155.142 196V149Z" fill="#D9D9D9"/>
    <path d="M155.142 157H77.1417V196C77.1417 197.105 78.0372 198 79.1417 198H153.142C154.246 198 155.142 197.105 155.142 196V157Z" fill="white"/>
    <g opacity="0.35">
        <rect x="97" y="157" width="4" height="41" fill="#503CE7"/>
        <rect x="85" y="157" width="4" height="41" fill="#503CE7"/>
        <rect x="97" y="149" width="4" height="8" fill="#4336A5"/>
        <rect x="85" y="149" width="4" height="8" fill="#4336A5"/>
        <rect x="109" y="157" width="4" height="41" fill="#503CE7"/>
        <rect x="109" y="149" width="4" height="8" fill="#4336A5"/>
        <rect x="121" y="157" width="4" height="41" fill="#503CE7"/>
        <rect x="121" y="149" width="4" height="8" fill="#4336A5"/>
        <rect x="145" y="157" width="4" height="41" fill="#503CE7"/>
        <rect x="145" y="149" width="4" height="8" fill="#4336A5"/>
        <rect x="133" y="157" width="4" height="41" fill="#503CE7"/>
        <rect x="133" y="149" width="4" height="8" fill="#4336A5"/>
    </g>
    <path d="M73.1417 149C65.962 149 60.1417 154.821 60.1417 162V201C60.1417 209.285 66.8575 216 75.1417 216C82.7478 216 89.0311 210.339 90.0089 203H90.1417C92.9031 203 95.1417 200.762 95.1417 198C95.1417 195.239 92.9031 193 90.1417 193V162C90.1417 154.821 84.3214 149 77.1417 149H73.1417Z" fill="#FABC95"/>
    <path d="M69.1416 83.8188C64.7233 83.8188 61.1416 87.4006 61.1416 91.8188V103.504C56.4813 105.152 53.1416 109.594 53.1416 114.819C53.1416 120.389 56.9374 125.071 62.083 126.423C65.4736 139.867 77.6447 149.819 92.1416 149.819H158.142C175.262 149.819 189.142 135.94 189.142 118.819V91.8188C189.142 87.4006 185.56 83.8188 181.142 83.8188H69.1416Z" fill="#F0997D"/>
    <path d="M189.142 84.8188C189.142 84.2666 188.694 83.8188 188.142 83.8188H83.1416C82.5893 83.8188 82.1416 84.2666 82.1416 84.8188C82.1416 85.3711 82.5893 85.8188 83.1416 85.8188H85.1416C86.7985 85.8188 88.1416 87.162 88.1416 88.8188V118.819C88.1416 135.94 102.021 149.819 119.142 149.819H158.142C175.262 149.819 189.142 135.94 189.142 118.819V84.8188Z" fill="#FABC95"/>
    <rect width="15" height="15" rx="7.5" transform="matrix(-1 0 0 1 174.142 105.819)" fill="#1E1E1E"/>
    <rect width="17" height="5" rx="2.5" transform="matrix(-1 0 0 1 151.142 123.819)" fill="#F0997D"/>
    <rect width="15" height="15" rx="7.5" transform="matrix(-1 0 0 1 125.142 105.819)" fill="#1E1E1E"/>
    <path d="M189.142 76.8913C189.142 69.4955 183.146 63.5 175.75 63.5H85.1416C69.6776 63.5 57.1416 76.036 57.1416 91.5V117.819C57.1416 122.789 61.171 126.819 66.1416 126.819H78.6416C81.403 126.819 83.6416 124.58 83.6416 121.819V90.8189C83.6416 88.0575 85.8802 85.8189 88.6416 85.8189H109.892C109.892 85.8189 157.864 85.8189 180.236 85.8189C185.166 85.8189 189.142 81.8219 189.142 76.8913Z" fill="#34231C"/>
    <path d="M47.1416 97C35.3175 104.1 26.0001 99.0709 26.0001 99.0709C26.0001 99.0709 27.6242 88.1273 38.7604 82.5429C49.8966 76.9585 61.4814 80.5419 61.4814 80.5419C61.4814 80.5419 58.0468 90.452 47.1416 97Z" fill="#503CE7"/>
    <path d="M72.1416 107.819C72.1416 105.057 69.903 102.819 67.1416 102.819H64.1416C57.5142 102.819 52.1416 108.191 52.1416 114.819C52.1416 121.446 57.5142 126.819 64.1416 126.819H72.1416V107.819Z" fill="#F0997D"/>
    <path d="M38.6416 80C27.7805 71.5 29.1416 61 29.1416 61C29.1416 61 39.9416 58.6 49.1416 67C58.3416 75.4 59.1416 87.5 59.1416 87.5C59.1416 87.5 48.6587 87.8395 38.6416 80Z" fill="#4336A5"/>
    <path d="M57.1416 78V96H189.142V78C189.142 60.3269 174.815 46 157.142 46H89.1416C71.4685 46 57.1416 60.3269 57.1416 78Z" fill="#503CE7"/>
    <circle cx="76" cy="82" r="10" fill="#4336A5"/>
    <circle cx="108" cy="82" r="10" fill="#4336A5"/>
    <circle cx="140" cy="82" r="10" fill="#4336A5"/>
    <circle cx="172" cy="82" r="10" fill="#4336A5"/>
    <mask id="path-38-outside-1_37_2" maskUnits="userSpaceOnUse" x="17.0178" y="38" width="253" height="213" fill="black">
        <rect fill="white" x="17.0178" y="38" width="253" height="213"/>
        <path d="M89.1418 46C71.4687 46 57.1418 60.3269 57.1418 78V79.1299C55.7104 75.2952 53.275 70.7738 49.1418 67C39.967 58.6229 29.2006 60.987 29.1418 61C29.1418 61 27.7807 71.5 38.6418 80C39.3784 80.5764 40.1184 81.1072 40.8557 81.5986C40.1575 81.8796 39.4576 82.1931 38.76 82.543C27.6241 88.1274 26.0002 99.0713 26.0002 99.0713C26.0524 99.0993 35.351 104.08 47.1418 97C51.6647 94.2842 54.9011 90.989 57.1418 88.0635V105.074C54.1145 107.253 52.1418 110.805 52.1418 114.819C52.142 120.766 56.4675 125.701 62.1438 126.652C65.0259 137.72 73.8674 146.381 85.0383 149H73.1418C65.9622 149 60.1419 154.82 60.1418 162V201C60.1418 209.284 66.8576 216 75.1418 216C78.5196 216 81.6346 214.881 84.1418 212.997V241C84.1418 242.105 85.0373 243 86.1418 243H113.142C114.246 243 115.142 242.105 115.142 241V212.5C115.142 211.395 116.037 210.5 117.142 210.5H124.142C125.246 210.5 126.142 211.396 126.142 212.5V241C126.142 242.105 127.037 243 128.142 243H152.142C153.246 243 154.142 242.105 154.142 241V197.729C154.739 197.383 155.142 196.74 155.142 196V181.196L174.056 190.362C173.639 190.678 173.278 191.082 173.007 191.568C171.958 193.447 172.63 195.821 174.509 196.87L183.354 201.81C185.233 202.859 187.606 202.186 188.656 200.308C189.283 199.184 189.295 197.883 188.801 196.795C193.846 197.432 198.953 194.849 201.293 190.02L202.501 187.527C202.508 187.514 202.514 187.501 202.521 187.488C202.529 187.472 202.536 187.456 202.544 187.439L203.747 184.956C205.94 180.432 205.082 175.22 201.984 171.648L203.878 168.256C204.177 167.721 204.203 167.107 204.003 166.575C205.25 165.06 212.581 156.211 218.886 150.11C224.616 144.566 245.359 111.717 259.082 88.4688C263.021 81.7966 260.746 73.256 254.097 69.2793C247.232 65.1741 238.338 67.4841 234.412 74.4531C221.209 97.8925 202.991 131.366 200.387 140.612C197.259 151.717 194.325 158.772 193.248 160.912L193.281 160.93C193.149 160.985 193.024 161.056 192.906 161.14C191.116 161.126 189.39 162.077 188.483 163.731L188.364 163.959L160.467 150.44C159.959 150.194 159.443 149.984 158.922 149.809C158.929 149.808 158.935 149.809 158.942 149.809C175.693 149.384 189.142 135.672 189.142 118.819V78C189.142 77.7542 189.139 77.5091 189.133 77.2646C189.138 77.1409 189.142 77.0166 189.142 76.8916C189.142 76.1981 189.089 75.5166 188.988 74.8516C187.406 58.6564 173.752 46.0001 157.142 46H89.1418Z"/>
    </mask>
    <path d="M57.1418 79.1299H65.1418L49.647 81.9277L57.1418 79.1299ZM49.1418 67L54.536 61.0921L54.536 61.0922L49.1418 67ZM29.1418 61L21.2082 59.9716L21.9305 54.4001L27.4162 53.1883L29.1418 61ZM38.6418 80L33.7114 86.3001L33.7114 86.3L38.6418 80ZM40.8557 81.5986L45.2926 74.9417L57.9164 83.3555L43.8428 89.0201L40.8557 81.5986ZM38.76 82.543L35.1738 75.3918L35.1739 75.3917L38.76 82.543ZM26.0002 99.0713L22.2117 106.117L17.262 103.456L18.0869 97.8971L26.0002 99.0713ZM47.1418 97L51.2601 103.859L51.2601 103.859L47.1418 97ZM57.1418 88.0635L50.7907 83.199L65.1418 64.4618V88.0635H57.1418ZM57.1418 105.074H65.1418V109.173L61.8145 111.568L57.1418 105.074ZM52.1418 114.819L44.1418 114.82V114.819H52.1418ZM62.1438 126.652L63.4661 118.762L68.5791 119.619L69.8856 124.636L62.1438 126.652ZM85.0383 149L86.8645 141.211L85.0383 157V149ZM73.1418 149V141V149ZM60.1418 162H52.1418V162L60.1418 162ZM75.1418 216L75.1419 224H75.1418V216ZM84.1418 212.997L79.3358 206.602L92.1418 196.978V212.997H84.1418ZM113.142 243L113.142 251H113.142V243ZM115.142 212.5H107.142V212.499L115.142 212.5ZM124.142 210.5V202.5H124.142L124.142 210.5ZM126.142 212.5L134.142 212.499V212.5H126.142ZM152.142 243L152.142 251H152.142V243ZM154.142 197.729H146.142V193.12L150.13 190.808L154.142 197.729ZM155.142 181.196H147.142V168.429L158.631 173.997L155.142 181.196ZM174.056 190.362L177.545 183.163L189.3 188.86L178.883 196.742L174.056 190.362ZM173.007 191.568L166.023 187.668L166.023 187.667L173.007 191.568ZM174.509 196.87L170.608 203.855L170.608 203.855L174.509 196.87ZM183.354 201.81L187.254 194.825L187.255 194.825L183.354 201.81ZM188.656 200.308L195.64 204.208L195.64 204.208L188.656 200.308ZM188.801 196.795L181.516 200.101L175.6 187.064L189.804 188.858L188.801 196.795ZM201.293 190.02L194.094 186.531L194.094 186.53L201.293 190.02ZM202.501 187.527L195.302 184.038L195.307 184.028L195.312 184.018L202.501 187.527ZM202.521 187.488L209.72 190.977L209.72 190.977L202.521 187.488ZM202.544 187.439L195.333 183.976L195.339 183.964L195.345 183.951L202.544 187.439ZM203.747 184.956L196.548 181.468L196.548 181.467L203.747 184.956ZM201.984 171.648L195.941 176.892L192.261 172.65L194.999 167.748L201.984 171.648ZM203.878 168.256L210.863 172.156L210.863 172.156L203.878 168.256ZM204.003 166.575L196.516 169.394L194.887 165.066L197.824 161.494L204.003 166.575ZM218.886 150.11L213.323 144.361L213.323 144.361L218.886 150.11ZM259.082 88.4688L265.972 92.5353L265.972 92.5354L259.082 88.4688ZM254.097 69.2793L258.203 62.4134L258.203 62.4135L254.097 69.2793ZM234.412 74.4531L227.442 70.5267V70.5267L234.412 74.4531ZM200.387 140.612L192.687 138.443L192.687 138.443L200.387 140.612ZM193.248 160.912L189.505 167.982L182.58 164.316L186.102 157.316L193.248 160.912ZM193.281 160.93L197.025 153.859L211.945 161.758L196.383 168.304L193.281 160.93ZM192.906 161.14L197.515 167.678L195.415 169.159L192.844 169.139L192.906 161.14ZM188.483 163.731L181.383 160.044L181.425 159.963L181.469 159.883L188.483 163.731ZM188.364 163.959L195.464 167.646L191.878 174.551L184.876 171.158L188.364 163.959ZM160.467 150.44L163.956 143.241L163.956 143.241L160.467 150.44ZM158.922 149.809L156.375 157.392L158.724 141.811L158.922 149.809ZM158.942 149.809L158.739 141.811V141.811L158.942 149.809ZM189.142 118.819H197.142V118.819L189.142 118.819ZM189.133 77.2646L181.135 77.445L181.129 77.1912L181.14 76.9376L189.133 77.2646ZM189.142 76.8916H197.142V76.8918L189.142 76.8916ZM188.988 74.8516L181.079 76.0601L181.047 75.8454L181.025 75.6292L188.988 74.8516ZM157.142 46V38H157.142L157.142 46ZM89.1418 46V54C75.887 54 65.1418 64.7452 65.1418 78H57.1418H49.1418C49.1418 55.9086 67.0504 38 89.1418 38V46ZM57.1418 78H65.1418V79.1299H57.1418H49.1418V78H57.1418ZM57.1418 79.1299L49.647 81.9277C48.5186 78.9049 46.6862 75.5909 43.7476 72.9078L49.1418 67L54.536 61.0922C59.8637 65.9566 62.9021 71.6856 64.6366 76.332L57.1418 79.1299ZM49.1418 67L43.7477 72.9079C37.5894 67.2851 30.2973 68.9376 30.8674 68.8117L29.1418 61L27.4162 53.1883C28.1039 53.0364 42.3446 49.9608 54.536 61.0921L49.1418 67ZM29.1418 61C37.0755 62.0284 37.076 62.0241 37.0766 62.0199C37.0768 62.0185 37.0773 62.0142 37.0776 62.0115C37.0783 62.006 37.079 62.0006 37.0797 61.9954C37.081 61.985 37.0822 61.9751 37.0833 61.9659C37.0855 61.9473 37.0874 61.9309 37.089 61.9168C37.0922 61.8886 37.0941 61.8691 37.0951 61.858C37.0971 61.836 37.0957 61.8472 37.0935 61.8888C37.0891 61.9727 37.082 62.1742 37.0932 62.4722C37.1158 63.0727 37.2114 64.0271 37.5308 65.1848C38.1446 67.4096 39.6396 70.6222 43.5723 73.7L38.6418 80L33.7114 86.3C26.783 80.8778 23.528 74.5904 22.1071 69.4402C21.4091 66.9104 21.1661 64.7085 21.1046 63.0747C21.0737 62.2555 21.0881 61.5703 21.1157 61.0468C21.1295 60.7847 21.1467 60.5619 21.1633 60.382C21.1717 60.2919 21.1799 60.2124 21.1875 60.144C21.1913 60.1097 21.195 60.0782 21.1985 60.0494C21.2002 60.0351 21.2019 60.0214 21.2035 60.0084C21.2043 60.0019 21.2051 59.9956 21.2059 59.9895C21.2063 59.9864 21.2069 59.9819 21.2071 59.9804C21.2077 59.976 21.2082 59.9716 29.1418 61ZM38.6418 80L43.5723 73.6999C44.1377 74.1424 44.712 74.5548 45.2926 74.9417L40.8557 81.5986L36.4189 88.2555C35.5249 87.6597 34.6191 87.0104 33.7114 86.3001L38.6418 80ZM40.8557 81.5986L43.8428 89.0201C43.3385 89.223 42.8389 89.447 42.3461 89.6942L38.76 82.543L35.1739 75.3917C36.0763 74.9392 36.9766 74.5363 37.8686 74.1772L40.8557 81.5986ZM38.76 82.543L42.3462 89.6941C38.6095 91.568 36.5042 94.2958 35.2915 96.612C34.6789 97.7822 34.3112 98.8204 34.1051 99.5239C34.0031 99.8719 33.9441 100.126 33.9158 100.259C33.9017 100.325 33.8956 100.359 33.8957 100.359C33.8958 100.358 33.8974 100.349 33.9005 100.33C33.902 100.321 33.9039 100.309 33.9061 100.295C33.9072 100.288 33.9083 100.28 33.9096 100.272C33.9102 100.268 33.9109 100.264 33.9115 100.259C33.9119 100.257 33.9124 100.254 33.9126 100.253C33.9131 100.249 33.9136 100.246 26.0002 99.0713C18.0869 97.8971 18.0874 97.8935 18.088 97.8898C18.0882 97.8885 18.0887 97.8848 18.0891 97.8823C18.0899 97.8772 18.0907 97.8719 18.0915 97.8664C18.0931 97.8555 18.0949 97.8439 18.0969 97.8316C18.1007 97.8069 18.1051 97.7794 18.11 97.7492C18.1199 97.6888 18.132 97.6174 18.1467 97.5355C18.1761 97.3717 18.2157 97.1656 18.2678 96.9213C18.3718 96.4336 18.5266 95.7894 18.7508 95.0243C19.1972 93.5012 19.9315 91.4545 21.1168 89.1906C23.5 84.6387 27.7746 79.1024 35.1738 75.3918L38.76 82.543ZM26.0002 99.0713L29.7888 92.0252C28.7739 91.4795 34.769 95.0979 43.0236 90.1414L47.1418 97L51.2601 103.859C35.933 113.062 23.3309 106.719 22.2117 106.117L26.0002 99.0713ZM47.1418 97L43.0236 90.1414C46.5321 88.0347 49.0449 85.4783 50.7907 83.199L57.1418 88.0635L63.493 92.9279C60.7573 96.4997 56.7973 100.534 51.2601 103.859L47.1418 97ZM57.1418 88.0635H65.1418V105.074H57.1418H49.1418V88.0635H57.1418ZM57.1418 105.074L61.8145 111.568C60.7837 112.31 60.1418 113.491 60.1418 114.819H52.1418H44.1418C44.1418 108.119 47.4453 102.196 52.4692 98.5807L57.1418 105.074ZM52.1418 114.819L60.1418 114.819C60.1419 116.793 61.5793 118.446 63.4661 118.762L62.1438 126.652L60.8215 134.542C51.3557 132.956 44.1422 124.739 44.1418 114.82L52.1418 114.819ZM62.1438 126.652L69.8856 124.636C72.0215 132.839 78.5913 139.271 86.8645 141.211L85.0383 149L83.2121 156.789C69.1434 153.49 58.0302 142.601 54.402 128.668L62.1438 126.652ZM85.0383 149V157H73.1418V149V141H85.0383V149ZM73.1418 149V157C70.3806 157 68.1419 159.239 68.1418 162L60.1418 162L52.1418 162C52.142 150.402 61.5438 141 73.1418 141V149ZM60.1418 162H68.1418V201H60.1418H52.1418V162H60.1418ZM60.1418 201H68.1418C68.1418 204.866 71.2758 208 75.1418 208V216V224C62.4393 224 52.1418 213.703 52.1418 201H60.1418ZM75.1418 216L75.1418 208C76.7224 208 78.1627 207.483 79.3358 206.602L84.1418 212.997L88.9478 219.393C85.1066 222.279 80.3169 224 75.1419 224L75.1418 216ZM84.1418 212.997H92.1418V241H84.1418H76.1418V212.997H84.1418ZM84.1418 241H92.1418C92.1418 237.686 89.4556 235 86.1418 235V243V251C80.619 251 76.1418 246.523 76.1418 241H84.1418ZM86.1418 243V235H113.142V243V251H86.1418V243ZM113.142 243L113.141 235C109.828 235 107.142 237.686 107.142 241H115.142H123.142C123.142 246.523 118.664 251 113.142 251L113.142 243ZM115.142 241H107.142V212.5H115.142H123.142V241H115.142ZM115.142 212.5L107.142 212.499C107.142 206.978 111.618 202.5 117.142 202.5V210.5V218.5C120.456 218.5 123.142 215.813 123.142 212.501L115.142 212.5ZM117.142 210.5V202.5H124.142V210.5V218.5H117.142V210.5ZM124.142 210.5L124.142 202.5C129.665 202.5 134.141 206.977 134.142 212.499L126.142 212.5L118.142 212.501C118.142 215.814 120.828 218.5 124.141 218.5L124.142 210.5ZM126.142 212.5H134.142V241H126.142H118.142V212.5H126.142ZM126.142 241H134.142C134.142 237.686 131.456 235 128.142 235V243V251C122.619 251 118.142 246.523 118.142 241H126.142ZM128.142 243V235H152.142V243V251H128.142V243ZM152.142 243L152.141 235C148.828 235 146.142 237.686 146.142 241H154.142H162.142C162.142 246.523 157.664 251 152.142 251L152.142 243ZM154.142 241H146.142V197.729H154.142H162.142V241H154.142ZM154.142 197.729L150.13 190.808C148.378 191.823 147.142 193.751 147.142 196H155.142H163.142C163.142 199.729 161.099 202.944 158.153 204.651L154.142 197.729ZM155.142 196H147.142V181.196H155.142H163.142V196H155.142ZM155.142 181.196L158.631 173.997L177.545 183.163L174.056 190.362L170.567 197.561L151.653 188.395L155.142 181.196ZM174.056 190.362L178.883 196.742C179.326 196.406 179.709 195.974 179.991 195.47L173.007 191.568L166.023 187.667C166.848 186.191 167.951 184.949 169.229 183.983L174.056 190.362ZM173.007 191.568L179.992 195.469C181.097 193.491 180.389 190.991 178.41 189.886L174.509 196.87L170.608 203.855C164.872 200.651 162.819 193.404 166.023 187.668L173.007 191.568ZM174.509 196.87L178.41 189.885L187.254 194.825L183.354 201.81L179.453 208.794L170.608 203.855L174.509 196.87ZM183.354 201.81L187.255 194.825C185.276 193.72 182.776 194.428 181.671 196.407L188.656 200.308L195.64 204.208C192.436 209.945 185.189 211.998 179.453 208.794L183.354 201.81ZM188.656 200.308L181.671 196.407C181.008 197.594 181.005 198.974 181.516 200.101L188.801 196.795L196.086 193.489C197.585 196.793 197.558 200.774 195.64 204.208L188.656 200.308ZM188.801 196.795L189.804 188.858C191.551 189.079 193.297 188.175 194.094 186.531L201.293 190.02L208.492 193.508C204.609 201.522 196.141 205.786 187.798 204.732L188.801 196.795ZM201.293 190.02L194.094 186.53L195.302 184.038L202.501 187.527L209.7 191.017L208.492 193.509L201.293 190.02ZM202.501 187.527L195.312 184.018C195.322 183.998 195.331 183.979 195.339 183.964C195.346 183.949 195.353 183.935 195.358 183.925C195.363 183.915 195.368 183.906 195.37 183.901C195.372 183.898 195.373 183.896 195.374 183.894C195.374 183.893 195.375 183.892 195.375 183.892C195.375 183.891 195.375 183.891 195.375 183.891C195.376 183.89 195.375 183.892 195.373 183.896C195.371 183.9 195.367 183.907 195.363 183.916C195.358 183.925 195.353 183.936 195.346 183.95C195.339 183.964 195.331 183.981 195.322 183.999L202.521 187.488L209.72 190.977C209.699 191.021 209.681 191.057 209.669 191.08C209.658 191.103 209.648 191.122 209.647 191.125C209.645 191.128 209.646 191.126 209.647 191.125C209.648 191.123 209.65 191.117 209.654 191.11C209.661 191.096 209.674 191.07 209.69 191.037L202.501 187.527ZM202.521 187.488L195.322 184C195.319 184.005 195.317 184.008 195.317 184.01C195.316 184.011 195.316 184.011 195.317 184.009C195.317 184.008 195.318 184.007 195.319 184.005C195.32 184.003 195.321 184 195.322 183.998C195.325 183.993 195.329 183.985 195.333 183.976L202.544 187.439L209.756 190.903C209.756 190.902 209.756 190.902 209.754 190.905C209.754 190.906 209.75 190.915 209.748 190.919C209.743 190.93 209.732 190.952 209.72 190.977L202.521 187.488ZM202.544 187.439L195.345 183.951L196.548 181.468L203.747 184.956L210.947 188.444L209.744 190.927L202.544 187.439ZM203.747 184.956L196.548 181.467C197.296 179.924 197.017 178.132 195.941 176.892L201.984 171.648L208.026 166.405C213.148 172.308 214.584 180.939 210.947 188.445L203.747 184.956ZM201.984 171.648L194.999 167.748L196.893 164.355L203.878 168.256L210.863 172.156L208.968 175.549L201.984 171.648ZM203.878 168.256L196.893 164.356C195.995 165.965 195.923 167.818 196.516 169.394L204.003 166.575L211.49 163.757C212.484 166.397 212.359 169.476 210.863 172.156L203.878 168.256ZM204.003 166.575L197.824 161.494C199.059 159.993 206.652 150.817 213.323 144.361L218.886 150.11L224.449 155.859C218.511 161.606 211.441 170.126 210.182 171.657L204.003 166.575ZM218.886 150.11L213.323 144.361C214.116 143.594 216.065 141.144 219.107 136.812C221.988 132.709 225.483 127.454 229.264 121.593C236.818 109.878 245.38 95.9443 252.193 84.4021L259.082 88.4688L265.972 92.5354C259.062 104.241 250.39 118.356 242.71 130.264C238.872 136.214 235.25 141.664 232.201 146.006C229.313 150.119 226.521 153.855 224.449 155.859L218.886 150.11ZM259.082 88.4688L252.193 84.4022C253.843 81.6067 252.951 77.9157 249.991 76.1451L254.097 69.2793L258.203 62.4135C268.541 68.5963 272.198 81.9864 265.972 92.5353L259.082 88.4688ZM254.097 69.2793L249.991 76.1452C246.945 74.3235 243.075 75.3747 241.383 78.3795L234.412 74.4531L227.442 70.5267C233.601 59.5936 247.52 56.0246 258.203 62.4134L254.097 69.2793ZM234.412 74.4531L241.383 78.3795C234.8 90.064 226.988 104.215 220.51 116.57C217.268 122.752 214.389 128.431 212.173 133.101C209.873 137.946 208.531 141.205 208.087 142.781L200.387 140.612L192.687 138.443C193.545 135.397 195.457 131.004 197.718 126.24C200.063 121.3 203.051 115.412 206.34 109.14C212.922 96.5868 220.82 82.2816 227.442 70.5267L234.412 74.4531ZM200.387 140.612L208.087 142.781C204.877 154.181 201.778 161.758 200.395 164.508L193.248 160.912L186.102 157.316C186.872 155.786 189.642 149.253 192.687 138.443L200.387 140.612ZM193.248 160.912L196.991 153.842L197.025 153.859L193.281 160.93L189.538 168L189.505 167.982L193.248 160.912ZM193.281 160.93L196.383 168.304C196.826 168.118 197.203 167.898 197.515 167.678L192.906 161.14L188.296 154.601C188.845 154.214 189.473 153.853 190.18 153.555L193.281 160.93ZM192.906 161.14L192.844 169.139C193.898 169.147 194.941 168.591 195.496 167.58L188.483 163.731L181.469 159.883C183.839 155.563 188.335 153.105 192.967 153.14L192.906 161.14ZM188.483 163.731L195.582 167.418L195.464 167.646L188.364 163.959L181.265 160.272L181.383 160.044L188.483 163.731ZM188.364 163.959L184.876 171.158L156.978 157.64L160.467 150.44L163.956 143.241L191.853 156.76L188.364 163.959ZM160.467 150.44L156.978 157.64C156.771 157.539 156.57 157.458 156.375 157.392L158.922 149.809L161.469 142.225C162.317 142.51 163.147 142.849 163.956 143.241L160.467 150.44ZM158.922 149.809L158.724 141.811C158.775 141.81 158.82 141.809 158.858 141.809C158.895 141.809 158.928 141.809 158.953 141.809C158.978 141.809 158.999 141.809 159.011 141.809C159.018 141.809 159.023 141.809 159.026 141.809C159.028 141.809 159.029 141.809 159.03 141.809C159.031 141.809 159.032 141.809 159.032 141.809C159.033 141.809 159.031 141.809 159.028 141.809C159.025 141.809 159.021 141.809 159.015 141.809C159.004 141.809 158.984 141.809 158.961 141.809C158.936 141.809 158.905 141.809 158.869 141.809C158.832 141.809 158.788 141.81 158.739 141.811L158.942 149.809L159.144 157.806C159.093 157.807 159.048 157.808 159.01 157.808C158.972 157.809 158.939 157.809 158.913 157.809C158.887 157.809 158.867 157.808 158.854 157.808C158.847 157.808 158.842 157.808 158.838 157.808C158.835 157.808 158.832 157.808 158.832 157.808C158.831 157.808 158.833 157.808 158.835 157.808C158.838 157.808 158.842 157.808 158.848 157.808C158.859 157.808 158.877 157.808 158.901 157.809C158.924 157.809 158.955 157.809 158.991 157.808C159.028 157.808 159.071 157.807 159.12 157.806L158.922 149.809ZM158.942 149.809L158.739 141.811C171.163 141.496 181.142 131.322 181.142 118.819L189.142 118.819L197.142 118.819C197.142 140.023 180.222 157.272 159.144 157.806L158.942 149.809ZM189.142 118.819H181.142V78H189.142H197.142V118.819H189.142ZM189.142 78H181.142C181.142 77.8249 181.14 77.6409 181.135 77.445L189.133 77.2646L197.131 77.0843C197.138 77.3773 197.142 77.6836 197.142 78H189.142ZM189.133 77.2646L181.14 76.9376C181.141 76.9041 181.142 76.886 181.142 76.8774C181.142 76.8692 181.142 76.875 181.142 76.8914L189.142 76.8916L197.142 76.8918C197.142 77.1701 197.134 77.4148 197.126 77.5917L189.133 77.2646ZM189.142 76.8916H181.142C181.142 76.6035 181.12 76.326 181.079 76.0601L188.988 74.8516L196.896 73.643C197.058 74.7073 197.142 75.7928 197.142 76.8916H189.142ZM188.988 74.8516L181.025 75.6292C179.84 63.4909 169.595 54.0001 157.142 54L157.142 46L157.142 38C177.91 38.0002 194.972 53.8218 196.95 74.074L188.988 74.8516ZM157.142 46V54H89.1418V46V38H157.142V46Z" fill="white" mask="url(#path-38-outside-1_37_2)"/>
</svg>
